<svg version="1.1" id="Layer_1" xmlns="http://www.w3.org/2000/svg" xmlns:xlink="http://www.w3.org/1999/xlink" x="0" y="0" viewBox="0 0 242.8 68" xml:space="preserve"><style>.st1{clip-path:url(#SVGID_4_)}.st3{clip-path:url(#SVGID_8_)}</style><defs><path id="SVGID_1_" d="M0 0h242.8v68H0z"/></defs><clipPath id="SVGID_2_"><use xlink:href="#SVGID_1_" overflow="visible"/></clipPath><g clip-path="url(#SVGID_2_)"><defs><path id="SVGID_3_" d="M0 0h242.8v68H0z"/></defs><clipPath id="SVGID_4_"><use xlink:href="#SVGID_3_" overflow="visible"/></clipPath><g class="st1"><defs><path id="SVGID_5_" d="M1.8 1.8h59.4v64.4H1.8z"/></defs><clipPath id="SVGID_6_"><use xlink:href="#SVGID_5_" overflow="visible"/></clipPath><g clip-path="url(#SVGID_6_)"><defs><path id="SVGID_7_" d="M2.8 2.8h57.4v62.4H2.8z"/></defs><clipPath id="SVGID_8_"><use xlink:href="#SVGID_7_" overflow="visible"/></clipPath><path class="st3" d="M60.2 33.5v2.4l-.3 3.3c-.3 1.7-.6 3.4-1.2 5-.5 1.5-1 2.9-1.7 4.3-.6 1.3-1.4 2.6-2.2 3.8-.9 1.4-2 2.7-3.2 4-1.5 1.6-3.2 3-5 4.3-2 1.3-4.1 2.4-6.4 3.2-1.4.5-2.9.9-4.4 1.1l-2.4.3c-.8.1-1.7.1-2.5.1s-1.5-.1-2.3-.2c-1.7-.2-3.4-.5-5.1-1.1-1.3-.4-2.5-.9-3.7-1.5-2.3-1.1-4.4-2.5-6.4-4.2-1.9-1.7-3.6-3.6-5-5.6-.8-1.2-1.6-2.5-2.2-3.8-.6-1.3-1.2-2.6-1.6-3.9-.5-1.6-1-3.2-1.2-4.8-.1-.8-.3-1.6-.3-2.4-.1-.8-.2-1.5-.2-2.3V33v-1.2c0-.6.1-1.3.2-1.9.1-.6.2-1.3.3-1.9.1-1 .4-2 .7-3.1.5-1.9 1.2-3.7 2-5.4 1.4-2.8 3.1-5.3 5.2-7.6 1.6-1.7 3.3-3.2 5.3-4.5 2-1.3 4.1-2.4 6.3-3.1 1.3-.5 2.7-.8 4.1-1.1l2.4-.3c1.1-.1 2.3-.1 3.4-.1.9 0 1.7.1 2.6.2 1.5.2 3.1.6 4.5 1.1 1.1.5 2.3.9 3.4 1.4 1.1.6 2.2 1.2 3.3 1.9 1.4.9 2.7 1.9 3.9 3.1 2.4 2.3 4.5 5 6 8 1.2 2.3 2.1 4.6 2.8 7.1.3 1.3.6 2.6.8 3.9.1.8.2 1.6.2 2.4 0 .4 0 .8.1 1.2-.2.1-.2.2-.2.4m-.3.4V33c0-.8-.1-1.5-.1-2.3l-.3-2.4c-.2-1.3-.5-2.5-.9-3.7-.8-2.6-1.9-5.1-3.3-7.5-1.5-2.4-3.2-4.6-5.3-6.5-2.1-1.9-4.4-3.6-7-4.8-1.1-.6-2.3-1-3.5-1.4-1.7-.5-3.4-.9-5.2-1.1-.9-.1-1.7-.1-2.6-.1H30c-.8 0-1.6.1-2.4.3-1.1.2-2.2.4-3.2.7-2.7.8-5.2 1.9-7.5 3.5-1.7 1.1-3.3 2.4-4.7 3.9-.8.8-1.5 1.6-2.2 2.5-1.6 2-2.9 4.3-4 6.6-.8 1.8-1.4 3.7-1.9 5.6-.3 1-.5 2.1-.6 3.2-.1.6-.1 1.3-.2 1.9-.1.9-.1 1.7-.1 2.6v2c0 .9.1 1.9.3 2.8l.6 3.3c.6 2.5 1.5 4.9 2.7 7.1 1.7 3.2 3.8 6 6.5 8.5 1.9 1.8 4.1 3.2 6.4 4.4 1.6.8 3.3 1.5 5.1 1.9.9.2 1.8.4 2.8.6.5.1 1 .1 1.5.2.6.1 1.2.1 1.7.1h1.7c.6 0 1.2-.1 1.8-.1.9-.1 1.9-.2 2.8-.4 2.4-.5 4.7-1.3 6.9-2.5 2.9-1.5 5.5-3.5 7.7-6 2.1-2.3 3.8-4.8 5.1-7.5 1-2 1.7-4 2.2-6.2.5-1.8.7-3.7.9-5.5-.1-1 0-1.8 0-2.8"/><path class="st3" d="M14.4 57.7c-.5 0-.5-.1-.6-.6-.5-.1-.6-.2-.6-.6h-.1c-.2 0-.5-.2-.5-.5v-.1c-.2 0-.3 0-.4-.2-.1-.1-.1-.3-.1-.4-.1 0-.2-.1-.3-.1-.1 0-.2-.1-.2-.2s0-.2-.1-.3c-.1 0-.3-.1-.4-.2-.1-.1-.1-.3-.1-.4-.4-.1-.5-.2-.5-.7-.2 0-.3-.1-.4-.2-.1-.1-.1-.3-.1-.5-.5-.1-.5-.3-.5-.7-.3 0-.5 0-.5-.1s-.1-.1-.1-.2v-.3s-.1 0-.1-.1c-.3-.1-.4-.3-.3-.6v-.1c-.5-.1-.6-.3-.5-.7-.4-.2-.5-.3-.4-.7-.1-.1-.2-.1-.3-.2-.1-.1-.1-.2-.1-.3v-.3c-.1-.1-.3-.1-.3-.3-.1-.2-.1-.3 0-.5-.4-.2-.5-.4-.4-.8-.1-.1-.2-.1-.3-.2 0-.1-.1-.1-.1-.2v-.3H6c-.3-.2-.3-.3-.3-.6v-.1c-.1-.1-.2-.1-.3-.2-.1-.1-.1-.2-.1-.3 0-.1.1-.2.1-.3-.4-.2-.5-.4-.3-.8-.1-.1-.2-.1-.2-.2-.1-.1-.1-.2-.1-.3 0-.1 0-.2.1-.3-.4-.3-.4-.4-.2-.8-.4-.3-.3-.5-.2-.8 0-.3-.1-.4-.1-.4-.1-.1-.1-.2-.1-.3 0-.1.1-.2.1-.3l-.1-.1c0-.1-.1-.1-.1-.2v-.2c0-.1.1-.1.1-.2l-.1-.1c-.2-.4-.2-.5-.1-.8 0 0 0-.1.1-.1-.3-.3-.3-.5-.1-.8-.1-.1-.1-.2-.2-.2-.1-.1-.1-.2 0-.3 0-.1.1-.2.1-.3-.3-.3-.3-.5-.1-.8-.1-.1-.2-.2-.2-.4s0-.3.2-.4c-.1-.1-.1-.2-.2-.3-.1-.1-.1-.2 0-.3 0-.1.1-.2.2-.3-.3-.3-.3-.5 0-.8-.1-.1-.2-.2-.2-.4s.1-.3.2-.4c-.3-.3-.2-.6 0-.9-.1-.1-.2-.3-.2-.4 0-.2.1-.3.2-.4-.1-.1-.2-.3-.2-.4 0-.2.1-.3.2-.4-.1-.1-.2-.3-.1-.5 0-.2.1-.3.2-.4 0-.1-.1-.2-.1-.3V29c.1-.1.1-.2.2-.3 0-.1-.1-.2-.1-.3v-.3c.1-.1.1-.2.2-.2 0-.1-.1-.2-.1-.3 0-.1 0-.2.1-.3.1-.1.1-.2.2-.3 0-.1-.1-.2-.1-.3 0-.1 0-.2.1-.3.1-.1.1-.2.2-.2-.2-.4-.1-.5.2-.8 0-.1-.1-.3-.1-.5s.2-.3.3-.3v-.2c-.1-.2 0-.4.2-.6 0 0 .1 0 .1-.1-.1-.4-.1-.6.3-.8 0-.1-.1-.2-.1-.3 0-.1 0-.2.1-.3.1-.1.2-.1.2-.2-.1-.5 0-.6.3-.8 0-.1-.1-.3 0-.5s.2-.2.4-.3v-.1c-.1-.3 0-.5.3-.6h.1c-.1-.5 0-.6.4-.8v-.3c0-.1.1-.2.1-.3.1-.1.2-.1.3-.2-.1-.4 0-.6.4-.7v-.3c0-.1.1-.2.2-.3.1-.1.2-.1.3-.1 0-.5.1-.6.5-.7v-.3c0-.1.1-.1.1-.2l.1-.1c.1 0 .2-.1.3-.1v-.1c0-.3.1-.5.4-.6h.1c0-.2 0-.3.1-.5.1-.1.2-.2.4-.2 0-.2 0-.3.1-.5.1-.1.3-.2.4-.2 0-.4.1-.6.5-.6.1-.5.2-.5.6-.6.1-.4.2-.5.6-.6 0-.1 0-.3.2-.4.1-.1.3-.1.4-.2.1-.4.2-.5.6-.6 0-.1.1-.3.2-.4.1-.1.3-.1.4-.1v-.1c.1-.3.2-.4.6-.4h.1c0-.2.1-.3.2-.4.1-.1.3-.1.5-.1.1-.4.3-.5.7-.5 0-.1.1-.2.1-.3h.7c.1-.1.1-.3.2-.4.1-.1.3-.1.5 0 .2-.5.4-.6.8-.5.2-.4.3-.5.7-.4.1-.1.1-.2.2-.3.1-.1.2-.1.3-.1h.3c.1-.1.1-.2.2-.2 0-.1.1-.2.3-.2h.3c.2-.3.3-.4.8-.3.2-.3.4-.4.8-.3.2-.4.4-.4.8-.3.3-.4.4-.4.8-.2.1-.1.2-.3.4-.3s.3 0 .5.1c.1-.1.2-.3.4-.3s.3 0 .5.1c.3-.3.5-.4.8-.2.3-.3.5-.3.8-.1.3-.3.5-.3.8-.1l.1-.1c.2-.2.4-.2.7 0l.1.1c.1-.1.2-.1.3-.2.1-.1.2-.1.3 0 .1 0 .2.1.3.1.2-.2.5-.3.8 0 .3-.2.5-.2.8 0 .1 0 .2-.1.3-.1h.3c.1 0 .2.1.3.2h.1c.2-.2.5-.1.7.1l.1.1c.1-.1.3-.2.4-.2.2 0 .3.1.4.2.1 0 .2-.1.3-.1h.3c-.2-.1-.1-.1 0 0 .1 0 .2-.1.3-.1h.3c.1.1.1.2.2.2.4-.2.5-.2.8.2.1 0 .2-.1.3-.1.1 0 .2 0 .3.1.1.1.2.1.2.2.1-.1.3-.1.4-.1.2 0 .3.2.4.3.2-.1.3-.1.5-.1.2.1.3.2.3.3.5-.1.7 0 .9.3.1 0 .2 0 .3-.1.1 0 .2 0 .3.1.1.1.1.2.2.2.5-.1.6 0 .8.3h.1c.3-.1.5 0 .6.3v.1c.2 0 .3-.1.5 0s.2.2.3.4c.2 0 .3-.1.5 0 .1.1.2.2.3.4h.2c.3 0 .4.1.6.3v.1h.3c.1 0 .2.1.3.2.1.1.1.2.2.3.1 0 .3 0 .5.1.1.1.2.2.2.4.5-.1.6.1.7.5h.1c.3 0 .5.1.5.4v.1c.5 0 .6.1.7.5h.1c.3 0 .5.2.5.4v.1c.1 0 .2 0 .3.1.1 0 .2.1.2.2s.1.2.1.3c.1 0 .2 0 .3.1.1 0 .2.1.2.2s.1.2.1.3c.4.1.5.2.6.6.1 0 .2 0 .3.1.1 0 .2.1.2.2s0 .2.1.3c.5.1.5.3.5.6.1 0 .3.1.4.2.1.1.1.3.1.5.2 0 .3.1.4.2.1.1.1.3.1.4.1 0 .2.1.3.1.1.1.2.1.2.2v.3c.1 0 .2.1.3.1.1.1.2.1.2.2v.3c.1.1.3.1.4.2.1.1.1.3.1.5.4.2.5.3.4.7.1 0 .3.1.4.3.1.1.1.3 0 .5.1.1.2.1.3.2.1.1.1.2.2.3v.3c.4.2.5.4.4.7.1.1.2.1.3.2.1.1.1.2.1.3 0 .1-.1.2-.1.3.1 0 .2.1.3.1.1.1.2.2.2.3v.3c.4.2.4.4.3.8.1.1.3.2.3.3v.4c.1.1.2.1.2.2.1.1.1.2.1.3 0 .1 0 .2-.1.3.4.3.4.5.2.8.1.1.3.2.3.3 0 .2 0 .3-.1.4.1.1.2.1.2.2.1.1.1.2.1.3 0 .1-.1.2-.1.3.3.3.4.4.2.8l.2.2c.1.1.1.2.1.3 0 .1-.1.2-.1.3.3.3.3.5.1.8.1.1.1.2.2.2.1.1.1.2.1.3 0 .1-.1.2-.1.3.3.3.3.5.1.8.3.3.3.5.1.8.1.1.2.3.2.5 0 .1-.1.3-.2.4l.1.1c.2.2.2.4 0 .7 0 0 0 .1-.1.1.1.1.1.2.2.3v.3c0 .1-.1.2-.2.3.2.3.3.5 0 .8.3.4.2.6 0 .8 0 .1.1.2.1.3v.3c0 .1-.1.2-.2.3 0 .1.1.2.1.3v.3c0 .1-.1.2-.2.3.2.4.2.5-.1.8 0 .1.1.2.1.3v.3c-.1.1-.1.2-.2.3v.1c.1.2.1.5-.1.6 0 0-.1 0-.1.1.2.4.2.6-.2.8 0 .1.1.2.1.3 0 .1 0 .2-.1.3-.1.1-.1.2-.2.2.1.1.1.3.1.4 0 .2-.1.3-.3.3.1.2.1.3.1.5s-.2.3-.3.4c.2.4 0 .6-.2.8 0 .1.1.2.1.3 0 .1 0 .2-.1.3-.1.1-.2.1-.2.2s.1.3 0 .4c-.1.2-.2.2-.3.3 0 .2.1.3 0 .5s-.2.2-.3.3c.1.5 0 .6-.3.8 0 .2.1.3 0 .5l-.3.3c0 .2.1.3 0 .5s-.2.2-.4.3c.1.2.1.3 0 .5-.1.1-.2.2-.4.3v.2c0 .3-.1.4-.3.5H55v.2c0 .3-.1.5-.5.5h-.1c.1.2.1.4 0 .5-.1.1-.1.2-.4.3 0 .4-.1.6-.5.7 0 .2 0 .4-.1.5-.1.1-.2.2-.4.2v.3c0 .1-.1.2-.2.3-.1.1-.2.1-.3.1 0 .2 0 .3-.1.5-.1.1-.2.1-.4.2v.1c0 .3-.2.4-.4.5h-.1c0 .1 0 .2-.1.3 0 .1-.1.2-.2.2s-.2.1-.3.1c0 .4-.2.5-.6.6 0 .2 0 .3-.2.4-.1.1-.3.1-.4.2-.1.4-.2.5-.6.6 0 .2-.1.3-.2.4-.1.1-.3.1-.4.1v.1c-.1.2-.2.4-.5.4h-.2c0 .2-.1.3-.2.4-.1.1-.3.1-.4.1 0 .1-.1.2-.1.3-.1.1-.1.2-.2.2h-.3c-.2.5-.4.5-.7.5-.1.1-.1.3-.2.4-.1.1-.3.1-.5.1 0 .2-.1.3-.3.4-.1.1-.3.1-.5 0-.2.4-.3.5-.7.4-.1.1-.1.2-.2.3-.1.1-.2.1-.3.1h-.3c-.2.4-.4.5-.8.4-.1.1-.1.3-.3.3-.2.1-.3 0-.5 0-.1.1-.2.3-.3.4-.2.1-.3 0-.5 0-.1.1-.1.2-.2.3-.1.1-.2.1-.3.1-.1 0-.2 0-.3-.1-.3.4-.5.4-.8.3-.3.4-.5.4-.8.2-.1.1-.2.3-.4.3s-.3 0-.5-.1c-.3.3-.5.4-.8.2l-.2.2c-.1.1-.2.1-.3.1-.1 0-.2-.1-.3-.1-.1.1-.2.2-.4.3-.2 0-.3 0-.5-.1-.1.1-.2.2-.4.3-.2 0-.3 0-.4-.1-.4.3-.5.3-.9.1-.3.3-.5.3-.8 0-.1.1-.2.1-.3.2-.1.1-.2.1-.3 0-.1 0-.2-.1-.3-.2-.3.3-.5.3-.8 0 0 0-.1 0-.1.1-.2.2-.5.1-.7 0l-.1-.1c-.1 0-.2.1-.3.1H29c-.1-.1-.2-.1-.3-.2-.4.2-.6.2-.9-.2.2.4.1.5 0 .5-.1.1-.2 0-.4 0-.1-.1-.2-.1-.3-.2-.1.1-.3.1-.4.1-.2 0-.3-.1-.4-.3-.1 0-.2.1-.3.1-.1 0-.2 0-.3-.1-.1-.1-.2-.1-.2-.2-.1 0-.3.1-.4.1s-.3-.2-.4-.3c-.1 0-.2.1-.3.1-.1 0-.2 0-.3-.1-.1 0-.1-.1-.2-.2-.1 0-.2.1-.3.1-.1 0-.2 0-.3-.1-.1-.1-.1-.2-.2-.2H23c-.3.1-.5 0-.7-.3v-.1c-.1 0-.2.1-.3.1-.1 0-.2 0-.3-.1-.1-.1-.1-.2-.2-.3h-.3c-.1 0-.2 0-.3-.1-.1-.1-.1-.2-.2-.3-.4.1-.6 0-.8-.4-.2 0-.3.1-.5 0s-.2-.2-.3-.4c-.2 0-.3.1-.5 0-.1-.1-.2-.2-.3-.4-.5.1-.6-.1-.7-.4h-.1c-.3 0-.4-.1-.5-.4v-.1h-.1c-.3 0-.5-.1-.5-.4v-.1c-.2 0-.3 0-.5-.1-.1-.1-.2-.2-.2-.4-.5 0-.6-.1-.7-.5-.4.1-.5 0-.6-.4M4.9 39.4c.3.3.3.4.1.8.1.1.2.2.3.4 0 .2 0 .3-.1.4l.2.2c.1.1.1.2.1.3 0 .1-.1.2-.1.3l.3.3c0 .2 0 .3-.1.4.1.1.3.2.3.3 0 .2 0 .3-.1.4.4.3.4.5.2.9.2 0 .3.1.4.3.1.2 0 .3 0 .5.4.2.4.3.3.8h.1c.3.1.3.3.3.6v.1c.4.2.4.3.3.7.2.2.3.2.3.3.1.2 0 .3 0 .5.2.1.3.1.4.3.1.1 0 .3 0 .5.2 0 .3.1.4.3.1.1 0 .3 0 .5.2 0 .3.1.4.3s.1.3 0 .4c.1.1.2.1.3.2.1.1.1.2.2.3v.3c.4.1.5.3.5.7h.1c.3.1.4.2.4.5v.1c.1 0 .2 0 .2.1.1 0 .1.1.2.2 0 .1.1.1.1.2v.2c.4.1.5.2.5.7h.1c.3.1.4.2.4.5v.1h.1c.3.1.4.2.4.5v.1h.1c.3.1.4.2.4.5v.1c.1 0 .2 0 .3.1.1 0 .2.1.2.2s.1.2.1.3c.1 0 .2 0 .3.1.1 0 .2.1.2.2s.1.2.1.3c.1 0 .2 0 .3.1.1 0 .2.1.2.2s.1.2.1.3c.4 0 .5.1.6.5.4 0 .5.1.7.5h.3c.1 0 .2.1.2.2s.1.2.1.3h.3c.1 0 .2.1.3.2 0 .1.1.2.1.3h.3c.1 0 .2.1.3.2.1.1.1.2.1.3.4 0 .5 0 .7.4h.4c.2.1.2.2.3.4h.3c.1 0 .2.1.3.2.1.1.1.2.2.2.2 0 .3-.1.5 0l.3.3h.3c.1 0 .2.1.3.1.1.1.1.2.2.2.1-.1.3-.1.4 0l.3.3c.2-.1.3-.1.5 0s.2.2.3.3c.3-.2.6-.1.8.3.4-.1.5-.1.8.2.1 0 .2-.1.3-.1.1 0 .2 0 .3.1l.2.2c.4-.2.5-.1.8.2.4-.2.6-.1.8.2.4-.2.6-.2.9.2.1-.1.2-.1.3-.2h.3c.1.1.2.1.3.2.3-.2.5-.2.8.1.4-.2.5-.2.8 0l.1-.1c.1 0 .1-.1.2-.1h.2c.1 0 .1 0 .2.1l.1.1c.1-.1.2-.2.4-.2s.3.1.4.2c.1-.1.2-.1.3-.2h.3c.1 0 .2.1.3.1.3-.3.5-.3.8-.1.1-.1.2-.1.3-.2.1-.1.2-.1.3 0 .1 0 .2.1.3.1.3-.3.4-.3.8-.1.2-.3.4-.3.8-.2.1-.1.2-.1.2-.2.1-.1.2-.1.3-.1.1 0 .2.1.3.1.1-.1.2-.2.4-.3.2 0 .3 0 .4.1.1-.1.1-.2.2-.2.1-.1.2-.1.3-.1.1 0 .2 0 .3.1l.3-.3c.2 0 .3 0 .5.1.1-.2.2-.3.3-.3h.4c.2-.4.3-.4.8-.3.2-.3.3-.4.8-.3.2-.4.3-.4.7-.4.2-.3.3-.4.7-.4.2-.4.3-.4.7-.4.2-.4.3-.4.7-.4.1-.1.1-.2.2-.3.1-.1.2-.1.3-.1h.3c0-.2.1-.3.2-.4.1-.1.3-.1.4-.1 0-.2.1-.3.2-.4.1-.1.3-.1.4-.1 0-.1.1-.2.1-.3.1-.1.1-.2.2-.2h.3c0-.1.1-.2.1-.3 0-.1.1-.2.2-.2s.2 0 .3-.1c.1-.4.2-.5.6-.5 0-.1.1-.3.2-.4.1-.1.3-.1.4-.2V56c0-.3.2-.4.5-.5h.1c0-.1 0-.2.1-.3 0-.1.1-.2.2-.2s.2-.1.3-.1v-.1c0-.3.1-.4.4-.5h.1c0-.4.1-.5.5-.6 0-.1 0-.3.1-.4.1-.1.3-.2.4-.2v-.3c0-.1.1-.2.2-.2s.2-.1.3-.1c0-.2 0-.3.1-.4.1-.1.2-.2.4-.2 0-.4.1-.5.5-.7 0-.4.1-.6.5-.7-.1-.2-.1-.3 0-.5s.2-.2.4-.3c-.1-.4.1-.6.4-.7v-.5l.3-.3v-.3c0-.1.1-.2.1-.3.1-.1.2-.1.2-.2v-.3c0-.1 0-.2.1-.3.1-.1.2-.1.2-.2-.1-.4 0-.5.3-.8-.1-.4 0-.6.3-.8-.1-.3-.1-.6.3-.8-.1-.4-.1-.6.3-.8v-.1c-.1-.3 0-.5.2-.6 0 0 .1 0 .1-.1-.1-.1-.1-.3-.1-.4 0-.2.2-.2.3-.3 0-.1-.1-.2-.1-.3 0-.1 0-.2.1-.3l.2-.2c-.1-.3-.2-.5.2-.8-.1-.1-.1-.3-.1-.4 0-.2.2-.3.3-.4 0-.1-.1-.2-.1-.2v-.2c0-.1.1-.1.1-.2s.1-.1.1-.1c0-.1-.1-.2-.1-.3v-.3c.1-.1.1-.2.2-.2-.1-.1-.2-.3-.1-.4 0-.2.1-.3.2-.4-.2-.3-.2-.6.1-.8 0-.1-.1-.2-.1-.3v-.3c0-.1.1-.2.2-.3-.1-.1-.2-.2-.2-.4s.1-.3.2-.4c-.2-.3-.2-.5 0-.8-.2-.3-.3-.5 0-.8-.1-.1-.2-.2-.2-.4s.1-.3.2-.4c-.3-.3-.3-.4-.1-.8-.3-.3-.3-.5-.1-.8-.3-.3-.3-.5-.1-.8-.1-.1-.1-.2-.2-.3-.1-.1-.1-.2 0-.3 0-.1.1-.2.1-.3-.1-.1-.2-.2-.3-.4 0-.2.1-.3.1-.4-.1-.1-.2-.2-.3-.4 0-.2 0-.3.1-.4-.1-.1-.2-.2-.3-.4s0-.3.1-.4c-.3-.3-.4-.4-.2-.8-.3-.2-.4-.4-.2-.8-.1-.1-.2-.1-.2-.2-.1-.1-.1-.2-.1-.3 0-.1 0-.2.1-.3-.1-.1-.2-.1-.2-.2-.1-.1-.1-.2-.1-.3 0-.1 0-.2.1-.3-.1-.1-.3-.2-.3-.3-.1-.2 0-.3 0-.4-.4-.2-.4-.3-.3-.8-.3-.2-.5-.4-.3-.8-.3-.1-.3-.2-.4-.3-.1-.2-.1-.3 0-.5-.2-.1-.3-.1-.4-.3-.1-.1 0-.3 0-.4-.4-.1-.5-.4-.4-.7-.4-.2-.4-.2-.4-.7-.4-.2-.4-.3-.4-.7-.4-.2-.4-.2-.5-.7h-.1c-.3-.1-.4-.2-.4-.5v-.1c-.4-.1-.5-.2-.5-.6-.4-.1-.5-.2-.5-.7-.4-.1-.5-.3-.5-.6-.2 0-.3-.1-.4-.2-.1-.1-.1-.3-.1-.4-.2 0-.3-.1-.4-.2-.1-.1-.1-.3-.1-.4-.4-.1-.5-.1-.6-.6-.2 0-.3 0-.4-.1-.1-.1-.1-.3-.2-.4-.1 0-.2 0-.3-.1-.1 0-.2-.1-.2-.2s-.1-.2-.1-.3c-.1 0-.2 0-.3-.1-.1 0-.2-.1-.2-.2s-.1-.2-.1-.3h-.3c-.1 0-.2-.1-.2-.2s-.1-.2-.1-.3c-.2 0-.3 0-.4-.1-.1-.1-.2-.2-.2-.4-.4 0-.5-.1-.7-.5h-.3c-.1 0-.2-.1-.2-.2-.1-.1-.1-.2-.1-.3h-.1c-.3 0-.5-.1-.6-.3v-.1h-.5l-.3-.3h-.3c-.1 0-.2-.1-.3-.2-.1-.1-.1-.2-.1-.2h-.3c-.1 0-.2-.1-.3-.1-.1-.1-.1-.2-.2-.2-.2 0-.3.1-.5 0l-.3-.3c-.4.1-.5 0-.8-.3-.4-.4-.4-.5-.7-.8-.3.1-.5.1-.8-.3h-.1c-.3.1-.5 0-.6-.2 0 0 0-.1-.1-.1s-.2.1-.3.1c-.1 0-.2 0-.3-.1l-.2-.2c-.1.1-.3.1-.4.1-.2 0-.3-.2-.3-.3h-.1c-.3.1-.5.1-.7-.1l-.1-.1c-.3.2-.5.2-.8-.1-.1 0-.2.1-.3.1h-.3c-.1 0-.2-.1-.2-.2-.4.2-.5.2-.8-.1-.3.2-.5.3-.8-.1-.3.2-.5.2-.8 0-.3.2-.5.2-.8 0-.3.2-.5.2-.8 0-.3.3-.5.3-.8 0-.1.1-.2.2-.4.2s-.3-.1-.4-.1c-.1.1-.2.2-.4.2s-.3-.1-.4-.1c-.1.1-.2.1-.2.2-.3.2-.4.2-.5.2-.1 0-.2-.1-.3-.1-.3.3-.4.3-.8.2-.1.1-.2.2-.4.3-.2 0-.3 0-.5-.1-.1.2-.2.2-.3.3-.2 0-.3 0-.4-.1-.3.3-.4.4-.8.2-.3.4-.4.4-.8.3-.3.4-.4.4-.8.3-.1.1-.1.3-.3.3-.2.1-.3 0-.5 0-.1.1-.1.2-.2.2-.1.1-.2.1-.3.1h-.3c-.2.4-.4.4-.7.4 0 0 0 .1-.1.1-.1.2-.3.3-.5.3h-.1v.1c0 .2-.2.3-.5.3h-.1c-.1.1-.1.2-.2.3-.1.1-.2.1-.3.2h-.3c0 .2-.1.3-.2.4h-.4c-.1.4-.2.5-.7.5-.1.4-.3.5-.7.5 0 .1-.1.3-.2.4-.1.1-.3.1-.5.1 0 .2-.1.3-.2.4 0 .1-.2.1-.3.1 0 .2 0 .3-.2.4-.1.1-.3.1-.4.1 0 .2-.1.3-.2.4-.1.1-.3.1-.4.1-.1.4-.2.5-.6.6 0 .1 0 .3-.1.4-.1.1-.3.1-.4.2 0 .3-.1.5-.5.6 0 .5-.2.5-.5.6 0 .4-.1.6-.5.6v.3c0 .1-.1.2-.2.2-.1.1-.2.1-.3.1v.2c0 .1 0 .1-.1.2 0 .1-.1.1-.2.1s-.1.1-.2.1c0 .5 0 .5-.5.7 0 .3 0 .5-.4.7 0 .5 0 .5-.4.7v.3c0 .1-.1.2-.1.3-.1.1-.2.1-.3.2v.3c-.1.4-.1.5-.2.6-.1.1-.2.1-.2.2.1.4 0 .5-.4.7.1.4 0 .6-.3.8v.3c0 .1 0 .2-.1.3-.1.1-.2.1-.2.2.1.1.1.3 0 .4-.1.2-.2.2-.3.3.1.4.1.5-.3.8.1.3.1.5-.2.8.1.4.1.5-.2.8.1.1.1.3.1.4 0 .2-.2.3-.3.3 0 .1.1.2.1.3v.2c0 .1-.2.2-.2.3 0 .1.1.2.1.3 0 .1 0 .2-.1.3-.2.1-.3.2-.4.3.1.1.1.3.1.4 0 .2-.1.3-.3.4.2.3.2.5-.1.8.2.4.1.6-.1.8.1.1.2.3.1.4 0 .2-.1.3-.2.4 0 .1.1.2.1.3v.3c0 .1-.1.2-.2.2.2.3.2.5 0 .8.2.3.2.5 0 .8.1.1.2.2.2.4s-.1.3-.2.4c.1.1.2.2.2.4s-.1.3-.2.4c.3.3.3.5.1.8.1.1.1.2.2.3v.3c0 .1-.1.2-.1.3.1.1.1.2.2.2.1.1.1.2 0 .3 0 .1-.1.2-.1.3.2.3.3.5.1.9.3.3.3.4.1.8m3.9-22.3c-.2 0-.3.1-.3.2 0 .2.1.3.3.3.1 0 .3-.1.3-.2s-.2-.2-.3-.3M49.4 57c.1 0 .3-.1.3-.3 0-.2-.2-.3-.3-.3-.1 0-.3.1-.3.3 0 .1.1.3.3.3m-33.6 1.2c0-.1-.1-.3-.3-.3-.2 0-.3.2-.3.3 0 .1.1.3.3.3.2 0 .3-.1.3-.3M53 53c0-.2-.2-.3-.3-.3-.1 0-.3.1-.3.3 0 .2.2.3.3.3.2-.1.3-.2.3-.3M26.6 4.3c-.2 0-.3.1-.3.3 0 .2.1.3.3.3.2 0 .3-.1.3-.3-.1-.1-.2-.3-.3-.3m-5.1 57.4c0-.2-.1-.3-.3-.3-.1 0-.3.1-.3.3 0 .2.1.3.3.3.2 0 .3-.2.3-.3m-14.9-15c.2 0 .3-.1.3-.3 0-.1-.1-.3-.3-.3-.2 0-.3.1-.3.3 0 .1.1.2.3.3m41.2 11.1c0 .1.1.3.3.3.2 0 .3-.2.3-.3 0-.1-.1-.2-.2-.2-.2-.2-.4 0-.4.2m-15.6 6.1c0-.2-.1-.3-.3-.3-.2 0-.3.1-.3.3 0 .2.1.3.3.3.2 0 .3-.2.3-.3M6.5 21.6c-.1 0-.3.1-.3.3 0 .2.1.3.3.3.1 0 .3-.1.3-.3 0-.2-.2-.3-.3-.3m38.9 37.9c-.1 0-.3.1-.3.3 0 .2.2.3.3.3.1 0 .3-.1.2-.3.1-.2-.1-.3-.2-.3m-41-29.8c-.2 0-.3.1-.3.3 0 .1.1.3.3.3s.3-.1.3-.3c0-.2-.2-.3-.3-.3m47 25.2c0-.2-.2-.3-.3-.3-.1 0-.3.1-.3.3 0 .2.2.3.3.3.2 0 .3-.1.3-.3m.7-40.2c0 .1.1.3.3.3.2 0 .3-.2.3-.3 0-.1-.1-.3-.3-.3-.1 0-.3.1-.3.3m6.8 14.5c0-.2-.1-.3-.3-.3-.2 0-.3.1-.3.3 0 .2.1.3.3.3.2 0 .3-.1.3-.3m-2.7 18.2c.1 0 .3-.1.3-.3 0-.2-.1-.3-.3-.3-.1 0-.3.1-.3.3 0 .2.1.3.3.3m-43.7 7.7c-.1 0-.2.1-.3.2-.1.1 0 .3.1.4.2.1.3 0 .4-.2.1-.2 0-.3-.2-.4M4.3 31c.2 0 .3-.1.3-.3 0-.2-.1-.3-.3-.3-.2 0-.3.1-.3.3 0 .2.1.3.3.3M29.1 4c-.1 0-.3.1-.3.3 0 .2.1.3.3.3.1 0 .3-.1.3-.3-.1-.2-.2-.3-.3-.3M11.2 14.3c.1 0 .3-.1.3-.2 0-.2-.1-.3-.3-.3-.1 0-.3.1-.3.3 0 0 .1.2.3.2M4.8 27.7c.2 0 .3-.1.3-.3 0-.2-.1-.3-.3-.3-.2 0-.3.1-.3.3 0 .2.1.3.3.3M33.7 4.3c0 .2.1.3.3.3.1 0 .3-.1.3-.3 0-.2-.2-.3-.3-.3-.2 0-.3.1-.3.3M5.1 40.7c0-.1-.1-.3-.3-.3-.2 0-.3.1-.3.3 0 .2.1.3.3.3.2 0 .3-.2.3-.3m19.3 21.8c-.2 0-.3.1-.3.3 0 .2.1.3.3.3.1 0 .3-.1.3-.3 0-.1-.1-.3-.3-.3m13.4.9c.2 0 .3-.1.3-.3 0-.2-.1-.3-.3-.3-.2 0-.3.1-.3.3 0 .1.1.3.3.3m-9.3-59c0-.2-.1-.3-.3-.3-.2 0-.3.1-.3.3 0 .2.1.3.3.3.2 0 .3-.2.3-.3M58.9 32h.1c.2-.1.2-.3 0-.5-.1 0-.2-.1-.3 0-.1.1-.2.2-.2.3.1.1.2.2.4.2m-.5 8.3c.2 0 .3-.1.3-.3 0-.2-.1-.3-.3-.3-.2 0-.3.1-.3.3s.1.3.3.3M33.2 4.5c.2 0 .3-.1.3-.3 0-.2-.1-.3-.3-.3-.1 0-.3.1-.3.3 0 .2.1.3.3.3M4.5 39.3c.1 0 .2 0 .2-.1.1-.1.1-.3-.1-.4h-.3c-.1.1-.2.2-.2.3.2.2.3.2.4.2m41.9 20c0-.1-.1-.2-.2-.3-.2-.1-.3 0-.4.1-.1.1 0 .3.2.4.2.2.4 0 .4-.2m-12.5 4.5c0-.2-.1-.3-.3-.3-.1 0-.3.1-.3.3 0 .2.1.3.3.3.2 0 .3-.2.3-.3m24.6-24.4c.2 0 .3-.1.3-.3 0-.2-.1-.3-.3-.3-.2 0-.3.1-.3.3s.2.3.3.3m-54-7c0-.2-.1-.3-.3-.3-.2 0-.3.1-.3.3 0 .1.1.3.3.3.1 0 .3-.1.3-.3m3.4 16.2c0-.1-.1-.3-.3-.3-.2 0-.3.1-.3.3 0 .2.1.3.3.3.2 0 .4-.1.3-.3M20.7 6.4c0 .2.1.3.3.3.1 0 .3-.1.3-.3 0-.2-.1-.3-.3-.3-.1 0-.3.2-.3.3M6 45.1c.2 0 .3-.2.3-.4-.1-.2-.2-.2-.4-.2 0 0-.1 0-.1.1-.1.1-.1.2-.1.3 0 .1.2.2.3.2m28.8-41c-.1 0-.3.1-.3.3 0 .2.1.3.3.3.2 0 .3-.1.3-.3 0-.2-.1-.3-.3-.3m1.1.4c0-.2-.1-.3-.2-.3-.2 0-.3.1-.3.3 0 .2.1.3.3.3.1 0 .2-.1.2-.3m-5.7-.3c0-.2-.1-.3-.3-.3-.1 0-.3.1-.3.3 0 .2.1.3.3.3.2 0 .3-.1.3-.3M30 63.8c0 .2.1.3.3.3.2 0 .3-.1.3-.3 0-.2-.1-.3-.3-.3-.2 0-.3.2-.3.3M6 43.9c0-.2-.1-.3-.3-.3-.2 0-.3.1-.3.3 0 .1.1.3.3.3.1 0 .3-.1.3-.3m52.3-16.1c.2 0 .3-.1.3-.3 0-.1-.1-.3-.2-.3h-.2c-.2.2-.2.3-.2.4 0 .2.2.2.3.2M7 46.9c-.2 0-.3.1-.3.3 0 .1.1.3.3.3.2 0 .3-.1.3-.3-.1-.2-.2-.3-.3-.3M5.2 26.1c.2 0 .3-.1.3-.3 0-.2-.1-.3-.3-.3-.2 0-.3.1-.3.3 0 .2.1.3.3.3m2.1 22.1c.1 0 .2 0 .3-.1.1-.1.1-.3-.1-.4-.1-.1-.3 0-.4.1-.1 0-.1.1-.1.2.1.1.1.2.3.2m21.6 15.5c0-.2-.1-.3-.3-.3-.1 0-.3.1-.3.3 0 .2.1.3.3.3.2 0 .3-.2.3-.3M24.4 5.3c0-.2-.1-.3-.3-.3-.1 0-.3.1-.3.3 0 .2.1.3.3.3.2 0 .3-.2.3-.3m16.5 56.5c-.1 0-.3.1-.3.3 0 .2.1.3.3.3.2 0 .3-.1.3-.3 0-.2-.1-.3-.3-.3m12.7-10.5s-.1 0-.1.1c-.1.1-.1.2-.1.3 0 .1.1.2.3.2.1 0 .2 0 .3-.1 0-.1.1-.1 0-.2-.1-.2-.2-.3-.4-.3m5.3-16c.2 0 .3-.1.3-.3 0-.2-.2-.3-.3-.3-.2 0-.3.1-.3.3 0 .2.2.3.3.3M56 20.1c-.2 0-.3.1-.3.2s0 .3.1.3c.1.1.3 0 .4 0 .1-.1.1-.2 0-.3-.1-.2-.2-.2-.2-.2M57.6 43c-.2 0-.3.1-.3.3 0 .1.1.3.3.3.1 0 .3-.1.3-.3 0-.2-.1-.3-.3-.3M10.3 53.2c.1 0 .2-.1.3-.2v-.1c0-.2-.2-.3-.3-.2-.2 0-.3.2-.2.4 0 0 .1.1.2.1m45.1-34.4c0-.1-.1-.3-.3-.3-.2 0-.3.1-.3.3 0 .1.1.3.3.3.2 0 .3-.1.3-.3m-.8-1.4c0-.1-.1-.3-.3-.3-.2 0-.3.2-.3.3 0 .1.1.3.3.3.2 0 .3-.2.3-.3M5.2 42.6c.1 0 .2 0 .2-.1.1-.1.1-.4-.1-.4H5c-.1.1-.2.2-.1.3.1.1.2.2.3.2M43.5 61c0-.2-.1-.3-.3-.3-.1 0-.3.1-.3.3 0 .2.2.3.3.3.2 0 .3-.1.3-.3M12.3 12.5c-.1 0-.3.1-.3.3 0 .2.1.3.3.3.1 0 .3-.1.3-.3 0-.2-.2-.3-.3-.3m37.6-.9c0-.1-.1-.3-.3-.3-.2 0-.3.1-.3.3 0 .1.1.3.3.3.2 0 .3-.2.3-.3M14.6 57.7c0 .1.1.3.2.3.2 0 .3-.1.3-.3 0-.1-.1-.3-.3-.3 0 0-.2.2-.2.3m33.8-47c.2 0 .3-.2.3-.3 0-.1-.1-.3-.3-.3-.2 0-.3.2-.3.3 0 .2.1.4.3.3m-.6-1.1c-.2 0-.3.1-.3.3 0 .2.1.3.3.3.2 0 .3-.2.3-.3-.1-.1-.2-.3-.3-.3m-32.1-.2c0 .1.1.2.2.3.1.1.3 0 .3-.1.1-.1.1-.3 0-.4-.1-.1-.2-.1-.3-.1-.1.1-.2.2-.2.3m-11 30.8s.1 0 .2-.1c0-.1.1-.2.1-.3 0-.1-.1-.2-.2-.2h-.2c-.1 0-.2.2-.2.3 0 .2.1.3.3.3m42-31.3c0-.2-.2-.3-.3-.2-.1 0-.2.1-.2.2s0 .2.1.3c.1.1.2.1.3 0 0-.1.1-.2.1-.3M17 8.9c0-.2-.1-.3-.3-.3-.1 0-.3.1-.3.3 0 .2.2.3.3.3.1 0 .3-.1.3-.3m1.3 51.5c.1 0 .3-.1.3-.3 0-.1-.1-.3-.3-.3-.2 0-.3.2-.3.3 0 .2.1.3.3.3M18 7.7c-.1 0-.3.1-.3.3 0 .2.2.3.3.3.1 0 .3-.1.3-.3 0-.1-.1-.3-.3-.3m12.5-3.5c0 .2.1.3.3.3.1 0 .3-.1.3-.3 0-.2-.1-.3-.3-.3-.2 0-.3.1-.3.3m23.6 47c.1 0 .3-.1.3-.2 0-.2-.1-.3-.3-.3-.1 0-.3.1-.3.3 0 0 .2.2.3.2m4.5-13.1c-.2 0-.3.1-.3.3 0 .2.2.3.3.3.2 0 .3-.1.3-.3 0-.2-.1-.3-.3-.3m.3-4.5c.2 0 .3-.1.3-.3 0-.2-.1-.3-.3-.3-.2 0-.3.1-.3.3 0 .2.1.3.3.3M27.7 4.5c0-.1-.1-.3-.2-.3s-.2 0-.3.1v.3c.1.1.2.2.3.2.1 0 .2-.2.2-.3m30.8 36.3c0-.1-.1-.2-.2-.3-.1 0-.3 0-.3.1-.1.1-.1.2 0 .3.1.1.2.2.3.1.1.1.2 0 .2-.2M5 41.8c.2 0 .3-.1.3-.3 0-.1-.1-.3-.2-.3h-.2c-.1.1-.2.2-.2.3.1.2.2.3.3.3m32.6-37c0-.2-.1-.3-.3-.3-.2 0-.3.2-.3.3 0 .2.1.3.3.3.1 0 .3-.1.3-.3m21.2 33c.2 0 .3-.1.3-.3 0-.1-.2-.3-.3-.3-.2 0-.3.1-.3.3-.1.2.1.3.3.3m-54.2-.4c0-.2-.1-.3-.3-.3-.2 0-.3.1-.3.3 0 .1.1.3.3.3.2 0 .3-.1.3-.3m29.6 26.3v.1c.1.1.2.2.3.1.1 0 .2-.1.2-.2v-.1c0-.1-.2-.3-.3-.2-.1 0-.2.1-.2.3m-30-26.8c.2 0 .3-.1.3-.3 0-.1-.1-.3-.3-.3-.2 0-.3.1-.3.3 0 .1.2.2.3.3m53.6 5.2c-.2 0-.3.1-.3.3s.1.3.3.3c.2 0 .3-.1.3-.3 0-.1-.1-.3-.3-.3M5.4 43.4c.2 0 .3-.1.3-.2s-.1-.3-.2-.3h-.2c-.1.1-.2.2-.1.3 0 .1.1.2.2.2m53.5-7.3c.2 0 .3-.1.3-.3 0-.2-.1-.3-.3-.3-.2 0-.3.1-.3.3 0 .2.1.3.3.3M4.2 36s.1 0 .2-.1.2-.2.1-.3c0-.1-.1-.2-.2-.2h-.1c-.2 0-.3.1-.3.3 0 .2.1.3.3.3m21-31c0-.2-.1-.3-.3-.3-.1 0-.3.1-.3.2v.2c.1.1.2.2.3.1.3.1.3 0 .3-.2m33.4 29.2c0 .2.1.3.3.3.2 0 .3-.1.3-.3 0-.1-.1-.3-.3-.3-.1 0-.3.1-.3.3m-27.3-30c0 .2.1.3.3.3.2 0 .3-.1.3-.3 0-.2-.1-.3-.3-.3-.2 0-.3.1-.3.3m4 59.7c.2 0 .3-.1.3-.3 0-.2-.1-.3-.3-.3-.2 0-.3.1-.3.3 0 .1.1.3.3.3M57.6 44c0-.2-.1-.3-.3-.3-.2 0-.3.1-.3.3 0 .1.1.3.3.3.2 0 .3-.1.3-.3M36.1 63.7c.1 0 .3-.1.3-.3 0-.2-.1-.3-.3-.3-.2 0-.3.1-.3.3.1.2.2.3.3.3m23.1-31.2c0-.1-.1-.3-.3-.3-.2 0-.3.1-.3.3 0 .2.1.3.3.3.2 0 .3-.1.3-.3m-22 30.8c0-.2-.1-.3-.2-.3s-.3.1-.3.2v.2c.1.1.2.2.3.1.1 0 .2-.1.2-.2m-12.3-.2c0 .2.2.3.3.3.2-.1.3-.2.2-.4-.1-.2-.3-.2-.4-.1 0 0-.1.1-.1.2m14.2-.5c0 .1 0 .2.1.3.2.1.4 0 .4-.2 0-.1 0-.2-.1-.3-.1-.1-.2-.1-.3-.1 0 .1-.1.2-.1.3m3.7-1.2c0-.2-.2-.3-.3-.3-.2 0-.3.1-.3.3 0 .2.2.3.3.3.1 0 .3-.2.3-.3M6.3 45.3c-.2 0-.3.1-.3.3 0 .1.1.3.3.3.2 0 .3-.1.3-.3 0-.2-.1-.3-.3-.3m50.5 0c-.2 0-.3.1-.3.3 0 .1.1.3.3.3s.3-.1.3-.3c0-.2-.2-.3-.3-.3M20.5 61.6c.2 0 .3-.1.3-.3 0-.2-.1-.3-.3-.3-.1 0-.3.2-.3.3 0 .2.1.3.3.3m23.7-.9c0-.2-.1-.3-.3-.3-.2 0-.3.1-.3.3 0 .2.1.3.3.3.2-.1.3-.2.3-.3M40.8 5.8c0-.2-.1-.3-.3-.3-.2 0-.3.2-.3.3 0 .1.1.3.3.3.1 0 .3-.2.3-.3m18 25.3c.2-.1.3-.2.3-.3 0-.1-.1-.2-.3-.2h-.1c-.1 0-.2.2-.2.3 0 .1.1.2.3.2m-16.7-25c-.2 0-.3.1-.3.3 0 .1.1.3.3.3.2 0 .3-.2.3-.3-.1-.1-.2-.3-.3-.3M17.9 59.7c0-.1-.1-.3-.3-.3-.2 0-.3.2-.3.3 0 .1.1.3.3.3.1 0 .3-.2.3-.3M43.1 6.8c0-.1-.1-.3-.3-.3-.2 0-.3.2-.3.3 0 .1.1.3.3.3.1 0 .3-.2.3-.3m-23.9.4c0 .2.2.3.3.3.1 0 .3-.1.3-.3 0-.2-.1-.3-.3-.3-.1 0-.3.1-.3.3m-2 52c0-.1-.1-.3-.3-.3-.2 0-.3.2-.3.3 0 .1.1.3.3.3.1 0 .3-.1.3-.3M4.5 28.8c-.2 0-.3.1-.3.3 0 .1.1.3.3.3.2 0 .3-.1.3-.3 0-.2-.1-.3-.3-.3m54.2-.4c0-.1-.1-.3-.3-.3-.2 0-.3.1-.3.3 0 .2.1.3.3.3.2 0 .4-.2.3-.3m-54 .2c.2 0 .3-.1.3-.3 0-.2-.1-.3-.3-.3-.2 0-.3.1-.3.3-.1.1.1.3.3.3M43.8 7.1c0-.2-.2-.3-.3-.3s-.3.2-.2.4c.1.2.3.2.4.1.1.1.1 0 .1-.2m14.3 19.4c-.2 0-.3.1-.3.2s.1.3.2.3h.2c.1 0 .2-.2.2-.3 0-.1-.1-.2-.3-.2M18.5 7.6c0 .2.1.3.3.3.1 0 .3-.1.3-.3 0-.2-.1-.3-.3-.3-.2 0-.3.1-.3.3m39.4 18.6c.2 0 .3-.1.3-.3 0-.2-.1-.3-.3-.3-.2 0-.3.1-.3.3 0 .2.1.3.3.3M16.5 58.7c0-.1-.1-.3-.3-.3-.1 0-.3.2-.3.3 0 .2.1.3.3.3.2 0 .3-.1.3-.3m41.2-33.3c.2 0 .3-.1.3-.3 0-.1-.1-.3-.2-.3s-.2 0-.2.1c-.1.1-.1.2-.1.3-.1.1.1.2.2.2m-52.3-.6c-.2 0-.3.1-.3.3 0 .1.1.3.3.3.2 0 .3-.1.3-.3 0-.2-.1-.3-.3-.3M15.6 10c0-.1-.1-.3-.3-.3-.1 0-.3.1-.3.2s.1.2.2.3c.2.1.4-.1.4-.2m-1.3 46.9c-.2 0-.3.1-.3.3 0 .1.1.3.3.3.2 0 .3-.2.3-.3 0-.2-.2-.3-.3-.3m43.2-32.3c.2 0 .3-.1.3-.3 0-.2-.1-.3-.3-.3-.2 0-.3.1-.3.3 0 .2.1.3.3.3m-51.6-.3c0-.1-.1-.2-.2-.3-.1-.1-.3 0-.3.1-.1.1-.1.2-.1.3 0 .1.2.2.4.2.1-.1.2-.2.2-.3m49.8 24.4c0-.2-.1-.3-.3-.3-.1 0-.3.1-.3.2 0 .2.1.3.3.3.2 0 .3-.1.3-.2m-44-35c.1 0 .3-.1.3-.2 0-.2-.1-.3-.3-.3-.1 0-.3.1-.3.3 0 0 .2.2.3.2m-1.3 1.7c0-.2-.1-.3-.3-.3-.1 0-.3.1-.3.3 0 .2.2.3.3.3.2-.1.3-.2.3-.3m-2.6 34c0 .1.1.3.3.3.2 0 .3-.1.3-.3 0-.1-.1-.3-.3-.3-.2 0-.3.1-.3.3m47.3.3c.1 0 .3-.1.3-.3 0-.2-.2-.3-.3-.3-.2 0-.3.1-.3.3-.1.1.1.3.3.3M5.9 23.2c-.2 0-.3.1-.3.3 0 .2.2.3.3.3.1 0 .3-.1.3-.3 0-.2-.1-.3-.3-.3m51.3-.5c0-.1-.1-.3-.3-.3-.2 0-.3.1-.3.3 0 .1.1.3.3.3.2 0 .3-.1.3-.3m-50.7 0c0-.2-.1-.3-.3-.3-.1 0-.3.1-.3.3 0 .1.1.3.3.3.1 0 .3-.2.3-.3m46.9-6.4c.2 0 .3-.1.3-.3 0-.2-.1-.3-.3-.3-.2 0-.3.2-.3.3 0 .2.1.3.3.3m1.2 33.5c-.1 0-.3.1-.3.2 0 .2.1.3.3.3.2 0 .3-.1.3-.3 0 0-.1-.2-.3-.2m.1-31.4c.2 0 .3-.1.3-.3 0-.2-.1-.3-.3-.3-.2 0-.3.2-.3.3.1.2.2.3.3.3m2.2 3.6c0-.2-.1-.3-.3-.3-.2 0-.3.1-.3.3 0 .1.1.3.3.3.1 0 .3-.2.3-.3M10.8 53.8c.2 0 .3-.1.3-.3 0-.1-.1-.2-.2-.3-.2 0-.3.1-.3.3-.1.2 0 .3.2.3m45.8-32.6c0-.2-.1-.3-.3-.3-.2 0-.3.1-.3.3 0 .2.1.3.3.3.1 0 .3-.2.3-.3M9.3 51.8c.2 0 .3-.2.3-.3 0-.2-.1-.3-.3-.3-.2 0-.3.2-.3.3.1.2.2.3.3.3m23-47.3c.2 0 .3-.1.3-.3s-.1-.3-.3-.3c-.1 0-.3.1-.3.3.1.2.2.3.3.3M6.8 20.8c-.1 0-.2.1-.3.2 0 .1 0 .2.1.3.1.1.1.1.2.1s.2 0 .3-.2v-.3c-.1 0-.2-.1-.3-.1m1.5-2.4c.1 0 .3-.1.3-.2 0-.2-.1-.3-.3-.3-.1 0-.3.1-.3.2 0 .2.2.3.3.3m24.8 45.4c0-.2-.1-.3-.3-.3-.2 0-.3.1-.3.3 0 .2.1.3.3.3.1 0 .3-.1.3-.3m3.4-59.5c-.2 0-.3.1-.3.3 0 .2.1.3.3.3.1 0 .3-.2.3-.3-.1-.1-.2-.3-.3-.3M10.1 52.2c0-.1-.1-.3-.3-.3-.2 0-.3.1-.3.3 0 .1.1.3.3.3.2 0 .3-.2.3-.3m48.2-10.6c0-.1-.1-.3-.3-.3-.1 0-.3.1-.3.3 0 .2.1.3.3.3.2 0 .3-.1.3-.3M53.2 52c-.2 0-.3.1-.3.2 0 .2.1.3.3.3.1 0 .3-.1.3-.3 0 0-.2-.2-.3-.2m-46-31.4c.2 0 .3-.1.3-.3 0-.1-.1-.2-.2-.2-.1-.1-.3 0-.4.1-.1.1 0 .3.1.3 0 .1.1.1.2.1m22.5 43.2c0-.2-.1-.3-.3-.3-.1 0-.3.1-.3.3 0 .2.1.3.3.3.2 0 .3-.2.3-.3M4.1 34.4c.2 0 .4-.2.3-.4-.1-.1-.2-.2-.3-.2-.1 0-.2 0-.3.2 0 .2.1.4.3.4m51.4-14.5c.2 0 .3-.1.3-.3 0-.1-.1-.3-.3-.3-.2 0-.3.1-.3.3 0 .2.2.3.3.3M27.7 63.3c-.2 0-.3.1-.3.3 0 .2.1.3.3.3.1 0 .3-.2.3-.3-.1-.2-.2-.3-.3-.3m-20.2-44c-.2 0-.3.1-.3.3 0 .2.2.3.3.3.2 0 .3-.1.3-.3 0-.1-.1-.3-.3-.3M4.1 33.5c.2 0 .3-.1.3-.3 0-.2-.1-.3-.3-.3-.2 0-.3.1-.3.3 0 .2.2.3.3.3m22.5 29.9c0 .2.1.3.3.3.2 0 .3-.2.3-.3 0-.2-.1-.3-.3-.3-.2 0-.3.2-.3.3m30.5-18.3c.2 0 .3-.2.3-.3-.1-.2-.3-.3-.4-.2-.2.1-.2.3-.1.4 0 .1.1.1.2.1m-48.2 6c.1 0 .2-.1.3-.2.1-.2 0-.3-.2-.4-.1 0-.3 0-.3.2 0 .1-.1.2 0 .3 0 .1.1.1.2.1m16.9 12.2c0 .2.1.3.3.3.2 0 .3-.1.3-.3 0-.2-.1-.3-.3-.3-.2 0-.3.1-.3.3m26.4-9.4c.1 0 .3-.1.3-.3 0-.1-.1-.3-.3-.3-.1 0-.3.1-.3.3 0 .2.1.3.3.3M7.9 18.6c-.2 0-.3.1-.3.3 0 .2.1.3.3.3.1 0 .2-.1.3-.2.1-.1 0-.2 0-.3-.1-.1-.2-.1-.3-.1M38.4 5c0-.2-.1-.3-.2-.3s-.3.1-.3.3c0 .2.1.3.2.3s.3-.1.3-.3m-.1 57.9v.1c.1.1.2.2.3.1.1 0 .2-.1.2-.2v-.2c-.1-.1-.2-.2-.3-.1-.1 0-.2.1-.2.3m-15-.3c0 .1.1.2.2.3.1 0 .2 0 .3-.1.1-.1.1-.2.1-.3 0-.1-.1-.2-.2-.2s-.2 0-.3.1c0 0-.1.1-.1.2M4.4 38.5s.1 0 .1-.1c.1-.1.2-.2.1-.3 0-.1-.1-.2-.2-.2h-.1c-.1 0-.2.2-.2.3 0 .2.2.3.3.3M22.9 62c-.2 0-.3.1-.3.3 0 .2.1.3.2.3s.2 0 .3-.1c.1-.1.1-.2 0-.3l-.2-.2m31-45.6c-.2 0-.3.2-.3.3 0 .1.1.3.3.3.2 0 .3-.2.3-.3-.1-.2-.2-.3-.3-.3M23.6 5.5c0-.1 0-.2-.1-.2-.1-.1-.2-.1-.3-.1-.1 0-.2.1-.2.2s0 .2.1.3c.1.1.2.1.3.1.2 0 .2-.2.2-.3m18.1 55.9c-.2 0-.3.1-.3.3 0 .2.1.3.3.3.1 0 .3-.1.3-.3 0-.1-.1-.3-.3-.3m10-6.8c.1 0 .3-.1.3-.3 0-.2-.1-.3-.3-.3-.2 0-.3.1-.3.3 0 .1.1.2.3.3M9.2 17c.1 0 .3-.1.3-.2 0-.2-.1-.3-.3-.3-.2 0-.3.1-.3.3 0 .1.1.2.3.2m-.8 33.4c.2 0 .3-.2.3-.3 0-.1-.1-.3-.3-.3-.2 0-.3.2-.3.3.1.2.2.3.3.3m31-44.9c0 .2.1.3.3.3.1 0 .3-.2.3-.3 0-.1-.1-.3-.3-.3-.1 0-.3.1-.3.3M9.7 16.3c.1 0 .3-.1.3-.2 0-.2-.2-.3-.3-.3-.1 0-.3.1-.3.3 0 .1.1.2.3.2m43.2-.7c.2 0 .3-.1.3-.3 0-.1-.1-.3-.3-.3-.2 0-.3.1-.3.3 0 .2.1.3.3.3m-48.4 16c0-.2-.1-.3-.3-.3-.2 0-.3.1-.3.3 0 .1.1.3.3.3.2 0 .3-.2.3-.3M22.8 5.8s0-.1 0 0c-.1-.2-.2-.3-.3-.3-.1 0-.2.1-.2.2s0 .2.1.3c.1.1.2.1.3.1.1-.1.1-.2.1-.3m-1 .6c.2 0 .3-.1.3-.3 0-.2-.2-.3-.3-.3-.1 0-.3.1-.3.3 0 .1.1.3.3.3M52.2 14c0-.1-.1-.3-.3-.3-.2 0-.3.2-.3.3 0 .1.1.3.3.3.1 0 .3-.1.3-.3m-1.1-.6c0 .1.1.3.3.3.2 0 .3-.2.3-.3 0-.1-.1-.3-.3-.2-.2-.1-.4.1-.3.2m-9.8-7c.2 0 .3-.2.3-.3 0-.1-.1-.3-.3-.3-.2 0-.3.1-.3.3 0 .2.1.3.3.3m15.9 16.9s-.1 0-.2.1c-.2.1-.1.4.1.5.1.1.2 0 .3-.1.1-.1.1-.2.1-.3-.1-.2-.2-.2-.3-.2M13.3 56c0-.1-.1-.3-.3-.3-.2 0-.3.1-.3.3 0 .2.1.3.3.3.2 0 .3-.1.3-.3m7.2-49.2c0-.2-.1-.3-.3-.3-.1 0-.3.1-.3.3 0 .2.1.3.3.3.2 0 .3-.1.3-.3M50 56.4c.1 0 .3-.1.3-.3 0-.2-.2-.3-.3-.3-.1 0-.2.1-.2.3-.1.1 0 .3.2.3m6.5-9.7c.1 0 .3-.1.3-.3 0-.2-.2-.3-.3-.3-.1 0-.3.1-.3.3 0 .1.1.3.3.3m-5.7-34.2c-.2 0-.3.1-.3.3 0 .1.1.3.2.3.2 0 .3-.1.3-.3.1-.2 0-.3-.2-.3m7.9 17.8c.1 0 .3-.1.3-.2s0-.2-.2-.3h-.2c-.1.1-.2.2-.2.3 0 .1.1.2.3.2m-8.5-17.8c.2 0 .3-.2.3-.3 0-.1-.1-.3-.3-.3-.2 0-.3.2-.3.3 0 .1.1.3.3.3M5 26.4c-.2 0-.3.1-.3.3 0 .2.1.3.3.3.2 0 .3-.1.3-.3 0-.2-.2-.3-.3-.3M44.6 7.6c0-.2-.1-.3-.3-.3-.2 0-.3.2-.3.4.1.1.2.2.4.1.1 0 .1-.1.2-.2m.7.4c0-.1-.1-.3-.2-.3-.2 0-.3.1-.3.3 0 .2.1.3.3.3 0 0 .2-.2.2-.3m-31.6 3.6c0-.2-.2-.3-.3-.3-.1 0-.3.1-.3.3 0 .2.2.3.3.3.2 0 .3-.2.3-.3m3.7-3.4c-.1 0-.3.1-.3.2 0 .2.1.3.3.3.1 0 .3-.1.3-.3 0-.1-.2-.2-.3-.2M49.3 11c0-.1-.1-.3-.3-.3-.2 0-.3.1-.3.3 0 .2.1.3.3.3.1 0 .3-.1.3-.3m-1.6 47.3c0-.2-.2-.3-.3-.3-.1 0-.3.1-.3.3 0 .2.2.3.3.3.2 0 .3-.1.3-.3m-.3-48.9c0-.1-.1-.3-.3-.3-.2 0-.3.1-.3.3 0 .2.1.3.3.3.1 0 .3-.2.3-.3m8.4 38.2c-.2 0-.3.1-.3.3 0 .1.2.3.3.3.1 0 .3-.1.3-.3 0-.2-.1-.3-.3-.3M14.7 10.8c.1 0 .3-.1.3-.2 0-.2-.1-.3-.3-.3-.2 0-.3.1-.3.3 0 0 .1.1.3.2M46 8.4c0-.1-.1-.3-.3-.3-.2 0-.3.2-.3.3 0 .2.1.3.3.3.2 0 .3-.1.3-.3M31.1 64.1c.2 0 .3-.1.3-.3 0-.2-.1-.3-.3-.3-.1 0-.3.1-.3.3 0 .2.2.3.3.3M25.8 4.5c-.2 0-.3.1-.3.3 0 .2.1.3.3.3.1 0 .2-.1.2-.3 0-.1-.1-.3-.2-.3m-12.7 7.7c0-.2-.1-.3-.3-.3-.2 0-.3.1-.3.3 0 .2.1.3.3.3.2 0 .3-.2.3-.3m35.3 45c0 .2.1.3.3.3.1 0 .3-.1.3-.2 0-.2-.1-.3-.3-.3-.1-.1-.2.1-.3.2m-1.6 1.9c.1 0 .3-.1.3-.3 0-.2-.2-.3-.3-.3-.1 0-.3.1-.3.3 0 .2.1.3.3.3M39.2 5.3c0-.2-.1-.3-.2-.3s-.2 0-.3.1c0 0 0 .1-.1.1 0 .1 0 .3.1.3.1.1.3 0 .3-.1.2 0 .2-.1.2-.1m1.2 57.1c0-.2-.1-.3-.3-.3-.1 0-.3.1-.3.3 0 .2.1.3.3.3.2-.1.3-.2.3-.3M21.8 62c0 .2.1.3.3.3.2 0 .3-.2.3-.3 0-.1-.1-.3-.3-.3-.2 0-.3.1-.3.3M20 60.9c0-.2-.1-.3-.3-.3-.1 0-.3.2-.3.3 0 .1.1.3.3.3.2.1.3-.1.3-.3m-6.4-4c.2 0 .3-.1.3-.3 0-.2-.1-.3-.3-.3-.2 0-.3.2-.3.3.1.2.2.3.3.3m-1.7-2.4c-.2 0-.3.1-.3.3 0 .2.1.3.3.3.2 0 .3-.1.3-.3 0-.1-.1-.3-.3-.3M45 60.2c0-.2-.1-.3-.3-.3-.2 0-.3.1-.3.2 0 .2.1.3.3.3.1.1.3 0 .3-.2M10.9 14.7c0-.2-.2-.3-.3-.3-.2 0-.3.1-.3.3 0 .2.2.3.3.3.2 0 .3-.2.3-.3m39.7 41.1c.1 0 .3-.1.3-.3 0-.2-.2-.3-.3-.3-.1 0-.3.1-.3.3-.1.1.1.3.3.3m-31.3 4.7c0-.1-.1-.3-.3-.3-.2 0-.3.2-.3.3 0 .1.1.3.3.2.2.1.3 0 .3-.2M14 10.7c-.1 0-.3.1-.3.3 0 .2.1.3.3.3.1 0 .3-.1.3-.2.1-.2-.1-.4-.3-.4m45.1 26c0-.2-.1-.3-.3-.3-.2 0-.3.1-.3.3 0 .1.1.3.3.3.2 0 .3-.1.3-.3M11.3 54.5c.2 0 .3-.1.3-.3 0-.1-.1-.3-.2-.3-.2 0-.3.1-.3.3 0 .2.1.3.2.3M4.1 35.2c.2 0 .3-.1.3-.3 0-.2-.1-.3-.3-.3-.2 0-.3.1-.3.3 0 .2.2.3.3.3"/><path class="st3" d="M19.4 50.2c.3-.2.5-.3.7-.4.5-.1 1-.2 1.4-.3h.3c0-.1 0-.1.1-.2.1-.2.2-.5.3-.7 0-.1.1-.2.1-.3 0-.1 0-.1-.1-.1h-.3c-.2 0-.3.1-.5.1-.3.1-.6.1-.9.1-.5 0-.9-.2-1.3-.4-.6-.4-1-1-1.1-1.7-.1-.9.3-1.6 1-2 .3-.2.7-.2 1.1-.3.4 0 .8.1 1.2.2.3.1.6.2.8.2h.4c.1 0 .2 0 .2-.2 0-.1 0-.2-.1-.3l-.1-.1c-.2-.1-.3-.3-.4-.5-.3-.5-.3-1 0-1.4.3-.4.6-.6 1.1-.7h.3c.2 0 .3.2.4.4v.3c-.1.2 0 .3.1.5.1.1.2.2.2.3.1.1.2.3.3.4.3.4.3.8.2 1.3 0 .1-.1.3-.1.4h.1c.2-.1.3-.3.4-.5.1-.2.1-.4.2-.6 0-.3.1-.6.1-.9 0-.2.1-.4.2-.5.2-.4.5-.7 1-.8.4-.1.8 0 1.2.1.1 0 .2.1.2.1.1.1.1.2 0 .3-.1.1-.1.1-.2.1l-.6.3c-.2.1-.3.3-.5.5-.3.4-.4.8-.6 1.3 0 .2-.1.4-.2.5-.2.4-.6.7-1 .8-.3.1-.7.1-1 .1-.5 0-.9 0-1.4-.1-.6-.1-1.1-.2-1.7-.3-.3 0-.6-.1-1-.1-.1 0-.2 0-.3.1-.3.1-.4.3-.4.6v.4c.1.3.2.5.3.7 0 .1.1.1.1.1.6.3 1.3.4 2 .3.5-.1.9-.2 1.3-.4.5-.2.9-.4 1.4-.6.6-.2 1.2-.4 1.8-.5.3 0 .6-.1.8-.1 1 0 1.9.1 2.8.4h.2c.1 0 .2 0 .3-.1.1-.1.1-.2.1-.3 0-.2.1-.3.1-.5v-1c0-.6 0-1.1-.1-1.7 0-.5 0-1-.1-1.4 0-.3 0-.6.1-.9.1-.3.1-.6.1-.9 0-.1 0-.2-.1-.4 0-.2-.2-.3-.3-.3h-.5c-.3.1-.6.1-1 .2-.2 0-.4.1-.5.1h-.3c-.3-.1-.6-.1-.9 0-.4.1-.8.1-1.2.2-.4.1-.8.1-1.1.2H24c-.3-.1-.4-.2-.3-.5 0-.1.1-.3.1-.4.1-.3.3-.5.4-.7.2-.2.2-.5.2-.8v-.4c0-.3.1-.5.3-.7l.3-.3c.1-.1.1-.2.2-.3.1-.1 0-.3 0-.4 0-.1-.1-.1-.1-.2-.1-.1-.1-.3 0-.4 0-.2.1-.4.2-.5.1-.2.3-.4.4-.6 0-.1.1-.1.1-.2.1-.1.1-.3 0-.4 0-.1-.1-.1-.1-.2s-.1-.1-.1-.2c-.1-.2-.1-.5 0-.7.1-.1.2-.2.3-.4l.2-.2c.1-.1.2-.3.1-.5 0-.1-.1-.2-.1-.3-.1-.3-.1-.5.1-.8l.2-.2c.1-.2.2-.4.2-.7v-.2c0-.2 0-.5.1-.7l.3-.6c.1-.2.2-.4.2-.6 0-.2.1-.4 0-.6-.1-.3 0-.6.1-.8.1-.2.2-.3.3-.5.1-.1.1-.3.2-.4.1-.2.1-.3 0-.5s0-.4.1-.6c.1-.2.2-.3.3-.4.1-.2.2-.3.3-.5.1-.1.1-.2.1-.3l-.1-.1c-.1-.1-.1-.2-.1-.4 0-.1.1-.2.1-.3.1-.2.2-.3.3-.4.1-.1.2-.2.2-.4 0-.1.1-.2.1-.2.1-.2.1-.3-.1-.4-.2-.2-.2-.4-.1-.7 0-.1.1-.3.2-.4.1-.2.2-.4.3-.5.1-.1.1-.2.2-.2.1-.2.2-.4.2-.7 0-.7.2-1.4.3-2 .2-.8.4-1.5.5-2.3 0-.1 0-.2.1-.4 0-.1.1-.3.1-.4 0-.1.1-.1.1-.2.1-.1.2-.2.4-.1.1 0 .2.1.3.2.1.1.2.3.3.4.3.5.4.9.5 1.5v.8c.1.2.2.5.3.7.2.4.3.8.4 1.2 0 .2.1.3.1.5s0 .4-.1.6v.1c.3.4.4.9.5 1.4 0 .3.1.5.1.8.1.5.2.9.5 1.3V21.3c-.1.3 0 .6.1.9.1.1.1.2.2.4.1.1.1.2.2.3.1.3.1.5-.1.7l-.2.2c0 .1.1.2.1.3l.3.6c.1.2.2.5.2.7v.2c-.1.3 0 .6.1.9.1.1.1.2.2.3.1.1.1.2.1.4.1.3.1.5-.1.8 0 0 0 .1-.1.1 0 .1.1.1.1.2.1.1.2.2.2.4.2.3.3.7.2 1.1v.6c0 .1 0 .2.1.3.1.2.3.5.4.8.1.1.1.2.1.4 0 .1 0 .2-.1.3-.1.1-.1.2-.1.4.1.2.1.3.2.5l.3.6c.1.1.1.3.2.4 0 .1 0 .2-.1.3-.1.2-.1.4 0 .5.1.2.3.3.4.5.1.2.2.3.3.5 0 .1.1.2.1.4s-.1.3-.2.4l-.1.1c0 .1.1.1.1.2.3.3.5.7.6 1.1.1.3.1.5.1.8-.1.4-.3.6-.7.6-.2 0-.4 0-.6-.1l-.6-.3c-.1 0-.2-.1-.2-.1l-.1.1c-.1.2-.2.2-.4.2h-.7c-.2 0-.2 0-.2-.2v-.2h-.1c-.1 0-.1.1-.2.1s-.2 0-.3-.1c0-.1 0-.2-.1-.3v-.2l-.1.1V39.1c0 .1-.1.1-.2.1h-.1c-.1-.1-.3-.1-.5-.1h-.2c-.1 0-.2 0-.3-.2 0 0 0-.1-.1-.1-.1.1-.2.2-.2.3-.2.3-.2.6-.3.9-.1.5-.1 1-.1 1.5 0 .8.1 1.6.2 2.4v1c.1 0 .1-.1.1-.1.1-.4.2-.8.4-1.2.1-.3.3-.6.5-.9l.3-.3c.1 0 .1-.1.2-.2s.1-.3.1-.5-.1-.3-.2-.5l-.3-.6c0-.1-.1-.2 0-.3 0-.1.1-.2.3-.2.1 0 .3 0 .4.1.3.1.6.4.9.6l.1.1c.1 0 0-.1 0-.2.1-.3.2-.5.4-.7.1-.1.3-.1.4-.2.3 0 .5.1.7.4.1.1.1.3.1.4l-.1.1c0 .1 0 .1.1.2l.1.1h.1v-.1c.2-.5.5-.8 1-.9h.3c.2 0 .4.2.3.4 0 .1-.1.2-.1.3-.1.2-.2.3-.3.5-.1.1-.2.3-.2.5s0 .3.1.5c.4.5.7 1.1.8 1.7.2.5.2 1.1.3 1.7.1.8.1 1.5.1 2.3v.9c.2.1.4 0 .6 0 .3-.1.5-.3.7-.5.4-.5.8-1 1-1.6.1-.2.1-.3.1-.5v-.3c0-.1-.1-.1-.2-.1s-.2 0-.2.1c-.2.1-.3.2-.5.4-.1.1-.2.1-.3.2-.2 0-.3 0-.3-.2V46c.2-.5.5-.9 1-1.2.2-.1.4-.2.6-.2.1 0 .2 0 .3-.1.1 0 .2-.1.2-.2V44c0-.2-.1-.4-.2-.6-.1-.5 0-.9.1-1.3s.3-.8.6-1.1c.1-.1.1-.2.2-.4.1-.3.1-.6.2-.9 0-.2.1-.3.2-.4 0-.1.1-.2.2-.2s.2.1.2.2c.1.1.1.3.1.4.1.3.1.7.2 1.1.1.6.1 1.3.1 1.9 0 .5 0 1.1-.1 1.6 0 .2-.1.3-.1.4h.1c.3-.1.5-.2.7-.4.1-.2.3-.3.4-.5l.2-.2c.1-.1.2-.1.4 0s.3.2.3.4c.1.2.1.5 0 .8-.1.7-.3 1.3-.6 2-.2.4-.4.9-.7 1.3l-.3.3c0-.4-.1-.4-.1-.4-.1.1-.3 0-.3-.1-.1-.1-.1-.3-.1-.4V47c0-.2-.1-.4-.1-.6 0-.1-.1-.1-.1-.2-.1-.1-.2-.2-.3-.1l-.2.2c-.1.1-.2.3-.3.4-.2.2-.3.5-.4.7-.1.2-.2.3-.3.5-.1.2-.1.3 0 .4l.3.3c-.1.3-.1.4-.1.6 0 .2 0 .4.3.4H43.5c.1 0 .2 0 .4.1s.2.2.3.4c0 .2 0 .3-.1.5-1 1.5-2.3 2.7-3.9 3.5-1 .5-2.1.9-3.2 1.2-.7.2-1.4.3-2.1.4-.9.1-1.8.1-2.7.1H32h-.1c-.4-.5-.7-1-1.1-1.5-.1 0-.1 0-.1.1s0 .2.1.3c.1.3.3.6.6.8.1.1.2.1.3.2h-.4c-.3 0-.6 0-1-.1-.5 0-.9-.1-1.4-.2-.9-.1-1.7-.3-2.6-.5-1.4-.3-2.7-.8-4-1.3-.7-.3-1.4-.7-2-1.1-.4-.3-.7-.5-1-.9-.1-.1-.2-.3-.3-.5-.1-.1-.1-.3-.1-.4 0-.1.2-.4.5-.5 0 0-.1 0 0 0-.1.1-.1.2 0 .3.1.1.2.2.3.2.2.2.5.4.6.7 0 0 0-.1.1-.1 0 0 0-.1.1-.1.1-.1.1-.1.2 0l.2.2c0 .1 0 .1.1.2v-.2c0-.2.1-.3.3-.3h.2c.1 0 .3.1.4.1.2.1.5.2.7.3.3.1.6.2.9.2h.1c.1 0 .2.1.2.2s0 .2-.1.3c-.1.1-.1.3-.2.4s-.1.2 0 .4c.2.5.6 1 1 1.3.1.1.2.1.3.2.2.1.4 0 .5-.2 0 0-.1 0-.1-.1-.1-.1-.3-.1-.4-.2l-.6-.3-.2-.2v-.1c.1 0 .1-.1.2-.1h.5c.7 0 1.4.1 2.1.2l1.8.3c.6.1 1.2.2 1.8.2.4 0 .8.1 1.2 0 .3-.1.5 0 .7.2.1.1.3.3.4.5.1.2.2.3.3.5l.3.3c.1.1.2.2.4.2 0-.1-.1-.1-.1-.1-.2-.2-.4-.4-.5-.7-.1-.1-.1-.2-.1-.3 0-.1 0-.1.1-.1.2 0 .3.1.4.3.1.2.2.4.4.5.1.1.2.1.2.2h.1c0-.1 0-.2-.1-.2-.1-.1-.1-.2-.2-.3-.1-.1-.1-.2-.2-.3-.1-.1-.1-.2 0-.3 0 0 .1-.1.1 0 0 0 .1 0 .1.1l.2.2.4.4c.1.1.1.1.2.1v-.1c0-.1-.1-.2-.2-.2l-.2-.2c-.1-.1-.1-.2-.1-.4.2 0 .4.1.5.2.1.1.2.2.2.3l.3.3h.2l-.1-.1c-.1-.2-.3-.3-.4-.5-.1-.1-.1-.2-.1-.3 0-.1 0-.2.1-.2h.2c.1 0 .2.1.3.1.1.1.3.1.4.2h.1c0-.1-.1-.2-.1-.3 0-.1 0-.1.1-.1s.2.1.2.1l.1.1c.1-.4.2-.5.5-.7.1-.1.3-.2.5-.3.4-.2.8-.4 1.3-.5.4-.1.7-.1 1.1-.1.2 0 .4 0 .6.2h.1c-.1-.1-.1-.2-.2-.2l-.3-.3c-.1-.1-.1-.2-.2-.2-.1-.1 0-.2.1-.3.1-.1.1-.1.2-.1l.9-.3c.4-.1.8-.2 1.3-.4l.6-.3c.1 0 .2-.1.3-.2 0-.1.1-.1 0-.2-.2-.1-.5-.2-.7-.2-.3 0-.5.1-.7.3-.1.1-.2.2-.4.3-.2.2-.4.2-.7.2h-.2c-.1 0-.2 0-.3.1-.2.1-.4.2-.5.4-1.2.8-2.5 1.3-3.9 1.7-1.2.3-2.4.4-3.6.4h-.8.3c.5 0 .9 0 1.4-.1.8-.1 1.6-.3 2.3-.5.7-.2 1.3-.6 1.9-.9 0 0 .1 0 .1-.1-.1-.1-.2-.1-.2-.1-.2 0-.3.1-.5.1-.3.1-.5.2-.8.4-.3.2-.7.3-1 .5-.2.1-.3.1-.5.1-.1 0-.2 0-.3.1-.4.2-.8.2-1.3.3-.6 0-1.2 0-1.8-.1-.5-.1-1-.2-1.5-.2-.3 0-.6 0-.8-.1h-.1c.4.2.8.3 1.3.4.4.1.9.2 1.3.2h-.6l-2.4-.3c-1.2-.2-2.3-.5-3.4-.8-.2 0-.3-.1-.5-.1-.1 0-.2 0-.2-.1l-.3-.3c-.1-.1-.2-.2-.2-.3-.2-.2-.4-.3-.7-.3h-.3c-.2 0-.3-.1-.4-.3l-.1-.1c-.1-.2-.2-.2-.4-.3-.4-.1-.7-.1-1.1-.1-.3-.3-.7-.3-1-.2m18.1-12.5c0-.1 0-.1 0 0 0-.1 0-.1 0 0V38.4c0 .1-.1.1-.2.1s-.1-.1-.2-.1c0-.2-.1-.4-.1-.5 0-.2 0-.5.2-.6 0-.1-.1-.3-.2-.4 0-.1-.1-.1-.1-.1h-.2c0 .1-.1.1-.1.2-.1.5 0 .9.2 1.3s.5.4.9.5c.1 0 .2-.1.2-.2v-.2c-.1-.3-.3-.5-.4-.7m-2.1 2.9c0 .1.1.1.1.2.1.2.1.3-.1.4 0 0-.1.1-.2.1-.2.1-.4.1-.7.1-.1 0-.1 0-.2-.1s-.2-.1-.1-.3v-.2c0-.1 0-.1-.1-.1h-.2c0 .1.1.2.1.3 0 .2.1.4.1.6.1.3-.1.5-.3.7-.1.1-.2.1-.3.2l-.1.1c0 .3-.1.5-.3.7 0 .1-.1.1-.1.2-.1.2-.2.3-.3.5 0 .1-.1.2-.1.3 0 .1 0 .2.1.2 0 0 .1 0 .1.1.1.1.2.2.2.3v.2c0 .1-.1.3-.1.4-.1.2-.2.4-.3.7 0 .1-.1.1-.1.2 0 .4 0 .7.2 1 0 0 .1.1.1.2 0 .2-.1.3-.2.3s-.2 0-.2-.1c-.1-.1-.2-.2-.2-.3-.1-.2-.1-.3-.1-.5v-.3-.3H32c-.5.2-1 .2-1.6.3-.7 0-1.3 0-2-.1s-1.4-.2-2.1-.2c-.5 0-1 0-1.5.1-.9.2-1.5.6-1.9 1.4-.3.5-.4 1.1-.5 1.7v.1c.2-.1.3-.1.3.1v.1c0 .1.1.3.1.4 0 0 0 .1.1.1v-.2c0-.1 0-.2.1-.3 0-.1.2-.1.2 0s.1.1.1.2v.4c.2 0 .3 0 .4-.1.1-.1.1-.2.2-.2 0-.1.1-.1.2-.2s.2-.1.3-.1c.1.2.1.2 0 .3 0 .1-.1.2-.1.3-.1.1-.1.2-.2.3-.1.1-.1.2-.1.3 0 .1.1.2.2.2h.8v-.2l.1-.1c.1.1.2.1.3.2 0 0 .1.1.2.1 0-.1.1-.1.1-.1.1-.1.1-.1.2 0l.1.1.1.1c.1 0 .2.1.2 0h.2c.1 0 .2 0 .3.1.2 0 .3.1.5.1.1 0 .2.1.3.2l.1.1c.2.1.3.1.4-.1 0-.1.1-.1.1-.2.1-.1.1-.1.2 0 0 .1.1.2.1.2.3-.1.3-.1.2-.4v-.2c0-.1 0-.2.2-.2l.3.3c.1-.4-.2-.8-.6-.9-.2 0-.4-.1-.5-.1-.4 0-.7.1-1.1.1-.2 0-.5.1-.7 0-.2 0-.3-.1-.3-.4 0-.1.1-.3.1-.4l.3-.6c.1-.1.1-.2.1-.3 0-.3.1-.5.1-.8 0-.2 0-.4-.1-.5-.1-.2-.3-.3-.5-.3-.1 0-.2 0-.3.1-.2.1-.4.2-.5.3-.4.3-.8.7-1.2 1.1l-.2.2c-.1 0-.1-.1-.1-.1v-.3c.1-.1.1-.3.2-.4.4-.5 1-.9 1.6-1.2.1-.1.3-.1.4-.1h.3c.1 0 .3.1.4.2l.3.3c.1.1.2.3.2.5s.1.3.1.5c0 .1 0 .2.1.2.1.1.2.2.1.3v.4c0 .1 0 .2.1.2 0 .1.1.1.2.1v-.3c0-.2 0-.3.1-.5s.2-.3.4-.2c.1 0 .2.1.3.2 0 .1 0 .2.1.4 0 .2.1.3.1.5 0 0 0 .1.1.1v-.4-.4h.5c.1 0 .2.1.3.3v.3c0 .2 0 .4.1.6 0 0 .1 0 .1.1v-.3-.5c0-.1 0-.1.1-.2.1 0 .1.1.2.1 0 0 .1.1.1.2v.5c0 .1.1.1.1.1s.1.1.2 0c0-.1 0-.3-.1-.4v-.4c0-.1.1-.1.2-.1s.2.1.2.2v.3c0 .1 0 .2.1.3 0 .1.1.1.2.2 0-.1 0-.2-.1-.2v-.5c0-.1 0-.2.1-.2s.1.1.2.1c0 0 0 .1.1.1.1.2.1.4.1.5 0 .1 0 .2.1.2l.1.1c0-.2.1-.3.1-.5v-.5s0-.1.1-.1h.1c.1.1.2.2.2.4s0 .4.1.5c0 .1.1.1.1.1.1 0 .1 0 .1-.1s-.1-.2-.1-.2c0-.1-.1-.3 0-.4.1-.2.3-.2.4-.1.1.1.1.1.1.2.1.2.1.4 0 .6v.3h.4c.2 0 .3 0 .5.1.1 0 .1.1.2.1.2.1.5.2.7.2h.2c.4 0 .8-.1 1-.5l.1-.1c.1.1.1.1.2.1.1.1.3.1.5 0 .1 0 .1-.1.2-.1.2-.1.3-.1.5 0 .1 0 .2.1.2.1.2.1.3.2.4.4 0 .1.1.1.2.1.2.1.3 0 .3-.2v-.3c0-.2.1-.2.3-.1.1.1.2.1.2.2s.1.1.1.2c.1-.3.1-.6 0-.8-.1-.3-.3-.5-.6-.6-.1 0-.3-.1-.5-.1-.4 0-.7.1-1.1.1-.4 0-.7.1-1.1.1-.2 0-.5 0-.7.1h-.2c-.2 0-.5-.1-.6-.3-.2-.2-.1-.4.1-.5.1 0 .2.1.3.1.2.1.4.2.7.2h.4c.2 0 .3-.1.3-.3.1-.3.1-.7.3-1 .1-.2.1-.4 0-.5-.1-.4-.2-.7-.3-1.1h-.2s-.1.1-.1.2 0 .3-.1.4v.8c0 .2 0 .3-.1.4 0 .1-.1.3-.3.3h-.1c0-.1 0-.2.1-.3.1-.4.2-.8.2-1.2 0-.3-.1-.5-.2-.8 0-.1-.1-.1-.1-.2-.2-.1-.4-.3-.5-.5-.2-.4-.4-.7-.5-1.2v-.3-.1l.1.1c.1.2.3.4.4.7 0 .1.1.2.1.2.1.1.2.2.3.2.1 0 .2 0 .3-.1.2-.1.4-.2.5-.3.1-.1.2-.2.4-.2 0 .1 0 .1.1.2 0 .1.1.2.1.3.1.3.3.3.5.1.1-.1.2-.2.2-.4.2-.4.3-.8.4-1.2v-.5c0-.1 0-.1-.1-.2-.1 0-.1-.1-.2-.1s-.1-.1-.1-.2.1-.1.2-.1.1-.1.2-.1c.1-.1.1-.1.1-.2s-.1-.2-.2-.2l-.1.1c-.1 0-.1.1-.2.1-.1.1-.2.1-.3 0l-.1-.1c0-.1-.1-.2-.2-.2s-.2-.1-.3-.1H35c-.2 0-.3-.1-.4-.2l.1-.1c.2-.1.4-.2.6-.2.2 0 .5 0 .7.1.2 0 .4.1.6.1h.5c.1 0 .3-.1.3-.2.1-.1.2-.3.2-.4 0-.1.1-.2.1-.3V40c0-.1-.1-.2-.2-.1s-.2.1-.2.3v.2c0 .1 0 .2-.2.3h-.2c-.2 0-.5 0-.7-.2l-.1-.1c-.1-.1-.1-.2 0-.3l.1-.1c.1-.2 0-.3-.2-.3-.3.6-.5.7-.6.9m-8.5-10.7c0-.1.1-.2.1-.3.1-.1.2-.2.3-.4.3-.2.6-.4.8-.7l.1-.1c.2 0 .4.1.4.4v.2c.2.1.3.1.5.1s.3-.1.4-.1c.2-.1.4-.3.5-.4l.6-.6c.1-.1.2-.3.4-.4l.4-.4h.1V27.5c0 .1-.1.2-.1.4 0 .1-.1.3-.1.4 0 .2 0 .3.2.4l.1.1c.1 0 .1.1.2.1.1-.1 0-.1 0-.2s0-.3-.1-.4v-.1h.1c.2.1.3.1.4.3.1.2.2.4.4.6.1.1.2.2.4.3.2.1.4.1.5-.1v-.1c0-.1-.1-.2-.1-.4 0-.1-.1-.2-.1-.2 0-.2 0-.4.2-.4 0 .1 0 .1.1.2.3.6.7 1 1.4 1.3.1.1.3.1.4.1.2 0 .3-.1.2-.3 0-.1-.1-.2-.1-.3-.1-.2-.3-.4-.4-.5 0 0-.1-.1-.2-.1s-.2-.1-.3-.2c-.1-.1-.2-.3-.4-.4l-.3-.3c-.1-.1-.1-.1-.2-.1v.1c-.1.1-.2.2-.3.2h-.5c0 .1.1.1.1.2.1.2.2.3.3.5 0 .1.1.2 0 .3 0 .1-.1.1-.2.1s-.1-.1-.2-.1c-.1-.1-.2-.3-.3-.4-.1-.2-.2-.5-.1-.7 0-.1 0-.3-.1-.4-.1-.1-.2-.2-.3-.2-.1 0-.2 0-.3.1-.2.1-.3.1-.5.2h-.2c-.1-.1-.3 0-.4.1l-.2.2c-.3.2-.6.3-.9.5-.2.1-.3.1-.5.1h-.2c-.3-.1-.6-.2-.8-.3L28 28c.2-.2.3-.4.5-.6l.3-.3c.1 0 .1-.1.2-.1s.2 0 .2.1 0 .1.1.2c0 .1.1.2.1.3 0 .1.1.2.3.1.1 0 .1 0 .2-.1s.2-.1.3-.2c.2-.2.4-.3.6-.5 0 0 .1-.1.2-.1.1-.1.2 0 .2 0l.2.2h.1c.1-.1.1-.2.1-.3 0-.3-.1-.6-.3-.8 0-.1-.1-.1-.1-.2-.1-.1-.2-.1-.3-.1-.4.1-.9.2-1.3.3-.2 0-.5.1-.7.1-.4.1-.7.3-.9.6 0 .1-.1.1-.1.2-.2.3-.3.7-.4 1.1v.1s.1 0 .1.1c.3.1.3.4.2.6-.1.1-.1.2-.2.3-.1.2-.3.4-.4.6-.1.1-.1.2-.2.3-.1.2-.1.2.1.4.1.1.2.3.1.4 0 .1-.1.2-.1.3-.1.1-.2.2-.2.3-.1.1-.2.3-.3.4-.6-.4-.6-.3-.6-.1 0 .1 0 .3.1.4 0 .1.1.1.2 0 .1 0 .2-.1.2-.2.2-.2.3-.4.5-.6.2-.2.3-.4.5-.5.1-.1.2-.2.3-.2.1-.1.2 0 .3.1.1.1.1.2 0 .4v.3c0 .1.1.2.2.2s.2-.1.3-.2c.2-.1.3-.3.5-.4.4-.4.7-.7 1-1.2.1.1.1.3.1.4 0 .1-.1.2-.2.4 0 .1-.1.2-.1.3 0 .2 0 .3.1.4.1.1.2.1.3 0 .1-.1.2-.2.2-.3l.3-.6c.1-.2.2-.4.3-.5 0-.1.1-.1.1-.2.1-.1.1-.1.2 0 .1 0 .1.1.2.1s.1 0 .2.1.1.2.1.3l-.2.2-.3.3c-.1.2-.1.3 0 .4.2.1.4.3.6.4h.2v-.3c0-.1-.1-.3-.1-.4 0-.1-.1-.3-.1-.4V30c0-.1.1-.2.2-.2v.1c.1.5.3.9.7 1.2.4.3.8.6 1.3.7h.1v-.1c0-.3-.1-.4-.4-.4h-.2c-.3 0-.5-.2-.6-.5v-.2c0-.2-.1-.4-.2-.6-.2-.3-.5-.5-.8-.5-.4 0-.7-.1-1-.4-.1-.1-.2-.1-.3 0-.1.1-.2.1-.3.2-.3.2-.5.3-.8.5-.1.1-.3.2-.4.2-.1 0-.2 0-.3.1-.3 0-.6.1-.9-.1-.1-.1-.2-.1-.3 0-.1 0-.2.1-.2.1-.1 0-.2.1-.3.1-.2-.3-.3-.3-.4-.3m2.6 3.6l-.2.2c-.2.1-.3.3-.5.4-.1.1-.3.2-.4.2-.2.1-.4.1-.7 0-.1 0-.2-.1-.3-.1-.2-.1-.5 0-.7.1-.3.2-.6.4-.8.7-.1.1-.2.3-.3.4-.1.2-.2.3-.4.5s-.2.4-.2.6c0 .1.1.1.1.1.1 0 .1 0 .1-.1.1 0 .2-.1.2-.2.2-.2.4-.3.6-.5.1-.1.3-.2.4-.3.1-.1.2-.1.3-.1.1 0 .1 0 .1.1v.2c0 .1-.1.2-.1.4s.1.3.2.2c.1-.1.3-.2.4-.2.6-.5 1.2-1.1 1.7-1.8.1-.1.2-.3.2-.4l.1-.1c.1.1.1.2.1.3 0 .1 0 .2-.1.2-.1.2-.2.4-.4.5-.2.2-.3.4-.4.6 0 .1-.1.2 0 .3.1.1.2.1.3 0 .1-.1.3-.1.4-.2.5-.2.9-.5 1.3-.9 0 0 .1 0 .1-.1.1.1.1.3.3.5.1 0 .1-.1.1-.2v-.5s0-.1.1-.1l.1.1c.1.1.2.3.3.4.2.2.4.5.6.7.1.1.2.1.3.2.2.1.3.1.5-.1 0 0 .1-.1.1-.2l.1-.1c.1-.1.2-.1.2-.1.1 0 .2.1.2.1.1.1.2.2.3.2.1.1.2.2.4.2.2.1.5 0 .6-.2.1-.1.1-.2.1-.3 0-.1-.1-.2-.2-.2l-.3-.3c-.1-.1-.2-.3-.2-.4 0-.2-.2-.4-.4-.6h-.1c-.1-.1-.2 0-.2.2v.2c.1.2.2.4.4.6l.3.3c.1.1.2.2.2.3v.1c-.2-.1-.4-.2-.6-.4-.3-.3-.5-.7-.6-1.1v-.4s0-.1-.1-.1-.1.1-.1.1c-.2.2-.4.2-.6.1-.2-.1-.3-.1-.4-.2-.2-.1-.4-.2-.5-.3-.1-.1-.2-.1-.3-.2l-.2.2-.4.4c-.1.1-.2.2-.3.2-.3.2-.5.1-.7-.2-.1.2-.1.2-.1.1m1 2.2c.1 0 .1.1.1.1l.3.3.6.9c.2.3.4.5.6.8.2.2.4.3.6.4.2.1.4.2.7.2.1 0 .1-.1.1-.2 0-.2-.1-.3-.2-.5-.3-.5-.6-1-1-1.4L32 36h-.1v.2c0 .1.1.2.1.3v.4s0 .1-.1.1h-.1c-.1-.1-.1-.1-.1-.2-.1-.3-.2-.6-.2-1v-.2H31c-.2 0-.4-.1-.5-.2-.2.1-.4.2-.6.4-.1.1-.3.2-.4.3-.1.1-.2.2-.3.2-.2.1-.4.1-.6 0-.1-.1-.2-.1-.3-.2l-.1-.1c-.1.1-.1.2-.2.3v.1c.1.1.1.2 0 .4 0 .1-.1.2-.2.3-.1.1-.2 0-.2-.1v-.2c-.1-.1-.2 0-.3 0h-.4c-.2 0-.4-.1-.5-.2l-.1-.1-.1-.1-.1.1c-.6.5-1.1 1-1.5 1.7-.1.1-.1.2-.2.3 0 0 0 .1-.1.1-.1.2 0 .3.2.3.1 0 .3-.1.4-.2.4-.2.8-.5 1.2-.7.1-.1.2-.1.3-.2.1-.1.2 0 .3.1v.4c.1.2.2.2.3.2.1 0 .2-.1.3-.2.2-.1.3-.3.5-.4.3-.2.7-.2 1 0 .1.1.2.1.3.2.2.1.4.1.6 0 .2-.1.4-.2.6-.4.2-.2.3-.2.5-.1.1.1.2.1.3.2.1 0 .2.1.3 0v-.1c-.1-.2-.2-.3-.3-.5-.1-.2-.2-.3-.4-.5-.1-.1-.2-.3-.3-.4 0-.2 0-.4.1-.6m10.1 9.7c.1 0 .2-.1.3-.1.1-.1.3-.1.4-.2.2-.1.5 0 .7.1.1.1.1.2.1.3 0 .1 0 .2-.1.3-.1.2-.2.4-.3.7-.2.4-.4.7-.5 1.1 0 .1-.1.2-.1.3v.1c.1 0 .2-.1.3-.2.1-.1.2-.3.3-.4.1-.2.2-.3.2-.5.1-.2.2-.4.3-.5.1-.1.2-.3.3-.4.2-.2.4-.2.6-.1.3.1.4.3.6.5.1.2.2.4.3.7 0 0 0 .1.1.1s.1-.1.2-.1c.1-.1.3-.3.4-.5.2-.4.4-.9.5-1.3 0-.2.1-.5 0-.7 0-.1 0-.3-.1-.4-.1.1-.1.1-.2.1-.2.2-.5.4-.7.5-.1.1-.3.1-.4.2-.2.1-.4 0-.5-.3 0-.1-.1-.2-.1-.3v-.7c.1-.5.1-1 .2-1.5 0-.3.1-.7.1-1 0-.2 0-.5-.1-.7 0 0 0-.1-.1-.2 0 .1-.1.1-.1.1-.2.3-.3.5-.5.8-.2.5-.4.9-.4 1.5 0 .4 0 .7.1 1 0 .2.1.3.1.5 0 .3-.3.5-.6.5h-.2c-.3.1-.6.2-.9.4-.1.1-.1.1-.1.2-.1 0-.1 0-.1.1M30.8 33c-.2-.3-.1-.5-.1-.8 0-.1.1-.2.1-.3 0-.2.1-.3.1-.5v-.2c-.1 0-.2.1-.3.2-.1.1-.3.2-.4.3-.3.2-.5.1-.6-.2 0-.1 0-.1-.1-.2-.1 0-.1.1-.1.1V32c-.1.2-.2.4-.4.6 0 .1-.1.1-.2.1s-.1-.1 0-.2c0-.2.1-.4.2-.6 0 0 .1-.1 0-.1h-.1c-.3.1-.6.2-.9.2h-.8c-.3 0-.5.1-.7.4 0 .1-.1.2-.2.3-.1.2-.3.4-.4.6-.1.2-.2.3-.3.5 0 .1-.1.2-.1.3 0 .1 0 .2.1.2s.2.1.2.1c.1 0 .1-.1.2-.1.3-.3.6-.6.9-.8l.3-.3s.1-.1.2 0v.4c0 .3.2.4.4.4s.4 0 .5-.1c.2-.1.3-.3.5-.4l.6-.6c.1-.1.2-.1.3-.2h.2c.1.1 0 .3 0 .4v.3c0 .1.1.2.2.1h.1c.3-.3.4-.4.6-.5m.8 9.1c-.1-.6-.2-1.1-.2-1.6v-1.2-.3c0-.2.1-.4.3-.4-.1 0-.1-.1-.2-.1-.3-.1-.4-.1-.6.2-.1.1-.1.2-.1.3-.1.3-.1.6-.1 1v1.6c0 .6.1 1.2.1 1.7V45.4c0 .1-.1.2-.1.3 0 .2 0 .3.2.4.1.1.3.1.4 0 .1-.1.2-.2.1-.3 0-.1-.1-.1-.1-.2l.1-.1c0-.1-.1-.1-.1-.2-.1-.2-.1-.4-.1-.5 0-.1.1-.3.2-.4 0-.1.1-.1.1-.2s-.1-.2-.1-.2c0-.1.1-.1.1-.2.1-.1.1-.2 0-.3 0-.1 0-.1-.1-.2v-.2c0-.2 0-.4-.1-.6.1-.1.1-.2.3-.4-.1.1 0 .1 0 0m-1.7-21.2c0 .1 0 .1-.1.2 0 .1-.1.2-.2.2h-.2c-.1 0-.3.1-.3.2 0 .2-.2.4-.3.6-.1.1-.2.2-.3.4-.1.2-.2.3-.2.6v.1l.2-.2c.2-.1.4-.3.6-.4.1-.1.3-.1.4-.1.2 0 .3 0 .5.1l.1.1h.2l.1-.1c.1-.1.1-.2.2-.3.1-.1.1-.2.1-.3 0-.1 0-.2.1-.2l.3-.3h.2c.1 0 .1.1.1.1v.5c0 .1 0 .2.2.3.2-.1.3-.3.4-.4 0 .1 0 .1.1.2s.1.3.2.4c0 .1.1.2.1.2.1.1.2.1.2 0v-.2c0-.4 0-.7-.2-1.1 0 0 0-.1-.1-.1-.2 0-.3 0-.5-.2-.1-.1-.2-.2-.4-.3-.1-.1-.2-.1-.3-.2-.2-.1-.3-.1-.4.1 0 0 0 .1-.1.1-.1.1-.4 0-.7 0M35.1 52H33.2c-.3 0-.5 0-.7-.2-.1-.1-.2-.1-.4-.2-.1 0-.1-.1-.2 0s-.3 0-.4 0c-.1 0-.2-.1-.3-.1l-.1.1c-.1.2-.2.2-.4 0-.1 0-.1-.1-.2-.1-.1-.1-.2 0-.3 0-.1.1-.1.1-.1.2-.2-.1-.2-.3-.3-.4-.2.2-.3.3-.4.5-.1.2 0 .4.1.5.1.1.2.1.3.2.2.1.4.2.7.2.5.1.9.1 1.4.1.6 0 1.2-.1 1.9-.2.4-.1.7-.2 1-.3l.3-.3m-2.2-20.7c0 .1 0 .1 0 0-.1.3-.1.5 0 .7.1.5.4.9.8 1.3.1.1.3.2.5.3.1 0 .2.1.3.1.2 0 .3-.1.3-.2v-.1c0-.2.1-.2.3-.1 0 0 .1 0 .1.1.1.1.3.2.4.3l.6.3h.2c.1 0 .1 0 .2-.1s.1-.3 0-.4c-.1-.1-.1-.2-.1-.3 0-.1-.1-.1-.1-.2s-.1-.1-.2-.1H36c0 .2.2.3.2.5-.2 0-.3 0-.5-.2-.1-.1-.2-.3-.2-.4 0-.2-.1-.3-.1-.5 0-.1-.1-.3-.1-.4 0-.1 0-.1-.1-.2s-.2-.2-.3-.1c-.1 0-.2.1-.2.1-.1 0-.2.1-.2.2-.1 0-.1.1-.2.1s-.2.1-.2.3v.5l-.1-.1c0-.1-.1-.2-.1-.3v-.5c0-.2-.1-.3-.3-.4-.4-.1-.5-.1-.7-.2m-2.5-8c-.2-.1-.4-.1-.6-.1-.3 0-.7.2-.9.3-.4.3-.7.7-1 1.1-.1.1-.1.3-.1.4v.1c0 .1.1.1.2.1s.2 0 .2-.1c.2-.1.3-.2.4-.3.2-.2.4-.3.5-.5.1-.1.2-.2.4-.1.2 0 .3.2.2.4v.2c0 .1.1.2.2.2s.2-.1.3-.1c.3-.2.5-.4.7-.6.1-.1.2-.3.2-.5 0 0 0-.1.1-.1.1-.2.3-.1.4 0 0 0 0 .1.1.1 0 0 0 .1.1.2.1-.3.1-.6 0-.8 0-.1-.1-.3-.2-.4-.1-.1-.3-.2-.5-.1-.1 0-.2.1-.2.2.1.2.1.3.1.5 0 .3-.1.5-.3.6l-.1.1c-.1.1-.2 0-.2-.1s0-.2.1-.4c-.2-.2-.1-.2-.1-.3m1.9-7.1c-.2-.5-.9-.8-1.4-.7-.4.1-.6.3-.7.7v.4c0 .2 0 .3-.1.5-.1.3-.2.6-.4.9-.1.2-.1.4-.2.6v.1c0 .1.1.1.1.1.1 0 .1 0 .2-.1.2-.1.3-.2.5-.4.3-.2.7-.5 1-.8.1 0 .1-.1.2-.1.1.1.1.3 0 .4v.3l.3.3h.1v-.1c0-.4-.1-.9-.3-1.2-.1-.1-.1-.2-.2-.2-.2-.2-.4-.2-.6 0h-.1c-.2.1-.3.1-.5-.1l.7-.7.2-.2c.2-.1.3-.1.4.1l.1.1c0 .1.1.2.1.3 0 0 0 .1.1.1v-.1-.1c.2-.1.3-.2.5-.1-.1 0 0 0 0 0m-.9 3.2c.2.1.3.2.4.4 0 .1 0 .2.1.4v.3c0 .1 0 .1.1.2s.1.1.2.1.1-.1.1-.2 0-.2-.1-.3c-.1-.2-.1-.3-.2-.5 0-.1-.1-.2 0-.3v-.2c0-.1-.1-.2-.1-.2-.1-.1-.2-.3-.4-.4-.1-.1-.2-.1-.3-.1v.1c0 .1 0 .2.1.2v.3c-.3 0-.4-.2-.6-.3-.8.3-1.7 1.4-1.7 2.3h.1c.2-.1.3-.2.4-.3.1-.1.2-.2.4-.3.2-.1.4-.2.6-.2h.2c.1 0 .2-.1.1-.3-.1-.1-.1-.2-.2-.3-.1-.1-.1-.2-.1-.2-.1-.1 0-.2.1-.3.1-.1.2-.1.3 0 .1.1.2.2.2.3.1.1.1.2.2.4l.1.1v-.7m2.4 16.8c0 .1 0 .1.1.2s.1.2.2.4c.1.1.1.2.2.3 0 .1.1.2 0 .3-.1 0-.2-.1-.3-.2-.1-.1-.1-.3-.2-.4-.1-.1-.1-.3-.2-.4-.1-.2-.4-.3-.6-.2 0 0 0 .1.1.1.2.2.3.5.5.7.2.3.5.6.8.8.2.2.4.3.7.4h.3c.2 0 .3-.2.3-.4 0-.1-.1-.2-.1-.3-.1-.2-.2-.3-.3-.4-.4-.3-.9-.6-1.5-.9.1 0 .1 0 0 0m-9.9 8.5c.1 0 .2-.1.3-.2.2-.1.2-.3.2-.5 0-.1-.1-.2-.1-.3l-.3-.6c-.1-.2-.3-.4-.4-.6-.1-.2-.2-.4-.3-.7v-.1c-.3 0-.5.1-.5.4.2.1.2.1.3.2.1.1.1.3.1.4 0 .1 0 .1-.1.2h-.2c.1.3.2.6.4 1 .1.1.1.3.2.4 0 .1.1.1.1.2.1.1.1.1.2 0s.1-.2.2-.3c.1-.2.2-.4.2-.6v-.1c.1 0 .2.2.2.3v.2c0 .2-.1.3-.2.5-.2.1-.3.1-.3.2M33 26.5c0-.1-.1-.2-.1-.2 0-.1-.1-.3-.1-.4 0-.1-.1-.3-.1-.4 0-.1-.1-.1-.1-.2-.1.1-.2.3-.1.4.1.2 0 .4-.2.6l-.1.1c.2.2.4.4.6.5.1 0 .1.1.2.1s.2 0 .3-.1c0 0 .1-.1.1-.2s.1-.2.1-.3c0-.2.1-.4.1-.6 0-.1 0-.2.1-.3.2.1.3.3.3.5v.3c0 .1-.1.2-.1.3-.1.2 0 .4.2.5.1.1.3.1.4.2h.1c0-.1-.1-.2-.1-.3-.1-.3-.2-.6-.1-.9V26c0-.1 0-.2-.1-.3 0-.1-.1-.1-.1-.1-.2-.1-.4-.3-.6-.4 0 0-.1 0-.2-.1-.1 0-.2 0-.2.2 0 .1 0 .3.1.4v.4c-.1.2-.1.3-.3.4m-1.9 4.6v.2c.1.3.1.6.1.9v.1c0 .2.1.3.2.4l.1.1c.3.2.6.3.9.5.2.1.3 0 .4-.2v-.2c0-.1-.1-.2-.1-.4-.1-.2-.1-.4-.1-.7 0-.1 0-.2-.1-.3-.1-.1-.2-.1-.2-.1l-.1.1s0 .1-.1.2c0 .1-.1.1-.1.2-.1.1-.1.1-.2 0 0-.1-.1-.2-.1-.2-.1-.1-.1-.3-.2-.4-.2-.1-.3-.2-.4-.2m8.8 17.8c.2.2.2.4.2.6v.3c0 .3.2.6.5.7.1.1.2 0 .3-.1.1-.1.1-.2.2-.2.1-.3.1-.6.1-.9 0-.2-.1-.4-.2-.6-.2-.2-.4-.3-.7-.2-.1.1-.3.2-.4.4m-6-19.5v.1c.1.2.2.5.3.7.2.4.4.7.7 1 .2.2.4.3.6.4h.2c.2 0 .4-.1.3-.4 0-.1 0-.1-.1-.2s-.1-.2-.2-.3l-.6-.6H35c0 .2.1.3.2.5l.2.2.1.1c-.1 0-.1.1-.1.1h-.2c-.1 0-.1-.1-.2-.1-.2-.2-.4-.4-.4-.7 0-.3-.2-.6-.5-.7 0-.1-.1-.1-.2-.1m3.2 6.8c-.1 0-.1 0 0 0-.2-.2-.2-.3-.3-.5v-.3-.3c0-.1-.1-.3-.2-.3-.2-.2-.4-.3-.7-.4-.1 0-.1-.1-.2-.1s-.2.1-.2.2v.3c.1.5.4.9.8 1.2.1.1.3.2.5.2h.3m-.8 1.5c.1-.2 0-.4-.1-.6-.1-.1-.2-.2-.2-.3l-.2-.2c-.1-.1-.2-.3-.2-.5V36c-.1.1-.3.2-.4.2h-.1c-.1 0-.1.1-.1.1.3 0 .4.2.5.4v.1c.1.6.4.8.8.9m.2 11.9c.2-.1.3-.2.4-.3.1-.2.1-.3.1-.5.1-.4 0-.8-.1-1.2 0-.2-.1-.3-.2-.5-.1-.1-.1-.2-.2-.2v.1c.1.2.1.3.2.5s.1.5 0 .7c0 .1-.1.1-.1.2-.2.5-.2.8-.1 1.2M32.9 25v-.5c-.1-.4-.2-.7-.4-1-.1-.1-.1-.2-.2-.2 0 0-.1-.1-.1 0-.1 0-.1.1-.1.1v.1c.1.2.1.4.2.6.1.1.1.3.1.4 0 .1 0 .1-.1.2 0 .1 0 .2.1.3h.5m-6.6 16.8c-.2.1-.4.3-.5.5-.1.2-.2.4-.2.6 0 .2-.1.5-.1.7-.1.4-.2.7-.3 1.1.2-.2.3-.4.4-.6l.3-.9c.1-.5.2-.9.4-1.4 0 .1 0 .1 0 0m4.9-17.4v.2c0 .5.2.9.5 1.3.1.1.1.2.2.1.1 0 .1-.2 0-.3 0-.2-.1-.4-.1-.5 0-.1-.1-.2 0-.4 0-.1 0-.2-.1-.3-.2.1-.4 0-.5-.1m3.1.6l.1-.1c0-.1-.1-.2-.1-.3-.2-.4-.5-.8-.9-1.1-.1-.1-.2-.1-.2-.1-.1 0-.2 0-.2.1v.2c0 .2 0 .3.3.3.2 0 .4.1.5.2.1.1.2.3.3.4.1.1.1.3.2.4m-4.5 29.2v.4c.2.4.4.8.8 1.1.1 0 .1.1.2.1v-.2c-.1-.2-.2-.4-.3-.5-.2-.4-.4-.6-.7-.9m8-5.3c.1 0 .1 0 0 0 .1 0 .1-.1 0 0 .1-.3.1-.5.1-.6 0-.3 0-.6-.1-.9 0-.1-.1-.2-.2-.3-.1-.1-.2-.2-.4-.2h-.1c.1 0 .1.1.1.1.1.1.2.3.3.5 0 .1.1.3.1.4v.6c.2.2.2.3.2.4m-3.9-18.3v-.2c0-.1-.1-.2-.1-.4s-.1-.4 0-.5v-.1h-.1c-.2.1-.3.2-.4.3-.1.1-.1.2 0 .3.1.4.3.5.6.6m-2.5-16c.1 0 .1 0 0 0 .2-.1.2-.1.3-.1.1 0 .1.1.2.2 0 0 .1.1.1 0-.1-.3-.3-.5-.5-.7-.1-.1-.2-.1-.3-.2h-.1c-.1 0-.1 0-.1.1v.2c.2.2.3.4.4.5m-8.1 38.8c-.2-.3-.4-.4-.6-.5h-.2c-.1 0-.2.1-.2.2s0 .1.1.2.2.1.3.1c.1.1.3.1.6 0m6 2.3c.1-.1 0-.2 0-.3-.1-.1-.1-.2-.2-.3-.1-.2-.3-.4-.4-.6 0-.1-.2-.2-.3-.2 0 .1 0 .2.1.4.2.2.5.6.8 1m.7-.1c-.1-.3-.2-.6-.4-.9-.1-.2-.2-.3-.3-.5l-.1-.1c0 .6.4 1.3.8 1.5m2.2-.1c-.1-.3-.3-.5-.5-.8-.1-.1-.2-.3-.4-.4 0 0 0-.1-.1 0 .1.3.2.7.4.9.1.1.2.2.3.2.1.1.2.2.3.1m-4.4-1.4v.4c.1.4.4.7.7.9h.1v-.1c0-.1-.1-.2-.1-.3-.2-.3-.4-.6-.7-.9.1 0 0 0 0 0m6.8-19.9c0 .2.1.4.2.5.1.1.1.2.3.2h.1v-.4c0-.1 0-.2-.1-.3 0-.1-.1-.2-.2-.1-.1 0-.2.1-.3.1m-1.5-11.9c.1-.2.2-.4.2-.6.1-.2 0-.3-.2-.3h-.4c.1.2.1.4.2.6.1.2.1.3.2.3m-.2 33.3c-.1-.1-.7-1-.9-1.2l-.1-.1c.1.6.6 1.2 1 1.3m-6-1.8h-.3c-.1.1-.2.2-.1.3 0 .1.1.2.2.3.1.2.3.3.4.5 0 0 0 .1.1 0 0 0 0-.1-.1-.1-.1-.1-.1-.2-.2-.3-.1-.2-.1-.4 0-.6v-.1m7.6-26.4h.3c.1-.1.2-.2.2-.4-.1-.2-.2-.4-.4-.6h-.1v.1c0 .1.1.2.1.3.1.3.1.5-.1.6m-1.8-8.6c.1 0 .2-.1.3-.1.1-.1.1-.2.1-.3l-.1-.1c-.1-.1-.3-.2-.5-.2 0 0-.1 0-.1.1s.1.3.3.6m5.6 35.4c-.1-.2-.2-.3-.3-.5l-.1-.1c-.1-.1-.2-.1-.4 0 .1.1.2.2.2.4l.1.1c.2.2.3.3.5.1M36 45.9c-.1 0-.3 0-.4.1 0 0-.1.1-.1.2s.1.1.2.1h.4s.1 0 .1-.1c.1-.2.1-.3-.2-.3m-4.3-32.6c0-.2 0-.3-.1-.5-.1-.1-.2-.2-.3-.4 0 0 0-.1-.1 0 0 .2 0 .5.2.7 0 .1.1.2.3.2m-9.4 31.6c.2 0 .3.1.4.1.1 0 .2.1.4.1h.2s.1 0 .1-.1c0 0 .1-.1 0-.2-.2 0-.5-.1-.7-.1h-.2c0 .1-.1.1-.2.2m.3 2.6c-.3.1-.5.1-.8.2-.4.1-.8.2-1.2.2h-.1c.2.1.6.1 1.1 0 .6-.2.9-.3 1-.4m16.3 6.4c-.1-.2-.4-.5-.6-.5-.1 0-.1 0-.1.1 0 .2.1.3.3.4.1.1.2.1.4 0m-6.3-34.6c-.1.1-.1.3-.2.4 0 .1 0 .2.1.3.1-.1.1-.1.1-.2l.1-.1c.1 0 .1 0 .2.1.1-.3-.1-.4-.3-.5m4.9 35.2c-.1-.2-.2-.4-.3-.5-.1-.1-.1-.1-.2-.1s-.1 0-.1.1c.1.2.2.3.4.5 0-.1.1 0 .2 0m-4-33.7c-.1 0-.3-.1-.4-.1-.2 0-.2 0-.2.2v.1s.1 0 .2.1h.1c.1-.1.2-.1.3-.3m4.8 26.6v-.5c0-.1 0-.1-.1-.2s-.2-.1-.3-.1c0 .2.2.5.4.8m-.1-1.2c-.3-.4-.5-.4-.7-.2.2.2.4.1.7.2m-12.4 7.5c-.1.4.1.6.4.8-.1-.3-.2-.5-.4-.8.1 0 .1 0 0 0m8-31.5c-.1 0-.1 0 0 0-.1.2-.1.3 0 .5 0 0 0 .1.1.1.1.1.2.1.3.1 0-.1 0-.1-.1-.1-.2-.3-.2-.5-.3-.6m5 26.7c-.1.2-.2.4-.1.6h.1c.1-.1.2-.1.2-.3 0-.2 0-.2-.2-.3m.4 4.1c0 .1 0 .2.1.3.1.1.2.1.3.1h.1v-.1l-.1-.1c-.1-.1-.2-.1-.4-.2m-1.3-8.2v.3l.1.1h.1c.1 0 .1-.1.2-.2-.1-.1-.2-.2-.4-.2m-12.5 9.3s0-.1 0 0c0-.2-.1-.3-.1-.4 0-.1-.1-.1-.1 0-.1 0-.1.1 0 .1.1.1.1.2.2.2-.1 0-.1.1 0 .1m14.9-2.2c0 .2.1.3.2.4.1.1.2.1.3 0-.1-.1-.3-.3-.5-.4m-3-3.5c.1 0 .2-.1.2-.1 0-.2 0-.3-.1-.4v.3c-.1 0-.1.1-.1.2m-1.6-15.8c.1 0 .1 0 .1-.1v-.2s0-.1-.1-.1c0 0-.1-.1-.2 0 .1.2.1.3.2.4m2.6 12.9h-.4c-.1 0-.1 0-.1.1.1 0 .2 0 .2.1h.2c.1-.1.1-.1.1-.2m1.4 7.4c.1.1.3.2.4.3v-.1c0-.1-.1-.1-.2-.2 0 0 0-.1-.2 0 .1 0 0 0 0 0m-8.9-38.5c-.1.1-.1.2-.2.3 0 .1 0 .1.1.2 0 0 .1.1.1 0v-.5zm10.5 37.7c-.1-.1-.3-.2-.4-.3 0 .1 0 .2.1.3 0 0 .1.1.3 0m-17 1.4c.1.1.2.2.4.2 0-.1 0-.2-.1-.2h-.3M45.6 52.5c0-.2.1-.4.2-.5.2-.2.3-.4.5-.5.1-.1.1-.1.2-.1h.2c.3.2.6.3.9.4l.6-.6c-.2-.3-.3-.6-.5-.9 0 0 0-.1-.1-.1-.1-.1 0-.2 0-.3 0 0 0-.1.1-.1.2-.2.4-.5.6-.8.1-.2.2-.3.3-.5.1-.2.2-.3.5-.2h1l-.1-.1c-.2-.1-.3-.2-.5-.3-.2-.1-.3-.3-.2-.5 0 0 0-.1.1-.1.1-.2.3-.4.4-.6.1-.3.4-.3.6-.1l1.8 1.2c.3.2.5.3.8.5.1.1.2.1.4.1.3 0 .5.3.4.6-.1.4-.3.7-.5.9l-.1.1c-.2.1-.3.1-.5 0-.1-.1-.3-.2-.4-.3-.1 0-.1-.1-.2-.1 0 .1.1.3.1.4 0 .1.1.2.1.4.1.1.2.1.2.2.1.1.2.3.1.4-.1.3-.3.6-.5.8l-.1.1c-.2.1-.4.1-.5-.1l-.3-.6c-.1-.4-.1-.7-.2-1.1 0-.1 0-.1-.1-.2-.2 0-1.7.1-2.1.2v.1c.2.4.4.8.6 1.3.2.4.4.9.7 1.3 0 .1.1.2.1.2.2.3.2.6.1.9-.1.2-.2.4-.3.5-.1.2-.3.2-.5.1-.4-.2-.8-.3-1.1-.5-.8-.3-1.5-.6-2.3-.9-.2-.1-.3-.1-.5-.1v.1c.2.3.4.5.7.8l1.2 1.5c.1.1.2.2.4.3.3.1.3.5.1.7-.3.2-.6.5-.9.7-.2.2-.5.4-.9.4-.2 0-.5 0-.7-.1-.4-.2-.6-.5-.7-.9v-.1-.1h-.2c-.3 0-.6-.1-.8-.3-.6-.5-.6-1.3-.3-1.9.1-.2.3-.4.5-.6.3-.2.5-.4.8-.6.4-.4.6-.5.8-.4m4.2-5.1c0 .1 0 .1 0 0l1.5.9.1.1c-.4.1-.8.1-1.2.1h-1.1c-.3.4-.5.7-.5.9.2 0 .5 0 .7-.1.2 0 .5 0 .7-.1.2 0 .5 0 .7-.1.2 0 .5-.1.7 0v.1c.1.3.1.7.2 1 .1.3.1.5.2.8 0 .1.1.2.2.3.2-.2.3-.4.4-.7 0-.1 0-.1-.1-.2-.2-.1-.2-.2-.3-.3-.1-.5-.3-1-.4-1.5v-.1c.5.3 1 .6 1.4 1 .3-.2.4-.5.5-.8 0-.1 0-.2-.1-.1-.2 0-.3-.1-.4-.1-.1 0-.1-.1-.2-.1-.8-.5-1.7-1-2.5-1.6 0 0-.1-.1-.2-.1-.1.3-.2.5-.3.7m-4.4 5.5c-.2.1-.9.7-1 .8-.1.1-.3.3-.3.5-.2.5-.2.9.2 1.3.2.2.4.3.7.3.1 0 .2 0 .4-.1h.1v.8c.1.3.5.5.9.4.3-.1.5-.2.7-.3.3-.2.5-.5.8-.7l.1-.1s0-.1-.1-.1c-.2-.1-.4-.3-.5-.5-.3-.4-.7-.8-1-1.2-.4-.4-.7-.8-1-1.1m4.5 1c.1-.1.2-.2.2-.4.1-.2.1-.5 0-.7-.1-.1-.1-.3-.2-.4-.5-.9-.9-1.8-1.4-2.7 0-.1-.1-.1-.1-.2-.1.1-.2.2-.3.4l.3.6.3.6c-.2.2-.3.3-.4.5-.2.2-.3.4-.5.5-.4-.2-.8-.3-1.2-.5l-.6.6h.1c.1.1.3.1.4.2.4.2.8.3 1.2.5.7.4 1.5.7 2.2 1M48.8 17.6c-.2-.2-.3-.4-.5-.6h-.2c-.3.1-.6.2-.8.3-.2.1-.3 0-.4-.1-.2-.2-.3-.4-.5-.6-.2-.2-.4-.3-.5-.5l-.2-.2c-.1-.1-.2-.2-.1-.4.1-.3.1-.6.2-1v-.1h-.1c-.1.1-.2.3-.3.5-.2.2-.4.3-.6.1l-.6-.6c-.2-.2-.2-.4 0-.6.7-.7 1.4-1.5 2-2.2 0-.1.1-.1.1-.2.1-.1.1-.2.1-.3.1-.3.4-.4.6-.3.3.1.5.3.7.6.1.1.1.2.1.2.1.2 0 .3-.1.4l-.4.4-.1.1h.6c.1 0 .1 0 .2-.1.2-.2.4-.2.6-.1.2.1.5.3.6.5 0 .1.1.1.1.2.1.2 0 .4-.2.5-.2.1-.3.1-.5.1h-1.5c0 .3-.1.7-.1 1 0 .4-.1.7-.1 1.1h.2c.7-.2 1.3-.4 2-.6.4-.1.7-.2 1.1-.3.3-.1.6-.1 1 .1.2.1.3.2.4.3.2.2.1.4 0 .5-.2.2-.4.5-.6.8-.5.7-.9 1.4-1.4 2.1-.1.2-.2.3-.3.5-.1.2-.2.2-.4.2-.1 0-.2-.1-.2-.1-.1-.1-.2-.3-.4-.4-.1-.1-.1-.2-.2-.3-.1-.2-.1-.3 0-.5.3.2.6-.2.7-.4m.3-4.3c-.1-.2-.4-.5-.6-.6h-.1c-.1.2-.3.2-.4.2-.5 0-1 .1-1.6.2h-.1l.6-.6.6-.6v-.1c-.2-.2-.4-.4-.6-.5-.1 0-.2 0-.2.1 0 .2-.2.4-.3.5-.7.7-1.3 1.5-2 2.2l-.1.1.6.6s.1 0 .1-.1c.3-.5.7-.9 1.1-1.3 0 0 .1 0 .1-.1 0 .4-.1.8-.1 1.1-.1.4-.1.8-.2 1.2l.1.1c.1 0 .1.1.2.1l.1.1c.1 0 .1.1.2.1s.1.1.2.1c0-.3 0-.6.1-.9 0-.3 0-.6.1-.9 0-.3 0-.6.1-.9h1.5c.1 0 .4 0 .6-.1m-.6 5.4c.1.2.4.6.5.7 0-.1.1-.2.1-.2 0-.1.1-.2.1-.2.5-.9 1.1-1.7 1.6-2.6.1-.1.2-.3.3-.4l.1-.1c-.1-.2-.3-.3-.5-.4-.2-.1-.4-.1-.6 0-1 .3-2.1.6-3.1.9-.1 0-.3.1-.4.1.1.2.2.3.3.4.2-.1.4-.1.6-.2.2-.1.4-.2.6-.2.3.4.6.7.8 1.1.1.3-.1.7-.4 1.1M56.3 30.2c-.1 0-.1.1-.2.1-.1.1-.1.3-.2.4-.1.2-.2.3-.2.5-.1.2-.2.4-.4.6-.6.6-1.6.6-2.1 0-.4-.5-.6-1.1-.4-1.8 0-.1.1-.2.2-.4l.1-.1H53c-.2 0-.3-.1-.3-.3-.1-.3-.2-.6-.2-.9 0-.2 0-.3.1-.4l.5-.5s0-.1.1-.1H53c-.1 0-.2.1-.4.1-.2.1-.4 0-.5-.2-.1-.3-.1-.6-.2-.8 0-.2.1-.4.3-.4.6-.2 1.2-.3 1.8-.5.4-.1.7-.2 1.1-.3h.2c.1 0 .3-.1.4-.2.2-.2.6-.1.7.2.1.5.3 1 .4 1.5.1.3 0 .7-.1 1-.1.2-.3.4-.5.5-.6.4-1.2.4-1.8 0l-.1-.1c-.2.2-.8 1-.9 1.3h.2c.2 0 .4 0 .5.1.2.1.3.4.1.6-.2-.1-.2 0-.3.1v.5s0 .1.1.1c0 0 .1 0 .1-.1.1-.1.1-.2.2-.3.1-.2.2-.4.3-.5.1-.2.2-.4.4-.5.7-.8 2-.6 2.4.5.2.5.2 1 0 1.5v.1c-.1.3-.2.4-.5.4s-.5 0-.8-.1c-.2-.1-.2-.2-.2-.4s.1-.3.2-.4c.2-.1.3-.3.2-.5.1-.2.1-.2 0-.3.1 0 0 0 0 0m-2.1-2.8l.2.2c.4.4 1 .5 1.5.2.3-.1.4-.4.5-.7.1-.2.1-.4 0-.6 0-.2-.1-.3-.1-.5-.1-.3-.2-.6-.2-.9 0-.1-.1-.1-.2-.1l-.6.3c-1 .2-1.9.5-2.9.7h-.1c0 .2.1.6.2.8.2-.1.5-.1.7-.2.2-.1.5-.1.7-.2v.2c-.3.4-.5.8-.9 1.2l-.2.2c0 .3.2.8.2.9.4-.4.8-1 1.2-1.5m2.8 4c0-.1.1-.3.1-.4.1-.4.1-.7-.1-1.1-.3-.7-1.3-.9-1.8-.3-.1.1-.2.2-.2.3-.1.1-.1.2-.2.3-.1.2-.2.3-.3.5-.1.1-.1.2-.2.3-.2.2-.5.2-.6 0 0 0-.1-.1-.1-.2s-.1-.2-.1-.4c0-.3.1-.7.3-.9-.1-.1-.2-.1-.2-.1-.1 0-.2.1-.3.1-.1.1-.2.2-.2.4-.1.6 0 1.1.3 1.5.4.5 1.1.5 1.6 0 .1-.1.2-.3.3-.5l.3-.6c.1-.1.1-.3.2-.4.1-.1.2-.2.3-.2.2-.1.4 0 .5.2 0 .1.1.2.1.3 0 .3-.1.6-.3.8 0 0-.1 0-.1.1v.1s.1 0 .1.1c.2.2.4.2.6.1M51.9 43.5c-.1-.1-.1-.1-.2-.1-.2-.2-.2-.3-.2-.6.2-.6.4-1.2.6-1.9.1-.3.3-.4.6-.3.4.1.8.3 1.2.4.6.2 1.1.3 1.7.5.1 0 .2 0 .2.1h.2c.3-.1.6.2.6.5s-.1.6-.2.8c0 .1-.1.2-.2.2-.1.1-.2.1-.4.1-.1 0-.1 0-.2-.1-.9-.3-1.7-.6-2.6-.9-.1 0-.1-.1-.2 0s-.1.2-.1.3c0 .1 0 .2.1.2.2.3 0 .6-.3.7h-.1c.1.1.1.1.1.2.1.1.1.2.1.2 0 .2-.1.3-.3.4-.3.1-.5.3-.6.6v.1c0 .1.1.1.1.1.1 0 .2-.1.2-.1.2-.1.3-.2.4-.3.2-.1.5-.3.7-.4.6-.2 1.1-.1 1.5.3.4.4.5 1 .3 1.5-.1.5-.4.8-.9 1.1-.1.1-.2.1-.4.1-.2-.1-.5-.2-.6-.4-.1-.1-.1-.2-.1-.3v-.3s0-.1.1-.1c.1-.1.2-.2.3-.2.2 0 .3-.1.4-.2 0 0 0-.1.1-.1v-.2c0-.1-.1 0-.1 0-.1.1-.2.1-.3.2-.2.1-.4.3-.6.4-.2.1-.5.2-.7.3-.6.2-1.4-.2-1.7-1-.2-.8 0-1.4.6-2 .1-.1.3-.2.4-.2.3.5.4.4.5.4m.4.6c-.1-.2-.3-.2-.5-.2-.1 0-.2.1-.3.2-.1.1-.2.2-.3.4-.2.4-.3.8-.2 1.2.2.6.7.9 1.3.7.1 0 .3-.1.4-.2.2-.1.4-.3.6-.4.1-.1.3-.2.4-.2.1 0 .2-.1.3-.1.3 0 .5.1.5.4 0 .1 0 .2-.1.3-.2.3-.4.4-.7.4-.1 0-.1 0-.2.1 0 .1 0 .1.1.2s.3.2.5.3c.4-.3.7-.6.8-1.1.1-.5 0-.9-.4-1.2-.3-.2-.6-.2-1-.1l-.6.3c-.2.1-.3.2-.5.3-.1.1-.2.1-.3.2-.3.1-.6-.1-.6-.5 0-.5.3-.8.8-1m-.4-1.1c.1.2.3.3.5.3.1 0 .1 0 .1-.1-.2-.2-.2-.4-.1-.6 0-.2.1-.4.2-.7.1 0 .2 0 .3.1 1 .3 1.9.6 2.9.9.1 0 .2.1.2.1.2-.2.3-.6.3-.9 0-.1-.1-.1-.1-.1-.2.1-.4 0-.6-.1h-.1c-.9-.3-1.9-.6-2.8-.9h-.2c-.2.7-.4 1.3-.6 2M40.7 9.4c.2-.4.3-.6.4-.9 0-.1.1-.2 0-.4-.1-.3.2-.6.5-.6.2 0 .4.1.6.2.1.1.2.1.3.2.1.1.1.2 0 .4 0 .1-.1.1-.1.2-.4 1-.9 1.9-1.3 2.9-.1.1-.1.3-.2.5 0 .1-.1.2-.3.2h-.2c-.1 0-.2-.1-.4-.1-.2-.1-.3-.2-.3-.3-.1-.4-.3-.8-.4-1.2-.1-.3-.2-.7-.4-1 0-.1 0-.1-.1-.2-.1 0-.1 0-.1.1-.2.4-.4.9-.5 1.3-.1.3-.3.4-.6.3-.1 0-.2-.1-.4-.1-.2-.1-.3-.3-.2-.5.1-.3.3-.6.4-1 .3-.6.5-1.3.8-1.9.1-.2.1-.3.1-.5 0-.3.2-.5.5-.5.2 0 .5.1.7.2.1.1.2.2.2.3.2.5.3.9.5 1.4l.3.9c.1 0 .1.1.2.1m-3.2 1.1c.1.1.3.1.5.2.1-.2.1-.4.2-.6l.3-.6.3-.6.3-.6c0 .2.1.3.1.5.3.9.7 1.8 1 2.7 0 0 0 .1.1.1 0 0 0 .1.1.1.1.1.3.1.4.2.4-1.2 1-2.4 1.5-3.5-.3-.4-.5-.4-.7-.4-.1 0-.1.1-.1.2 0 .2 0 .4-.1.6-.2.4-.4.9-.6 1.3-.1.1-.1.3-.2.4 0 0 0 .1-.1.1 0-.2-.1-.4-.1-.6-.3-.9-.7-1.8-1-2.8 0-.2 0-.2-.3-.3H39c-.1 0-.2 0-.2.2s0 .4-.1.6c-.4.9-.7 1.7-1.1 2.6 0 0-.1.1-.1.2M8.5 26.5h-.1c-.3-.1-.5-.1-.8-.2h-.5c-.3.1-.6-.1-.6-.4 0-.2 0-.4.1-.6 0-.1.1-.2.1-.2.1-.2.3-.2.4-.2.3.1.6.2.9.2.9.2 1.7.5 2.6.6.1 0 .2 0 .3.1.2.1.3.2.3.4 0 .1-.1.3-.1.4 0 .1-.1.2-.2.3-.3.2-.6.3-.8.5-.4.2-.8.5-1.3.7 0 0-.1 0-.1.1.1.1.3.1.4.1.4.1.7.1 1.1.2.3 0 .4.2.3.5 0 .1-.1.3-.1.4-.1.2-.2.3-.5.3-.1 0-.3-.1-.4-.1-.8-.2-1.7-.4-2.5-.6h-.5c-.3.1-.6-.1-.6-.4 0-.2 0-.4.1-.6 0-.2.1-.3.3-.3.5-.3 1.1-.6 1.6-.9l.6-.3c-.1.1-.1 0 0 0m1.1-.1s-.1 0 0 0c-.3.1-.4.2-.6.3-.8.4-1.6.9-2.4 1.3-.1 0-.2.1-.3.1l-.1.1v.4c0 .1.1.2.2.1.2-.1.3 0 .5 0H7c.9.2 1.8.4 2.7.7.1 0 .2 0 .3.1 0-.2.1-.3.1-.5-.9-.1-1.8-.4-2.6-.6.1 0 .1 0 .1-.1.1-.1.3-.1.4-.2.7-.4 1.4-.8 2.1-1.1.2-.1.3-.2.5-.3l.1-.1c0-.1.1-.3.1-.4h-.1l-1.2-.3c-.8-.2-1.5-.4-2.3-.6H7c-.2.2-.2.4-.1.6 0 .1.1.1.2.1.2-.1.4-.1.6 0 .1 0 .3 0 .5.1.5.1.9.2 1.4.3M10.5 43.1h.1c.2-.1.3-.1.5-.2.3-.1.5-.1.6.2.1.3.2.5.3.8.1.2 0 .4-.3.5-.9.3-1.8.6-2.8 1-.1 0-.2.1-.3.1-.1 0-.2.1-.3.2-.1.1-.2.2-.3.1h-.2c-.1 0-.2 0-.2-.1-.2-.3-.4-.7-.4-1.1v-.1c0-.2.1-.3.3-.3.2-.2.4-.2.6-.3 0 0 .1 0 .1-.1-.1-.1-.1-.1-.2-.1s-.2-.1-.2-.1c-.1 0-.2-.1-.2-.1-.1 0-.2.1-.4.1s-.3-.1-.3-.2c-.2-.3-.3-.5-.3-.8v-.3c0-.2.2-.3.3-.3.2 0 .3 0 .5.1s.4.2.5.2c.3.1.6.3.8.4 0 0 .1 0 .1.1l.1-.1c.4-.6.8-1.1 1.1-1.7 0-.1.1-.1.1-.2.1-.1.2-.2.3-.2.2 0 .3.1.3.3 0 .1 0 .1.1.2.1.2.1.4.2.7.1.2.1.4-.1.6-.2.2-.3.4-.5.7.1-.1.1-.1.1 0m-1.2.8c-.1 0-.1.1-.1.1-.4.1-.9.3-1.3.4-.1 0-.1 0-.2.1v.1c0 .3.1.5.3.8 0 0 .1 0 .1.1.1-.4.3-.5.6-.5l2.7-.9c.1 0 .1 0 .2-.1 0-.2-.2-.6-.3-.8-.2.1-.4.2-.6.2-.2.1-.4.1-.6.2-.2.1-.4.2-.6.2.4-.7.9-1.3 1.4-1.9v-.1c-.1-.3-.2-.5-.3-.8 0 0 0-.1-.1-.1 0 .1-.1.1-.1.2-.4.7-.9 1.4-1.3 2l-.1.1c-.1-.1-.2-.1-.3-.1-.4-.2-.7-.4-1.1-.6-.2-.1-.3-.2-.5-.2h-.2c0 .2.1.6.3.8.1.1.1.1.2 0s.2-.1.4 0h.1c.4.2.9.4 1.4.6-.1.1-.1.1 0 .2M16 12.6v-.8c-.1-.1-.1-.2-.2-.3v-.4c.1-.1.1-.2.2-.3.1-.1.3-.2.4-.3.1-.1.2-.1.3-.1.2 0 .4.1.4.2.1.2.1.3.1.5 0 .3 0 .5-.1.8 0 .2 0 .4-.1.7v.2c.1.1.3.1.4.1.6.1 1.1.2 1.7.4h.2c.2 0 .3.1.3.3 0 .1 0 .3-.1.4-.3.2-.5.5-.8.7-.1.1-.3.1-.4.1-.3-.1-.5-.2-.8-.2-.1 0-.1 0-.2-.1 0 0 0 .1.1.1.1.1.2.3.4.4.2.1.2.4 0 .6-.2.2-.4.4-.7.6-.2.2-.4.1-.5-.1-.3-.3-.6-.7-.8-1-.4-.5-.8-.9-1.2-1.4-.1-.1-.2-.2-.4-.3 0 0-.1 0-.1-.1-.2-.1-.2-.4-.1-.6.2-.3.4-.5.6-.6.1-.1.2-.1.3-.1.2-.1.3 0 .4.1.1.1.2.3.3.4.3-.1.3 0 .4.1m.8.4v-.2c.1-.5.1-1 .2-1.4v-.5s0-.1-.1-.1c-.3.1-.5.3-.6.6v.2c.1.1.2.2.2.4V13.7c-.1-.1-.2-.2-.2-.3-.1-.1-.1-.2-.2-.3-.1-.1-.2-.2-.2-.3-.1-.1-.1-.2-.2-.3-.1-.1-.1-.2-.2-.3-.3.1-.5.3-.7.6-.1.1 0 .2.1.2.2 0 .3.2.4.3l.1.1c.6.7 1.2 1.5 1.9 2.2l.1.1c.2-.1.4-.3.6-.5-.2-.2-.4-.4-.6-.7-.2-.2-.4-.5-.6-.7h.2c.5.1.9.2 1.4.4.2 0 .4.1.6.2.2-.2.5-.4.7-.6-1.1-.4-2-.6-2.9-.8"/><path class="st3" d="M9.4 38.7c-.2 0-.4 0-.5.2-.3.1-.7.1-.8-.2-.2-.3-.2-.6-.2-.9v-.1c0-.2.1-.3.4-.4.4-.1.9-.1 1.3-.2h.1c.2 0 .3.1.4.2.1.4.3.7.4 1.1.1.3.2.6.2.9 0 .8-.3 1.4-1 1.8-.7.4-1.4.5-2.1.3-.9-.2-1.4-.8-1.6-1.6-.1-.4-.1-.8-.1-1.1 0-.2.1-.4.3-.6.1-.2.3-.3.5-.2.3.1.5.2.7.4.2.2.2.6-.1.8h-.1c-.3.2-.3.6 0 .8.1.1.3.2.5.2.5 0 1-.1 1.4-.4.1 0 .1-.1.2-.2.1-.4.1-.6.1-.8m.2-.5c0 .1.1.3.1.4.1.4 0 .7-.3 1l-.3.3c-.4.3-.9.4-1.4.4-.2 0-.4 0-.5-.1-.1-.1-.2-.1-.2-.2-.3-.2-.5-.6-.3-1 .1-.1.2-.3.3-.4h.1c.1-.1.1-.1 0-.2s-.3-.2-.5-.2c-.1 0-.2 0-.2.1-.1.1-.1.3-.2.4-.1.5 0 1 .2 1.5.3.5.7.8 1.2.9.6.1 1.2.1 1.7-.2.2-.1.5-.3.6-.5.3-.4.3-.8.3-1.3-.1-.5-.3-1-.5-1.5-.5.1-1 .1-1.4.2 0 .1-.1.1-.1.2 0 .2.1.4.2.6.1.1.1.1.2 0 .1 0 .1-.1.2-.1.3-.2.5-.2.8-.3M25.7 8.7v-.1c0-.5.1-1 .1-1.5 0-.1 0-.2-.1-.3-.2-.2-.2-.5 0-.6.2-.2.5-.3.8-.3h.1c.3 0 .4.1.4.3.1.3.1.6 0 1-.1.5-.1 1-.2 1.6 0 .3-.1.7-.1 1v.8c0 .2-.1.3-.3.3H26c-.3 0-.6-.1-.8-.4 0 0 0-.1-.1-.1-.6-.8-1.1-1.5-1.7-2.3-.1-.1-.1-.2-.2-.2-.1-.1-.1-.2-.2-.2-.2-.1-.2-.2-.2-.4s.1-.3.3-.4c.2-.1.5-.2.7-.3h.4c.2 0 .3.1.4.3.3.6.7 1.1 1.1 1.7-.1 0 0 0 0 .1m.7 1.8v-.3-.4c0-.3.1-.7.1-1 .1-.5.1-1 .2-1.6v-.8-.1c-.2 0-.4 0-.6.2l-.1.1c.2.2.3.4.2.7 0 .3 0 .6-.1.9 0 .5-.1 1-.1 1.5v.1s-.1-.1-.1-.2c-.6-.8-1.2-1.6-1.7-2.5-.1-.1-.1-.1-.2-.1-.3 0-.6.1-.8.3v.1c.3.2.4.4.6.6.2.3.4.6.7.9.3.4.7.9 1 1.3.2.2.4.4.7.3h.2M54.5 23.1c-.2.1-.4.1-.5.2 0 .2.1.4.2.5.2.2.2.5-.1.6-.1.1-.3.1-.5.1s-.4-.1-.5-.3c-.1 0-.1-.1-.2-.2 0-.1-.1-.1-.1-.2-.2.1-.3.1-.5.2v.1c0 .1.1.2.1.3 0 .1.1.2.2.3.2.2.1.5 0 .6-.1.1-.2.1-.4.2s-.4 0-.6-.1c-.1-.1-.2-.3-.3-.4l-.6-1.5c-.1-.2 0-.4.2-.5.9-.4 1.8-.7 2.7-1.1.1 0 .2-.1.2-.1.1-.1.2-.1.3-.2.2-.2.6-.2.7.1v.1c.2.6.5 1.1.7 1.7 0 0 0 .1.1.1v.3c-.2.3-.5.5-.9.5-.1 0-.3-.1-.3-.2-.1-.2-.1-.3 0-.5v-.2-.1c.1-.2.1-.2.1-.3M52.4 25c-.1-.1-.1-.2-.2-.3-.1-.3-.2-.5-.3-.8v-.1c.3-.2 1-.5 1.2-.5.1.2.1.3.2.5 0 .1.1.2.1.3.1.2.3.2.5.1-.1-.2-.4-.8-.4-1 .2-.1 1.1-.4 1.3-.4.1.2.1.4.2.6 0 .2 0 .4-.1.5 0 0 0 .1.1.1s.2 0 .3-.1c.1-.1.2-.1.2-.2v-.1c-.2-.6-.5-1.1-.7-1.7v-.1s-.1-.1-.1 0c-.1.1-.2.2-.4.2s-.3 0-.5.1c-.9.3-1.7.7-2.6 1 0 0-.1 0-.1.1v.1c.2.4.4.9.5 1.3 0 .1.1.2.1.2.2.2.4.4.7.2M12.8 52.2c.2-.1.3-.2.5-.4-.1-.2-.2-.3-.4-.4-.2-.1-.3-.3-.2-.5.2-.3.4-.4.7-.4.2 0 .3.1.4.2l.2.2s.1.1.1.2c.1 0 .2-.1.2-.2l.2-.2c-.1-.2-.3-.3-.4-.5l-.1-.1c-.2-.1-.4-.4-.1-.6l.2-.2c.2-.2.5-.2.8 0l.3.3c.4.4.7.8 1 1.3.2.2.1.4-.1.6-.7.6-1.5 1.2-2.2 1.8-.1.1-.2.1-.2.2-.1.1-.2.2-.2.3-.1.3-.5.4-.7.1-.1-.1-.2-.3-.3-.4-.3-.4-.6-.7-.9-1.1-.2-.2-.2-.4-.1-.7.1-.2.3-.4.6-.5.2-.1.3 0 .5.1.1.1.2.3.1.4v.2c0 .2 0 .3.1.3m1.3-.6c-.1-.2-.2-.3-.3-.4-.1-.1-.1-.2-.2-.2-.1-.1-.2-.1-.3-.1-.1 0-.2.1-.2.2.2.1.6.6.7.8-.2.1-.3.3-.5.4-.2.1-.3.3-.5.4l-.3-.3c-.2-.2-.2-.4-.2-.7 0 0 0-.1-.1-.1-.2.1-.4.3-.5.5l.1.1c.4.4.7.9 1.1 1.3l.1.1c.1.1.1.1.2 0l.3-.3.2-.2c.7-.6 1.5-1.2 2.2-1.8l.1-.1v-.1c-.3-.4-.7-.8-1-1.2l-.2-.2c-.2-.1-.4-.1-.5.1.1 0 .2.2.3.3.2.2.3.4.5.6l.1.1c-.4.3-.7.6-1.1.8M20 9.7c-.1 0-.2.1-.3.1 0 .1.1.2.1.3 0 .1.1.2.1.2.1 0 .2-.1.3-.1.1 0 .2-.1.2-.2.1-.2.4-.2.6-.1.1.1.2.2.2.3.1.3.1.5-.1.7l-.3.3c-.1 0-.1.1-.2.1.1.2.2.3.3.5 0 0 .1 0 .1-.1.1-.1.2-.1.3-.2.1 0 .1-.1.2-.2.1-.2.4-.3.6-.1l.1.1c.2.3.2.7-.1.9l-.3.3c-.4.3-.8.5-1.2.8-.2.1-.4.1-.5-.1l-.6-.9c-.3-.5-.7-1.1-1-1.6 0-.1-.1-.1-.1-.2-.1-.1-.1-.2-.2-.2-.2-.1-.3-.4-.2-.6 0-.1.1-.1.1-.2 0 0 .1-.1.2-.1.5-.3 1-.6 1.5-1 .2-.2.4-.2.7 0 .2.2.3.4.4.6 0 .2 0 .3-.1.4-.4.3-.6.4-.8.3m.3 3.4c.5-.3.9-.6 1.4-.8.1 0 .1-.1.2-.2.2-.2.1-.3 0-.5-.1.1-.2.2-.3.2-.2.2-.5.3-.7.4h-.1c-.2-.2-.6-.9-.7-1.1l.1-.1c.1-.1.2-.1.4-.2.1 0 .1-.1.2-.2.2-.2.2-.4 0-.5-.2.2-.7.5-.9.6l-.3-.6-.3-.6c.2-.1.3-.2.4-.2.2-.1.4-.1.6 0h.1v-.1c-.1-.2-.2-.4-.4-.5h-.1c-.5.3-1.1.7-1.6 1 0 .1 0 .1.1.1.1.1.2.1.2.2.1.1.1.2.2.3l1.5 2.4c-.1.3-.1.4 0 .4M56 39.6c-.2-.1-.4-.1-.6-.1-.1.2-.1.4-.1.6.1.2-.1.5-.3.5-.1 0-.3 0-.4-.1-.2-.1-.3-.2-.4-.4v-.4-.3c-.2-.1-.4-.1-.6-.1 0 .2-.1.4-.1.6v.2c0 .2 0 .3-.1.4l-.1.1c-.2 0-.4 0-.6-.1-.1-.1-.2-.2-.3-.4 0-.2-.1-.3 0-.5.1-.4.1-.7.2-1.1 0-.2.1-.4.1-.6.1-.3.2-.4.5-.3.5.1.9.2 1.4.2l1.8.3h.4c.2-.1.5.1.6.3v.2c0 .3-.1.6-.2.9-.1.3-.1.7-.2 1 0 .2-.1.3-.3.4-.3.1-.6.1-.8-.1-.2-.1-.3-.2-.2-.5 0-.2.1-.3.3-.4.1 0 .1-.1.2-.3-.2.1-.2.1-.2 0m-2.9-1.7c0 .1 0 .2-.1.3-.1.4-.2.9-.2 1.3v.3c0 .1.1.1.1.2.1 0 .2.1.3 0-.1-.2 0-.3 0-.5s.1-.4.1-.6c0-.1 0-.1.1-.2.2 0 .4.1.6.1.2 0 .4 0 .6.1v.1c0 .2-.1.3-.1.5v.3c0 .1.1.2.1.2.1 0 .2.1.3.1v-.4c0-.2.1-.4.1-.6V39h.1c.3.1.7.1 1 .2h.1c0 .2-.1.3-.1.5s-.1.4-.4.5c0 0-.1.1 0 .1 0 0 0 .1.1.1.1.1.3.1.4.1.2 0 .2-.1.2-.2.1-.4.1-.7.2-1.1 0-.2.1-.5.1-.7 0-.1 0-.2-.1-.1-.1 0-.2.1-.4 0h-.3c-.8-.1-1.6-.3-2.4-.4 0-.1-.2-.1-.4-.1M35.9 8.8c-.1.2-.1.4-.1.5h.2c.1 0 .2 0 .4.1h.5c.2 0 .3.2.3.3 0 .1 0 .3-.1.4-.1.2-.3.4-.5.4H36c-.5-.1-.9-.2-1.4-.3-.3-.1-.4-.2-.3-.5l.6-3v-.5c-.1-.3.2-.6.5-.6.2 0 .4.1.6.1.2.2.6.2 1 .3h.2c.1 0 .2.1.3.2.1.4.1.7-.1 1-.1.1-.2.2-.4.2h-.2c-.1 0-.2-.1-.2-.2s0-.1-.1-.2c-.1 0-.2-.1-.3-.1-.1.2-.1.4-.1.6.2 0 .4.1.6.1.2-.1.4.1.5.3 0 .2 0 .4-.1.5-.1.2-.3.3-.5.3h-.5c-.1.1-.1.1-.2.1m-.5.8v-.2c.1-.3.1-.7.2-1 0 0 0-.1.1-.1h.1c.1 0 .2.1.4.1h.4c.2 0 .3-.2.3-.4-.3 0-.8-.1-1.1-.2v-.1c.1-.4.2-.7.2-1.1 0 0 0-.1.1-.1.2 0 .3.1.5.1.2.1.4.2.5.4l.1.1c.1 0 .1 0 .1-.1.1-.2.1-.4 0-.6h-.1c-.4-.1-.9-.2-1.3-.2-.2 0-.3-.1-.5-.1-.1 0-.1 0-.1.1.1.2 0 .4 0 .6-.2 1-.4 1.9-.5 2.9v.2h.1c.5.1 1 .2 1.4.3h.2c.3 0 .4-.1.4-.4h-.3c-.6 0-.9-.1-1.2-.2M56.5 35.7c-.1 0-.1.1-.2.1-.1.1-.1.2-.2.2-.1.2-.3.4-.4.6-.1.2-.3.3-.4.5-.7.5-1.6.3-2.1-.4-.2-.2-.2-.5-.3-.8 0-.3 0-.5.1-.8.1-.3.2-.5.4-.7.3-.3.7-.3 1 0 .2.2.2.5 0 .6-.2.1-.3.3-.3.4v.3c0 .1 0 .1.1.1h.1l.2-.2c.1-.2.2-.3.4-.5.1-.2.3-.4.5-.5.3-.2.6-.3.9-.3.6 0 1.3.4 1.4 1.2.1.5 0 .9-.2 1.4 0 .1-.1.2-.2.3-.1.1-.2.2-.3.2-.3 0-.6 0-.8-.2-.1-.1-.2-.2-.2-.3-.1-.2.1-.5.3-.6.2-.1.3-.2.4-.4l-.2-.2m-2.3-1c-.2-.1-.3-.1-.4 0l-.3.3c-.2.4-.2 1.1.1 1.6.1.1.1.2.2.2.3.3.8.4 1.2.1.1-.1.3-.2.4-.3.1-.2.2-.3.4-.5.1-.2.2-.3.4-.5.1-.1.2-.2.3-.2.3-.2.6 0 .6.3v.4c-.1.2-.2.4-.5.5-.1 0-.1.1-.1.2.2.2.4.2.7.2.1-.1.1-.2.2-.3.2-.4.3-.8.2-1.2-.1-.6-.8-1-1.3-.8-.1 0-.2.1-.4.2s-.3.3-.5.5c-.1.2-.2.3-.4.5l-.3.3c-.2.1-.5.1-.6-.2 0-.1-.1-.2-.1-.2-.3-.4-.2-.8.2-1.1M44 10.1v.3c.1.1.1.3.2.4.1.2.2.4.3.7.1.2.1.4.1.6 0 .7-.4 1.3-1.1 1.4-.3.1-.5.1-.8 0-.5-.1-.9-.4-1.2-.8-.1-.2-.2-.4-.2-.6 0-.3.1-.6.4-.8.1 0 .1-.1.2-.1.2 0 .4.1.4.3 0 .3.2.5.5.7h.1c.1 0 .1 0 .1-.1s0-.2-.1-.3c-.1-.2-.1-.3-.2-.5l-.3-.9c-.1-.7.3-1.3.9-1.5.4-.1.8-.1 1.1 0 .5.2.9.6 1.1 1.1.1.1.1.2 0 .3-.1.3-.3.6-.7.7-.3.1-.7-.1-.6-.5 0-.2 0-.3-.1-.5 0 .2 0 .1-.1.1m-2.1 1.6c-.2.1-.3.2-.2.4 0 .1.1.3.1.4.3.5.8.7 1.4.7.6 0 1-.6 1-1 0-.2 0-.3-.1-.5s-.2-.4-.2-.6c-.1-.2-.2-.4-.2-.6v-.3c0-.3.2-.4.5-.4.1 0 .3.1.4.2.2.2.3.4.2.7v.1h.1c.2-.1.3-.2.4-.4-.1-.2-.2-.3-.3-.4-.2-.3-.5-.5-.8-.6-.8-.2-1.5.5-1.3 1.2 0 .2.1.4.2.6.1.2.2.4.2.5.1.1.1.3.1.4.1.3-.2.6-.5.5-.1 0-.2-.1-.3-.1-.4-.1-.6-.4-.7-.8M13.1 15.4h.2c.2 0 .3-.1.5-.1.3-.1.6-.2.8-.2h.6c.7.1 1.2.8 1.1 1.6-.1.6-.4 1.1-.9 1.5-.2.1-.5.2-.7.2-.3 0-.6-.2-.7-.6-.1-.3.1-.5.4-.5h.2c.2-.1.4-.2.5-.4v-.2H15c-.1 0-.3 0-.4.1-.3.1-.6.2-.9.2H13c-.8-.2-1.3-1-1-1.9.1-.4.4-.7.8-1l.6-.3h.3c.3.2.5.4.6.8.1.3-.2.6-.6.5-.1 0-.2-.1-.4 0 0 .1-.2.1-.2.3m1.3 2.2c.1.2.2.3.3.3.2 0 .4 0 .6-.1.4-.2.6-.6.7-1v-.6c-.1-.5-.6-.8-1-.8-.2 0-.4 0-.6.1-.2 0-.3.1-.5.1-.1 0-.3.1-.4.1-.1 0-.3.1-.5 0-.2 0-.3-.2-.3-.4 0-.1.1-.2.1-.3.2-.2.4-.3.7-.3h.3c.1 0 .2 0 .1-.2s-.2-.3-.4-.5c-.1 0-.2.1-.3.1-.4.2-.7.4-.8.8-.1.2-.1.5-.1.7.1.5.5.8 1.1.8.2 0 .5-.1.7-.1.2-.1.4-.1.6-.2h.4c.2 0 .4.2.4.4 0 .1 0 .2-.1.3-.2.6-.5.8-1 .8"/><path class="st3" d="M12.8 18.6c.2 0 .4 0 .6-.1.3 0 .6-.1.9-.2h.2c.2 0 .4.2.3.5 0 0 0 .1-.1.1-.2.3-.3.5-.5.8-.1.2-.2.2-.4.2H13h-.1c0 .1.1.1.2.1.1.1.2.1.3.1.2.1.3.3.2.5-.1.2-.3.5-.4.7-.1.2-.3.3-.6.1-.6-.4-1.1-.7-1.7-1.1l-.9-.6c-.1-.1-.3-.1-.4-.2-.3 0-.5-.4-.3-.7.2-.4.5-.8.7-1.2.2-.4.6-.6 1-.7.2 0 .4-.1.6 0 .7.2 1.1.6 1.2 1.3v.4m-.4.4c-.1-.1 0-.1 0-.2 0-.6-.3-1-.9-1.2-.3-.1-.6-.1-.9.1-.2.1-.4.3-.5.5-.2.3-.4.7-.6 1v.1c0 .1.1.1.1.1.1 0 .3.1.4.1.1 0 .1.1.2.1.8.5 1.7 1 2.5 1.6 0 0 .1 0 .1.1.1-.2.4-.5.4-.7-.1-.1-.3-.2-.4-.2-.1-.1-.3-.2-.4-.2-.1-.1-.3-.2-.4-.3 0-.1.1-.1.1-.1.1 0 .3 0 .4-.1.4-.1.8-.1 1.3-.1h.1c.2-.2.4-.7.5-.8-.3.1-.7.1-1 .1-.3 0-.6.1-1 .1M10.2 48.5c.1.1.1.2.1.3.1 0 .1 0 .2-.1.7-.4 1.4-.8 2.1-1.3.1-.1.3-.2.4-.3.2-.2.4-.2.6.1.1.2.3.5.4.7.1.2.1.4-.1.6-.6.4-1.3.8-1.9 1.2-.2.1-.4.3-.6.4 0 0-.1 0-.1.1s.1.2.2.3h.1c.2 0 .3.2.4.3.1.2 0 .3-.1.4-.2.2-.4.3-.7.3h-.3c-.1 0-.2-.1-.2-.2s-.1-.1-.1-.2c-.4-.8-.9-1.5-1.4-2.2-.2-.2-.2-.4 0-.7.2-.3.4-.4.7-.5.2 0 .3 0 .4.1.1.2.1.4-.1.7m-.8 0l.1.1c.2.3.4.5.5.8l.9 1.5c.1.2.1.2.3.1h.1c.1 0 .3-.1.4-.2v-.1h-.1c-.1 0-.2-.1-.3-.1-.2-.2-.3-.4-.4-.6.1-.1.2-.2.4-.3.8-.5 1.7-1 2.5-1.5l.1-.1c-.1-.1-.1-.2-.2-.4-.1-.1-.1-.3-.2-.3-.1.1-.3.2-.4.3l-2.4 1.5s-.1 0-.1.1c-.1-.2-.2-.3-.3-.5-.1-.2-.1-.3 0-.5 0-.1 0-.1-.1-.1-.5-.1-.7.1-.8.3M32.6 59.5h.3c.2 0 .4 0 .5.1.5.1.8.4.9.9.3 1-.4 1.9-1.3 2.1-.3 0-.5.1-.8 0-.5-.1-.8-.4-1-.8-.2-.3-.3-.6-.3-1s0-.8.1-1.2c.1-.5.4-.9.8-1.2.5-.3 1.1-.4 1.7-.2.1 0 .2.1.2.1.3.2.4.5.3.9-.1.3-.4.4-.6.2-.1-.1-.2-.2-.4-.2h-.2c-.1 0-.2.1-.2.3m1.1-.4c.1-.1 0-.1 0-.2 0 0 0-.1-.1-.1-.1-.1-.2-.2-.3-.2-.4-.1-.8-.1-1.2 0-.5.2-.7.6-.9 1.1-.1.4-.1.9-.1 1.3 0 .3.1.5.3.8.2.3.4.4.7.5.4.1.9 0 1.2-.3.4-.3.5-.8.5-1.3-.1-.4-.3-.6-.6-.8-.3-.1-.6-.1-1 .1-.1 0-.2.1-.3.1 0-.3.1-.7.3-1 .2-.2.4-.3.7-.3.4 0 .6.1.8.3 0-.1 0-.1 0 0M16.7 52.2c.5 0 1 .2 1.4.5.4.3.7.6 1.1 1l.1.1c.1.1.1.3 0 .4l-.1.1c-.7.8-1.4 1.5-2.1 2.3-.1.1-.2.3-.2.4-.1.3-.5.4-.7.2-.2-.1-.3-.3-.5-.4-.2-.2-.5-.4-.7-.6-.4-.4-.7-.8-.7-1.3-.1-.4 0-.8.2-1.2.4-.8 1-1.3 1.9-1.5h.3m2.2 1.8c0-.1 0-.1 0 0-.4-.4-.7-.6-1-.9-.1 0-.1-.1-.2-.1-.5-.3-1-.4-1.6-.3-.6.2-1.1.6-1.4 1.2-.1.2-.1.4-.2.6 0 .5.2.9.5 1.3l.1.1c.4.3.7.6 1.1.9.1.1.2 0 .2 0l.3-.6 1.8-2.1c.3 0 .4-.1.4-.1M42 57.3c.1-.1.2-.1.4-.2s.3-.1.5-.2c.1 0 .1 0 .2-.1.3 0 .5.2.4.4 0 .1 0 .1-.1.2l-.3.6c0 .1-.1.1-.1.2l.4.4.3.3c.1.1.1.1.1.2.1.2-.1.4-.3.5h-.2c-.3 0-.5-.1-.8-.1h-.1c0 .1-.1.1-.1.2l-.3.6s0 .1-.1.1c-.1.1-.2.2-.4.2s-.3-.1-.3-.3c0-.2-.1-.3-.1-.5 0-.1 0-.3-.1-.4 0-.1 0-.1-.1-.1-.2 0-.5-.1-.7-.1H40c-.2 0-.2-.2-.3-.3 0-.2.1-.3.2-.4.1 0 .2-.1.2-.1l.6-.3c.1 0 .1-.1.1-.2 0-.2-.1-.5-.1-.8v-.2c0-.3.3-.4.6-.3.1 0 .1.1.2.2s.2.3.5.5c-.1 0 0 0 0 0m-.7 1.6c.1.4.1.8.2 1.2.2-.3.4-.7.6-1 .4.1.8.2 1.2.2-.3-.3-.6-.6-.8-.9 0-.1.1-.2.1-.3 0-.1.1-.2.1-.3s.1-.2.1-.3c0-.1.1-.2.1-.3-.4.1-.7.3-1.1.5l-.4-.4-.5-.5v.1c0 .3.1.5.1.8v.3c-.1 0-.1.1-.2.1-.3.1-.5.2-.8.4 0 0-.1 0-.1.1.6.1 1 .2 1.4.3M20 58.2c-.2-.3-.3-.6-.5-.8 0-.1-.1-.2-.1-.3 0-.2.2-.4.4-.3.1 0 .1 0 .2.1l.6.3c.1 0 .1.1.2.1s.1-.1.1-.1l.5-.5.1-.1c.1-.1.3-.1.4 0 .1.1.2.2.2.3v.3c0 .2 0 .4-.1.6v.2l.1.1.6.3c.1 0 .1.1.2.1.1.1.2.2.2.4 0 .1-.1.2-.2.3-.1 0-.1 0-.2.1-.2 0-.5.1-.7.1h-.1c0 .1-.1.3-.1.5s0 .4-.1.5c0 .2-.1.3-.3.3-.2 0-.3 0-.4-.1 0-.1-.1-.1-.1-.2-.1-.2-.3-.5-.4-.7h-.1c-.2 0-.5.1-.7.1h-.3c-.2 0-.4-.2-.3-.5 0-.1.1-.1.1-.2l.5-.5c.2-.2.3-.3.3-.4m1.8-.1c0-.2.1-.4.1-.6 0-.2.1-.4.1-.6l-.1.1c-.2.2-.4.4-.6.7l-.1.1c-.4-.2-.7-.3-1.1-.5 0 0 0 .1.1.2.1.3.3.5.4.8 0 0 0 .1.1.1-.3.3-.6.6-.8.9h.2c.2-.1.5-.1.7-.2.1 0 .2 0 .3-.1 0 .1.1.1.1.2.1.3.3.5.4.8 0 0 0 .1.1 0 .1-.4.1-.8.2-1.2h.1c.3-.1.6-.1.9-.2 0 0 .1 0 .1-.1-.5-.1-.9-.3-1.2-.4M30.1 8V6.6v-.3c0-.1 0-.2-.1-.3-.1-.2 0-.4.1-.6 0 0 .1-.1.2-.1h1.8c.7.1 1.3.4 1.7 1.1.1.3.2.6.2.9.1.6 0 1.1-.3 1.6-.3.6-.9 1-1.6 1.1h-1.8c-.2 0-.3-.1-.3-.3v-.1-1.1c.1-.2.1-.3.1-.5m.3 1.7s.1 0 0 0h1.7c.7-.1 1.1-.5 1.4-1.1.2-.4.2-.8.2-1.2 0-.5-.2-.8-.6-1.1-.3-.3-.7-.4-1.2-.4h-1.4-.1v.2c.1.1.1.3.1.4v2.4c-.1.2-.1.4-.1.8M29 59.4c-.2 0-.3-.1-.5-.1s-.4-.1-.5-.2c-.3-.3-.4-.7-.3-1.1.1-.2.3-.3.5-.2.2.1.3.1.5.1.6 0 1.1.1 1.7.1.2 0 .4.2.5.4v.2c0 .1-.1.1-.1.2-.6 1-1.1 2-1.7 3 0 .1-.1.1-.1.2-.3.4-.9.5-1.3.1-.2-.2-.2-.4 0-.5.2-.1.3-.3.4-.6l.9-1.5c-.1 0 0-.1 0-.1m.7-.5c-.1.1-.1.1-.1.2l-1.2 2.1c-.1.2-.2.5-.5.6.3.2.6.2.8-.1l.1-.1c.6-1 1.1-2 1.7-2.9.1-.2.1-.3-.1-.3-.5 0-1.1-.1-1.6-.1-.2 0-.4 0-.5-.1h-.1c-.1.3 0 .5.3.7.2.1.3.1.5.1.1 0 .4 0 .7-.1M9 35.2v-.4c0-.1-.1-.1-.1-.2-.1 0-.2-.1-.2-.2V34c0-.1.1-.1.2-.2.4-.1.7-.1 1 .1.1.1.1.1.1.3v.3c0 .5 0 1 .1 1.5v.3c0 .3-.1.4-.4.4-.4 0-.8 0-1.2.1-.6 0-1.2.1-1.8.1h-.3c-.1 0-.2 0-.3.1-.2.2-.6 0-.7-.2-.1-.3-.1-.6-.1-1 0-.1 0-.2.1-.3.1-.1.2-.2.3-.2h.5c.8 0 1.6-.1 2.5-.1H9m-3.2.5c-.1.3-.1.7 0 .9 0 .1.1.1.2.1.1-.1.3-.1.5-.1.4 0 .8 0 1.1-.1.7 0 1.3-.1 2-.1h.1v-.1c0-.6-.1-1.1-.1-1.7v-.2s0-.1-.1-.1c-.2-.1-.4-.1-.6 0-.1 0-.1.1 0 .1.2.1.3.4.3.6v.4c0 .1 0 .1-.1.2-.9 0-2.1 0-3.3.1M52.7 21c-.1 0-.1.1 0 0-.1 1-1.4 1.6-2.4.9l-.6-.6c-.2-.3-.4-.7-.6-1-.1-.2-.1-.4.2-.6l2.7-1.5c.1-.1.3-.2.3-.3 0-.1.1-.1.2-.1h.3c.1 0 .2 0 .2.1 0 0 0 .1.1.1.2.3.4.7.6 1 .2.3.3.6.2 1 0 .6-.5 1.1-1.2 1.1.1-.1 0-.1 0-.1m-.4-.5c.1 0 .1.1.2.1s.2.1.3.1c.4.1.7-.1.8-.4.1-.1.1-.3.1-.4 0-.3-.1-.5-.2-.7-.2-.3-.3-.6-.5-.9v-.1c0-.1-.1-.1-.2 0-.1.2-.3.3-.5.4-.3.2-.6.3-.9.5-.6.3-1.2.7-1.8 1l-.1.1c.2.4.4.8.7 1.1.1.2.3.3.4.4.4.3.8.3 1.3 0 .4-.2.5-.6.4-1v-.2M12.3 23.1c0 .4-.1.7-.2 1.1-.3.6-.8.9-1.4 1-.8.1-1.6-.1-2.2-.7-.3-.2-.4-.5-.6-.8-.4-.8-.2-1.9.4-2.5.4-.4.8-.6 1.3-.6.9 0 1.6.3 2.2 1 .3.5.5 1 .5 1.5m-2.4-2c-.7 0-1.1.1-1.5.5-.1.2-.3.3-.3.5-.3.8-.1 1.4.4 2 .3.3.7.5 1.1.6.3.1.6.1 1 0s.8-.3 1-.7c.4-.6.4-1.3.1-1.9-.5-.6-1.2-1-1.8-1M34.5 59.6c0-.3.1-.6.2-.9.3-.7.8-1 1.5-1.1.7-.1 1.3.2 1.7.8.2.4.4.8.4 1.2 0 .4 0 .7-.1 1.1-.2.7-.8 1.2-1.5 1.3-.4.1-.7 0-1.1-.2-.2-.1-.4-.3-.6-.6-.2-.3-.4-.7-.4-1.1-.1-.1-.1-.3-.1-.5m.4.2c0 .4.2.9.4 1.3.2.3.4.5.8.5.6.1 1.3-.2 1.6-.8.2-.3.2-.7.2-1.1 0-.4-.2-.9-.4-1.2-.3-.4-.7-.6-1.2-.6-.6 0-1.2.4-1.4 1.1v.8M16.5 31.5c-.1.1-.1.2-.2.3 0 .1 0 .1-.1.2-.1.2-.2.2-.3.2h-.2c-.2-.1-.4-.2-.5-.4 0-.1-.1-.1-.1-.2-.1 0 0 .1 0 .1v.2c0 .2-.1.3-.3.3h-.3c-.2 0-.2-.1-.2-.3v-.6-1.1-.2c0-.1 0-.2-.1-.2-.1-.2 0-.4.2-.4.2-.1.4-.1.6 0 .1 0 .2.1.3.3.1.3.2.7.4 1 0 0 0 .1.1.2 0-.1.1-.1.1-.2l.3-.9c.1-.2.2-.3.4-.3h.4c.2 0 .3.1.3.3v2.3c0 .2-.1.3-.3.3h-.5c-.2 0-.3-.1-.3-.3V31.5zm-.5.4c.1-.2.2-.5.3-.7.1-.3.3-.7.4-1 0 0 0-.1.1-.1v1.6h.5v-.5-1.5-.4h-.4c-.1 0-.2.1-.3.2-.1.4-.3.7-.4 1.1-.1.4-.2.6-.2.8 0-.1-.1-.1-.1-.2l-.6-1.5s0-.1-.1-.2l-.1-.1h-.5c.1.1.1.2.1.4v1.9h.3v-.3-1.2-.1c0 .1.1.2.1.2.1.4.3.8.4 1.1 0 .1.1.2.2.3.1.2.2.2.3.2M23.6 31.3h-.5c-.1.2-.1.4-.2.5-.1.2-.1.2-.3.2H20.9h-.1c-.1 0-.2-.1-.2-.2v-.2-1.7c0-.1 0-.2-.1-.4s0-.4.2-.4c.2-.1.4-.1.6 0 .2.1.3.1.3.3v1.7h.3c.1-.1.3-.1.4-.1h.1s0-.1.1-.1c.2-.4.4-.9.5-1.3.1-.4.5-.5.8-.5.2 0 .2 0 .3.2.2.7.5 1.4.7 2.1 0 .1.1.2.1.2.1.2 0 .3-.2.4h-.5c-.2 0-.2-.1-.3-.2-.2-.1-.3-.3-.3-.5m.1-1.9c-.1 0-.2 0-.3.1-.1.1-.2.1-.2.3-.3.6-.5 1.3-.8 1.9v.1h.3c.1-.2.2-.5.3-.8h.8c.1.3.2.5.3.8h.5c-.4-.8-.6-1.6-.9-2.4m-2.4 2.2v-.5-.5-.5-.5c-.2-.1-.3 0-.5 0-.1 0-.1.1-.1.1.1.1.1.3.1.4v1.8c.1.1.1 0 .2 0h.9c.1 0 .1 0 .1-.1v-.2-.1c-.2.1-.3.1-.7.1M25.7 58.9h-.2c-.2 0-.3-.1-.3-.3 0-.2-.1-.4-.1-.5 0-.1.1-.3.2-.3h.1c.3-.1.7-.2 1-.3h.4c.2 0 .3.1.3.3 0 .1.1.2.1.3v.3c-.2.8-.3 1.6-.5 2.4-.1.3-.1.6-.2.9 0 .2-.2.4-.4.3H26c-.2 0-.5-.1-.7-.2-.2 0-.3-.1-.3-.3v-.2c.1-.5.2-1 .3-1.4.1-.3.1-.6.2-.9.2 0 .2 0 .2-.1m.6 2.7v-.2-.2c.1-.7.3-1.4.4-2.1.1-.3.1-.5.2-.8 0-.2 0-.3-.1-.4h-.3c-.3.1-.6.2-1 .2h-.1c0 .1 0 .3.1.4.2 0 .4-.1.5 0v.5c-.2.8-.3 1.5-.5 2.3v.2c.3 0 .6.1.8.1M28.5 5.5c.1 0 .2 0 .3.1.2 0 .2.1.3.3v.2c.1.6.1 1.1.2 1.7.1.5.1.9.2 1.4 0 .2.1.4.1.6v.2c0 .1-.1.2-.3.3-.3 0-.6.1-.9.1-.1 0-.2 0-.3-.1-.1-.1-.1-.2-.2-.3 0-.3-.1-.5-.1-.8-.1-.7-.2-1.3-.3-2 0-.1 0-.3-.1-.4 0-.1-.1-.2-.1-.3-.2-.3-.1-.6.2-.7.4-.2.7-.2 1-.3m-.7.7c.2.1.2.3.2.5.1.9.2 1.9.4 2.8 0 .1 0 .3.1.4.2 0 .6-.1.8-.1 0-.1-.1-.2-.1-.3l-.3-2.4c0-.3-.1-.7-.1-1 0-.1 0-.1-.1-.1-.3 0-.5 0-.8.1-.1 0-.1 0-.1.1M13.4 30V30.3h.3c.2-.1.3 0 .3.2s0 .3-.1.5h-.5v.3h.5c.1 0 .2 0 .2.1.1.3 0 .5-.3.6h-1.2c-.2 0-.3-.1-.3-.3v-.1-.3-.1h-.1-.1c-.1.2-.2.4-.3.5-.1.2-.2.2-.3.2h-.3c-.2 0-.3-.2-.2-.4 0 0 0-.1.1-.1.3-.6.6-1.1.9-1.7.1-.1.1-.2.1-.3 0-.2.1-.3.3-.3h1.3c.1 0 .2.1.3.2.1.2.1.3.1.5-.1.2-.3.3-.5.2 0 0 0-.1-.1-.1 0 .1-.1.1-.1.1m-1.1-.5c0 .2 0 .3-.1.5-.3.6-.6 1.1-.9 1.7 0 0 0 .1-.1.1h.3c.1-.3.3-.5.4-.8h.6c.1.2 0 .5 0 .7h1.2l.1-.1v-.2H13c-.1-.2 0-.6 0-.8h.5l.1-.1v-.1H13v-.8h.3c.1 0 .2.1.3.2.1-.1.1-.1.1-.2 0-.2-.1-.2-.2-.2h-.9c0 .1-.1.1-.3.1M20.2 30.4v.8c0 .4-.2.7-.6.9-.3.1-.6.1-.9.1-.5-.1-.9-.5-.9-1v-1c0-.1 0-.3-.1-.4-.1-.1 0-.3.2-.4.2-.1.4-.1.7 0 .2.1.2.1.2.3V31.3c0 .1.1.2.2.2s.3 0 .4-.1v-.1-.1-1c0-.1 0-.2-.1-.4s0-.4.1-.4c.1-.1.3-.1.4-.1.2 0 .3.1.3.4.1.1.1.4.1.7zm-2.2-.9c0 .2.1.3.1.4V31c0 .4.2.6.5.7.3.1.7.1 1-.1.2-.1.3-.3.3-.5v-.2-1.4-.1c-.2 0-.3 0-.4.1.1.2.1.4.1.6v1c0 .1-.1.2-.2.3-.2.1-.4.2-.6.1-.2 0-.3-.2-.4-.4v-.3-1.3-.2c0 .1-.2.1-.4.2M43.6 30.3v.7c0 .3.2.3.4.3.1 0 .2-.1.2-.3v-1.1c0-.1 0-.2-.1-.2-.1-.2 0-.4.2-.5.2 0 .3-.1.5 0 .1 0 .2.1.2.3V31.2c0 .4-.3.7-.6.9-.3.1-.6.1-.9.1-.5-.1-.8-.5-.8-1v-1.1c0-.1 0-.2-.1-.4s0-.4.2-.4c.2-.1.4-.1.7 0 .2.1.2.1.2.3 0 .2-.1.4-.1.7m-.2-.8c-.2-.1-.3 0-.5 0-.1 0-.1.1-.1.1.1.1.1.2.1.4v1.1c0 .4.2.7.6.8.3.1.6.1.9-.1.2-.1.4-.3.4-.6v-.3-.4-.9-.1h-.3s-.1 0-.1.1c.1.2.1.4.1.6v1c0 .2-.1.3-.2.3s-.2.1-.2.1c-.3 0-.6-.1-.6-.4v-.3-.8c-.1-.2-.1-.4-.1-.6M47.4 30.9c.2.2.3.4.5.6 0 .1.1.1.1.2.1.1.1.2 0 .3 0 .1-.1.1-.2.1h-.6c-.1 0-.2 0-.2-.1-.1-.1-.1-.2-.2-.3-.1 0 0 0 0 .1v.2c0 .1-.1.2-.2.2H46c-.1 0-.2-.1-.2-.2v-.1-1.7c0-.1 0-.3-.1-.4-.1-.2 0-.4.2-.4h1c.4 0 .7.2.8.6.1.4.1.7-.2 1 0-.1 0-.1-.1-.1m-.9.1s.1 0 0 0c.2.1.3.2.4.4.1.2.2.3.4.5h.5v-.1c-.2-.3-.4-.5-.6-.8 0 0 0-.1-.1-.1.1-.1.2-.1.2-.2.2-.2.3-.4.2-.7-.1-.3-.2-.4-.5-.5h-1-.1c.1.3.1.5.1.7V31.8h.5V31zM41 31.3h-.4s0 .1-.1.1c-.1.1-.1.3-.1.4 0 .1-.1.2-.3.2h-.3c-.2 0-.3-.2-.2-.3v-.1c.3-.6.5-1.3.7-1.9.1-.4.5-.5.8-.5.1 0 .2.1.2.2.1.5.3.9.5 1.3.1.3.2.7.4 1 .1.2-.1.3-.2.3h-.6c-.1 0-.2-.1-.2-.2s-.1-.3-.2-.5m1 .5c-.3-.8-.6-1.6-.8-2.4-.1 0-.2 0-.2.1-.1.1-.2.1-.3.3-.2.6-.5 1.3-.8 1.9v.1h.2c.1-.3.2-.5.3-.7h.8c.1.2.2.5.3.8h.3c0-.1.1-.1.2-.1M38.6 31.4c.1 0 .2 0 .3-.1.1-.1.2-.1.3-.1.1 0 .2.1.2.2 0 .2 0 .4-.1.5-.1.1-.1.2-.3.2h-1.2c-.2 0-.2-.1-.3-.3v-.2-1.7c0-.1 0-.2-.1-.4-.1-.1 0-.3.2-.4.2-.1.4-.1.7 0 .2.1.2.1.2.3V31c.1.2.1.3.1.4m-.7.4h1.3c.1-.1.1-.2 0-.4-.1.1-.2.2-.4.2h-.4v-.7-.7-.7c-.3-.1-.4-.1-.6.1.1.2.1.4.1.6v1.6M48.5 30.9V30c0-.1 0-.2-.1-.3-.1-.2 0-.4.2-.4.2-.1.4-.1.7 0 .2.1.2.1.2.3V31.9c0 .1-.1.3-.2.3h-.5c-.2 0-.2-.1-.2-.3v-1zm.8-1.4c-.2-.1-.3 0-.5 0-.1 0-.1.1-.1.1 0 .1.1.2.1.3V31.8h.5v-2.3zM10.2 32.8c0 .4-.3.8-.7.8-.4 0-.8-.3-.8-.8 0-.4.3-.8.8-.8.3.1.7.4.7.8m-.8-.3c-.2 0-.4.2-.4.4s.2.4.4.4.4-.2.4-.4c0-.3-.2-.4-.4-.4M36.2 44v-.2c0-.2.1-.4.4-.4h.6c.1 0 .1.1.1.2s0 .2-.1.2c-.2.2-.4.4-.7.5h-.1c-.2 0-.3 0-.3-.2.1 0 .1-.1.1-.1zM35.1 44.1c-.1 0-.1 0-.2-.1-.1 0-.1-.1-.2-.1-.1-.1-.1-.1 0-.2l.1-.1c.2-.1.5-.2.7-.2.2 0 .3.1.3.4 0 .2 0 .3-.1.4 0 0 0 .1-.1.1-.2.2-.3.2-.4-.1-.1 0-.1-.1-.1-.1M33.9 48.8c-.1.2-.2.3-.5.2-.2 0-.3-.2-.4-.3-.1-.1-.1-.3 0-.4.1-.1.2-.1.3-.1.1 0 .1.1.2.1.2.2.3.4.4.5M33.6 45.9c.1.4.2.8 0 1.1-.1.2-.2.4-.4.5.1-.3.1-.6.1-.9 0-.1.1-.3.1-.4 0-.2.1-.3.2-.3M34 47.8v-.1c0-.2 0-.4.1-.6.1-.2.3-.5.5-.6.1-.1.2-.1.3-.1l-.1.1-.2.2c-.1.1-.2.3-.3.5-.1.2-.1.3-.2.4 0 .1-.1.1-.1.2M34.7 47.6c.1 0 .1.1.1.2.1.2 0 .5 0 .7 0 0 0 .1-.1.1 0 0-.1.1-.1 0-.1 0-.1-.1-.1-.2v-.1c0-.1.1-.4.2-.7 0 .1 0 0 0 0M34 28.3c.2.1.5.3.5.4.1.1.2.2.1.4-.1.1-.1.1-.2.1s-.2-.1-.3-.1c-.1-.2-.2-.3-.2-.5.1-.2.1-.3.1-.3M35.1 33.1c-.3-.1-.5-.2-.5-.4s0-.4.1-.6c0 0 .1 0 .1.1s.1.2.1.3c.1.1.1.4.2.6M45 53.6c.3.3.9 1 1 1.3-.3.3-.7.3-1 .2-.2-.1-.3-.2-.4-.4-.2-.3-.2-.6 0-.8l.1-.1c.1-.1.2-.1.3-.2m.4 1.2c-.1-.2-.4-.5-.5-.6-.1.1-.1.2 0 .4l.3.3c.1-.1.2-.1.2-.1M46.3 55.2c.3.3.5.6.7.9-.2.3-.5.3-.8.2-.2-.1-.3-.2-.3-.4 0-.1-.1-.2-.1-.3.1-.1.2-.1.2-.2.1-.1.2-.2.3-.2m0 .7c0-.1 0-.1-.1-.1.1 0 .1 0 .1.1M48.2 52.3c.1-.1.5-.6.7-.8.2.4.5.8.7 1.3h-.1c-.4-.1-.8-.2-1.3-.5 0 .1 0 0 0 0M50.3 15.9c-.3.5-.5.9-.8 1.3-.1-.1-.5-.5-.7-.8h.1c.4-.2.8-.4 1.4-.5-.1 0-.1 0 0 0M55.9 26.1c.1.3.1.6-.1.8-.3.3-.6.4-1 .4-.2 0-.4-.1-.5-.3-.1-.1-.1-.3-.1-.4l.1-.1c.5-.1.9-.2 1.4-.3.1-.1.1-.1.2-.1m-.3.4c-.3.1-.6.1-.8.2 0 .1.1.1.1.1h.4c.1 0 .2-.1.3-.3"/><path class="st3" d="M11.7 19.7c-.5-.3-1-.6-1.4-.9.1-.3.3-.5.6-.5s.6.1.9.4c.2.2.2.5.1.8 0 .1-.1.1-.1.2 0-.1 0-.1-.1 0m-.9-1.1c.2.2.6.4.8.5 0-.1 0-.2-.1-.3-.2-.2-.3-.2-.6-.2h-.1M32 60.6c0-.2-.1-.2.2-.3h.3c.2 0 .3.1.4.2 0 .1.1.1.1.2.1.3.1.6 0 .8 0 .1 0 .1-.1.2-.1.3-.4.3-.7.1-.1-.1-.2-.2-.2-.3-.1-.2-.2-.5-.2-.7.3-.1.2-.2.2-.2m.7.9c.2-.2.1-.7 0-.9 0 0-.1 0-.1-.1h-.2c0 .2.1.5.2.7 0 .2.1.3.1.3M18.1 53.7c-.2.3-1.7 2-2.1 2.3-.3-.2-.4-.4-.5-.7v-.6c.2-.7.5-1.2 1.2-1.5.2-.1.4-.1.7-.1.1 0 .1 0 .2.1 0 .1.4.4.5.5M16 55.5c.5-.6 1-1.1 1.5-1.7 0 0 0-.1.1-.1l-.1-.1c-.1-.2-.3-.2-.5-.1-.2 0-.3.1-.4.2-.3.2-.5.5-.6.8 0 .1-.1.3-.1.4-.1.2-.1.4.1.6M31.3 9.3v-.1-1.5c0-.5 0-1 .1-1.5.3 0 .6 0 .8.2.2.1.3.3.4.4.3.6.4 1.2.2 1.8 0 .2-.1.3-.3.4-.2.2-.4.3-.6.3h-.6m.4-2.7c0 .2-.1 2-.1 2.3V9h.1c.2 0 .3-.1.4-.2.1-.1.2-.2.2-.4.1-.3.1-.6 0-.9 0-.2-.1-.4-.3-.6-.1-.1-.2-.2-.4-.3h.1M50.2 20.7c.2-.2 1-.6 1.4-.8l.1.1c.1.2.1.4.1.6-.1.4-.3.6-.7.7-.2.1-.5 0-.6-.2-.2-.2-.3-.3-.3-.4m1.2-.4c-.3.1-.5.3-.7.4l.1.1h.2c.1-.1.3-.1.3-.3.1 0 .1 0 .1-.2M52.2 20.2c-.1-.2-.2-.4-.3-.5.1-.1.8-.5 1-.6.2.2.2.6 0 .8-.1.2-.4.3-.7.3m.3-.5s.1 0 0 0c.1 0 .1 0 0 0 .1 0 .1 0 0 0 .1 0 .1 0 0 0 0 0 0 .1 0 0 0 .1 0 .1 0 0 0 .1 0 0 0 0M9.5 21.9c.6 0 1.2.2 1.6.6.2.1.3.3.3.5.1.3 0 .7-.3.8-.1.1-.3.2-.4.2-.7 0-1.3-.2-1.9-.6-.1-.1-.2-.3-.3-.4-.2-.4 0-.7.3-.9.2-.1.4-.2.7-.2m0 .4H9c-.2.1-.3.3-.2.5 0 0 0 .1.1.1l.3.3c.3.2.7.4 1.1.4h.6c.1 0 .1-.1.2-.1.1-.1.1-.2.1-.3 0-.1-.1-.2-.2-.3-.5-.4-1-.6-1.5-.6M37.2 60.3c0 .2 0 .3-.1.5 0 .1-.1.2-.1.2-.1.2-.4.3-.6.2-.1 0-.2-.1-.2-.2l-.3-.3c-.2-.4-.3-.7-.4-1.1V59c0-.1.1-.2.1-.3.1-.2.3-.3.5-.2.1 0 .2.1.3.2.1.1.3.3.3.5.4.3.5.7.5 1.1m-1.1-1.5c-.1.1-.1.1-.1.2s-.1.3 0 .4c.1.4.2.8.4 1.2 0 .1.1.1.2.2s.2.1.2-.1v-.1c.1-.2.1-.4 0-.6 0-.2-.1-.5-.2-.7-.1-.1-.1-.2-.2-.3-.1-.1-.2-.1-.3-.2M23.7 30.8h-.6c0-.2.1-.3.1-.4 0-.1.1-.3.2-.5.1.4.2.6.3.9M12.6 29.8v1h-.5v-.1c.2-.3.3-.6.5-.9M46.5 30.7v-1h.3c.1 0 .1.1.2.2s.1.3.1.5-.2.4-.4.4c-.1 0-.1 0-.2-.1m.3-.6v.4c0-.1 0-.1.1-.1 0-.1 0-.2-.1-.3M41.1 30.8h-.6l.3-.9c.1.2.2.6.3.9"/></g></g><path class="st1" d="M235.4 40.6h.5c1 0 1.6.8 1.6 1.8 0 .5-.2 1.3-.5 1.6-.3-.1-.8-.1-1.1-.1h-.5c0-.9.1-2 .1-2.9v-.4zm.2 4.2c1.3.1 2.4.9 2.4 2.7 0 .9-.6 1.8-2 1.8h-.7c-.1-1.2-.1-3.1 0-4.5h.3zm-2.2 5.4h2.5c2.5 0 4.1-1.3 4.1-3.3 0-1.6-1-2.4-2.3-2.8 1-.6 1.6-1.4 1.6-2.3 0-1.2-1.1-2.4-3.4-2.4l-3.1.1-.1.3c.2.2.4.4.4 1.8v8.5h.3zm-5.2-4.5h-2.9l1.5-4.1 1.4 4.1zm.6-5c-.1-.3-.3-1-.4-1.4-1.3.1-2.3.6-2.6 1.7l-3.6 9.2h1.5v-.3l1.1-3.2h3.7l.9 2.7c.2.4.2.8.2.8h2.6c-.2-.3-.4-.8-.6-1.4l-2.8-8.1zm-14.5 9.5h2.4c-.2-.4-.2-2.6-.2-4.3V45c1 1.3 2.9 4.1 3.6 5.2h2.9c-.3-.2-3.6-4.6-4.7-6.1 1.6-1.5 2.5-2.3 3.2-3 .5-.5.9-1 1.1-1.6-.2-.1-.6-.2-1.1-.2-.6 0-1.2.1-1.4.2l-.1.3c.1.1.1.2.1.3 0 .2-.1.4-.3.7-.8 1-2.3 2.5-3.2 3.6 0-1.9.1-3.8.2-4.9-.4-.2-.9-.2-1.2-.2-.7 0-1.4.2-1.4.2l-.1.3c.2.3.4.5.4 1.7-.1 7.6-.2 8.2-.2 8.7m-5.3.3c2.3 0 3.8-1.4 3.8-3.1 0-3.2-5-3.7-5-5.7 0-.9.8-1.2 1.4-1.2.7 0 1.9.5 2.2 1.6l.4.1c.4-.4.5-.9.5-1.3 0-.2 0-.4-.1-.6-.5-.3-1.4-.8-2.8-.8-2.2 0-3.2 1.5-3.2 3 0 3 4.6 3.7 4.6 5.4 0 1.1-1 1.4-1.8 1.4-.9 0-2.3-.5-2.5-1.2-.2.2-.3.5-.3.7 0 .8 1.2 1.7 2.8 1.7m-9.1-.3h5.8c.4-.4.5-1.3.2-1.9h-.4c-.1.5-1 .8-1.8.8h-1.6v-3.3c0-2.3.1-4.9.2-6.3-.4-.2-.9-.2-1.2-.2-.7 0-1.4.2-1.4.2l-.1.3c.2.3.4.5.4 1.7-.1 7.6-.1 8.2-.1 8.7m-3.5 0c1.2 0 1.8-.2 1.8-1v-.5c-.2.3-.6.3-.8.3h-2.8s-.1-1.9 0-3.5h1.6c.8 0 1.5-.2 1.5-1V44c-.3.3-.7.3-1 .3h-2c0-1 0-2.8.1-3.7l1.4.1c.6 0 1.4.4 1.5.8h.4c.2-.6.2-1.4-.2-1.9H192l-.1.3c.3.4.4.5.4 1.8v8.5h4.1zm-9.4.3c2.3 0 3.8-1.4 3.8-3.1 0-3.2-5-3.7-5-5.7 0-.9.8-1.2 1.4-1.2.7 0 1.9.5 2.2 1.6l.4.1c.4-.4.5-.9.5-1.3 0-.2 0-.4-.1-.6-.5-.3-1.4-.8-2.8-.8-2.2 0-3.2 1.5-3.2 3 0 3 4.6 3.7 4.6 5.4 0 1.1-1 1.4-1.8 1.4-.9 0-2.3-.5-2.5-1.2-.2.2-.3.5-.3.7 0 .8 1.2 1.7 2.8 1.7m-11.4 0c2.3 0 3.8-1.4 3.8-3.1 0-3.2-5-3.7-5-5.7 0-.9.8-1.2 1.4-1.2.7 0 1.9.5 2.2 1.6l.4.1c.4-.4.5-.9.5-1.3 0-.2 0-.4-.1-.6-.5-.3-1.4-.8-2.8-.8-2.2 0-3.2 1.5-3.2 3 0 3 4.6 3.7 4.6 5.4 0 1.1-1 1.4-1.8 1.4-.9 0-2.3-.5-2.5-1.2-.2.2-.3.5-.3.7 0 .8 1.2 1.7 2.8 1.7m-9-7.2v-2.7h.3c1.6-.1 2.3 1.2 2.3 2.6 0 1.1-.7 2.1-2 2.1h-.6v-2zm.1 6.9c-.1-.7-.2-2.4-.2-4h.3l.3.3c1 1.1 2.2 2.5 2.7 3.6h2.8s-.7-.7-1.3-1.5c-.8-.9-1.4-1.7-2-2.5l-.4-.4c1.3-.5 2.2-1.6 2.2-3.1 0-2.5-2-3.3-3.7-3.3l-3.4.1v.6c.3.4.4 1 .4 1.7v8.5h2.3zm-5.8 0c1.2 0 1.8-.2 1.8-1v-.5c-.2.3-.6.3-.8.3H159s-.1-1.9 0-3.5h1.6c.8 0 1.5-.2 1.5-1V44c-.3.3-.7.3-1 .3h-2c0-1 0-2.8.1-3.7l1.4.1c.6 0 1.4.4 1.5.8h.4c.2-.6.2-1.4-.2-1.9h-5.6l-.1.3c.3.4.4.5.4 1.8v8.5h3.9zm-10.3-9.6h.5c1 0 1.6.8 1.6 1.8 0 .5-.2 1.3-.5 1.6-.3-.1-.8-.1-1.1-.1h-.5c0-.9.1-2 .1-2.9v-.4zm.3 4.2c1.3.1 2.4.9 2.4 2.7 0 .9-.6 1.8-2 1.8h-.7c-.1-1.2-.1-3.1 0-4.5h.3zm-2.3 5.4h2.5c2.5 0 4.1-1.3 4.1-3.3 0-1.6-1-2.4-2.3-2.8 1-.6 1.6-1.4 1.6-2.3 0-1.2-1.1-2.4-3.4-2.4l-3.1.1-.1.3c.2.2.4.4.4 1.8v8.5h.3zm-5.2-4.5h-2.9l1.5-4.1 1.4 4.1zm.6-5c-.1-.3-.3-1-.4-1.4-1.3.1-2.3.6-2.6 1.7l-3.6 9.2h1.5v-.3l1.1-3.2h3.7l.9 2.7c.2.4.2.8.2.8h2.6c-.2-.3-.4-.8-.6-1.4l-2.8-8.1zm-14.5 9.5h2.4c-.2-.4-.2-2.6-.2-4.3V45c1 1.3 2.9 4.1 3.6 5.2h2.9c-.3-.2-3.6-4.6-4.7-6.1 1.6-1.5 2.5-2.3 3.2-3 .5-.5.9-1 1.1-1.6-.2-.1-.6-.2-1.1-.2-.6 0-1.2.1-1.4.2l-.1.3c.1.1.1.2.1.3 0 .2-.1.4-.3.7-.8 1-2.3 2.5-3.2 3.6 0-1.9.1-3.8.2-4.9-.4-.2-.9-.2-1.2-.2-.7 0-1.4.2-1.4.2l-.1.3c.2.3.4.5.4 1.7-.1 7.6-.1 8.2-.2 8.7m-5.3.3c2.3 0 3.8-1.4 3.8-3.1 0-3.2-5-3.7-5-5.7 0-.9.8-1.2 1.4-1.2.7 0 1.9.5 2.2 1.6l.4.1c.4-.4.5-.9.5-1.3 0-.2 0-.4-.1-.6-.5-.3-1.4-.8-2.8-.8-2.2 0-3.2 1.5-3.2 3 0 3 4.6 3.7 4.6 5.4 0 1.1-1 1.4-1.8 1.4-.9 0-2.3-.5-2.5-1.2-.2.2-.3.5-.3.7 0 .8 1.3 1.7 2.8 1.7m-5.7-4.2c0 .3.1 1.2.1 1.2s-.3-.9-.7-1.2c-.6-.7-5.4-5.9-6.2-6.8-.5-.1-1.3.1-1.5.2l-.1.3c.3.4.4.8.4 1.6V50.3h1.4c-.1-1-.2-2.7-.2-4.6v-2.2-.8c.1.3.7 1.1.7 1.1l6 6.6h1.4c0-.8-.1-1.8-.1-3.1 0-2.5.1-5.5.2-7.6-.1-.1-.4-.2-.7-.2-.3 0-.9.1-1.1.2l-.1.3c.3.3.5.8.5 1.7v4.6m-11.6 3.9c1.2 0 1.8-.2 1.8-1v-.5c-.2.3-.6.3-.8.3h-2.8s-.1-1.9 0-3.5h1.6c.8 0 1.5-.2 1.5-1V44c-.3.3-.7.3-1 .3h-2c0-1 0-2.8.1-3.7l1.4.1c.6 0 1.4.4 1.5.8h.4c.2-.6.2-1.4-.2-1.9h-5.6l-.1.3c.3.4.4.5.4 1.8v8.5h3.8zm-10.6-1h-1.6v-3c0-1.9.1-4.8.1-5.6h.6c2-.1 3.6 2 3.6 4.8-.1 2.5-1.5 3.8-2.7 3.8m-.2 1c3.1 0 5.1-2.4 5.1-5.6 0-3.4-2.5-5.1-5.2-5.1l-3.9.1-.1.4c.4.5.4 1.2.4 1.9v8.4h3.7zm-8.5 0H90c-.2-.4-.2-2.6-.2-4.3 0-2.3.1-4.9.2-6.3-.4-.2-.9-.2-1.2-.2-.7 0-1.4.2-1.4.2l-.2.4c.2.3.4.5.4 1.7.1 7.4 0 8 0 8.5m-5 .4l-1-.2c-.9-.2-1.3-.9-1.4-1.3-.8-2.2-1.7-4.7-2.5-6.9-.6-1.9-1.1-2.3-1.2-2.3l.1-.3c.4-.1.9-.2 1.4-.2.5 0 1 .1 1.3.4.5 2.3 2.4 7.7 2.8 8.7.5-2.1 1.7-4.5 2.4-6.7.1-.3.2-.7.2-1 0-.4-.1-.7-.4-.9l.1-.3c.4-.1.7-.2 1-.2.4 0 .7.1 1 .2 0 .6-.3 1.6-.5 2.2l-3.1 7.4-.2 1.4zM238 28.2c1.2 0 1.8-.2 1.8-1v-.5c-.2.3-.6.3-.8.3h-2.8s-.1-1.9 0-3.5h1.6c.8 0 1.5-.2 1.5-1V22c-.3.3-.7.3-1 .3h-2c0-1 0-2.8.1-3.7l1.4.1c.6 0 1.4.4 1.5.8h.4c.2-.6.2-1.4-.2-1.9h-5.6l-.1.3c.3.4.4.5.4 1.8v8.5h3.8zm-13.3 0h2.4c-.2-.4-.2-2.6-.2-4.3V23c1 1.3 2.9 4.1 3.6 5.2h2.9c-.3-.2-3.6-4.6-4.7-6.1 1.6-1.5 2.5-2.3 3.2-3 .5-.5.9-1 1.1-1.6-.2-.1-.6-.2-1.1-.2-.6 0-1.2.1-1.4.2l-.1.3c.1.1.1.2.1.3 0 .2-.1.4-.3.7-.8 1-2.3 2.5-3.2 3.6 0-1.9.1-3.8.2-4.9-.4-.2-.9-.2-1.2-.2-.7 0-1.4.2-1.4.2l-.1.3c.2.3.4.5.4 1.7-.1 7.6-.2 8.2-.2 8.7m-4.9.3c2.3 0 3.8-1.4 3.8-3.1 0-3.2-5-3.7-5-5.7 0-.9.8-1.2 1.4-1.2.7 0 1.9.5 2.2 1.6l.4.1c.4-.4.5-.9.5-1.3 0-.2 0-.4-.1-.6-.5-.3-1.4-.8-2.8-.8-2.2 0-3.2 1.5-3.2 3 0 3 4.6 3.7 4.6 5.4 0 1.1-1 1.4-1.8 1.4-.9 0-2.3-.5-2.5-1.2-.2.2-.3.5-.3.7 0 .8 1.2 1.7 2.8 1.7m-8.7-7.2v-2.7h.3c1.6-.1 2.3 1.2 2.3 2.6 0 1.1-.7 2.1-2 2.1h-.6v-2zm.1 6.9c-.1-.7-.2-2.4-.2-4h.3l.3.3c1 1.1 2.2 2.5 2.7 3.6h2.8s-.7-.7-1.3-1.5c-.8-.9-1.4-1.7-2-2.5l-.4-.4c1.3-.5 2.2-1.6 2.2-3.1 0-2.5-2-3.3-3.7-3.3l-3.4.1-.1.3c.3.4.4 1 .4 1.7v8.5h2.4zM203 17.4c2.5 0 4.6 1.8 4.6 5.3-.1 3.2-2.2 5.7-5.5 5.7-2.2 0-4.4-1.8-4.4-5.3 0-3.3 2.3-5.7 5.3-5.7m-.1 9.9c1.4 0 2.4-1.8 2.4-4 0-2.6-1.3-4.7-2.8-4.7-1.4 0-2.4 1.8-2.4 4 0 2.4 1.2 4.7 2.8 4.7m-7.7-3c0 .3.1 1.2.1 1.2s-.3-.9-.7-1.2c-.6-.7-5.4-5.9-6.2-6.8-.5-.1-1.3.1-1.5.2l-.1.3c.3.4.4.8.4 1.6V28.3h1.4c-.1-1-.2-2.7-.2-4.6v-2.2-.8c.1.3.7 1.1.7 1.1l6 6.6h1.4c0-.8-.1-1.8-.1-3.1 0-2.5.1-5.5.2-7.6-.1-.1-.4-.2-.7-.2-.3 0-.9.1-1.1.2l-.1.3c.3.3.5.8.5 1.7v4.6m-15.1 3.9c1.2 0 1.8-.2 1.8-1v-.5c-.2.3-.6.3-.8.3h-2.8s-.1-1.9 0-3.5h1.6c.8 0 1.5-.2 1.5-1V22c-.3.3-.7.3-1 .3h-2c0-1 0-2.8.1-3.7l1.4.1c.6 0 1.4.4 1.5.8h.4c.2-.6.2-1.4-.2-1.9H176l-.1.3c.3.4.4.5.4 1.8v8.5h3.8zm-9-.9c-2.2 0-3.3-2.3-3.3-4.8 0-2 .9-3.9 2.8-3.9 1.2 0 2 1.3 2 1.7l.3.2c.8-.3 1.2-1.3 1.2-1.6-.4-.8-1.8-1.4-3.3-1.4-3.3 0-5.4 2.4-5.4 5.7 0 3.1 1.7 5.3 4.9 5.3 1.3 0 2.6-.3 3.4-.5.3-.1.5-.1.8-.1v-1.5c0-1.3 0-1.5.1-2.6-.4-.2-.8-.2-1.2-.2-.7 0-1.4.2-1.4.2l-.1.4c.2.3.4.5.4 1.7v1.2c.1 0-.8.2-1.2.2m-9.3.9h2.4c-.2-.4-.2-2.6-.2-4.3 0-2.3.1-4.9.2-6.3-.4-.2-.9-.2-1.2-.2-.7 0-1.4.2-1.4.2l-.1.3c.2.3.4.5.4 1.7 0 7.5 0 8.1-.1 8.6m-6.8 0h5.8c.4-.4.5-1.3.2-1.9h-.4c-.1.5-1 .8-1.8.8h-1.6v-3.3c0-2.3.1-4.9.2-6.3-.4-.2-.9-.2-1.2-.2-.7 0-1.4.2-1.4.2l-.1.3c.2.3.4.5.4 1.7-.1 7.6-.1 8.2-.1 8.7m-3.2 0c1.2 0 1.8-.2 1.8-1v-.5c-.2.3-.6.3-.8.3H150s-.1-1.9 0-3.5h1.6c.8 0 1.5-.2 1.5-1V22c-.3.3-.7.3-1 .3h-2c0-1 0-2.8.1-3.7l1.4.1c.6 0 1.4.4 1.5.8h.4c.2-.6.2-1.4-.2-1.9h-5.6l-.1.3c.3.4.4.5.4 1.8v8.5h3.8zm-9-.9c-2.2 0-3.3-2.3-3.3-4.8 0-2 .9-3.9 2.8-3.9 1.2 0 2 1.3 2 1.7l.3.2c.8-.3 1.2-1.3 1.2-1.6-.4-.8-1.8-1.4-3.3-1.4-3.3 0-5.4 2.4-5.4 5.7 0 3.1 1.7 5.3 4.9 5.3 1.3 0 2.6-.3 3.4-.5.3-.1.5-.1.8-.1v-1.5c0-1.3 0-1.5.1-2.6-.4-.2-.8-.2-1.2-.2-.7 0-1.4.2-1.4.2l-.1.4c.2.3.4.5.4 1.7v1.2s-.8.2-1.2.2m-8.3-3c0 .3.1 1.2.1 1.2s-.3-.9-.7-1.2c-.6-.7-5.4-5.9-6.2-6.8-.5-.1-1.3.1-1.5.2l-.1.3c.3.4.4.8.4 1.6V28.3h1.4c-.1-1-.2-2.7-.2-4.6v-2.2-.8c.1.3.7 1.1.7 1.1l6 6.6h1.4c0-.8-.1-1.8-.1-3.1 0-2.5.1-5.5.2-7.6-.1-.1-.4-.2-.7-.2-.3 0-.9.1-1.1.2l-.1.3c.3.3.5.8.5 1.7.1 5 0 4.6 0 4.6m-13.8-6.9c2.5 0 4.6 1.8 4.6 5.3-.1 3.2-2.2 5.7-5.5 5.7-2.2 0-4.4-1.8-4.4-5.3 0-3.3 2.2-5.7 5.3-5.7m-.2 9.9c1.4 0 2.4-1.8 2.4-4 0-2.6-1.3-4.7-2.8-4.7-1.4 0-2.4 1.8-2.4 4 0 2.4 1.2 4.7 2.8 4.7m-13.2.9h2.4c-.2-.4-.2-2.6-.2-4.3V23c1 1.3 2.9 4.1 3.6 5.2h2.9c-.3-.2-3.6-4.6-4.7-6.1 1.6-1.5 2.5-2.3 3.2-3 .5-.5.9-1 1.1-1.6-.2-.1-.6-.2-1.1-.2-.6 0-1.2.1-1.4.2l-.1.3c.1.1.1.2.1.3 0 .2-.1.4-.3.7-.8 1-2.3 2.5-3.2 3.6 0-1.9.1-3.8.2-4.9-.4-.2-.9-.2-1.2-.2-.7 0-1.4.2-1.4.2l-.1.3c.2.3.4.5.4 1.7-.2 7.6-.2 8.2-.2 8.7m-10.1 0v-8.6c0-.4 0-.8-.1-1h-1.4c-.8 0-1.3.4-1.4.8H94c-.2-.7-.2-1.4.3-2l2.4.1h3.2l2.4-.1c.5.6.5 1.3.3 2h-.4c-.1-.5-.6-.8-1.4-.8h-1.4c-.1 1.4-.1 3.4-.1 5.3 0 1.7 0 3.9.2 4.3h-2.3zm-5 0c1.2 0 1.8-.2 1.8-1v-.5c-.2.3-.6.3-.8.3h-2.8s-.1-1.9 0-3.5H92c.8 0 1.5-.2 1.5-1V22c-.3.3-.7.3-1 .3h-2c0-1 0-2.8.1-3.7l1.4.1c.6 0 1.4.4 1.5.8h.4c.2-.6.2-1.4-.2-1.9h-5.6l-.3.4c.3.4.4.5.4 1.8v8.5h4zm-10.3-1h-1.6v-3c0-1.9.1-4.8.1-5.6h.6c2-.1 3.6 2 3.6 4.8-.1 2.5-1.4 3.8-2.7 3.8m-.2 1c3.1 0 5.1-2.4 5.1-5.6 0-3.4-2.5-5.1-5.2-5.1l-3.9.1v.4c.4.5.4 1.2.4 1.9v8.4h3.6z"/></g></svg>