<svg version="1.1" id="Layer_1" xmlns="http://www.w3.org/2000/svg" xmlns:xlink="http://www.w3.org/1999/xlink" x="0" y="0" viewBox="0 0 214.1 68" xml:space="preserve"><style>.st0{clip-path:url(#SVGID_2_)}.st1{clip-path:url(#SVGID_4_)}</style><defs><path id="SVGID_1_" d="M2.8 3h51.4v62.2H2.8z"/></defs><clipPath id="SVGID_2_"><use xlink:href="#SVGID_1_" overflow="visible"/></clipPath><path class="st0" d="M7.8 57.3c1.4-8.8 5-18.2 11.5-23.6.2 1.4 1.1 3 2.3 4C15.3 42 10.7 49.6 7.8 57.3"/><path class="st0" d="M54 7.9l-.1-.6-.4-.6-.3-.2h-.4l-.3.3-1 1.2-1.7 1.8-1.9 1.7-2.1 1.5-3.1 1.9-1.6.9-3.4 1.6-8.5 3.8-3.2 1.6-2.9 1.7-2.8 1.9-2.5 2-1.2 1.1-1.1 1.1-2.2 2.3-1 1.3-1.8 2.5-1.6 2.7-1.5 2.7-.6 1.4-.6 1.5-1.1 3-.4 1.5-.8 3.1-.5 3.1L3 59l-.1 1.6-.1.7 2.3 3.9.1-3.2.3-3.2.5-3.1.5-3.1.8-3 .4-1.5 1.1-2.9 1.3-2.9 1.6-3 .9-1.4 1.5-2.2 1.2-1.3 1.3-1.2 1.5-1.1 1.7-.9.9-.4.1.7.1.7.1.6.2.7.3.5.3.6.7.9.9.8.5.3 1 .5 1.2.4.5.1 1.2.1.6-.1 1.2-.2 1.1-.4.6-.3 1-.8.4-.4.9-1.1.6-1.3.3-.7.4.4 1.2.9 1.3.7.8.3 1.1.4.8.2h2.2l.7-.2.7-.2.6-.2.6-.3.6-.4.5-.4.5-.5.8-1.1.6-1.2.4-1.3.1-.7.1-.8-.1-.7v-.8l-.2-.8-.2-.8-.7-1.6-.5-.8.4-.3 1.3-.8 1.2-1 1.1-1.1.6-.8.6-.9.6-1 .4-.9.4-1.1.3-1 .3-1 .1-1.1.1-1.1v-1z"/><path class="st0" d="M11 23.3c-.2.7-.4 1.4-.7 2.1-1.2 3.9-2.5 8.2-3.5 13.1C13.2 25.7 26.7 17.2 32.4 14c3.1-1.7 6.8-6.5 8-9.2-2.2 1.5-4.3 1.7-6.3 1.8-2 .1-3.8.3-5.6 1.8l-.3.2-.2-.3c-.8-1.1-1.6-1.6-2.5-1.6-2.3 0-4.7 3.7-5.8 7.3-1.6 4.6-5.3 9.5-8.7 9.3m-4.7 18l-.6-.2c1-6.1 2.6-11.3 4-15.8.3-.8.5-1.6.7-2.4l.1-.3h.3c3.1.4 6.8-4.3 8.2-8.8C20.2 10 22.7 6 25.5 6c1 0 2 .5 2.9 1.6C30.1 6.3 32 6.1 34 6c2.2-.2 4.4-.3 6.8-2.3l.8-.7-.2 1c-.6 2.5-4.9 8.6-8.6 10.7-6.1 3.2-20.7 12.5-26.5 26.6"/><g><defs><path id="SVGID_3_" d="M0 0h214.1v68H0z"/></defs><clipPath id="SVGID_4_"><use xlink:href="#SVGID_3_" overflow="visible"/></clipPath><path class="st1" d="M207.4 50.7h1.5v-5c0-1.7.8-2.6 2.4-2.6v-1.6c-1.2 0-2 .7-2.4 1.7v-1.6h-1.4v9.1zm-1.9-9.1H204v5.5c0 1.9-.7 2.5-1.6 2.5-1 0-1.3-.7-1.3-1.8v-6.2h-1.5v6.6c0 2.3 1.2 2.7 2.3 2.7 1.1 0 1.8-.4 2.1-1.3 0 .5 0 .9.1 1.2h1.4v-9.2zm-11.3 1.2h1.3v6.1c0 1.5.6 1.9 1.8 1.9.3 0 .8 0 1.1-.2v-1.1h-.6c-.7 0-.8-.4-.8-1v-5.8h1.6v-1.2H197v-2.4h-1.5v2.4h-1.3v1.3zm-2.4 4.1c0 1.8-.4 2.7-1.7 2.7-.9 0-1.3-.7-1.3-1.5 0-1 .6-1.7 2.2-1.7h.9v.5zm1.4-2.9c0-1.7-.9-2.6-2.7-2.6-2.2 0-2.8 1.4-2.9 2.7h1.4c.1-.6.1-1.5 1.4-1.5 1.2 0 1.3.8 1.3 1.5v1.2h-.9c-2.4 0-3.5 1.2-3.5 2.9 0 1.3.6 2.6 2.4 2.6 1.1 0 1.8-.4 2.1-1.2 0 .3 0 .8.1 1h1.3c0-.3-.1-1.1-.1-1.7V44zm-10.3 6.7h1.5v-5c0-1.7.8-2.6 2.4-2.6v-1.6c-1.2 0-2 .7-2.4 1.7v-1.6H183v9.1zm-6.3-5.4c0-.6.1-2.6 1.7-2.6 1.3 0 1.6 1.2 1.6 2.6h-3.3zm4.7 1.2v-.7c0-2.3-.6-4.3-3-4.3-2.2 0-3.2 1.8-3.2 4.7 0 2.3.4 4.7 3.1 4.7 2.8 0 3-2.6 3-2.8h-1.4c0 .3-.2 1.5-1.6 1.5-1.4 0-1.7-1.5-1.7-3.2h4.8zm-11.2-3.7h1.3v6.1c0 1.5.6 1.9 1.8 1.9.3 0 .8 0 1.1-.2v-1.1h-.6c-.7 0-.8-.4-.8-1v-5.8h1.6v-1.2h-1.6v-2.4h-1.5v2.4h-1.3v1.3zm-4.2 0h1.3v6.1c0 1.5.6 1.9 1.8 1.9.3 0 .8 0 1.1-.2v-1.1h-.6c-.7 0-.8-.4-.8-1v-5.8h1.6v-1.2h-1.6v-2.4h-1.5v2.4h-1.3v1.3zm-2.6-2.9h1.5V38h-1.5v1.9zm0 10.8h1.5v-9.1h-1.5v9.1zm-7.1 0h5.6l.2-1.3h-4.3V38.6h-1.5v12.1zm-9.1-8c1.3 0 1.6 1.2 1.6 3.3 0 2.1-.4 3.4-1.7 3.4-1.1 0-1.7-1-1.7-3.2.1-2.3.7-3.5 1.8-3.5m3.1 1.6v-2.7h-1.4c0 .2-.1.6-.1 1-.2-.6-.7-1.1-1.9-1.1-1.8 0-2.9 1.6-2.9 4.8 0 2.8.9 4.4 2.8 4.4 1 0 1.8-.4 2.1-1.3v.8c0 1.8-.3 2.9-1.8 2.9-1.2 0-1.5-.8-1.5-1.3H144c.1 1 .6 2.5 3 2.5 2.6 0 3.3-1.7 3.3-4.1v-5.9zm-10.8-1.6c1.2 0 1.7 1.1 1.7 3.4 0 2.4-.5 3.5-1.7 3.5s-1.7-1.2-1.7-3.5c0-2.4.6-3.4 1.7-3.4m.1-1.3c-2 0-3.3 1.5-3.3 4.6 0 3.3 1.1 4.8 3.2 4.8s3.2-1.6 3.2-4.8c0-3-1.1-4.6-3.1-4.6M127.4 38h-1.5v12.7h1.5v-3.1c.3-.3.7-1 1-1.3l2 4.5h1.7l-2.7-5.7c.8-1.2 1.7-2.3 2.5-3.5h-1.6l-2.8 4.2V38zm-6.3 1.8c-.5 0-.8-.4-.8-.8s.2-.8.8-.8c.5 0 .8.4.8.8s-.3.8-.8.8m0 .7c1 0 1.6-.7 1.6-1.6 0-.9-.6-1.6-1.6-1.6s-1.6.7-1.6 1.6c0 .9.6 1.6 1.6 1.6m1.3 6.4c0 1.8-.4 2.7-1.7 2.7-.9 0-1.3-.7-1.3-1.5 0-1 .6-1.7 2.2-1.7h.9v.5zm1.4-2.9c0-1.7-.9-2.6-2.7-2.6-2.2 0-2.8 1.4-2.9 2.7h1.4c.1-.6.1-1.5 1.4-1.5 1.2 0 1.3.8 1.3 1.5v1.2h-.9c-2.4 0-3.5 1.2-3.5 2.9 0 1.3.6 2.6 2.4 2.6 1.1 0 1.8-.4 2.1-1.2 0 .3 0 .8.1 1h1.3c0-.3-.1-1.1-.1-1.7V44zm-10.3 6.7h1.5v-5c0-1.7.8-2.6 2.4-2.6v-1.6c-1.2 0-2 .7-2.4 1.7v-1.6h-1.4v9.1zm-4.9-1.1c-1.4 0-1.6-1.4-1.6-3.5s.4-3.4 1.7-3.4c1.1 0 1.7 1.1 1.7 3.4 0 2.2-.6 3.5-1.8 3.5zm.3 1.3c1.8 0 2.9-1.5 2.9-4.9 0-3.1-.9-4.6-2.7-4.6-1.2 0-1.8.6-2.1 1.3 0-.4 0-1-.1-1.2h-1.4V54h1.5v-4.2c.3.6.9 1.1 1.9 1.1m-11.5-3.4c.1 1.8.9 3.4 3.4 3.4 2.3 0 3.4-1.4 3.4-3.4 0-1.9-.8-2.9-3-3.9-1.5-.7-2-1.2-2-2.3 0-.9.5-1.7 1.6-1.7 1.4 0 1.6 1.3 1.7 1.9h1.5c0-1.5-.7-3.2-3.1-3.2-2 0-3.1 1.3-3.1 3.1s.8 2.6 2.8 3.5c1.6.8 2.1 1.4 2.1 2.7 0 1.3-.6 2-1.8 2-1.3 0-1.9-1-2-2.2h-1.5zm-8.3 3.2h1.5v-5c0-1.7.8-2.6 2.4-2.6v-1.6c-1.2 0-2 .7-2.4 1.7v-1.6h-1.4v9.1zm-4.8-8c1.2 0 1.7 1.1 1.7 3.4 0 2.4-.5 3.5-1.7 3.5s-1.7-1.2-1.7-3.5c0-2.4.6-3.4 1.7-3.4m0-1.3c-2 0-3.3 1.5-3.3 4.6 0 3.3 1.1 4.8 3.2 4.8s3.2-1.6 3.2-4.8c.1-3-1-4.6-3.1-4.6m-5.1 9.3v-7.9h1.4v-1.2h-1.4v-1.1c0-.9.2-1.3.9-1.3.2 0 .4 0 .6.1V38c-.2-.1-.5-.1-.8-.1-1.7 0-2.2 1.2-2.2 2.5v1.2h-1.2v1.2h1.2v7.9h1.5zM208.4 18.6h2.1v-2.1h-2.1v2.1zm-.1 10.6h2.1V20h-2.1v9.2zm-12.6 0h2.1v-5.8c0-1.2.3-1.8 1.2-1.8.7 0 1 .4 1 1.3v6.3h2.1v-5.8c0-1.1.3-1.8 1.1-1.8.7 0 1 .5 1 1.3v6.3h2.1v-6.6c0-2.1-1-2.8-2.3-2.8-1.2 0-1.9.6-2.3 1.3-.3-.8-.9-1.3-1.9-1.3-.9 0-1.6.4-2 1.1 0-.3 0-.8-.1-.9h-2v9.2zm-6.3-5.6c0-.7.1-2 1.3-2 1.1 0 1.2 1.1 1.2 2h-2.5zm4.6 1.5v-.9c0-2.4-.7-4.4-3.3-4.4-2.4 0-3.5 1.8-3.5 4.7 0 2.3.4 4.9 3.4 4.9 3.1 0 3.3-2.7 3.3-3h-2c0 .3-.2 1.2-1.2 1.2-1.2 0-1.3-1.3-1.3-2.5h4.6zm-11.7-3.5c1.1 0 1.3.7 1.3 2.9s-.2 3.1-1.4 3.1c-.9 0-1.3-.9-1.3-3 0-2.3.5-3 1.4-3m1.2-5.1v4c-.2-.4-.7-.7-1.7-.7-2.2 0-3.1 1.9-3.1 4.7 0 3.1.8 4.9 2.7 4.9 1.2 0 1.8-.5 2.1-1.1 0 .3 0 .8.1 1h2.1V16.5h-2.2zm-8.5 9c0 1.4-.2 2.2-1.3 2.2-.8 0-1.1-.6-1.1-1.2 0-.8.4-1.3 1.7-1.3h.7v.3zm2.1-3c0-1.8-1-2.7-3-2.7-2.5 0-3.1 1.5-3.2 2.8h2c.1-.6.2-1.2 1-1.2.9 0 1 .6 1 1.2v1h-.8c-2.4 0-3.7 1.1-3.7 3 0 1.3.7 2.7 2.5 2.7 1.1 0 1.7-.4 2.1-1 0 .3.1.7.1.9h1.9c0-.4-.1-1.6-.1-2v-4.7zm-11.9-6H163v12.7h2.1v-2.8c.2-.3.7-1 .9-1.4l1.4 4.2h2.4l-2.4-5.9c.8-1.2 1.5-2.2 2.2-3.4h-2.4c-.8 1.3-1.6 2.8-2.3 4v-7.4zm-8.7 7.8c.4-2.2.8-4.1 1-5.2h.1c.2 1.2.6 2.9 1 5.2h-2.1zm2.4 1.9l.6 3h2.3L159 17.1h-2.8l-2.8 12.1h2.2l.6-3h2.7zm-14.5-2.6c0-.7.1-2 1.3-2 1.1 0 1.2 1.1 1.2 2h-2.5zm4.6 1.5v-.9c0-2.4-.7-4.4-3.3-4.4-2.4 0-3.5 1.8-3.5 4.7 0 2.3.4 4.9 3.4 4.9 3.1 0 3.3-2.7 3.3-3h-2c0 .3-.2 1.2-1.2 1.2-1.2 0-1.3-1.3-1.3-2.5h4.6zm-12-8.6h-2.1v12.7h2.1v-2.8c.2-.3.7-1 .9-1.4l1.4 4.2h2.4l-2.4-5.9c.8-1.2 1.5-2.2 2.2-3.4h-2.4c-.8 1.3-1.6 2.8-2.3 4v-7.4zm-10 9.9c0 1.6 1 3 3.2 3 2.1 0 3.2-1 3.2-2.9 0-1.5-.7-2.2-2.7-3-1.1-.4-1.4-.7-1.4-1.3 0-.5.3-.9.9-.9 1 0 1 .9 1 1.3h2c0-1.2-.6-2.9-3-2.9-2.2 0-3 1.4-3 2.7 0 1.3.5 2.1 2.7 2.9 1.1.4 1.4.8 1.4 1.4 0 .6-.3 1-1 1-.9 0-1.2-.7-1.2-1.3H127zm-5.4 2.8h2.1v-4.9c0-1.8.9-2.2 2.4-2.2v-2.4c-1.3 0-2.1.6-2.4 1.7 0-1 0-1.4-.1-1.5h-2v9.3zm-5.1-7.6c1 0 1.3.9 1.3 3 0 2-.3 3-1.3 3s-1.4-1.1-1.4-3.1c.1-1.9.5-2.9 1.4-2.9zm.1-1.8c-2.2 0-3.6 1.5-3.6 4.8 0 3.4 1.2 4.8 3.5 4.8s3.5-1.5 3.5-4.9c0-3.1-1.2-4.7-3.4-4.7m-10.8 9.4v-3.5c0-2.2 0-4-.1-5.5.2.6.6 1.8 3.2 9h2.4V17.1h-1.9v3.3c0 2 0 3.8.1 5.2-.1-.6-.6-1.9-3.1-8.6h-2.5v12.1h1.9zm-11.7-7.5h1.2v5.4c0 1.7.6 2.2 2.1 2.2.3 0 .9 0 1.3-.2v-1.6h-.5c-.7 0-.8-.3-.8-.8v-5.1h1.4V20h-1.4v-2.3h-2.1V20h-1.2v1.7zm-5.4 1.9c0-.7.1-2 1.3-2 1.1 0 1.2 1.1 1.2 2h-2.5zm4.6 1.5v-.9c0-2.4-.7-4.4-3.3-4.4-2.4 0-3.5 1.8-3.5 4.7 0 2.3.4 4.9 3.4 4.9 3.1 0 3.3-2.7 3.3-3h-2c0 .3-.2 1.2-1.2 1.2-1.2 0-1.3-1.3-1.3-2.5h4.6zm-13.6-6.2h.8c1.7 0 2.3 1.2 2.3 4 0 3.3-.6 4.5-2.3 4.5h-.8v-8.5zm-2.2 10.3h3c3.3 0 4.5-2.2 4.5-6.3 0-3.8-1.2-5.8-4.3-5.8h-3.2v12.1z"/></g></svg>