<svg version="1.1" id="Layer_1" xmlns="http://www.w3.org/2000/svg" xmlns:xlink="http://www.w3.org/1999/xlink" x="0" y="0" viewBox="0 0 240.5 68" xml:space="preserve"><style>.st0{fill:none;stroke:#020404;stroke-width:.44}.st0,.st2{clip-path:url(#SVGID_2_)}.st3{clip-path:url(#SVGID_4_)}</style><defs><path id="SVGID_1_" d="M2.8 2.8h62.4v62.4H2.8z"/></defs><clipPath id="SVGID_2_"><use xlink:href="#SVGID_1_" overflow="visible"/></clipPath><path class="st0" d="M34 65c17.1 0 31-13.9 31-31S51.1 3 34 3 3 16.9 3 34c.1 17.1 13.9 31 31 31zm0-1.6c16.2 0 29.4-13.2 29.4-29.4S50.3 4.6 34 4.6 4.6 17.8 4.6 34 17.8 63.4 34 63.4zm0-12.5c9.3 0 16.9-7.6 16.9-16.9 0-9.3-7.6-16.9-16.9-16.9-9.3 0-16.9 7.6-16.9 16.9 0 9.3 7.6 16.9 16.9 16.9zm0 1c9.9 0 17.9-8 17.9-17.9 0-9.9-8-17.9-17.9-17.9-9.9 0-17.9 8-17.9 17.9.1 9.9 8 17.9 17.9 17.9z"/><circle cx="34.1" cy="34" r="20.2" clip-path="url(#SVGID_2_)" fill="none" stroke="#020404" stroke-width="1.98"/><path class="st0" d="M33.7 50.9c-.1-13.1-3.7-19.5-14.3-25.7m13.4 25.7c0-12.6-3.5-18.9-13.8-24.8m15.2 24.8c.1-13.1 3.7-19.5 14.3-25.7M35.1 50.9C35.2 38.2 38.7 32 48.9 26m-15.1-8.9c-.1 13.1-3.7 19.5-14.3 25.7m13.4-25.7c0 12.6-3.6 18.9-13.8 24.8m15.2-24.8c.1 13.1 3.7 19.5 14.3 25.7M35.2 17.1C35.3 29.7 38.8 36 49 41.9"/><path class="st2" d="M11 25.4c.3.1.7 0 .8-.3.1-.3 0-.6-.3-.8-.3-.1-.7 0-.8.3-.1.3 0 .7.3.8m4.1-3.3c1-1.4.5-3.1-1-4.1-1.6-1-3.1-.4-3.9.8L9 20.7l.1.2c.3 0 .7.2 1 .4l3.4 2.3c.1.1.3.2.4.3l1.2-1.8zm-.4-.4l-.5.7c-.4-.2-.9-.5-1.4-.9-.9-.6-2.2-1.5-2.5-1.7l.2-.3c.6-.9 2-1 3.3-.2 1.1.9 1.2 1.9.9 2.4m4.5-4.2c.5-.4.7-.8.3-1.1l-.2-.2c0 .2-.1.4-.2.4l-1.1 1s-.7-.7-1.3-1.4c.2-.2.4-.4.7-.6.3-.3.5-.6.2-.9l-.2-.2c0 .2-.2.4-.3.5l-.8.7c-.4-.4-1-1.2-1.3-1.5l.6-.5c.3-.2.7-.4.9-.2l.1-.1c-.1-.3-.5-.6-.8-.7l-1.2 1.1-1.1 1 .1.2c.3.1.3.1.8.6l2.7 3s.2.2.4.5l1.7-1.6zm2.5-1.9c-.1-.3-.3-.6-2.5-4-.1-.2-.2-.4-.3-.4l-.7.4c-.4.2-.5.6-.4.8l-.2.1c-.3-.3-.5-.6-.4-1l1.2-.6 1.5-.9 1.1-.9c.4.1.6.5.7.9h-.1c-.2-.2-.5-.2-.9 0l-.7.4c.4.7.9 1.6 1.5 2.5.5.8 1.1 1.8 1.3 2l-1.1.7zm9.7-5.7c0 .2.2.7.2.7s-.3-.4-.5-.6c-.4-.3-3.5-2.6-4-3.1-.3 0-.7.2-.8.3v.2c.2.2.3.4.4.8 0 0 .1.6.3 1.4.2.8.4 2 .6 3.1v.1l.8-.1c-.2-.5-.4-1.5-.6-2.5-.1-.4-.1-.8-.2-1.2 0-.1-.1-.3-.1-.4l.5.5 3.9 2.9.8-.1c-.1-.4-.2-1-.4-1.6-.3-1.4-.5-3-.7-4.1-.1 0-.3-.1-.4 0-.2 0-.5.2-.6.2v.2c.2.1.4.4.5.9.4 2.6.3 2.4.3 2.4m5.1 1.7c.7.1 1.4-.8 1.5-2.1.2-1.4-.4-2.6-1.2-2.7-.8-.1-1.4.8-1.6 2-.1 1.4.5 2.7 1.3 2.8m.7-5.4c1.4.2 2.4 1.3 2.2 3.2-.2 1.8-1.5 3-3.4 2.8-1.2-.1-2.3-1.3-2.1-3.2.3-1.8 1.6-3 3.3-2.8m4.2 7c.1-.4.4-1.3.7-2.1.1 0 .1.1.2.1 0 .1.1.2.1.2.3.7.7 1.7.7 2.4l1.5.5-.4-1c-.2-.6-.4-1.1-.6-1.7 0-.1-.1-.2-.1-.3.8 0 1.5-.4 1.7-1.1.5-1.3-.4-2.1-1.3-2.4l-1.8-.6-.1.1c.1.3 0 .6-.1 1l-1.5 4.1-.1.3 1.1.5zm1.2-3.6c.2-.6.4-1.1.5-1.4l.2.1c.8.3.9 1.1.7 1.8-.2.6-.7 1-1.5.7-.1 0-.2-.1-.3-.1l.4-1.1zm3.3 5.9c1 .7 2.2.5 2.7-.3.9-1.5-1.2-3.2-.6-4.1.3-.4.7-.3 1-.1.3.2.7.8.6 1.4l.1.1c.3-.1.5-.3.6-.5.1-.1.1-.2.1-.3-.1-.3-.4-.8-1.1-1.2-1-.6-2-.3-2.4.4-.9 1.4 1 3.1.5 3.9-.3.5-.9.3-1.3.1-.4-.3-.9-.9-.8-1.3-.2.1-.3.2-.3.3-.1.4.2 1.1.9 1.6m2.7 1.7l.9.9c.1-.2.9-1.1 1.6-1.7l.4-.4c-.1.9-.5 2.7-.6 3.4l1.1 1.1c0-.2.4-3.2.6-4.2 1.2 0 1.9.1 2.4.1.4 0 .7 0 1-.2 0-.2-.2-.3-.4-.5s-.5-.4-.6-.5l-.2.1c0 .1 0 .1-.1.2s-.2.1-.4.2c-.7 0-1.9.1-2.7.1.8-.7 1.5-1.4 2-1.8-.1-.2-.3-.4-.4-.6-.3-.3-.6-.5-.6-.5l-.1.1c0 .2 0 .4-.5.8l-3.4 3.4m5 5.9c.3.5.6.8 1 .5.1 0 .1-.1.2-.2-.2 0-.3-.2-.4-.3l-.8-1.3s.8-.6 1.6-1.1c.1.2.3.5.5.8.2.4.5.6.9.4.1 0 .2-.1.2-.2-.2 0-.3-.2-.4-.4l-.6-.9c.5-.3 1.3-.8 1.7-1l.4.7c.2.3.2.8 0 .9l.1.2c.4-.1.7-.3.8-.7l-.8-1.3-.8-1.2H57c-.1.2-.1.3-.7.7l-3.4 2.2s-.3.2-.5.3l1.2 1.9zm2.8.8c-.3.1-.4.5-.3.8.1.3.5.4.8.3.3-.1.5-.5.3-.8-.2-.3-.5-.5-.8-.3M5.7 28.7l.2-.5c.2-.5.6-.6.8-.6 1.3-.2 2.7-.5 4-.6 1.1-.1 1.3-.4 1.4-.4l.2.1v.8c0 .3-.1.5-.3.7-1.3 0-4.4.5-5 .7 1.1.5 2.3 1.4 3.4 2 .2.1.3.2.5.2s.4 0 .5-.1l.1.1c0 .2.1.4 0 .6 0 .2-.1.3-.2.5-.3-.1-.9-.3-1.1-.5l-3.7-2.4-.8-.6zm-.2 4V34c.2-.1 1.4-.1 2.4-.1 1.3 0 2.7.1 3.5.1.1-.2.1-.5.1-.7 0-.4-.1-.8-.1-.8l-.2-.1c-.2.1-.3.2-.9.2-4.2.1-4.5.1-4.8.1m.4 5.8c.3 1.7 1.8 2.5 3.6 2.2 1.8-.3 2.5-1.9 2.2-3.3l-.4-2.1h-.2c-.2.3-.6.3-1 .4l-4.1.8c-.1 0-.3 0-.5.1l.4 1.9zm.5 0l-.2-.9c.5-.1 1-.2 1.6-.3 1-.2 2.6-.4 3-.5l.1.3c.2 1.1-.8 2.1-2.2 2.4-1.3.3-2.1-.3-2.3-1m1.5 6.9c.3.6.5.9.9.7.1 0 .2-.1.3-.1-.2 0-.3-.2-.3-.3l-.6-1.4 1.8-.8c.1.3.2.5.3.8.2.4.4.7.8.5.1 0 .2-.1.3-.1-.2-.1-.3-.3-.4-.5l-.4-1c.5-.2 1.4-.6 1.9-.7l.3.7c.1.3.1.8-.1.9l.1.2c.4 0 .7-.2.9-.5l-.7-1.5-.6-1.4h-.2c-.1.2-.2.3-.8.6l-3.7 1.6-.6.2.8 2.1zm5.8 5.1l-.5.5s.3-.4.3-.7c.1-.5.9-4.3 1-5-.1-.3-.5-.5-.6-.6l-.2.1c-.1.3-.2.5-.6.7 0 0-.5.4-1.2.9s-1.6 1.2-2.5 1.9l-.1.1.5.6c.4-.4 1.2-1 2-1.6.4-.3.7-.5 1-.7.1-.1.3-.2.3-.3-.1.1-.3.6-.3.6l-1 4.8.5.6c.3-.3.8-.6 1.3-1 1.1-.8 2.5-1.7 3.4-2.4 0-.1-.1-.3-.1-.4-.1-.1-.3-.4-.4-.4h-.2c-.1.2-.2.5-.6.8-2.2 1.7-2 1.5-2 1.5m1.2 4.6c.9.8 2.1.8 2.7 0 1.1-1.3-.8-3.3 0-4.2.3-.4.8-.2 1 0 .3.3.6.9.4 1.5l.1.2c.3 0 .5-.2.7-.4.1-.1.1-.2.2-.3-.1-.3-.3-.8-.9-1.4-.9-.8-1.9-.5-2.4.1-1.1 1.2.6 3.2 0 3.9-.4.5-.9.2-1.3-.1-.4-.3-.8-1-.6-1.4-.2 0-.3.1-.4.2-.3.6-.1 1.3.5 1.9m3.3 2.5l1.2.6c0-.2.6-1.3 1-2.1l.2-.4c.2.9.3 2.7.3 3.5l1.4.8c-.1-.2-.5-3.2-.6-4.2 1.1-.3 1.8-.5 2.3-.6.4-.1.7-.2.9-.5-.1-.1-.3-.3-.5-.4-.1-.1-.4-.3-.6-.3l-.1.1v.2l-.3.3c-.7.2-1.8.6-2.5.9.5-.9 1.1-1.8 1.4-2.3-.2-.2-.4-.3-.5-.4-.4-.2-.7-.3-.7-.3l-.2.1c0 .2.1.3-.2.9-2.1 3.6-2.3 3.9-2.5 4.1m9.8-1.4v-.8c-.7-.1-1.3 0-1.6.5l-3.3 4.4.8.2s0-.1.1-.1l1.1-1.5 1.9.5.1 1.6v.4l1.4.4c-.1-.2-.1-.5-.1-.8l-.4-4.8zm-1 2.6l-1.5-.4 1.4-2 .1 2.4zm4.5 3.4c-.1-.4 0-1.3 0-2.2h.3c1.2.1 2.3-.6 2.3-1.7.1-1.4-1-1.9-1.9-1.9l-1.9-.1-.1.2c.2.2.2.6.2 1 0-.1-.2 2.7-.2 4.3v.3l1.3.1zm.1-3.9c0-.6.1-1.2.1-1.5h.2c.9 0 1.2.8 1.2 1.5 0 .6-.4 1.1-1.2 1.1h-.3v-1.1zm5.5 3.9c1.2-.2 2-1.1 1.8-2-.2-1.7-3-1.7-3.1-2.7-.1-.5.4-.7.7-.7.4-.1 1.1.1 1.3.7h.2c.2-.2.2-.5.2-.8 0-.1 0-.2-.1-.3-.3-.1-.8-.4-1.6-.2-1.2.2-1.7 1.1-1.6 1.9.2 1.6 2.8 1.7 2.9 2.6.1.6-.5.8-.9.9-.5.1-1.3-.1-1.4-.5-.1.1-.1.3-.1.4.2.4.9.8 1.7.7m2.9-2.4s.1 0 .2-.1c.1 0 .6-.2.8-.2.6-.2 1.2-.4 1-1.1-.1.1-.5.3-1.1.4-.4.1-1.1.3-1.1.3l.2.7zm4.7-5.4c-.1-.1-.4-.4-.5-.6-.6.4-1 .9-.9 1.5l.5 5.4.8-.4v-.1l-.2-1.9 1.8-.9 1.1 1.1.3.3 1.3-.6c-.2-.1-.4-.3-.6-.5l-3.6-3.3zm.9 2.6l-1.4.7-.3-2.4 1.7 1.7zm4.6.3l1-.8c-.2-.1-1-1-1.6-1.8l-.3-.4c.9.2 2.6.7 3.4 1l1.2-1c-.2 0-3.1-.7-4.1-1 .2-1.2.3-1.8.3-2.4 0-.4 0-.7-.1-1-.2 0-.3.1-.5.3-.2.2-.5.4-.5.6l.1.2c.1 0 .1.1.2.1.1.1.1.2.1.4 0 .7-.1 1.9-.1 2.7-.6-.8-1.3-1.7-1.6-2.2-.3.1-.4.2-.6.3-.3.3-.5.6-.5.6l.1.2c.2 0 .4.1.8.6 2.3 3.1 2.5 3.4 2.7 3.6m2.4-9.6c-.2-.1-.5-.2-.7-.3-.4.6-.5 1.2-.1 1.7l2.8 4.7.5-.7-.1-.1-1-1.6 1.2-1.6 1.5.5.4.2.9-1.1c-.2 0-.5-.1-.8-.2l-4.6-1.5zm2 1.9l-1 1.3-1.3-2 2.3.7zm5.1-3.5c.7-1.6 0-3.1-1.6-3.9-1.7-.8-3.1.1-3.7 1.4l-.8 2 .1.1c.3-.1.7.1 1 .2l3.8 1.7c.1 0 .3.1.4.2l.8-1.7zm-.5-.3l-.4.8c-.4-.2-.9-.4-1.5-.7-1-.4-2.4-1.1-2.8-1.3l.1-.3c.4-1 1.8-1.3 3.2-.7 1.3.6 1.7 1.5 1.4 2.2m2.7-6.5c.1-.6.1-1-.4-1.1h-.3c.1.1.1.3.1.5l-.3 1.5s-1-.2-1.9-.4c.1-.3.1-.6.2-.9.1-.4.1-.8-.4-.9h-.3c.1.2.1.4 0 .6l-.2 1.1c-.5-.1-1.5-.3-2-.5l.2-.8c.1-.3.4-.7.6-.7v-.2c-.3-.2-.7-.2-1.1-.1L56 39l-.3 1.4.2.1c.2-.1.3-.1 1 0l3.9.8s.3.1.6.1l.5-2.1zm.8-6.6c-.2-.1-.6-.1-.8-.2l-3.3-1.2-.6-.1h.5c.6-.1 1.5-.1 2.4-.1h1.5l-.1-1.3c-.2.1-.4.1-.6.1-1.4-.1-3.7.1-5.3.1.1.5.1 1.4.5 1.5.1 0 .4.1 1.9.6.6.2 1.5.4 2.6.8-1.1.6-3.8 1.8-4.6 2-.1.2-.1.5-.1.7 0 .3.1.6.2.8l.2.1.3-.3h5.4v-.8c-.1 0-.4.1-.5.1-.6 0-2.1.1-2.9.1-.2 0-.7 0-.9.1 1-.4 2.7-1.2 3.7-1.6.2-.1.6-.3.7-.8l-.2-.6zm-1-5.5l-.3-1.3c-.2.1-1.4.5-2.3.7-1.2.3-2.6.7-3.4.8-.1.3 0 .5.1.7.1.4.3.7.3.7h.2c.1-.2.2-.3.8-.5 4-1 4.3-1.1 4.6-1.1"/><g><defs><path id="SVGID_3_" d="M0 0h240.5v68H0z"/></defs><clipPath id="SVGID_4_"><use xlink:href="#SVGID_3_" overflow="visible"/></clipPath><path class="st3" d="M235.1 50.1h2.6c-.2-.4-.2-2.8-.2-4.6 0-2.5.1-5.3.2-6.7-.5-.2-.9-.2-1.3-.2-.8 0-1.5.2-1.5.2l-.1.4c.2.3.5.5.5 1.8-.2 7.8-.2 8.5-.2 9.1m-8.2.4c.2-.5.3-1.1.4-1.6l2.6-6.3.3-1 .1 1c.1 1.2 0 2.9 0 4.7v2.8h2.6c-.1-.3-.1-.8-.1-1.1-.1-2.9-.2-7.2 0-10.4-1.1.1-2.6 0-2.9.7-.1.2-.3.7-1.4 3.6-.4 1.1-1 2.9-1.7 4.9-1-2.2-3.1-7.5-3.5-9.1-.3-.2-.9-.3-1.4-.3-.6 0-1.1.1-1.5.2l-.2.4c.1 0 .3.1.5.6-.1 1.4-.2 6.2-.4 10v.4h1.5c-.1-.2-.1-.7-.1-1 0-1.1.1-4 .1-5.7v-1.7c.7 2 2.1 5.3 2.8 7.2.1.4.5 1.1 1.5 1.3l.8.4zm-10.2-.4c1.3 0 1.9-.2 1.9-1.1 0-.2 0-.3-.1-.6-.2.3-.6.4-.8.4h-3s-.1-2-.1-3.8h1.7c.8 0 1.5-.2 1.5-1.1 0-.2 0-.4-.1-.6-.3.3-.7.3-1.1.3h-2.1c0-1.1.1-3 .1-3.9l1.5.1c.7 0 1.5.4 1.6.9h.4c.2-.7.2-1.5-.2-2.1l-3.1.1H212l-.1.4c.3.4.4.5.4 1.9v9h4.4zM205.6 49h-1.7c0-.9-.1-2-.1-3.2 0-2 .1-5.1.1-5.9h.6c2.1-.1 3.8 2.2 3.8 5.1 0 2.6-1.4 4-2.7 4m-.2 1.1c3.3 0 5.5-2.6 5.5-6 0-3.6-2.7-5.4-5.5-5.4l-4.1.1-.1.4c.4.5.4 1.3.4 2v8.9h3.8zm-9-4.8h-3.1l1.6-4.4 1.5 4.4zm.6-5.4c-.1-.3-.3-1-.4-1.5-1.4.1-2.5.7-2.8 1.8L190 50h1.6s0-.1.1-.3l1.2-3.4h3.9l1 2.9c.2.5.2.8.2.8h2.7c-.2-.4-.4-.8-.6-1.5l-3.1-8.6zm-15.1 10.2h2.6c-.2-.4-.2-2.8-.2-4.6v-1c1.1 1.4 3.1 4.3 3.8 5.6h3.1c-.3-.2-3.8-4.9-5-6.5 1.7-1.5 2.6-2.4 3.4-3.1.6-.6.9-1 1.2-1.6-.3-.2-.7-.2-1.2-.2-.6 0-1.2.1-1.5.2l-.1.3c.1.1.1.2.1.4s-.1.5-.3.7c-.9 1-2.4 2.7-3.5 3.8 0-2 .1-4 .2-5.2-.5-.2-.9-.2-1.3-.2-.8 0-1.5.2-1.5.2l-.1.4c.2.3.5.5.5 1.8-.2 7.7-.2 8.4-.2 9m-5.1-4.8h-3.1l1.6-4.4 1.5 4.4zm.6-5.4c-.1-.3-.3-1-.4-1.5-1.4.1-2.5.7-2.8 1.8l-3.8 9.8h1.6s0-.1.1-.3l1.2-3.4h3.9l1 2.9c.2.5.2.8.2.8h2.7c-.2-.4-.4-.8-.6-1.5l-3.1-8.6zm-11 6.7h2c1.3 0 2.4 0 2.5-1.5-.2.2-1.2.2-2.4.2-.8 0-2.2 0-2.2-.1v1.4zm-4 3.7c2.4 0 4-1.5 4-3.3 0-3.4-5.3-3.9-5.3-6.1 0-1 .9-1.2 1.5-1.2.8 0 2 .5 2.4 1.7l.4.1c.4-.4.5-1 .5-1.4 0-.2 0-.4-.1-.6-.5-.3-1.5-.9-3-.9-2.3 0-3.5 1.6-3.5 3.2 0 3.2 4.9 3.9 4.9 5.8 0 1.2-1.1 1.4-2 1.4-.9 0-2.4-.5-2.6-1.3-.2.3-.3.5-.3.8.1.9 1.4 1.8 3.1 1.8m-8.6-7.6c0-1.2 0-2.4.1-2.9h.3c1.6-.1 2.4 1.3 2.4 2.8 0 1.2-.7 2.2-2.2 2.2-.2 0-.4 0-.6-.1v-2zm.1 7.4c-.2-.8-.2-2.6-.2-4.3h.6c2.3 0 4.3-1.5 4.3-3.6 0-2.7-2.1-3.6-3.9-3.5l-3.6.1-.1.4c.4.4.4 1.1.4 1.9v9.1h2.5zm-7.5-4.8h-3.1l1.6-4.4 1.5 4.4zm.6-5.4c-.1-.3-.3-1-.4-1.5-1.4.1-2.5.7-2.8 1.8L140 50h1.6s0-.1.1-.3l1.2-3.4h3.9l1 2.9c.2.5.2.8.2.8h2.7c-.2-.4-.4-.8-.6-1.5l-3.1-8.6zm-15.2 10.2h2.6c-.2-.4-.2-2.8-.2-4.6v-1c1.1 1.4 3.1 4.3 3.8 5.6h3.1c-.3-.2-3.8-4.9-5-6.5 1.7-1.5 2.6-2.4 3.4-3.1.6-.6.9-1 1.2-1.6-.3-.2-.7-.2-1.2-.2-.6 0-1.2.1-1.5.2l-.1.3c.1.1.1.2.1.4s-.1.5-.3.7c-.9 1-2.4 2.7-3.5 3.8 0-2 .1-4 .2-5.2-.5-.2-.9-.2-1.3-.2-.8 0-1.5.2-1.5.2l-.1.4c.2.3.5.5.5 1.8-.1 7.7-.1 8.4-.2 9m-5.4.2c2.4 0 4-1.5 4-3.3 0-3.4-5.3-3.9-5.3-6.1 0-1 .9-1.2 1.5-1.2.8 0 2 .5 2.4 1.7l.4.1c.4-.4.5-1 .5-1.4 0-.2 0-.4-.1-.6-.5-.3-1.5-.9-3-.9-2.3 0-3.5 1.6-3.5 3.2 0 3.2 4.9 3.9 4.9 5.8 0 1.2-1.1 1.4-2 1.4-.9 0-2.4-.5-2.6-1.3-.2.3-.3.5-.3.8.1.9 1.4 1.8 3.1 1.8m-6-4.5c0 .4.1 1.3.1 1.3s-.3-.9-.7-1.3c-.6-.7-5.7-6.3-6.5-7.3-.6-.1-1.4.1-1.6.2l-.1.4c.4.5.5.9.5 1.8v9.2h1.5c-.1-1.1-.2-2.9-.2-4.9v-2.4c0-.3 0-.6-.1-.8.1.3.7 1.1.7 1.1l6.3 7h1.5c-.1-.8-.1-2-.1-3.2 0-2.7.1-5.8.2-8.1-.2-.1-.5-.2-.8-.2-.3 0-1 .1-1.1.2l-.2.4c.3.3.6.8.6 1.8v4.8m-12.1 4.3c1.3 0 1.9-.2 1.9-1.1 0-.2 0-.3-.1-.6-.2.3-.6.4-.9.4h-3s-.1-2-.1-3.8h1.7c.8 0 1.5-.2 1.5-1.1 0-.2 0-.4-.1-.6-.3.3-.7.3-1.1.3H106c0-1.1.1-3 .1-3.9l1.5.1c.7 0 1.5.4 1.6.9h.4c.2-.7.2-1.5-.2-2.1l-3.1.1h-2.8l-.1.4c.3.4.4.5.4 1.9v9h4.5zM97.2 49h-1.7c0-.9-.1-2-.1-3.2 0-2 .1-5.1.1-5.9h.6c2.1-.1 3.8 2.2 3.8 5.1 0 2.6-1.4 4-2.7 4m-.2 1.1c3.3 0 5.5-2.6 5.5-6 0-3.6-2.7-5.4-5.5-5.4l-4.1.1-.1.4c.4.5.4 1.3.4 2v8.9H97zm-8.9 0h2.6c-.2-.4-.2-2.8-.2-4.6 0-2.5.1-5.3.2-6.7-.5-.2-.9-.2-1.3-.2-.8 0-1.5.2-1.5.2l-.1.4c.2.3.5.5.5 1.8-.1 7.8-.1 8.5-.2 9.1m-5.1.4l-1-.2c-1-.2-1.4-1-1.5-1.3-.8-2.3-1.8-5-2.6-7.4-.6-2-1.2-2.4-1.3-2.4l.2-.4c.4-.1 1-.2 1.5-.2s1.1.1 1.4.4c.5 2.4 2.6 8.2 3 9.3.5-2.2 1.8-4.8 2.6-7.1.1-.3.2-.7.2-1.1s-.1-.7-.4-1l.1-.3c.4-.2.7-.2 1.1-.2.4 0 .7.1 1 .2 0 .6-.3 1.7-.5 2.3l-3.3 7.8-.5 1.6zM169.3 29.1c1.3 0 1.9-.2 1.9-1.1 0-.2 0-.3-.1-.6-.2.3-.6.4-.9.4h-3s-.1-2-.1-3.8h1.7c.8 0 1.5-.2 1.5-1.1 0-.2 0-.4-.1-.6-.3.3-.7.3-1.1.3H167c0-1.1.1-3 .1-3.9l1.5.1c.7 0 1.5.4 1.6.9h.4c.2-.7.2-1.5-.2-2.1l-3.1.1h-2.8l-.1.4c.3.4.4.5.4 1.9v9h4.5zm-14.8 0h2.6c-.2-.4-.2-2.8-.2-4.6v-1c1.1 1.4 3.1 4.3 3.8 5.6h3.1c-.3-.2-3.8-4.9-5-6.5 1.7-1.5 2.6-2.4 3.4-3.1.6-.6.9-1 1.2-1.6-.3-.2-.7-.2-1.2-.2-.6 0-1.2.1-1.5.2l-.1.3c.1.1.1.2.1.4s-.1.5-.3.7c-.9 1-2.4 2.7-3.5 3.8 0-2 .1-4 .2-5.2-.5-.2-.9-.2-1.3-.2-.8 0-1.5.2-1.5.2l-.1.4c.2.3.5.5.5 1.8-.1 7.7-.2 8.4-.2 9m-5.9.2c2.4 0 4-1.5 4-3.3 0-3.4-5.3-3.9-5.3-6.1 0-1 .9-1.2 1.5-1.2.8 0 2 .5 2.4 1.7l.4.1c.4-.4.5-1 .5-1.4 0-.2 0-.4-.1-.6-.5-.3-1.5-.9-3-.9-2.3 0-3.5 1.6-3.5 3.2 0 3.2 4.9 3.9 4.9 5.8 0 1.2-1.1 1.4-2 1.4-.9 0-2.4-.5-2.6-1.3-.2.3-.3.5-.3.8.1.9 1.4 1.8 3.1 1.8m-9.9-7.6c0-1.2 0-2.4.1-2.9h.3c1.6-.1 2.4 1.3 2.4 2.8 0 1.2-.7 2.2-2.2 2.2-.2 0-.4 0-.6-.1v-2zm.1 7.4c-.2-.8-.2-2.6-.2-4.3h.4c.1.1.2.2.3.4 1 1.1 2.3 2.6 2.9 3.9h3l-1.4-1.6c-.9-1-1.5-1.8-2.1-2.6l-.4-.4c1.4-.6 2.4-1.8 2.4-3.2 0-2.7-2.1-3.5-3.9-3.5l-3.6.1-.1.4c.4.4.4 1.1.4 1.9v9.1h2.3zm-9.4-11.5c2.7 0 4.9 1.9 4.9 5.6-.1 3.4-2.3 6.1-5.9 6.1-2.3 0-4.7-1.9-4.7-5.7.1-3.6 2.5-6 5.7-6m-.1 10.5c1.4 0 2.5-1.9 2.5-4.3 0-2.8-1.4-5-2.9-5s-2.5 1.9-2.5 4.3c-.1 2.6 1.2 5 2.9 5m-8.9-3.3c0 .4.1 1.3.1 1.3s-.3-.9-.7-1.3c-.6-.7-5.7-6.3-6.5-7.3-.6-.1-1.4.1-1.6.2l-.1.4c.4.5.5.9.5 1.8v9.2h1.5c-.1-1.1-.2-2.9-.2-4.9v-2.4c0-.3 0-.6-.1-.8.1.3.7 1.1.7 1.1l6.3 7h1.5c-.1-.8-.1-2-.1-3.2 0-2.7.1-5.8.2-8.1-.2-.1-.5-.2-.8-.2-.3 0-1 .1-1.1.2l-.2.4c.3.3.6.8.6 1.8v4.8m-20.6 4.3V20c0-.5 0-.8-.1-1.1h-1.5c-.8 0-1.4.4-1.5.9h-.4c-.2-.7-.2-1.4.3-2.1l2.6.1h3.4l2.6-.1c.6.7.5 1.4.3 2.1h-.4c-.1-.5-.7-.9-1.5-.9h-1.5c-.1 1.5-.1 3.6-.1 5.6 0 1.8 0 4.2.2 4.6h-2.4zm-5.9 0c1.3 0 1.9-.2 1.9-1.1 0-.2 0-.3-.1-.6-.2.3-.6.4-.8.4h-3s-.1-2-.1-3.8h1.7c.8 0 1.5-.2 1.5-1.1 0-.2 0-.4-.1-.6-.3.3-.7.3-1.1.3h-2.1c0-1.1.1-3 .1-3.9l1.5.1c.7 0 1.5.4 1.6.9h.4c.2-.7.2-1.5-.2-2.1l-3.1.1h-2.8l-.1.4c.3.4.4.5.4 1.9v9h4.4zM82.2 28h-1.7c0-.9-.1-2-.1-3.2 0-2 .1-5.1.1-5.9h.6c2.1-.1 3.8 2.2 3.8 5.1.1 2.6-1.3 4-2.7 4m-.2 1.1c3.3 0 5.5-2.6 5.5-6 0-3.6-2.7-5.4-5.5-5.4l-4.1.1-.1.4c.4.5.4 1.3.4 2v8.9H82z"/></g></svg>