<?xml version="1.0" encoding="UTF-8" standalone="no"?>
<svg
   xmlns:dc="http://purl.org/dc/elements/1.1/"
   xmlns:cc="http://creativecommons.org/ns#"
   xmlns:rdf="http://www.w3.org/1999/02/22-rdf-syntax-ns#"
   xmlns:svg="http://www.w3.org/2000/svg"
   xmlns="http://www.w3.org/2000/svg"
   viewBox="0 0 185.19733 90.708664"
   height="90.708664"
   width="185.19733"
   xml:space="preserve"
   id="svg2"
   version="1.1"><metadata
     id="metadata8"><rdf:RDF><cc:Work
         rdf:about=""><dc:format>image/svg+xml</dc:format><dc:type
           rdf:resource="http://purl.org/dc/dcmitype/StillImage" /></cc:Work></rdf:RDF></metadata><defs
     id="defs6"><clipPath
       id="clipPath18"
       clipPathUnits="userSpaceOnUse"><path
         id="path16"
         d="M 15.236,2.835 H 50.102 V 65.197 H 15.236 Z" /></clipPath><clipPath
       id="clipPath58"
       clipPathUnits="userSpaceOnUse"><path
         id="path56"
         d="M 15.251,2.835 H 50.102 V 65.197 H 15.251 Z" /></clipPath><clipPath
       id="clipPath74"
       clipPathUnits="userSpaceOnUse"><path
         id="path72"
         d="m 62.929,29.764 h 71.859 V 57.827 H 62.929 Z" /></clipPath><clipPath
       id="clipPath114"
       clipPathUnits="userSpaceOnUse"><path
         id="path112"
         d="m 62.929,36.141 h 71.859 V 57.827 H 62.929 Z" /></clipPath><clipPath
       id="clipPath130"
       clipPathUnits="userSpaceOnUse"><path
         id="path128"
         d="m 72.284,10.63 h 51.477 V 38.693 H 72.284 Z" /></clipPath><clipPath
       id="clipPath170"
       clipPathUnits="userSpaceOnUse"><path
         id="path168"
         d="m 72.284,17.008 h 50.884 V 38.693 H 72.284 Z" /></clipPath></defs><g
     transform="matrix(1.3333333,0,0,-1.3333333,0,90.708667)"
     id="g10"><g
       id="g12"><g
         clip-path="url(#clipPath18)"
         id="g14"><g
           transform="translate(143.1296,19.9547)"
           id="g20"><path
             id="path22"
             style="fill:#000000;fill-opacity:1;fill-rule:nonzero;stroke:none"
             d="m 0,0 c -5.145,0 -8.56,-3.832 -8.56,-8.56 0,-4.727 3.498,-8.56 8.56,-8.56 5.062,0 8.56,3.833 8.56,8.56 C 8.56,-3.832 5.062,0 0,0 m 0,-2.459 c 3.699,0 6.101,-2.737 6.101,-6.101 0,-3.364 -2.402,-6.101 -6.101,-6.101 -3.699,0 -6.101,2.737 -6.101,6.101 0,3.364 2.319,6.101 6.101,6.101" /></g><g
           transform="translate(71.4553,17.2271)"
           id="g24"><path
             id="path26"
             style="fill:#000000;fill-opacity:1;fill-rule:nonzero;stroke:none"
             d="m 0,0 v 2.192 c 0,0.074 -0.06,0.133 -0.133,0.133 h -10.655 c -0.073,0 -0.133,-0.059 -0.133,-0.133 v -16.043 c 0,-0.074 0.06,-0.134 0.133,-0.134 h 2.193 c 0.073,0 0.133,0.06 0.133,0.134 v 5.342 c 0,0.049 0.04,0.089 0.089,0.089 h 6.428 c 0.074,0 0.133,0.059 0.133,0.133 v 2.192 c 0,0.074 -0.059,0.133 -0.133,0.133 h -6.428 c -0.049,0 -0.089,0.04 -0.089,0.089 v 5.651 c 0,0.049 0.04,0.089 0.089,0.089 h 8.24 C -0.06,-0.133 0,-0.074 0,0" /></g><g
           transform="translate(93.3151,3.2425)"
           id="g28"><path
             id="path30"
             style="fill:#000000;fill-opacity:1;fill-rule:nonzero;stroke:none"
             d="m 0,0 h -2.192 c -0.074,0 -0.133,0.059 -0.133,0.133 v 16.038 c 0,0.074 0.059,0.133 0.133,0.133 H 0 c 0.074,0 0.133,-0.059 0.133,-0.133 V 0.133 C 0.133,0.059 0.074,0 0,0" /></g><g
           transform="translate(108.0557,19.5525)"
           id="g32"><path
             id="path34"
             style="fill:#000000;fill-opacity:1;fill-rule:nonzero;stroke:none"
             d="m 0,0 h -10.97 c -0.074,0 -0.133,-0.06 -0.133,-0.133 v -2.192 c 0,-0.074 0.059,-0.134 0.133,-0.134 h 4.156 c 0.049,0 0.089,-0.039 0.089,-0.089 v -13.629 c 0,-0.074 0.06,-0.133 0.133,-0.133 H -4.4 c 0.074,0 0.134,0.059 0.134,0.133 v 13.629 c 0,0.05 0.039,0.089 0.089,0.089 H 0 c 0.074,0 0.133,0.06 0.133,0.134 v 2.192 C 0.133,-0.06 0.074,0 0,0" /></g><g
           transform="translate(121.7952,19.5525)"
           id="g36"><path
             id="path38"
             style="fill:#000000;fill-opacity:1;fill-rule:nonzero;stroke:none"
             d="m 0,0 h -10.97 c -0.074,0 -0.133,-0.06 -0.133,-0.133 v -2.192 c 0,-0.074 0.059,-0.134 0.133,-0.134 h 4.156 c 0.049,0 0.089,-0.039 0.089,-0.089 v -13.629 c 0,-0.074 0.06,-0.133 0.133,-0.133 H -4.4 c 0.074,0 0.134,0.059 0.134,0.133 v 13.629 c 0,0.05 0.039,0.089 0.089,0.089 H 0 c 0.074,0 0.133,0.06 0.133,0.134 v 2.192 C 0.133,-0.06 0.074,0 0,0" /></g><g
           transform="translate(178.4466,5.7008)"
           id="g40"><path
             id="path42"
             style="fill:#000000;fill-opacity:1;fill-rule:nonzero;stroke:none"
             d="m 0,0 h -3.718 c -0.048,0 -0.089,0.04 -0.089,0.089 v 11.21 c 0,0.049 0.041,0.089 0.089,0.089 H 0 c 3.474,0 5.694,-2.554 5.694,-5.694 C 5.694,2.555 3.474,0 0,0 m 0,13.846 v 0.006 h -6.132 c -0.074,0 -0.133,-0.06 -0.133,-0.134 V -2.325 c 0,-0.074 0.059,-0.133 0.133,-0.133 H 0 c 4.837,0 8.152,3.65 8.152,8.152 0,4.502 -3.315,8.152 -8.152,8.152" /></g><g
           transform="translate(77.4942,17.0936)"
           id="g44"><path
             id="path46"
             style="fill:#000000;fill-opacity:1;fill-rule:nonzero;stroke:none"
             d="M 0,0 H 3.858 C 5.457,0 6.783,-1.276 6.799,-2.875 6.814,-4.489 5.506,-5.806 3.895,-5.806 H 0 c -0.049,0 -0.089,0.039 -0.089,0.088 v 5.629 C -0.089,-0.04 -0.049,0 0,0 m 6.792,-13.851 h 2.59 c 0.105,0 0.169,0.116 0.113,0.204 l -3.624,5.758 c 1.995,0.791 3.402,2.744 3.386,5.024 -0.02,2.954 -2.456,5.324 -5.411,5.324 h -6.26 c -0.074,0 -0.134,-0.06 -0.134,-0.133 v -16.044 c 0,-0.074 0.06,-0.133 0.134,-0.133 h 2.192 c 0.073,0 0.133,0.059 0.133,0.133 v 5.364 c 0,0.049 0.04,0.088 0.089,0.088 h 3.129 c 0.046,0 0.089,-0.023 0.113,-0.062 l 3.437,-5.461 c 0.025,-0.038 0.068,-0.062 0.113,-0.062" /></g><g
           transform="translate(158.3881,17.0936)"
           id="g48"><path
             id="path50"
             style="fill:#000000;fill-opacity:1;fill-rule:nonzero;stroke:none"
             d="M 0,0 H 3.858 C 5.457,0 6.783,-1.276 6.799,-2.875 6.814,-4.489 5.506,-5.806 3.896,-5.806 H 0 c -0.049,0 -0.089,0.039 -0.089,0.088 v 5.629 C -0.089,-0.04 -0.049,0 0,0 m 6.792,-13.851 h 2.591 c 0.105,0 0.168,0.116 0.112,0.204 l -3.624,5.758 c 1.995,0.791 3.402,2.744 3.386,5.024 -0.02,2.954 -2.456,5.324 -5.411,5.324 h -6.26 c -0.074,0 -0.133,-0.06 -0.133,-0.133 v -16.044 c 0,-0.074 0.059,-0.133 0.133,-0.133 h 2.192 c 0.074,0 0.133,0.059 0.133,0.133 v 5.364 c 0,0.049 0.04,0.088 0.089,0.088 h 3.129 c 0.046,0 0.089,-0.023 0.113,-0.062 l 3.438,-5.461 c 0.024,-0.038 0.067,-0.062 0.112,-0.062" /></g></g></g><g
       id="g52"><g
         clip-path="url(#clipPath58)"
         id="g54"><g
           transform="translate(32.6578,3.2422)"
           id="g60"><path
             id="path62"
             style="fill:#000000;fill-opacity:1;fill-rule:evenodd;stroke:none"
             d="m 0,0 c 0,0 -0.011,55.532 0.008,55.524 0.57,-0.241 9.71,-4.301 11.356,-16.44 0,0 1.266,-3.886 -0.483,-24.975 L 7.422,13.034 C 6.698,12.787 5.319,12.305 5.017,9.627 L 3.985,0 Z" /></g><g
           transform="translate(30.7247,3.2422)"
           id="g64"><path
             id="path66"
             style="fill:#000000;fill-opacity:1;fill-rule:evenodd;stroke:none"
             d="m 0,0 v 61.955 c 0,0 -16.79,-15.41 -15.408,-50.685 L -8.387,9.326 C -7.33,9.037 -6.053,8.518 -5.836,6.218 L -5.194,0 Z" /></g></g></g><g
       id="g68"><g
         clip-path="url(#clipPath74)"
         id="g70"><g
           transform="translate(150.7024,51.477)"
           id="g76"><path
             id="path78"
             style="fill:#000000;fill-opacity:1;fill-rule:nonzero;stroke:none"
             d="m 0,0 c -4.609,0 -7.668,-3.433 -7.668,-7.668 0,-4.234 3.134,-7.667 7.668,-7.667 4.534,0 7.668,3.433 7.668,7.667 C 7.668,-3.433 4.534,0 0,0 m 0,-2.202 c 3.313,0 5.465,-2.452 5.465,-5.466 0,-3.013 -2.152,-5.465 -5.465,-5.465 -3.313,0 -5.465,2.452 -5.465,5.465 0,3.014 2.077,5.466 5.465,5.466" /></g><g
           transform="translate(86.5001,49.0338)"
           id="g80"><path
             id="path82"
             style="fill:#000000;fill-opacity:1;fill-rule:nonzero;stroke:none"
             d="m 0,0 v 1.963 c 0,0.067 -0.053,0.12 -0.119,0.12 h -9.544 c -0.066,0 -0.119,-0.053 -0.119,-0.12 v -14.37 c 0,-0.066 0.053,-0.12 0.119,-0.12 h 1.964 c 0.065,0 0.119,0.054 0.119,0.12 v 4.785 c 0,0.044 0.036,0.079 0.08,0.079 h 5.758 c 0.066,0 0.119,0.054 0.119,0.12 v 1.963 c 0,0.066 -0.053,0.12 -0.119,0.12 H -7.5 c -0.044,0 -0.08,0.035 -0.08,0.079 v 5.062 c 0,0.044 0.036,0.08 0.08,0.08 h 7.381 C -0.053,-0.119 0,-0.066 0,0" /></g><g
           transform="translate(106.081,36.5071)"
           id="g84"><path
             id="path86"
             style="fill:#000000;fill-opacity:1;fill-rule:nonzero;stroke:none"
             d="m 0,0 h -1.963 c -0.067,0 -0.12,0.053 -0.12,0.119 v 14.366 c 0,0.066 0.053,0.12 0.12,0.12 H 0 c 0.066,0 0.119,-0.054 0.119,-0.12 V 0.119 C 0.119,0.053 0.066,0 0,0" /></g><g
           transform="translate(119.2849,51.1167)"
           id="g88"><path
             id="path90"
             style="fill:#000000;fill-opacity:1;fill-rule:nonzero;stroke:none"
             d="m 0,0 h -9.826 c -0.067,0 -0.12,-0.054 -0.12,-0.119 v -1.964 c 0,-0.066 0.053,-0.119 0.12,-0.119 h 3.722 c 0.044,0 0.08,-0.036 0.08,-0.08 v -12.209 c 0,-0.065 0.054,-0.119 0.119,-0.119 h 1.964 c 0.066,0 0.119,0.054 0.119,0.119 v 12.209 c 0,0.044 0.036,0.08 0.08,0.08 H 0 c 0.066,0 0.119,0.053 0.119,0.119 v 1.964 C 0.119,-0.054 0.066,0 0,0" /></g><g
           transform="translate(131.5921,51.1167)"
           id="g92"><path
             id="path94"
             style="fill:#000000;fill-opacity:1;fill-rule:nonzero;stroke:none"
             d="m 0,0 h -9.826 c -0.066,0 -0.12,-0.054 -0.12,-0.119 v -1.964 c 0,-0.066 0.054,-0.119 0.12,-0.119 h 3.722 c 0.044,0 0.08,-0.036 0.08,-0.08 v -12.209 c 0,-0.065 0.054,-0.119 0.119,-0.119 h 1.964 c 0.066,0 0.12,0.054 0.12,0.119 v 12.209 c 0,0.044 0.035,0.08 0.079,0.08 H 0 c 0.066,0 0.119,0.053 0.119,0.119 v 1.964 C 0.119,-0.054 0.066,0 0,0" /></g><g
           transform="translate(182.3376,38.7091)"
           id="g96"><path
             id="path98"
             style="fill:#000000;fill-opacity:1;fill-rule:nonzero;stroke:none"
             d="m 0,0 h -3.33 c -0.044,0 -0.08,0.036 -0.08,0.08 v 10.041 c 0,0.044 0.036,0.079 0.08,0.079 L 0,10.2 C 3.112,10.2 5.1,7.913 5.1,5.1 5.1,2.288 3.112,0 0,0 m 0,12.403 v 0.005 h -5.493 c -0.066,0 -0.119,-0.054 -0.119,-0.12 V -2.083 c 0,-0.066 0.053,-0.119 0.119,-0.119 H 0 c 4.333,0 7.303,3.269 7.303,7.302 0,4.033 -2.97,7.303 -7.303,7.303" /></g><g
           transform="translate(91.9094,48.9142)"
           id="g100"><path
             id="path102"
             style="fill:#000000;fill-opacity:1;fill-rule:nonzero;stroke:none"
             d="M 0,0 H 3.456 C 4.888,0 6.076,-1.143 6.09,-2.575 6.104,-4.021 4.932,-5.201 3.489,-5.201 H 0 c -0.044,0 -0.08,0.035 -0.08,0.079 V -0.08 C -0.08,-0.035 -0.044,0 0,0 m 6.084,-12.407 h 2.32 c 0.094,0 0.151,0.103 0.101,0.183 l -3.246,5.157 c 1.787,0.709 3.047,2.458 3.033,4.501 -0.018,2.646 -2.2,4.769 -4.847,4.769 h -5.607 c -0.067,0 -0.12,-0.054 -0.12,-0.12 v -14.371 c 0,-0.066 0.053,-0.119 0.12,-0.119 h 1.963 c 0.066,0 0.119,0.053 0.119,0.119 v 4.805 c 0,0.044 0.036,0.079 0.08,0.079 h 2.803 c 0.041,0 0.079,-0.021 0.101,-0.056 l 3.079,-4.891 c 0.022,-0.035 0.06,-0.056 0.101,-0.056" /></g><g
           transform="translate(164.3703,48.9142)"
           id="g104"><path
             id="path106"
             style="fill:#000000;fill-opacity:1;fill-rule:nonzero;stroke:none"
             d="M 0,0 H 3.456 C 4.888,0 6.076,-1.143 6.09,-2.575 6.104,-4.021 4.932,-5.201 3.489,-5.201 H 0 c -0.044,0 -0.08,0.035 -0.08,0.079 V -0.08 C -0.08,-0.035 -0.044,0 0,0 m 6.084,-12.407 h 2.321 c 0.093,0 0.151,0.103 0.101,0.183 l -3.247,5.157 c 1.787,0.709 3.048,2.458 3.033,4.501 -0.018,2.646 -2.2,4.769 -4.847,4.769 h -5.607 c -0.067,0 -0.12,-0.054 -0.12,-0.12 v -14.371 c 0,-0.066 0.053,-0.119 0.12,-0.119 h 1.963 c 0.066,0 0.119,0.053 0.119,0.119 v 4.805 c 0,0.044 0.036,0.079 0.08,0.079 h 2.803 c 0.041,0 0.079,-0.021 0.101,-0.056 l 3.079,-4.891 c 0.022,-0.035 0.06,-0.056 0.101,-0.056" /></g></g></g><g
       id="g108"><g
         clip-path="url(#clipPath114)"
         id="g110"><g
           transform="translate(51.7471,36.5068)"
           id="g116"><path
             id="path118"
             style="fill:#000000;fill-opacity:1;fill-rule:evenodd;stroke:none"
             d="m 0,0 c 0,0 -0.009,49.743 0.007,49.736 0.51,-0.216 8.697,-3.853 10.172,-14.727 0,0 1.135,-3.48 -0.432,-22.371 L 6.649,11.675 C 6,11.454 4.764,11.022 4.494,8.623 L 3.57,0 Z" /></g><g
           transform="translate(50.0156,36.5068)"
           id="g120"><path
             id="path122"
             style="fill:#000000;fill-opacity:1;fill-rule:evenodd;stroke:none"
             d="m 0,0 v 55.496 c 0,0 -15.04,-13.804 -13.801,-45.401 L -7.512,8.354 C -6.566,8.095 -5.422,7.63 -5.228,5.569 L -4.653,0 Z" /></g></g></g><g
       id="g124"><g
         clip-path="url(#clipPath130)"
         id="g126"><g
           transform="translate(84.23,32.3432)"
           id="g132"><path
             id="path134"
             style="fill:#000000;fill-opacity:1;fill-rule:nonzero;stroke:none"
             d="m 0,0 c -4.609,0 -7.668,-3.433 -7.668,-7.668 0,-4.234 3.134,-7.667 7.668,-7.667 4.534,0 7.668,3.433 7.668,7.667 C 7.668,-3.433 4.534,0 0,0 m 0,-2.202 c 3.313,0 5.465,-2.452 5.465,-5.466 0,-3.013 -2.152,-5.465 -5.465,-5.465 -3.313,0 -5.465,2.452 -5.465,5.465 0,3.014 2.077,5.466 5.465,5.466" /></g><g
           transform="translate(20.0276,29.8999)"
           id="g136"><path
             id="path138"
             style="fill:#000000;fill-opacity:1;fill-rule:nonzero;stroke:none"
             d="m 0,0 v 1.963 c 0,0.067 -0.053,0.12 -0.119,0.12 h -9.544 c -0.066,0 -0.119,-0.053 -0.119,-0.12 v -14.37 c 0,-0.066 0.053,-0.12 0.119,-0.12 h 1.964 c 0.065,0 0.119,0.054 0.119,0.12 v 4.785 c 0,0.044 0.036,0.079 0.08,0.079 h 5.758 c 0.066,0 0.119,0.054 0.119,0.12 v 1.963 c 0,0.066 -0.053,0.12 -0.119,0.12 H -7.5 c -0.044,0 -0.08,0.035 -0.08,0.079 v 5.062 c 0,0.044 0.036,0.08 0.08,0.08 h 7.381 C -0.053,-0.119 0,-0.066 0,0" /></g><g
           transform="translate(39.6086,17.3732)"
           id="g140"><path
             id="path142"
             style="fill:#000000;fill-opacity:1;fill-rule:nonzero;stroke:none"
             d="m 0,0 h -1.963 c -0.067,0 -0.12,0.053 -0.12,0.119 v 14.366 c 0,0.066 0.053,0.12 0.12,0.12 H 0 c 0.066,0 0.119,-0.054 0.119,-0.12 V 0.119 C 0.119,0.053 0.066,0 0,0" /></g><g
           transform="translate(52.8125,31.9829)"
           id="g144"><path
             id="path146"
             style="fill:#000000;fill-opacity:1;fill-rule:nonzero;stroke:none"
             d="m 0,0 h -9.826 c -0.067,0 -0.12,-0.054 -0.12,-0.119 v -1.964 c 0,-0.066 0.053,-0.119 0.12,-0.119 h 3.722 c 0.044,0 0.08,-0.036 0.08,-0.08 v -12.209 c 0,-0.065 0.054,-0.119 0.119,-0.119 h 1.964 c 0.066,0 0.119,0.054 0.119,0.119 v 12.209 c 0,0.044 0.036,0.08 0.08,0.08 H 0 c 0.066,0 0.119,0.053 0.119,0.119 v 1.964 C 0.119,-0.054 0.066,0 0,0" /></g><g
           transform="translate(65.1197,31.9829)"
           id="g148"><path
             id="path150"
             style="fill:#000000;fill-opacity:1;fill-rule:nonzero;stroke:none"
             d="m 0,0 h -9.826 c -0.066,0 -0.12,-0.054 -0.12,-0.119 v -1.964 c 0,-0.066 0.054,-0.119 0.12,-0.119 h 3.722 c 0.044,0 0.08,-0.036 0.08,-0.08 v -12.209 c 0,-0.065 0.054,-0.119 0.119,-0.119 h 1.964 c 0.066,0 0.12,0.054 0.12,0.119 v 12.209 c 0,0.044 0.035,0.08 0.079,0.08 H 0 c 0.066,0 0.119,0.053 0.119,0.119 v 1.964 C 0.119,-0.054 0.066,0 0,0" /></g><g
           transform="translate(115.8652,19.5753)"
           id="g152"><path
             id="path154"
             style="fill:#000000;fill-opacity:1;fill-rule:nonzero;stroke:none"
             d="m 0,0 h -3.33 c -0.044,0 -0.08,0.036 -0.08,0.08 v 10.041 c 0,0.044 0.036,0.079 0.08,0.079 L 0,10.2 C 3.112,10.2 5.1,7.913 5.1,5.1 5.1,2.288 3.112,0 0,0 m 0,12.403 v 0.005 h -5.493 c -0.066,0 -0.119,-0.054 -0.119,-0.12 V -2.083 c 0,-0.066 0.053,-0.119 0.119,-0.119 H 0 c 4.333,0 7.303,3.269 7.303,7.302 0,4.033 -2.97,7.303 -7.303,7.303" /></g><g
           transform="translate(25.437,29.7804)"
           id="g156"><path
             id="path158"
             style="fill:#000000;fill-opacity:1;fill-rule:nonzero;stroke:none"
             d="M 0,0 H 3.456 C 4.888,0 6.076,-1.143 6.09,-2.575 6.104,-4.021 4.932,-5.201 3.489,-5.201 H 0 c -0.044,0 -0.08,0.035 -0.08,0.079 V -0.08 C -0.08,-0.035 -0.044,0 0,0 m 6.084,-12.407 h 2.32 c 0.094,0 0.151,0.104 0.101,0.183 l -3.246,5.157 c 1.787,0.709 3.047,2.458 3.033,4.501 -0.018,2.646 -2.2,4.769 -4.847,4.769 h -5.607 c -0.067,0 -0.12,-0.054 -0.12,-0.12 v -14.371 c 0,-0.066 0.053,-0.119 0.12,-0.119 h 1.963 c 0.066,0 0.119,0.053 0.119,0.119 v 4.805 c 0,0.044 0.036,0.079 0.08,0.079 h 2.803 c 0.041,0 0.079,-0.021 0.101,-0.056 l 3.079,-4.891 c 0.022,-0.035 0.06,-0.056 0.101,-0.056" /></g><g
           transform="translate(97.8979,29.7804)"
           id="g160"><path
             id="path162"
             style="fill:#000000;fill-opacity:1;fill-rule:nonzero;stroke:none"
             d="M 0,0 H 3.456 C 4.888,0 6.076,-1.143 6.09,-2.575 6.104,-4.021 4.932,-5.201 3.489,-5.201 H 0 c -0.044,0 -0.08,0.035 -0.08,0.079 V -0.08 C -0.08,-0.035 -0.044,0 0,0 m 6.084,-12.407 h 2.321 c 0.093,0 0.151,0.104 0.101,0.183 l -3.247,5.157 c 1.787,0.709 3.048,2.458 3.033,4.501 -0.018,2.646 -2.2,4.769 -4.847,4.769 h -5.607 c -0.067,0 -0.12,-0.054 -0.12,-0.12 v -14.371 c 0,-0.066 0.053,-0.119 0.12,-0.119 h 1.963 c 0.066,0 0.119,0.053 0.119,0.119 v 4.805 c 0,0.044 0.036,0.079 0.08,0.079 h 2.803 c 0.041,0 0.079,-0.021 0.101,-0.056 l 3.079,-4.891 c 0.022,-0.035 0.06,-0.056 0.101,-0.056" /></g></g></g><g
       id="g164"><g
         clip-path="url(#clipPath170)"
         id="g166"><g
           transform="translate(-14.7253,17.373)"
           id="g172"><path
             id="path174"
             style="fill:#000000;fill-opacity:1;fill-rule:evenodd;stroke:none"
             d="m 0,0 c 0,0 -0.009,49.743 0.007,49.736 0.51,-0.216 8.697,-3.853 10.172,-14.727 0,0 1.135,-3.48 -0.432,-22.371 L 6.649,11.675 C 6,11.454 4.764,11.022 4.494,8.623 L 3.57,0 Z" /></g><g
           transform="translate(-16.4568,17.373)"
           id="g176"><path
             id="path178"
             style="fill:#000000;fill-opacity:1;fill-rule:evenodd;stroke:none"
             d="m 0,0 v 55.496 c 0,0 -15.04,-13.804 -13.801,-45.401 L -7.512,8.354 C -6.566,8.095 -5.422,7.63 -5.228,5.569 L -4.653,0 Z" /></g></g></g></g></svg>