<svg id="Layer_1" xmlns="http://www.w3.org/2000/svg" xmlns:xlink="http://www.w3.org/1999/xlink" viewBox="0 0 189.5 68"><style>.st0{clip-path:url(#SVGID_2_)}.st1{clip-path:url(#SVGID_4_)}</style><defs><path id="SVGID_1_" d="M3.6 7.6h60.9v52.8H3.6z"/></defs><clipPath id="SVGID_2_"><use xlink:href="#SVGID_1_" overflow="visible"/></clipPath><path class="st0" d="M64.5 7.6C54.3 25.3 44.1 42.8 34 60.4c-.2-.3-.4-.5-.5-.7-3.2-5.6-6.4-11.2-9.6-16.7-.4-.6-.3-1 0-1.6 6.4-10.9 12.8-21.9 19.3-32.8.1-.2.5-.8.5-.8h.7c6.5-.2 13.2-.2 20.1-.2M16.9 30.8C12.4 23 8 15.4 3.6 7.6h8.2s1.2 2.1 1.8 3.2c2.3 4.1 4.7 8.3 7 12.4.2.3.2.5.2.8 0 .2-.1.5-.3.8-1.2 1.9-2.4 3.9-3.6 6"/><g><defs><path id="SVGID_3_" d="M0 0h189.5v68H0z"/></defs><clipPath id="SVGID_4_"><use xlink:href="#SVGID_3_" overflow="visible"/></clipPath><path class="st1" d="M181.3 43.4h1.5v5.4c0 .4 0 .7.1 1 .1.3.2.5.4.7.2.2.4.3.8.4.3.1.8.2 1.3.2h.7c.2 0 .4 0 .7-.1v-1.6c-.1 0-.3.1-.4.1h-.4c-.2 0-.4 0-.5-.1-.1-.1-.2-.1-.3-.2-.1-.1-.1-.2-.1-.4v-5.5h1.8v-1.5h-1.8V39h-2v2.8h-1.5v1.6zm-.7 3.6c.1-.7 0-1.4-.1-2-.2-.6-.4-1.2-.8-1.7s-.9-.9-1.4-1.2c-.6-.3-1.2-.5-1.9-.5s-1.3.1-1.8.4c-.5.3-1 .6-1.4 1.1-.4.4-.7 1-.9 1.5-.2.6-.3 1.2-.3 1.9s.1 1.4.3 2c.2.6.5 1.1.9 1.5.4.4.9.8 1.4 1 .6.2 1.2.4 1.9.4.5 0 1-.1 1.4-.2.5-.1.9-.3 1.2-.6.4-.3.7-.6.9-1 .3-.4.4-.8.6-1.3h-1.9c-.2.5-.4.9-.8 1.1-.4.3-.8.4-1.4.4-.4 0-.8-.1-1.1-.2s-.6-.3-.8-.6c-.2-.2-.4-.5-.5-.9-.1-.3-.2-.7-.2-1h6.7zm-6.7-1.4c0-.3.1-.7.2-1 .1-.3.3-.6.5-.8.2-.2.5-.4.7-.5.3-.1.6-.2 1-.2.3 0 .7.1.9.2.3.1.5.3.7.5.2.2.4.5.5.8.1.3.2.6.2.9h-4.7zm-10.7-.3c.1-.4.2-.8.4-1.1.2-.3.5-.6.8-.8.3-.2.7-.3 1.2-.3.8 0 1.4.3 1.9.9.5.6.7 1.4.7 2.4 0 .4-.1.8-.2 1.2-.1.4-.3.7-.5 1-.2.3-.5.6-.8.7-.3.2-.7.3-1.2.3-.4 0-.8-.1-1.1-.3-.3-.2-.6-.4-.8-.7-.2-.3-.4-.6-.5-1-.1-.4-.2-.8-.2-1.2.1-.3.2-.7.3-1.1m6.9-7h-2V43c-.2-.2-.3-.5-.6-.6-.2-.2-.5-.3-.8-.5l-.9-.3c-.3-.1-.6-.1-.9-.1-.5 0-1 .1-1.5.3s-.9.5-1.3.9-.7.9-.9 1.5c-.2.6-.3 1.3-.3 2.2 0 .7.1 1.3.3 1.9.2.6.4 1.1.8 1.6.4.4.8.8 1.3 1 .5.3 1.2.4 1.9.4.6 0 1.1-.1 1.7-.3.5-.2.9-.6 1.2-1.1V51h1.9V38.3zM151.2 51h2v-5.4c0-.3.1-.6.2-.9.1-.3.3-.6.4-.8.2-.2.4-.4.7-.5.3-.1.6-.2.9-.2.6 0 1 .2 1.3.5.3.3.4.8.5 1.6V51h2v-6.3c0-1-.3-1.8-.9-2.3-.6-.5-1.4-.8-2.4-.8-.6 0-1.2.1-1.7.4-.5.3-.9.7-1.2 1.2v-1.4h-1.9V51zm-4.2-3.1c0 .3-.1.6-.2.8-.2.2-.3.4-.6.5-.2.1-.5.2-.7.3-.3.1-.5.1-.7.1-.2 0-.4 0-.6-.1-.2 0-.4-.1-.6-.2-.2-.1-.3-.2-.5-.4-.1-.2-.2-.3-.2-.6s0-.5.1-.7c.1-.2.2-.3.4-.4s.3-.2.5-.3c.2-.1.4-.1.6-.2.5-.1.9-.1 1.4-.2.5 0 .8-.2 1.1-.4v1.8zm2.1-3.6c0-.5-.1-.9-.3-1.2-.2-.3-.5-.6-.8-.8-.3-.2-.7-.4-1.2-.5-.4-.1-.9-.1-1.3-.1-.5 0-1 0-1.5.1s-.9.3-1.3.5-.7.6-1 .9c-.2.4-.4.9-.4 1.5h2c0-.5.3-.9.6-1.1.4-.2.8-.4 1.4-.4h.6c.2 0 .4.1.6.2.2.1.3.2.5.4.1.2.2.4.2.6 0 .3-.1.5-.2.7-.1.1-.3.3-.6.3s-.5.1-.9.2c-.3 0-.7.1-1 .2-.4 0-.9.1-1.3.2s-.8.2-1.1.4c-.3.2-.6.5-.8.8-.2.4-.3.8-.3 1.4 0 .5.1.8.3 1.2.2.3.4.6.7.8.3.2.6.4 1 .5.4.1.8.2 1.2.2.5 0 1.1-.1 1.7-.3.6-.2 1.1-.5 1.5-.9.1.4.3.7.5.9.3.2.6.2 1 .2h.3c.1 0 .2 0 .4-.1.1 0 .2-.1.3-.1.1 0 .2-.1.3-.1v-1.4h-.5c-.2 0-.3-.1-.4-.2-.1-.1-.1-.3-.1-.5v-4.5zm-12 6.7h2V38.3h-2V51zm-6.9-7.6h1.5v5.4c0 .4.1.7.1 1 .1.3.2.5.4.7.2.2.4.3.8.4.3.1.8.2 1.3.2h.7c.2 0 .4 0 .7-.1v-1.6c-.1 0-.3.1-.4.1h-.4c-.2 0-.4 0-.5-.1-.1-.1-.2-.1-.3-.2-.1-.1-.1-.2-.1-.4v-5.5h1.8v-1.5H134V39h-2v2.8h-1.5v1.6zm-8.8 4.7c0 .5.1 1 .3 1.4.2.4.5.7.9 1 .4.3.8.5 1.3.6.5.1 1 .2 1.6.2.5 0 1-.1 1.4-.2.5-.1.9-.3 1.3-.5s.7-.5 1-.9.4-.8.4-1.4c0-.5-.1-.8-.3-1.1-.2-.3-.4-.6-.7-.8-.3-.2-.6-.4-1-.5-.4-.1-.7-.2-1.1-.3-.4-.1-.7-.2-1.1-.2-.4-.1-.7-.2-1-.3-.3-.1-.5-.2-.7-.4-.2-.2-.3-.4-.3-.6 0-.2.1-.4.2-.5.1-.1.3-.2.4-.3.2-.1.4-.1.6-.1h.5c.5 0 .9.1 1.2.2.3.2.6.5.7 1h2.1c-.1-.5-.2-.9-.4-1.3s-.5-.7-.9-.9c-.3-.2-.7-.4-1.2-.5-.4-.1-.9-.2-1.4-.2-.4 0-.9 0-1.3.1s-.9.2-1.2.4c-.4.2-.7.5-.9.8-.2.3-.4.8-.4 1.3s.1.9.2 1.2c.2.3.4.6.7.8.3.2.6.4.9.5.3.1.7.2 1.1.3.4.1.7.2 1.1.2.4.1.7.2 1 .3.3.1.5.2.7.4.2.2.3.4.3.6 0 .3-.1.5-.2.6-.1.2-.3.3-.5.4-.2.1-.4.1-.7.2h-.6c-.5 0-1-.1-1.4-.4-.4-.2-.6-.7-.7-1.2h-1.9zm-1-1.1c.1-.7 0-1.4-.1-2-.2-.6-.4-1.2-.8-1.7s-.9-.9-1.4-1.2c-.6-.3-1.2-.5-1.9-.5s-1.3.1-1.8.4c-.5.3-1 .6-1.4 1.1-.4.4-.7 1-.9 1.5-.2.6-.3 1.2-.3 1.9s.1 1.4.3 2c.2.6.5 1.1.9 1.5.4.4.9.8 1.4 1 .6.2 1.2.4 1.9.4.5 0 1-.1 1.4-.2s.9-.3 1.2-.6c.4-.3.7-.6.9-1 .3-.4.4-.8.6-1.3h-1.9c-.2.5-.4.9-.8 1.1-.4.3-.8.4-1.4.4-.4 0-.8-.1-1.1-.2s-.6-.3-.8-.6c-.2-.2-.4-.5-.5-.9-.1-.3-.2-.7-.2-1h6.7zm-6.8-1.4c0-.3.1-.7.2-1 .1-.3.3-.6.5-.8.2-.2.5-.4.7-.5.3-.1.6-.2 1-.2.3 0 .7.1.9.2.3.1.5.3.7.5.2.2.3.5.5.8.1.3.2.6.2.9h-4.7zm-8.4 5.4h2.5l4.3-12.7h-2.3l-3.3 10-3.2-10H101l4.2 12.7zM92 40.7c.2-.1.4-.2.6-.4.2-.2.3-.4.4-.6.1-.2.1-.5.1-.7 0-.3 0-.5-.1-.7-.1-.2-.2-.4-.4-.6s-.4-.3-.6-.4c-.2-.1-.5-.1-.7-.1-.2 0-.5 0-.7.1s-.4.2-.6.4c-.2.2-.3.4-.4.6-.1.2-.2.5-.2.7 0 .3 0 .5.1.7.1.2.2.4.4.6.2.2.4.3.6.4.2.1.5.1.7.1.3.1.6 0 .8-.1m-1.5-2.4c.2-.2.5-.3.8-.3.3 0 .6.1.8.3.2.2.3.5.3.8 0 .3-.1.6-.3.8-.2.2-.5.3-.8.3-.3 0-.5-.1-.8-.3-.2-.2-.3-.5-.3-.8 0-.4.1-.6.3-.8m2.5 9.6c0 .3-.1.6-.2.8-.2.2-.3.4-.6.5-.2.1-.5.2-.7.3-.3.1-.5.1-.7.1-.2 0-.4 0-.6-.1-.2 0-.4-.1-.6-.2-.2-.1-.3-.2-.5-.4-.1-.2-.2-.3-.2-.6s0-.5.1-.7c.1-.2.2-.3.4-.4s.3-.2.5-.3c.2-.1.4-.1.6-.2.4-.1.9-.1 1.4-.2.4 0 .8-.2 1.1-.4v1.8zm2-3.6c0-.5-.1-.9-.3-1.2-.2-.3-.5-.6-.8-.8-.3-.2-.7-.4-1.2-.5-.4-.1-.9-.1-1.3-.1-.5 0-1 0-1.5.1s-.9.3-1.3.5-.7.6-1 .9-.4.9-.4 1.5h2c0-.5.3-.9.6-1.1.4-.2.8-.4 1.4-.4h.6c.2 0 .4.1.6.2.2.1.3.2.5.4.1.2.2.4.2.6 0 .3-.1.5-.2.7-.1.1-.3.3-.6.3-.3.1-.5.1-.9.2-.3 0-.7.1-1 .2-.4 0-.9.1-1.3.2s-.8.2-1.1.4c-.3.2-.6.5-.8.8-.2.4-.3.8-.3 1.4 0 .5.1.8.3 1.2.2.3.4.6.7.8.3.2.6.4 1 .5.4.1.8.2 1.2.2.5 0 1.1-.1 1.7-.3.6-.2 1.1-.5 1.5-.9.1.4.3.7.5.9.3.2.6.2 1 .2h.3c.1 0 .2 0 .4-.1.1 0 .2-.1.3-.1.1 0 .2-.1.3-.1v-1.4h-.5c-.2 0-.3-.1-.4-.2-.1.1-.2-.1-.2-.3v-4.7zm-11.5 3.3c-.1.4-.2.7-.4 1-.2.3-.5.5-.8.7-.3.2-.7.3-1.2.3-.4 0-.8-.1-1.1-.2-.3-.2-.6-.4-.8-.7-.2-.3-.4-.6-.5-1-.1-.4-.2-.8-.2-1.3 0-1 .2-1.8.6-2.4.4-.6 1.1-.9 1.9-.9.4 0 .8.1 1.1.3.3.2.6.4.8.7.2.3.4.6.5 1 .1.4.2.8.2 1.2 0 .5 0 .9-.1 1.3m-7 6.8h2v-4.6c.2.2.3.5.6.6.2.2.5.3.8.5l.9.3c.3.1.6.1.9.1.7 0 1.3-.1 1.8-.4.5-.3.9-.6 1.2-1.1.3-.4.6-1 .7-1.5.2-.6.2-1.2.2-1.8 0-.7-.1-1.3-.3-1.9-.2-.6-.4-1.1-.8-1.6-.4-.4-.8-.8-1.3-1-.5-.3-1.2-.4-1.9-.4-.6 0-1.1.1-1.7.3-.5.2-.9.6-1.2 1.1v-1.2h-1.9v12.6zM153.5 29.7h2v-5.4c0-.3.1-.6.2-.9.1-.3.3-.6.4-.8.2-.2.4-.4.7-.5.3-.1.6-.2.9-.2.6 0 1 .2 1.3.5.3.3.4.8.5 1.6v5.8h2v-6.3c0-1-.3-1.8-.9-2.3-.6-.5-1.4-.8-2.4-.8-.6 0-1.2.1-1.7.4-.5.3-.9.7-1.2 1.2v-1.4h-1.9v9.1zm-1.5-4.1c.1-.7 0-1.4-.1-2-.2-.6-.4-1.2-.8-1.7s-.9-.9-1.4-1.2c-.6-.3-1.2-.5-1.9-.5s-1.3.1-1.8.4c-.5.3-1 .6-1.4 1.1-.4.4-.7 1-.9 1.5-.2.6-.3 1.2-.3 1.9s.1 1.4.3 2c.2.6.5 1.1.9 1.5.4.4.9.8 1.4 1 .6.2 1.2.4 1.9.4.5 0 1-.1 1.4-.2.5-.1.9-.3 1.2-.6.4-.3.7-.6.9-1 .3-.4.4-.8.6-1.3h-1.9c-.2.5-.4.9-.8 1.1-.4.3-.8.4-1.4.4-.4 0-.8-.1-1.1-.2s-.6-.3-.8-.6c-.2-.2-.4-.5-.5-.9-.1-.3-.2-.7-.2-1h6.7zm-6.8-1.3c0-.3.1-.7.2-1 .1-.3.3-.6.5-.8.2-.2.5-.4.7-.5.3-.1.6-.2 1-.2.3 0 .7.1.9.2.3.1.5.3.7.5.2.2.3.5.5.8.1.3.2.6.2.9h-4.7zm-5.8 5.4h2V17h-2v12.7zm-2.2-9.2h-2v5.3c0 .4 0 .7-.1 1-.1.3-.2.6-.4.8-.2.2-.4.4-.7.5-.3.1-.6.2-1.1.2-.6 0-1-.2-1.3-.5-.3-.3-.5-.9-.5-1.7v-5.6h-2v5.8c0 1.2.3 2.1.8 2.7.5.6 1.4.9 2.6.9.5 0 1-.1 1.5-.4s.9-.6 1.1-1.1v1.3h2v-9.2zm-17.5 9.2h2v-3.3l1.2-1.2 2.8 4.5h2.5l-3.9-5.8 3.5-3.4h-2.5l-3.7 3.7V17h-2v12.7zm-9.8-3c0 .5.1 1 .3 1.4.2.4.5.7.9 1 .4.3.8.5 1.3.6.5.1 1 .2 1.6.2.5 0 1-.1 1.4-.2.5-.1.9-.3 1.3-.5s.7-.5 1-.9c.2-.4.4-.8.4-1.4 0-.5-.1-.8-.3-1.1-.2-.3-.4-.6-.7-.8-.3-.2-.6-.4-1-.5-.4-.1-.7-.2-1.1-.3-.4-.1-.7-.2-1.1-.2-.4-.1-.7-.2-1-.3-.3-.1-.5-.2-.7-.4-.2-.2-.3-.4-.3-.6 0-.2.1-.4.2-.5.1-.1.3-.2.4-.3.2-.1.4-.1.6-.1h.5c.5 0 .9.1 1.2.2.3.2.6.5.7 1h2.1c-.1-.5-.2-.9-.4-1.3s-.5-.7-.9-.9c-.3-.2-.7-.4-1.2-.5-.4-.1-.9-.2-1.4-.2-.4 0-.9 0-1.3.1-.5.1-.9.2-1.2.4-.4.2-.7.5-.9.8-.2.3-.4.8-.4 1.3s.1.8.2 1.2c.2.3.4.6.7.8.3.2.6.4.9.5.3.1.7.2 1.1.3.4.1.7.2 1.1.2.4.1.7.2 1 .3.3.1.5.2.7.4.2.2.3.4.3.6 0 .3-.1.5-.2.6-.1.2-.3.3-.5.4-.2.1-.4.1-.7.2h-.6c-.5 0-1-.1-1.4-.4s-.6-.7-.7-1.2h-1.9zm-7.1 1.1c-.3-.2-.6-.4-.7-.7-.2-.3-.3-.6-.4-1-.1-.4-.1-.7-.1-1.1 0-.4 0-.8.1-1.1.1-.4.2-.7.4-1 .2-.3.4-.5.7-.7.3-.2.7-.3 1.1-.3.4 0 .8.1 1.1.2.3.2.6.4.8.7.2.3.3.6.4 1 .1.4.1.7.1 1.1 0 .4 0 .8-.1 1.2-.1.4-.2.7-.4 1-.2.3-.4.5-.8.7-.3.2-.7.3-1.1.3-.5 0-.8-.1-1.1-.3m5.6-7.3h-2v1.3c-.3-.5-.6-.9-1.1-1.1s-1-.4-1.6-.4c-.7 0-1.2.1-1.8.4-.5.2-1 .6-1.3 1-.4.4-.6.9-.8 1.5-.2.6-.3 1.1-.3 1.8s.1 1.3.2 1.9c.2.6.4 1.1.7 1.5.3.4.8.8 1.3 1 .5.3 1.1.4 1.9.4.6 0 1.1-.1 1.6-.4.5-.3.9-.7 1.2-1.2v1.4c0 .8-.2 1.3-.6 1.7-.4.4-1 .6-1.8.6h-.7c-.2 0-.5-.1-.6-.2-.2-.1-.4-.2-.5-.4-.1-.2-.2-.4-.3-.7h-2c0 .5.2 1 .5 1.4.3.4.6.7 1 .9.4.2.8.4 1.3.5.5.1.9.1 1.4.1 1.5 0 2.6-.3 3.4-1 .8-.7 1.2-1.7 1.2-3.1v-8.9zm-12.7 2.8l.3.9c.1.3.1.6.1 1s0 .8-.2 1.2c-.1.4-.3.7-.5 1-.2.3-.5.6-.8.7-.3.2-.7.3-1.2.3-.4 0-.7-.1-1-.2-.3-.1-.5-.3-.8-.6l4.1-4.3zm-6.3 6.9l1.1-1.2c.4.3.8.6 1.3.7.5.2 1.1.3 1.7.3.7 0 1.4-.1 2-.4.6-.2 1.1-.6 1.5-1 .4-.4.7-.9.9-1.5.2-.6.3-1.2.3-2 0-1.3-.4-2.4-1.1-3.3l1.2-1.3-.6-.5-1.1 1.2c-.4-.3-.8-.5-1.3-.7-.5-.2-1.1-.3-1.7-.3-.7 0-1.4.1-2 .4-.6.2-1.1.6-1.5 1-.4.4-.7.9-.9 1.5-.2.6-.3 1.2-.3 1.9 0 1.4.4 2.5 1.1 3.3l-1.2 1.3.6.6zm1.9-3.3L91 26c-.1-.3-.1-.6-.1-1s.1-.8.2-1.2c.1-.4.3-.7.5-1 .2-.3.5-.5.8-.7.3-.2.7-.3 1.2-.3.4 0 .7.1 1 .2.3.1.5.3.8.6l-4.1 4.3zm-14.6 2.8h2.2V24h5.8v5.7h2.2V17h-2.2v5h-5.8v-5h-2.2v12.7z"/></g></svg>