<?xml version="1.0" encoding="utf-8"?>
<!-- Generator: Adobe Illustrator 22.1.0, SVG Export Plug-In . SVG Version: 6.00 Build 0)  -->
<svg version="1.1" id="Layer_1" xmlns="http://www.w3.org/2000/svg" xmlns:xlink="http://www.w3.org/1999/xlink" x="0px" y="0px"
	 viewBox="0 0 564.3 564.3" style="enable-background:new 0 0 564.3 564.3;" xml:space="preserve">
<style type="text/css">
	.st0{clip-path:url(#SVGID_2_);fill:none;stroke:#7A8893;stroke-width:38.879;stroke-linecap:round;stroke-miterlimit:10;}
	.st1{fill:none;stroke:#7A8893;stroke-width:38.879;stroke-linecap:round;stroke-linejoin:round;stroke-miterlimit:10;}
	.st2{clip-path:url(#SVGID_4_);fill:#7A8893;}
</style>
<g>
	<defs>
		<rect id="SVGID_1_" width="564.3" height="564.3"/>
	</defs>
	<clipPath id="SVGID_2_">
		<use xlink:href="#SVGID_1_"  style="overflow:visible;"/>
	</clipPath>
	<line class="st0" x1="30.4" y1="283.5" x2="337.1" y2="283.5"/>
</g>
<polyline class="st1" points="214.9,174.1 337.1,283.5 214.9,402.7 "/>
<g>
	<defs>
		<rect id="SVGID_3_" width="564.3" height="564.3"/>
	</defs>
	<clipPath id="SVGID_4_">
		<use xlink:href="#SVGID_3_"  style="overflow:visible;"/>
	</clipPath>
	<path class="st2" d="M282.2,0C126.3,0,0,126.3,0,282.2C0,438,126.3,564.3,282.2,564.3S564.3,438,564.3,282.2
		C564.3,126.3,438,0,282.2,0 M282.2,38.9c32.9,0,64.7,6.4,94.7,19.1c29,12.3,55,29.8,77.3,52.2c22.4,22.4,39.9,48.4,52.2,77.3
		c12.7,30,19.1,61.8,19.1,94.7c0,32.9-6.4,64.7-19.1,94.7c-12.3,29-29.8,55-52.2,77.3c-22.4,22.4-48.4,39.9-77.3,52.2
		c-30,12.7-61.8,19.1-94.7,19.1s-64.7-6.4-94.7-19.1c-29-12.3-55-29.8-77.3-52.2c-22.4-22.4-39.9-48.4-52.2-77.3
		c-12.7-30-19.1-61.8-19.1-94.7c0-32.9,6.4-64.7,19.1-94.7c12.3-29,29.8-55,52.2-77.3c22.4-22.4,48.4-39.9,77.3-52.2
		C217.4,45.3,249.3,38.9,282.2,38.9"/>
</g>
</svg>
