<?xml version="1.0" encoding="UTF-8" standalone="no"?>
<svg
   xmlns:dc="http://purl.org/dc/elements/1.1/"
   xmlns:cc="http://creativecommons.org/ns#"
   xmlns:rdf="http://www.w3.org/1999/02/22-rdf-syntax-ns#"
   xmlns:svg="http://www.w3.org/2000/svg"
   xmlns="http://www.w3.org/2000/svg"
   viewBox="0 0 325.37601 90.708664"
   height="90.708664"
   width="325.37601"
   xml:space="preserve"
   id="svg2"
   version="1.1"><metadata
     id="metadata8"><rdf:RDF><cc:Work
         rdf:about=""><dc:format>image/svg+xml</dc:format><dc:type
           rdf:resource="http://purl.org/dc/dcmitype/StillImage" /></cc:Work></rdf:RDF></metadata><defs
     id="defs6"><clipPath
       id="clipPath18"
       clipPathUnits="userSpaceOnUse"><path
         id="path16"
         d="M 2.835,2.835 H 44.222 V 65.197 H 2.835 Z" /></clipPath><clipPath
       id="clipPath108"
       clipPathUnits="userSpaceOnUse"><path
         id="path106"
         d="M 75.25,2.835 H 241.197 V 65.197 H 75.25 Z" /></clipPath></defs><g
     transform="matrix(1.3333333,0,0,-1.3333333,0,90.708667)"
     id="g10"><g
       id="g12"><g
         clip-path="url(#clipPath18)"
         id="g14"><g
           transform="translate(22.2452,62.3293)"
           id="g20"><path
             id="path22"
             style="fill:#000000;fill-opacity:1;fill-rule:nonzero;stroke:none"
             d="m 0,0 c -8.936,0 -16.206,-7.271 -16.206,-16.206 0,-8.937 7.27,-16.207 16.206,-16.207 8.938,0 16.21,7.27 16.21,16.207 C 16.21,-7.271 8.938,0 0,0 m 0,-35.281 c -10.515,0 -19.071,8.558 -19.071,19.075 0,10.515 8.556,19.074 19.071,19.074 10.518,0 19.073,-8.559 19.073,-19.074 0,-10.517 -8.555,-19.075 -19.073,-19.075" /></g><g
           transform="translate(33.6266,2.8347)"
           id="g24"><path
             id="path26"
             style="fill:#000000;fill-opacity:1;fill-rule:nonzero;stroke:none"
             d="M 0,0 -7.462,7.46 -14.926,0 l -7.464,7.46 -6.525,-6.521 -1.876,1.872 8.401,8.397 7.464,-7.458 7.464,7.458 7.46,-7.458 6.517,6.521 1.878,-1.876 z" /></g><g
           transform="translate(75.8656,55.9998)"
           id="g28"><path
             id="path30"
             style="fill:#000000;fill-opacity:1;fill-rule:nonzero;stroke:none"
             d="M 0,0 H 2.692 V -17.608 H 0.024 v 12.224 l -3.621,-7.497 h -2.215 l -3.623,7.497 v -12.224 h -2.664 V 0 h 2.692 l 4.704,-9.735 z" /></g><g
           transform="translate(85.216,46.3655)"
           id="g32"><path
             id="path34"
             style="fill:#000000;fill-opacity:1;fill-rule:nonzero;stroke:none"
             d="M 0,0 V -0.026 H 5.533 V 0 C 5.509,1.886 4.377,2.817 2.769,2.817 1.132,2.817 0,1.886 0,0 M 5.409,-3.849 H 8.101 C 7.649,-7.297 4.856,-8.228 2.769,-8.228 c -2.265,0 -5.409,1.108 -5.409,5.385 v 2.817 c 0,4.276 3.144,5.384 5.409,5.384 2.263,0 5.406,-1.108 5.406,-5.384 V -2.364 H 0 v -0.429 c 0,-1.961 1.132,-2.892 2.769,-2.892 1.306,0 2.289,0.603 2.64,1.836" /></g><g
           transform="translate(100.7565,42.164)"
           id="g36"><path
             id="path38"
             style="fill:#000000;fill-opacity:1;fill-rule:nonzero;stroke:none"
             d="M 0,0 C 0,-0.955 0.177,-1.233 1.207,-1.233 H 3.194 V -3.772 H 0.451 c -2.162,0 -3.093,1.056 -3.093,3.093 v 7.395 h -1.836 v 2.491 h 1.836 v 2.942 H 0 V 9.207 H 3.194 V 6.716 L 0,6.716 Z" /></g><g
           transform="translate(109.9255,46.3655)"
           id="g40"><path
             id="path42"
             style="fill:#000000;fill-opacity:1;fill-rule:nonzero;stroke:none"
             d="M 0,0 V -0.026 H 5.534 V 0 C 5.51,1.886 4.378,2.817 2.769,2.817 1.132,2.817 0,1.886 0,0 M 5.41,-3.849 H 8.102 C 7.65,-7.297 4.857,-8.228 2.769,-8.228 c -2.265,0 -5.409,1.108 -5.409,5.385 v 2.817 c 0,4.276 3.144,5.384 5.409,5.384 2.266,0 5.409,-1.108 5.409,-5.384 V -2.364 H 0 v -0.429 c 0,-1.961 1.132,-2.892 2.769,-2.892 1.307,0 2.29,0.603 2.641,1.836" /></g><g
           transform="translate(129.9205,46.2909)"
           id="g44"><path
             id="path46"
             style="fill:#000000;fill-opacity:1;fill-rule:nonzero;stroke:none"
             d="M 0,0 C 0,1.961 -1.132,2.892 -2.769,2.892 -4.401,2.892 -5.533,1.961 -5.533,0 v -2.718 c 0,-1.961 1.132,-2.892 2.764,-2.892 1.637,0 2.769,0.931 2.769,2.892 z m -8.177,0.048 c 0,4.277 3.143,5.385 5.408,5.385 2.265,0 5.409,-1.108 5.409,-5.385 v -2.817 c 0,-4.276 -3.144,-5.384 -5.409,-5.384 -2.265,0 -5.408,1.108 -5.408,5.384 z" /></g><g
           transform="translate(141.6848,49.0315)"
           id="g48"><path
             id="path50"
             style="fill:#000000;fill-opacity:1;fill-rule:nonzero;stroke:none"
             d="M 0,0 C -1.632,0 -2.765,-0.905 -2.765,-2.866 V -10.64 H -5.404 V 2.34 h 2.639 V 1.082 c 0.375,0.756 1.661,1.485 3.019,1.485 H 1.261 V 0 Z" /></g><g
           transform="translate(153.832,46.2909)"
           id="g52"><path
             id="path54"
             style="fill:#000000;fill-opacity:1;fill-rule:nonzero;stroke:none"
             d="M 0,0 C 0,1.961 -1.132,2.892 -2.765,2.892 -4.401,2.892 -5.533,1.961 -5.533,0 v -2.718 c 0,-1.961 1.132,-2.892 2.768,-2.892 1.633,0 2.765,0.931 2.765,2.892 z m -8.173,0.048 c 0,4.277 3.143,5.385 5.408,5.385 2.261,0 5.409,-1.108 5.409,-5.385 v -2.817 c 0,-4.276 -3.148,-5.384 -5.409,-5.384 -2.265,0 -5.408,1.108 -5.408,5.384 z" /></g><g
           transform="translate(162.9324,42.164)"
           id="g56"><path
             id="path58"
             style="fill:#000000;fill-opacity:1;fill-rule:nonzero;stroke:none"
             d="M 0,0 C 0,-0.955 0.177,-1.233 1.209,-1.233 H 1.612 V -3.772 H 0.455 c -2.164,0 -3.095,1.056 -3.095,3.093 V 13.836 H 0 Z" /></g><g
           transform="translate(175.9865,46.2909)"
           id="g60"><path
             id="path62"
             style="fill:#000000;fill-opacity:1;fill-rule:nonzero;stroke:none"
             d="M 0,0 C 0,1.961 -1.133,2.892 -2.769,2.892 -4.401,2.892 -5.534,1.961 -5.534,0 v -2.718 c 0,-1.961 1.133,-2.892 2.765,-2.892 1.636,0 2.769,0.931 2.769,2.892 z m -8.177,0.048 c 0,4.277 3.143,5.385 5.408,5.385 2.265,0 5.409,-1.108 5.409,-5.385 v -2.817 c 0,-4.276 -3.144,-5.384 -5.409,-5.384 -2.265,0 -5.408,1.108 -5.408,5.384 z" /></g><path
           id="path64"
           style="fill:#000000;fill-opacity:1;fill-rule:nonzero;stroke:none"
           d="m 199.846,38.392 h -2.64 v 12.979 h 2.64 z m 0,14.916 h -2.64 V 56 h 2.64 z" /><g
           transform="translate(203.4162,42.5428)"
           id="g66"><path
             id="path68"
             style="fill:#000000;fill-opacity:1;fill-rule:nonzero;stroke:none"
             d="m 0,0 h 2.716 c 0.202,-1.284 1.435,-1.862 2.846,-1.862 1.155,0 2.136,0.302 2.136,1.358 0,0.879 -0.782,1.157 -1.637,1.358 L 3.599,1.483 C 1.886,1.91 0.302,2.865 0.302,5.356 c 0,2.567 2.064,3.825 4.704,3.825 2.793,0 4.73,-1.258 4.98,-4.149 H 7.219 C 7.017,6.162 6.037,6.64 4.828,6.64 4.026,6.64 2.97,6.338 2.97,5.306 2.97,4.526 3.724,4.274 4.429,4.101 L 6.814,3.496 C 9.181,2.892 10.366,1.886 10.366,-0.58 10.337,-3.146 8.352,-4.405 5.534,-4.405 2.539,-4.405 0.153,-2.97 0,0" /></g><g
           transform="translate(219.8404,46.0894)"
           id="g70"><path
             id="path72"
             style="fill:#000000;fill-opacity:1;fill-rule:nonzero;stroke:none"
             d="M 0,0 4.851,5.282 H 8.048 L 3.368,0.201 8.753,-7.698 H 5.683 L 1.607,-1.711 0,-3.472 V -7.698 H -2.645 V 9.91 H 0 Z" /></g><path
           id="path74"
           style="fill:#000000;fill-opacity:1;fill-rule:nonzero;stroke:none"
           d="M 66.282,12.439 H 63.64 v 12.979 h 2.642 z m 0,14.918 H 63.64 v 2.69 h 2.642 z" /><g
           transform="translate(73.2925,12.4388)"
           id="g76"><path
             id="path78"
             style="fill:#000000;fill-opacity:1;fill-rule:nonzero;stroke:none"
             d="M 0,0 H -2.642 V 12.979 H 0 v -1.13 c 0.377,0.754 1.66,1.483 3.017,1.483 2.24,0 5.158,-1.384 5.158,-5.384 V 0 H 5.533 v 7.897 c 0,1.963 -1.13,2.87 -2.766,2.87 C 1.13,10.767 0,9.86 0,7.897 Z" /></g><g
           transform="translate(102.2156,16.2111)"
           id="g80"><path
             id="path82"
             style="fill:#000000;fill-opacity:1;fill-rule:nonzero;stroke:none"
             d="M 0,0 C 0,-0.955 0.175,-1.231 1.207,-1.231 H 3.196 V -3.772 H 0.451 c -2.162,0 -3.093,1.056 -3.093,3.095 v 7.395 h -1.836 v 2.489 h 1.836 v 2.944 H 0 V 9.207 H 3.196 V 6.718 L 0,6.718 Z m -17.409,0.377 h 2.719 c 0.201,-1.282 1.432,-1.86 2.841,-1.86 1.157,0 2.138,0.302 2.138,1.358 0,0.881 -0.78,1.157 -1.634,1.358 l -2.467,0.629 c -1.709,0.427 -3.295,1.382 -3.295,3.875 0,2.563 2.062,3.823 4.706,3.823 2.791,0 4.727,-1.26 4.979,-4.151 h -2.766 c -0.202,1.132 -1.181,1.61 -2.39,1.61 -0.807,0 -1.863,-0.301 -1.863,-1.334 0,-0.778 0.756,-1.032 1.46,-1.207 l 2.39,-0.603 c 2.365,-0.604 3.546,-1.61 3.546,-4.074 -0.024,-2.568 -2.011,-3.825 -4.828,-3.825 -2.995,0 -5.385,1.433 -5.536,4.401" /></g><path
           id="path84"
           style="fill:#000000;fill-opacity:1;fill-rule:nonzero;stroke:none"
           d="m 111.715,12.439 h -2.64 v 12.979 h 2.64 z m 0,14.918 h -2.64 v 2.69 h 2.64 z" /><g
           transform="translate(119.7644,16.2111)"
           id="g86"><path
             id="path88"
             style="fill:#000000;fill-opacity:1;fill-rule:nonzero;stroke:none"
             d="M 0,0 C 0,-0.955 0.173,-1.231 1.205,-1.231 H 3.192 V -3.772 H 0.451 c -2.164,0 -3.095,1.056 -3.095,3.095 v 7.395 h -1.838 v 2.489 h 1.838 v 2.944 H 0 V 9.207 H 3.192 V 6.718 L 0,6.718 Z" /></g><g
           transform="translate(129.191,17.6198)"
           id="g90"><path
             id="path92"
             style="fill:#000000;fill-opacity:1;fill-rule:nonzero;stroke:none"
             d="m 0,0 c 0,-1.961 1.132,-2.868 2.692,-2.868 1.56,0 2.692,0.907 2.692,2.868 v 7.798 h 2.64 V -5.181 h -2.64 v 1.233 c -0.378,-0.755 -1.66,-1.485 -3.018,-1.485 -2.237,0 -5.006,1.56 -5.006,5.382 V 7.798 H 0 Z" /></g><g
           transform="translate(154.9968,16.2111)"
           id="g94"><path
             id="path96"
             style="fill:#000000;fill-opacity:1;fill-rule:nonzero;stroke:none"
             d="M 0,0 C 0,-0.955 0.177,-1.231 1.209,-1.231 H 3.196 V -3.772 H 0.451 c -2.16,0 -3.091,1.056 -3.091,3.095 v 7.395 h -1.838 v 2.489 h 1.838 v 2.944 H 0 V 9.207 H 3.196 V 6.718 L 0,6.718 Z m -10.164,0 c 0,-0.955 0.177,-1.231 1.209,-1.231 h 1.987 v -2.541 h -2.741 c -2.164,0 -3.095,1.056 -3.095,3.095 v 7.395 h -1.838 v 2.489 h 1.838 v 2.944 h 2.64 V 9.207 h 3.196 V 6.718 h -3.196 z" /></g><g
           transform="translate(184.7078,44.3282)"
           id="g98"><path
             id="path100"
             style="fill:#000000;fill-opacity:1;fill-rule:nonzero;stroke:none"
             d="m 0,0 c 0,-1.963 1.132,-2.867 2.769,-2.867 1.632,0 2.765,0.904 2.765,2.867 V 1.963 C 5.534,3.924 4.401,4.828 2.769,4.828 1.132,4.828 0,3.924 0,1.963 Z M 5.534,-5.384 V -3.95 C 5.159,-4.705 3.873,-5.433 2.515,-5.433 c -2.237,0 -5.155,1.383 -5.155,5.383 v 2.061 c 0,4.002 2.918,5.385 5.155,5.385 1.358,0 2.644,-0.73 3.019,-1.486 V 7.043 H 8.177 V -5.433 c 0,-4.278 -3.147,-5.384 -5.408,-5.384 -2.14,0 -5.006,0.979 -5.36,4.627 h 2.668 c 0.278,-1.409 1.309,-2.086 2.692,-2.086 1.632,0 2.765,0.931 2.765,2.892" /></g></g></g><g
       id="g102"><g
         clip-path="url(#clipPath108)"
         id="g104"><g
           transform="translate(34.8491,62.3293)"
           id="g110"><path
             id="path112"
             style="fill:#000000;fill-opacity:1;fill-rule:nonzero;stroke:none"
             d="m 0,0 c -8.936,0 -16.206,-7.271 -16.206,-16.206 0,-8.937 7.27,-16.207 16.206,-16.207 8.938,0 16.21,7.27 16.21,16.207 C 16.21,-7.271 8.938,0 0,0 m 0,-35.281 c -10.515,0 -19.071,8.558 -19.071,19.075 0,10.515 8.556,19.074 19.071,19.074 10.518,0 19.073,-8.559 19.073,-19.074 0,-10.517 -8.555,-19.075 -19.073,-19.075" /></g><g
           transform="translate(46.2305,2.8347)"
           id="g114"><path
             id="path116"
             style="fill:#000000;fill-opacity:1;fill-rule:nonzero;stroke:none"
             d="M 0,0 -7.462,7.46 -14.926,0 l -7.464,7.46 -6.525,-6.521 -1.876,1.872 8.401,8.397 7.464,-7.458 7.464,7.458 7.46,-7.458 6.517,6.521 1.878,-1.876 z" /></g><g
           transform="translate(88.4695,55.9998)"
           id="g118"><path
             id="path120"
             style="fill:#000000;fill-opacity:1;fill-rule:nonzero;stroke:none"
             d="M 0,0 H 2.692 V -17.608 H 0.024 v 12.224 l -3.621,-7.497 h -2.215 l -3.623,7.497 v -12.224 h -2.664 V 0 h 2.692 l 4.704,-9.735 z" /></g><g
           transform="translate(97.8199,46.3655)"
           id="g122"><path
             id="path124"
             style="fill:#000000;fill-opacity:1;fill-rule:nonzero;stroke:none"
             d="M 0,0 V -0.026 H 5.533 V 0 C 5.509,1.886 4.377,2.817 2.769,2.817 1.132,2.817 0,1.886 0,0 M 5.409,-3.849 H 8.101 C 7.649,-7.297 4.856,-8.228 2.769,-8.228 c -2.265,0 -5.409,1.108 -5.409,5.385 v 2.817 c 0,4.276 3.144,5.384 5.409,5.384 2.263,0 5.406,-1.108 5.406,-5.384 V -2.364 H 0 v -0.429 c 0,-1.961 1.132,-2.892 2.769,-2.892 1.306,0 2.289,0.603 2.64,1.836" /></g><g
           transform="translate(113.3604,42.164)"
           id="g126"><path
             id="path128"
             style="fill:#000000;fill-opacity:1;fill-rule:nonzero;stroke:none"
             d="M 0,0 C 0,-0.955 0.177,-1.233 1.207,-1.233 H 3.194 V -3.772 H 0.451 c -2.162,0 -3.093,1.056 -3.093,3.093 v 7.395 h -1.836 v 2.491 h 1.836 v 2.942 H 0 V 9.207 H 3.194 V 6.716 L 0,6.716 Z" /></g><g
           transform="translate(122.5293,46.3655)"
           id="g130"><path
             id="path132"
             style="fill:#000000;fill-opacity:1;fill-rule:nonzero;stroke:none"
             d="M 0,0 V -0.026 H 5.534 V 0 C 5.51,1.886 4.378,2.817 2.769,2.817 1.132,2.817 0,1.886 0,0 M 5.41,-3.849 H 8.102 C 7.65,-7.297 4.857,-8.228 2.769,-8.228 c -2.265,0 -5.409,1.108 -5.409,5.385 v 2.817 c 0,4.276 3.144,5.384 5.409,5.384 2.266,0 5.409,-1.108 5.409,-5.384 V -2.364 H 0 v -0.429 c 0,-1.961 1.132,-2.892 2.769,-2.892 1.307,0 2.29,0.603 2.641,1.836" /></g><g
           transform="translate(142.5243,46.2909)"
           id="g134"><path
             id="path136"
             style="fill:#000000;fill-opacity:1;fill-rule:nonzero;stroke:none"
             d="M 0,0 C 0,1.961 -1.132,2.892 -2.769,2.892 -4.401,2.892 -5.533,1.961 -5.533,0 v -2.718 c 0,-1.961 1.132,-2.892 2.764,-2.892 1.637,0 2.769,0.931 2.769,2.892 z m -8.177,0.048 c 0,4.277 3.143,5.385 5.408,5.385 2.265,0 5.409,-1.108 5.409,-5.385 v -2.817 c 0,-4.276 -3.144,-5.384 -5.409,-5.384 -2.265,0 -5.408,1.108 -5.408,5.384 z" /></g><g
           transform="translate(154.2887,49.0315)"
           id="g138"><path
             id="path140"
             style="fill:#000000;fill-opacity:1;fill-rule:nonzero;stroke:none"
             d="M 0,0 C -1.632,0 -2.765,-0.905 -2.765,-2.866 V -10.64 H -5.404 V 2.34 h 2.639 V 1.082 c 0.375,0.756 1.661,1.485 3.019,1.485 H 1.261 V 0 Z" /></g><g
           transform="translate(166.4359,46.2909)"
           id="g142"><path
             id="path144"
             style="fill:#000000;fill-opacity:1;fill-rule:nonzero;stroke:none"
             d="M 0,0 C 0,1.961 -1.132,2.892 -2.765,2.892 -4.401,2.892 -5.533,1.961 -5.533,0 v -2.718 c 0,-1.961 1.132,-2.892 2.768,-2.892 1.633,0 2.765,0.931 2.765,2.892 z m -8.173,0.048 c 0,4.277 3.143,5.385 5.408,5.385 2.261,0 5.409,-1.108 5.409,-5.385 v -2.817 c 0,-4.276 -3.148,-5.384 -5.409,-5.384 -2.265,0 -5.408,1.108 -5.408,5.384 z" /></g><g
           transform="translate(175.5363,42.164)"
           id="g146"><path
             id="path148"
             style="fill:#000000;fill-opacity:1;fill-rule:nonzero;stroke:none"
             d="M 0,0 C 0,-0.955 0.177,-1.233 1.209,-1.233 H 1.612 V -3.772 H 0.455 c -2.164,0 -3.095,1.056 -3.095,3.093 V 13.836 H 0 Z" /></g><g
           transform="translate(188.5903,46.2909)"
           id="g150"><path
             id="path152"
             style="fill:#000000;fill-opacity:1;fill-rule:nonzero;stroke:none"
             d="M 0,0 C 0,1.961 -1.133,2.892 -2.769,2.892 -4.401,2.892 -5.534,1.961 -5.534,0 v -2.718 c 0,-1.961 1.133,-2.892 2.765,-2.892 1.636,0 2.769,0.931 2.769,2.892 z m -8.177,0.048 c 0,4.277 3.143,5.385 5.408,5.385 2.265,0 5.409,-1.108 5.409,-5.385 v -2.817 c 0,-4.276 -3.144,-5.384 -5.409,-5.384 -2.265,0 -5.408,1.108 -5.408,5.384 z" /></g><path
           id="path154"
           style="fill:#000000;fill-opacity:1;fill-rule:nonzero;stroke:none"
           d="m 212.449,38.392 h -2.64 v 12.979 h 2.64 z m 0,14.916 h -2.64 V 56 h 2.64 z" /><g
           transform="translate(216.0201,42.5428)"
           id="g156"><path
             id="path158"
             style="fill:#000000;fill-opacity:1;fill-rule:nonzero;stroke:none"
             d="m 0,0 h 2.716 c 0.202,-1.284 1.435,-1.862 2.846,-1.862 1.155,0 2.136,0.302 2.136,1.358 0,0.879 -0.782,1.157 -1.637,1.358 L 3.599,1.483 C 1.886,1.91 0.302,2.865 0.302,5.356 c 0,2.567 2.064,3.825 4.704,3.825 2.793,0 4.73,-1.258 4.98,-4.149 H 7.219 C 7.017,6.162 6.037,6.64 4.828,6.64 4.026,6.64 2.97,6.338 2.97,5.306 2.97,4.526 3.724,4.274 4.429,4.101 L 6.814,3.496 C 9.181,2.892 10.366,1.886 10.366,-0.58 10.337,-3.146 8.352,-4.405 5.534,-4.405 2.539,-4.405 0.153,-2.97 0,0" /></g><g
           transform="translate(232.4442,46.0894)"
           id="g160"><path
             id="path162"
             style="fill:#000000;fill-opacity:1;fill-rule:nonzero;stroke:none"
             d="M 0,0 4.851,5.282 H 8.048 L 3.368,0.201 8.753,-7.698 H 5.683 L 1.607,-1.711 0,-3.472 V -7.698 H -2.645 V 9.91 H 0 Z" /></g><path
           id="path164"
           style="fill:#000000;fill-opacity:1;fill-rule:nonzero;stroke:none"
           d="m 78.886,12.439 h -2.642 v 12.979 h 2.642 z m 0,14.918 h -2.642 v 2.69 h 2.642 z" /><g
           transform="translate(85.8963,12.4388)"
           id="g166"><path
             id="path168"
             style="fill:#000000;fill-opacity:1;fill-rule:nonzero;stroke:none"
             d="M 0,0 H -2.642 V 12.979 H 0 v -1.13 c 0.377,0.754 1.66,1.483 3.017,1.483 2.24,0 5.158,-1.384 5.158,-5.384 V 0 H 5.533 v 7.897 c 0,1.963 -1.13,2.87 -2.766,2.87 C 1.13,10.767 0,9.86 0,7.897 Z" /></g><g
           transform="translate(114.8195,16.2111)"
           id="g170"><path
             id="path172"
             style="fill:#000000;fill-opacity:1;fill-rule:nonzero;stroke:none"
             d="M 0,0 C 0,-0.955 0.175,-1.231 1.207,-1.231 H 3.196 V -3.772 H 0.451 c -2.162,0 -3.093,1.056 -3.093,3.095 v 7.395 h -1.836 v 2.489 h 1.836 v 2.944 H 0 V 9.207 H 3.196 V 6.718 L 0,6.718 Z m -17.409,0.377 h 2.719 c 0.201,-1.282 1.432,-1.86 2.841,-1.86 1.157,0 2.138,0.302 2.138,1.358 0,0.881 -0.78,1.157 -1.634,1.358 l -2.467,0.629 c -1.709,0.427 -3.295,1.382 -3.295,3.875 0,2.563 2.062,3.823 4.706,3.823 2.791,0 4.727,-1.26 4.979,-4.151 h -2.766 c -0.202,1.132 -1.181,1.61 -2.39,1.61 -0.807,0 -1.863,-0.301 -1.863,-1.334 0,-0.778 0.756,-1.032 1.46,-1.207 l 2.39,-0.603 c 2.365,-0.604 3.546,-1.61 3.546,-4.074 -0.024,-2.568 -2.011,-3.825 -4.828,-3.825 -2.995,0 -5.385,1.433 -5.536,4.401" /></g><path
           id="path174"
           style="fill:#000000;fill-opacity:1;fill-rule:nonzero;stroke:none"
           d="m 124.319,12.439 h -2.64 v 12.979 h 2.64 z m 0,14.918 h -2.64 v 2.69 h 2.64 z" /><g
           transform="translate(132.3682,16.2111)"
           id="g176"><path
             id="path178"
             style="fill:#000000;fill-opacity:1;fill-rule:nonzero;stroke:none"
             d="M 0,0 C 0,-0.955 0.173,-1.231 1.205,-1.231 H 3.192 V -3.772 H 0.451 c -2.164,0 -3.095,1.056 -3.095,3.095 v 7.395 h -1.838 v 2.489 h 1.838 v 2.944 H 0 V 9.207 H 3.192 V 6.718 L 0,6.718 Z" /></g><g
           transform="translate(141.7949,17.6198)"
           id="g180"><path
             id="path182"
             style="fill:#000000;fill-opacity:1;fill-rule:nonzero;stroke:none"
             d="m 0,0 c 0,-1.961 1.132,-2.868 2.692,-2.868 1.56,0 2.692,0.907 2.692,2.868 v 7.798 h 2.64 V -5.181 h -2.64 v 1.233 c -0.378,-0.755 -1.66,-1.485 -3.018,-1.485 -2.237,0 -5.006,1.56 -5.006,5.382 V 7.798 H 0 Z" /></g><g
           transform="translate(167.6007,16.2111)"
           id="g184"><path
             id="path186"
             style="fill:#000000;fill-opacity:1;fill-rule:nonzero;stroke:none"
             d="M 0,0 C 0,-0.955 0.177,-1.231 1.209,-1.231 H 3.196 V -3.772 H 0.451 c -2.16,0 -3.091,1.056 -3.091,3.095 v 7.395 h -1.838 v 2.489 h 1.838 v 2.944 H 0 V 9.207 H 3.196 V 6.718 L 0,6.718 Z m -10.164,0 c 0,-0.955 0.177,-1.231 1.209,-1.231 h 1.987 v -2.541 h -2.741 c -2.164,0 -3.095,1.056 -3.095,3.095 v 7.395 h -1.838 v 2.489 h 1.838 v 2.944 h 2.64 V 9.207 h 3.196 V 6.718 h -3.196 z" /></g><g
           transform="translate(197.3116,44.3282)"
           id="g188"><path
             id="path190"
             style="fill:#000000;fill-opacity:1;fill-rule:nonzero;stroke:none"
             d="m 0,0 c 0,-1.963 1.132,-2.867 2.769,-2.867 1.632,0 2.765,0.904 2.765,2.867 V 1.963 C 5.534,3.924 4.401,4.828 2.769,4.828 1.132,4.828 0,3.924 0,1.963 Z M 5.534,-5.384 V -3.95 C 5.159,-4.705 3.873,-5.433 2.515,-5.433 c -2.237,0 -5.155,1.383 -5.155,5.383 v 2.061 c 0,4.002 2.918,5.385 5.155,5.385 1.358,0 2.644,-0.73 3.019,-1.486 V 7.043 H 8.177 V -5.433 c 0,-4.278 -3.147,-5.384 -5.408,-5.384 -2.14,0 -5.006,0.979 -5.36,4.627 h 2.668 c 0.278,-1.409 1.309,-2.086 2.692,-2.086 1.632,0 2.765,0.931 2.765,2.892" /></g></g></g></g></svg>