<svg version="1.1" id="Layer_1" xmlns="http://www.w3.org/2000/svg" xmlns:xlink="http://www.w3.org/1999/xlink" x="0" y="0" viewBox="0 0 172.2 68" xml:space="preserve"><style>.st0{clip-path:url(#SVGID_2_)}.st1{clip-path:url(#SVGID_4_)}.st3{clip-path:url(#SVGID_8_)}.st4{clip-path:url(#SVGID_10_)}.st5{clip-path:url(#SVGID_12_)}.st6{clip-path:url(#SVGID_14_)}.st7{clip-path:url(#SVGID_16_)}.st9{clip-path:url(#SVGID_20_)}</style><defs><path id="SVGID_1_" d="M76.5 14.6H153V37H76.5z"/></defs><clipPath id="SVGID_2_"><use xlink:href="#SVGID_1_" overflow="visible"/></clipPath><path class="st0" d="M88.3 31.5H86c-2.4-3.8-4.8-7.6-7.3-11.4h-.2v11.3h-2v-15h1.9c.2 0 .5.3.7.5.6 1 1.3 1.9 1.9 2.9 1.6 2.4 3.1 4.9 4.7 7.3.2.2.3.5.5.7.1 0 .1 0 .2-.1V16.5c.3 0 .5-.1.7-.1h1.1c.2.7.2 13.7.1 15.1M170.6 31.4c-.2 0-.4.1-.5.1h-1.5v-.9-5.3-.9c-.1-1.7-1.5-2.6-3.1-2.1-1.3.4-1.9 1.3-1.9 2.6v6.5h-2c0-.3-.1-.6-.1-.9v-5.3-1c-.2-1.5-1.3-2.3-2.8-2-.9.2-1.6.7-2 1.5-.1.2-.1.6-.2.9v6.8h-2V20.6h1.9c0 .3.1.6.1 1 2.3-1.6 4.5-1.9 6.5.5.2-.1.3-.3.5-.4 1.1-1 2.4-1.4 3.9-1.3 1.6.2 2.9 1.4 3.1 3.1.1.5.1.9.1 1.4v6.5zM215.2 26.5h-7.9c-.1 1.5.7 2.9 2 3.3 1.5.5 2.7.1 4-1.7.5.2 1.1.4 1.7.7-.2.4-.4.7-.6 1-1.5 1.8-3.4 2.2-5.5 1.6-2.2-.6-3.3-2.2-3.6-4.3-.2-1.3-.1-2.7.5-3.9.9-2.1 2.9-3.2 5.2-2.9 2.2.3 3.8 1.9 4.2 4.1-.1.7-.1 1.3 0 2.1m-2.3-1.7c0-1.6-1.3-2.9-2.8-2.9-1.5.1-2.7 1.2-2.7 2.9h5.5zM203.7 26.5h-7.8c-.2 1.4.7 2.8 1.9 3.3 1.5.6 2.7.1 4.1-1.7.5.2 1.1.4 1.7.7-.3.4-.4.8-.7 1.1-1.4 1.7-3.3 2.1-5.4 1.6-2.2-.5-3.3-2.1-3.7-4.2-.3-1.4-.1-2.8.5-4.1 1-2.1 3-3.2 5.3-2.8 2.2.3 3.8 2 4.1 4.3.1.5 0 1.1 0 1.8m-7.7-1.7h5.6c0-1.6-1-2.7-2.5-2.8-1.7-.1-2.9.9-3.1 2.8M147.7 31.4h-1.9c-.1-.4-.1-.7-.2-1-.3.2-.5.3-.7.5-1.2.8-2.6 1-4 .6-1.3-.4-2-1.3-2.2-2.6s.4-2.4 1.6-3c1-.6 2-.8 3.1-.9.7-.1 1.4-.2 2.1-.2.3-1.3-.2-2.2-1.4-2.6-1.6-.5-2.7.1-3.5 2H139c0-1.2.5-2.2 1.5-2.9 1.5-1.2 4.2-1.2 5.8-.1.9.6 1.4 1.5 1.5 2.6.1.7.1 1.4.1 2.1v4.6c-.2.3-.2.6-.2.9m-2-5.1c-.6 0-1 .1-1.4.1-.9.1-1.9.2-2.7.7-.7.4-1 1-.9 1.7.1.7.6 1.1 1.3 1.3 1.2.3 2.8-.4 3.5-1.5.1-.1.2-.3.2-.4v-1.9M92.4 24.2h-1.1c-.2 0-.4 0-.7-.1.1-1.5.8-2.6 2.1-3.2 1.6-.8 3.2-.8 4.8.1 1.2.6 1.8 1.8 1.9 3.1v7.4h-1.9c0-.3-.1-.6-.2-1-.3.2-.5.3-.7.5-1.3.9-2.7 1.1-4.2.6-1.2-.4-1.9-1.3-2.1-2.6-.1-1.3.4-2.3 1.5-3 1-.6 2-.8 3.1-.9.7-.1 1.4-.2 2.2-.2.4-1.1-.2-2.1-1.3-2.5-1.6-.8-2.8-.2-3.4 1.8m5 2.1c-.7.1-1.3.1-1.8.2-.7.1-1.4.3-2.1.5-.8.3-1.2 1-1.1 1.7.1.8.7 1.3 1.6 1.4 1.3.1 2.2-.4 3.1-1.3.6-.8.2-1.6.3-2.5M125.3 26c-.1.6-.1 1.2-.3 1.8-.6 2.5-2.7 4-5.2 3.9-2.5-.1-4.5-1.8-5-4.3-.2-1-.2-2.1.1-3.1.7-2.7 2.9-4.2 5.6-4 2.5.2 4.4 2.2 4.7 4.8 0 .4.1.6.1.9m-8.6 0c.2.7.3 1.4.6 2.1.5 1.2 1.5 1.8 2.7 1.8 1.3 0 2.2-.6 2.8-1.7.7-1.4.7-2.9 0-4.3-.6-1.2-1.5-1.8-2.8-1.8-1.3 0-2.2.7-2.7 1.9-.4.7-.5 1.3-.6 2M136.8 31.4h-1.9v-1-5.5c0-2.3-1.7-3.5-3.9-2.6-.5.2-.9.5-1.3.9s-.6.8-.6 1.4V31.4h-2V20.6h1.9c0 .3.1.6.2 1 .2-.1.4-.3.6-.4 1.1-.8 2.4-1 3.7-.9 1.9.3 3.3 1.6 3.3 3.6.1 2.4 0 4.8 0 7.2.1.2 0 .2 0 .3M173 20.6h1.9c0 .3.1.6.1.9V27.4c.1 1.1.6 1.9 1.7 2.3 1.2.4 2.3.3 3.2-.6.6-.5.7-1.2.7-2v-6.5h2c0 .3.1.7.1 1 0 1.8-.1 3.5 0 5.3.1 3.1-2 4.8-4.6 4.8-.9 0-1.8-.1-2.7-.5-1.5-.7-2.4-1.9-2.4-3.5-.1-2.3 0-4.6 0-6.8-.1-.1-.1-.1 0-.3M100.7 28.5c.6-.2 1-.4 1.6-.7.2.3.3.5.4.8.8 1.3 2.1 1.7 3.6 1.2.6-.2 1.1-.6 1.1-1.3.1-.7-.3-1.2-.9-1.5-.7-.3-1.4-.5-2.1-.7-.6-.2-1.3-.4-1.8-.7-1.6-.9-1.8-3.1-.4-4.3 2-1.8 5.7-1 6.8 1.4.1.1.1.2.1.4-.5.2-1 .5-1.5.7-.1-.2-.2-.3-.3-.4-.7-1.2-1.7-1.6-3-1.4-.5.1-1 .3-1.1.9-.2.6.1 1.1.7 1.4.6.3 1.3.4 1.9.6.7.2 1.4.4 2 .7 2 1.1 2.1 3.9.4 5.2-2.3 1.8-6 .9-7.3-1.8-.1 0-.1-.2-.2-.5"/><g><defs><path id="SVGID_3_" d="M76.5 16H153v19.5H76.5z"/></defs><clipPath id="SVGID_4_"><use xlink:href="#SVGID_3_" overflow="visible"/></clipPath><path class="st1" d="M183.9 28.5c.5-.2 1-.4 1.6-.6.1.2.3.5.4.7.8 1.5 2.1 1.7 3.5 1.4.7-.2 1.2-.7 1.3-1.4.1-.6-.3-1.2-1.1-1.5-.7-.3-1.4-.5-2.1-.7-.6-.2-1.3-.4-1.8-.8-1.6-.9-1.7-3.1-.4-4.3 2-1.8 5.8-1.1 6.9 1.3 0 .1.1.2.1.4-.5.2-1 .5-1.5.7-.1-.2-.2-.3-.3-.5-.7-1.3-2-1.5-3.1-1.2-.6.2-1 .6-1 1.1 0 .6.3 1 .9 1.2.6.2 1.2.3 1.8.5.7.2 1.4.4 2 .8 1.9 1.1 2.1 3.8.4 5.2-2.5 2-6.5.8-7.6-2.3M220.9 30.3c-.3.6-.6 1.1-.9 1.7-1.3-.6-2-1.6-2.2-2.9-.1-.5-.1-1.1-.1-1.6v-4.1-1h-1.9v-1.7c.7 0 1.3-.1 2-.1v-1.9c0-.9 0-.9.8-1.1.3-.1.7-.2 1.1-.3.3 1.1 0 2.3.2 3.4.6 0 1.2.1 1.9.1v1.7h-1.9c0 .3-.1.6-.1.9v4.4c-.1.8.1 1.8 1.1 2.5"/></g><g><defs><path id="SVGID_5_" d="M76.5 14.6H153V37H76.5z"/></defs><clipPath id="SVGID_6_"><use xlink:href="#SVGID_5_" overflow="visible"/></clipPath><path d="M150.1 16.3h1.9v15.1h-1.8c-.2-.6-.3-13.4-.1-15.1" clip-path="url(#SVGID_6_)"/></g><g><defs><path id="SVGID_7_" d="M76.5 16H153v19.5H76.5z"/></defs><clipPath id="SVGID_8_"><use xlink:href="#SVGID_7_" overflow="visible"/></clipPath><path class="st3" d="M110.9 20.6h2c0 .3.1.6.1.9V31c0 .6-.1 1.2-.1 1.7-.2 1.2-.9 2.2-2.1 2.8-.3-.5-.6-1.1-1-1.7 1.2-.8 1.2-2 1.2-3.2v-10zM111.9 18.8c-.8 0-1.4-.6-1.4-1.4 0-.8.6-1.4 1.4-1.4.8 0 1.5.6 1.4 1.4 0 .8-.6 1.4-1.4 1.4"/></g><g><defs><path id="SVGID_9_" d="M2.8 2.8h48.8v62.4H2.8z"/></defs><clipPath id="SVGID_10_"><use xlink:href="#SVGID_9_" overflow="visible"/></clipPath><path class="st4" d="M35.7 44.6h-5.9c-.3 0-.4-.1-.6-.3-1.4-2.2-2.9-4.5-4.3-6.7-1.8-2.9-3.7-5.7-5.5-8.6-1.3-2-2.6-4.1-3.9-6.1l-5.7-9-1.2-1.8c0-.1-.1-.1-.2-.2v32.7H2.8V2.8H8.7c.3 0 .4.1.6.3.8 1.4 1.7 2.6 2.5 3.9 1.6 2.6 3.3 5.1 4.9 7.7 1.7 2.6 3.3 5.2 5 7.8l4.2 6.6c1.4 2.1 2.7 4.3 4.1 6.4 0 .1.1.1.2.3V2.9h5.6v41.7zM8.3 51.7v2.2c2.6-2 5.6-2.9 8.9-2.5 3.3.4 5.9 2 7.9 4.6.5-.5 1-1.1 1.5-1.6 1.6-1.5 3.5-2.5 5.7-2.9 1.8-.3 3.5-.3 5.2.2 2.1.5 3.9 1.6 5.4 3.1 1.3 1.3 2.3 2.9 2.8 4.7.3 1.1.5 2.2.5 3.3v2.3H41v-.3c0-1 0-1.9-.1-2.9-.3-2.9-2.7-5.2-5.5-5.6-1.8-.2-3.5 0-5.1 1.1-1.5 1-2.4 2.5-2.7 4.3-.1.5-.1 1.1-.1 1.6v1.8h-5.3v-.3c0-1 0-1.9-.1-2.9-.3-2.9-2.7-5.2-5.6-5.6-1.8-.2-3.5.1-5.1 1.1-1.5 1-2.4 2.5-2.7 4.3-.1.5-.1 1.1-.1 1.6v1.8H2.8V51.7h5.5z"/></g><g><defs><path id="SVGID_11_" d="M2.8 2.8h48.8v62.4H2.8z"/></defs><clipPath id="SVGID_12_"><use xlink:href="#SVGID_11_" overflow="visible"/></clipPath><path class="st5" d="M51.6 40.3v5.1c-3.2-.1-5.9-1.4-7.9-3.9-2.4-3.1-2.7-7.5-.8-11 2-3.5 5.6-5.1 8.6-5v5c-1.7.1-3 .8-4 2.1-.7 1-.9 2-.8 3.2.2 2.1 1.9 4.4 4.9 4.5M42.6 23c-.1-5.2 4.1-9.5 9-9.9v5.1c-2.4.7-3.8 2.3-4 4.8h-5z"/></g><g><defs><path id="SVGID_13_" d="M75.5 34H144v22.4H75.5z"/></defs><clipPath id="SVGID_14_"><use xlink:href="#SVGID_13_" overflow="visible"/></clipPath><path class="st6" d="M10.6 50.9H8.4C6 47.1 3.6 43.3 1.1 39.5H.9v11.3h-2v-15H.8c.2 0 .5.3.7.5.6 1 1.3 1.9 1.9 2.9 1.6 2.4 3.1 4.9 4.7 7.3.2.2.3.5.5.7.1 0 .1 0 .2-.1V35.9c.3 0 .5-.1.7-.1h1.1c.1.7.2 13.7 0 15.1M92.9 50.8c-.2 0-.4.1-.5.1h-1.5V50v-5.3-.9c-.1-1.7-1.5-2.6-3.1-2.1-1.3.4-1.9 1.3-1.9 2.6v6.5h-2c0-.3-.1-.6-.1-.9v-5.3-1c-.2-1.5-1.3-2.3-2.8-2-.9.2-1.6.7-2 1.5-.1.2-.2.6-.2.9v6.8h-2V40h1.9c0 .3.1.6.1 1 2.3-1.6 4.5-1.9 6.5.5.2-.1.3-.3.5-.4 1.1-1 2.4-1.4 3.9-1.3 1.6.2 2.9 1.4 3.1 3.1.1.4.1.9.1 1.4v6.5zM137.5 45.9h-7.9c-.1 1.5.7 2.9 2 3.3 1.5.5 2.7.1 4-1.7.5.2 1.1.4 1.7.7-.2.4-.4.7-.6 1-1.5 1.8-3.4 2.2-5.5 1.6-2.2-.6-3.3-2.2-3.6-4.3-.2-1.3-.1-2.7.5-3.9.9-2.1 2.9-3.2 5.2-2.9 2.2.3 3.8 1.9 4.2 4.1v2.1m-2.2-1.7c0-1.6-1.3-2.9-2.8-2.9-1.5.1-2.7 1.2-2.7 2.9h5.5zM126.1 45.9h-7.8c-.2 1.4.7 2.8 1.9 3.3 1.5.6 2.7.1 4.1-1.7.5.2 1.1.4 1.7.7-.3.4-.4.8-.7 1.1-1.4 1.7-3.3 2.1-5.4 1.6-2.2-.5-3.3-2.1-3.7-4.2-.3-1.4-.1-2.8.5-4.1 1-2.1 3-3.2 5.3-2.8 2.2.3 3.8 2 4.1 4.3v1.8m-7.8-1.7h5.6c0-1.6-1-2.7-2.5-2.8-1.7-.1-2.9.9-3.1 2.8M70 50.8h-1.9c-.1-.4-.1-.7-.2-1-.3.2-.5.3-.7.5-1.2.8-2.6 1-4 .6-1.3-.4-2-1.3-2.2-2.6s.4-2.4 1.6-3c1-.6 2-.8 3.1-.9.7-.1 1.4-.2 2.1-.2.3-1.3-.2-2.2-1.4-2.6-1.6-.5-2.7.1-3.5 2h-1.7c0-1.2.5-2.2 1.5-2.9 1.5-1.2 4.2-1.2 5.8-.1.9.6 1.4 1.5 1.5 2.6.1.7.1 1.4.1 2.1v4.6c0 .3-.1.6-.1.9m-1.9-5.1c-.6 0-1 .1-1.4.1-.9.1-1.9.2-2.7.7-.7.4-1 1-.9 1.7.1.7.6 1.1 1.3 1.3 1.2.3 2.8-.4 3.5-1.5.1-.1.2-.3.2-.4v-1.9M14.7 43.6h-1.1c-.2 0-.4 0-.7-.1.1-1.5.8-2.6 2.1-3.2 1.6-.8 3.2-.8 4.8.1 1.2.6 1.8 1.8 1.9 3.1v7.4h-1.9c0-.3-.1-.6-.2-1-.3.2-.5.3-.7.5-1.3.9-2.7 1.1-4.2.6-1.2-.4-1.9-1.3-2.1-2.6-.1-1.3.4-2.3 1.5-3 1-.6 2-.8 3.1-.9.7-.1 1.4-.2 2.2-.2.4-1.1-.2-2.1-1.3-2.5-1.5-.8-2.7-.2-3.4 1.8m5 2.1c-.7.1-1.3.1-1.8.2-.7.1-1.4.3-2.1.5-.8.3-1.2 1-1.1 1.7.1.8.7 1.3 1.6 1.4 1.3.2 2.2-.4 3.1-1.3.6-.7.2-1.6.3-2.5M47.7 45.4c-.1.6-.1 1.2-.3 1.8-.6 2.5-2.7 4-5.2 3.9-2.5-.1-4.5-1.8-5-4.3-.2-1-.2-2.1.1-3.1.7-2.7 2.9-4.2 5.6-4 2.5.2 4.4 2.2 4.7 4.8 0 .4 0 .6.1.9-.1 0-.1 0 0 0m-8.7.1c.2.7.3 1.4.6 2.1.5 1.2 1.5 1.8 2.7 1.8 1.3 0 2.2-.6 2.8-1.7.7-1.4.7-2.9 0-4.3-.6-1.2-1.5-1.8-2.8-1.8-1.3 0-2.2.7-2.7 1.9-.4.6-.4 1.3-.6 2M59.1 50.8h-1.9v-1-5.5c0-2.3-1.7-3.5-3.9-2.6-.5.2-.9.5-1.3.9s-.6.8-.6 1.4V50.8h-2V40.1h1.9c0 .3.1.6.2 1 .2-.1.4-.3.6-.4 1.1-.8 2.4-1 3.7-.9 1.9.3 3.3 1.6 3.3 3.6.1 2.4 0 4.8 0 7.2.1.1 0 .1 0 .2M95.3 40h1.9c0 .3.1.6.1.9V46.8c.1 1.1.6 1.9 1.7 2.3 1.2.4 2.3.3 3.2-.6.6-.5.7-1.2.7-2V40h2c0 .3.1.7.1 1 0 1.8-.1 3.5 0 5.3.1 3.1-2 4.8-4.6 4.8-.9 0-1.8-.1-2.7-.5-1.5-.7-2.4-1.9-2.4-3.5-.1-2.3 0-4.6 0-6.8-.1 0 0-.1 0-.3M23 47.9c.6-.2 1-.4 1.6-.7.2.3.3.5.4.8.8 1.3 2.1 1.7 3.6 1.2.6-.2 1.1-.6 1.1-1.3.1-.7-.3-1.2-.9-1.5-.7-.3-1.4-.5-2.1-.7-.6-.2-1.3-.4-1.8-.7-1.6-.9-1.8-3.1-.4-4.3 2-1.8 5.7-1 6.8 1.4.1.1.1.2.1.4-.5.2-1 .5-1.5.7-.1-.2-.2-.3-.3-.4-.7-1.2-1.7-1.6-3-1.4-.5.1-1 .3-1.1.9-.2.6.1 1.1.7 1.4.6.3 1.3.4 1.9.6.7.2 1.4.4 2 .7 2 1.1 2.1 3.9.4 5.2-2.3 1.8-6 .9-7.3-1.8-.1 0-.1-.2-.2-.5"/></g><g><defs><path id="SVGID_15_" d="M75.5 35.4H144v19.5H75.5z"/></defs><clipPath id="SVGID_16_"><use xlink:href="#SVGID_15_" overflow="visible"/></clipPath><path class="st7" d="M106.3 47.9c.5-.2 1-.4 1.6-.6.1.2.3.5.4.7.8 1.5 2.1 1.7 3.5 1.4.7-.1 1.2-.7 1.3-1.4.1-.6-.3-1.2-1.1-1.5-.7-.3-1.4-.5-2.1-.7-.6-.2-1.3-.4-1.8-.8-1.6-.9-1.7-3.1-.4-4.3 2-1.8 5.8-1.1 6.9 1.3 0 .1.1.2.1.4-.5.2-1 .5-1.5.7-.1-.2-.2-.3-.3-.5-.7-1.3-2-1.5-3.1-1.2-.6.2-1 .6-1 1.1 0 .6.3 1 .9 1.2.6.2 1.2.3 1.8.5.7.2 1.4.4 2 .8 1.9 1.1 2.1 3.8.4 5.2-2.6 2-6.5.9-7.6-2.3M143.3 49.7c-.3.6-.6 1.1-.9 1.7-1.3-.6-2-1.6-2.2-2.9-.1-.5-.1-1.1-.1-1.6v-4.1-1H138V40c.7 0 1.3-.1 2-.1V38c0-.9 0-.9.8-1.1.3-.1.7-.2 1.1-.3.3 1.1 0 2.3.2 3.4.6 0 1.2.1 1.9.1v1.7h-1.9c0 .3-.1.6-.1.9v4.4c0 1 .2 1.9 1.3 2.6"/></g><g><defs><path id="SVGID_17_" d="M75.5 34H144v22.4H75.5z"/></defs><clipPath id="SVGID_18_"><use xlink:href="#SVGID_17_" overflow="visible"/></clipPath><path d="M72.5 35.7h1.9v15.1h-1.8c-.3-.6-.3-13.4-.1-15.1" clip-path="url(#SVGID_18_)"/></g><g><defs><path id="SVGID_19_" d="M75.5 35.4H144v19.5H75.5z"/></defs><clipPath id="SVGID_20_"><use xlink:href="#SVGID_19_" overflow="visible"/></clipPath><path class="st9" d="M33.2 40h2c0 .3.1.6.1.9v9.5c0 .6-.1 1.2-.1 1.7-.2 1.2-.9 2.2-2.1 2.8-.3-.5-.6-1.1-1-1.7 1.2-.8 1.2-2 1.2-3.2V40zM34.2 38.2c-.8 0-1.4-.6-1.4-1.4 0-.8.6-1.4 1.4-1.4.8 0 1.5.6 1.4 1.4 0 .8-.6 1.4-1.4 1.4"/></g><path d="M154.8 24.9h6.1v1.7h-6.1z"/></svg>