<?xml version="1.0" encoding="UTF-8" standalone="no"?>
<svg
   xmlns:dc="http://purl.org/dc/elements/1.1/"
   xmlns:cc="http://creativecommons.org/ns#"
   xmlns:rdf="http://www.w3.org/1999/02/22-rdf-syntax-ns#"
   xmlns:svg="http://www.w3.org/2000/svg"
   xmlns="http://www.w3.org/2000/svg"
   viewBox="0 0 285.82666 90.708664"
   height="90.708664"
   width="285.82666"
   xml:space="preserve"
   id="svg2"
   version="1.1"><metadata
     id="metadata8"><rdf:RDF><cc:Work
         rdf:about=""><dc:format>image/svg+xml</dc:format><dc:type
           rdf:resource="http://purl.org/dc/dcmitype/StillImage" /></cc:Work></rdf:RDF></metadata><defs
     id="defs6"><clipPath
       id="clipPath18"
       clipPathUnits="userSpaceOnUse"><path
         id="path16"
         d="M 2.835,2.835 H 65.197 V 65.197 H 2.835 Z" /></clipPath><clipPath
       id="clipPath44"
       clipPathUnits="userSpaceOnUse"><path
         id="path42"
         d="M 73.701,2.835 H 211.535 V 65.197 H 73.701 Z" /></clipPath><clipPath
       id="clipPath60"
       clipPathUnits="userSpaceOnUse"><path
         id="path58"
         d="M 73.701,5.271 H 211.18 V 62.76 H 73.701 Z" /></clipPath><clipPath
       id="clipPath76"
       clipPathUnits="userSpaceOnUse"><path
         id="path74"
         d="M 73.701,2.835 H 211.535 V 65.197 H 73.701 Z" /></clipPath></defs><g
     transform="matrix(1.3333333,0,0,-1.3333333,0,90.708667)"
     id="g10"><g
       id="g12"><g
         clip-path="url(#clipPath18)"
         id="g14"><g
           transform="translate(74.6726,37.4312)"
           id="g20"><path
             id="path22"
             style="fill:#000000;fill-opacity:1;fill-rule:nonzero;stroke:none"
             d="M 0,0 H 5.068 V -1.102 H 1.322 V -3.305 H 4.407 V -4.407 H 1.322 V -7.492 H 0 Z m 10.797,-7.712 c -2.203,0 -3.966,1.541 -3.966,3.967 0,2.203 1.542,3.966 3.966,3.966 2.204,0 3.966,-1.543 3.966,-3.966 0,-2.426 -1.541,-3.967 -3.966,-3.967 m 0,6.831 c -1.542,0 -2.644,-1.102 -2.644,-2.864 0,-1.763 1.102,-2.865 2.644,-2.865 1.543,0 2.645,1.102 2.645,2.865 0,1.762 -1.102,2.864 -2.645,2.864 m 7.934,-6.611 H 17.408 V 0 h 2.645 c 1.983,0 3.085,-0.881 3.085,-2.424 0,-1.102 -0.662,-1.763 -1.543,-2.204 l 1.983,-3.084 h -1.542 l -1.763,2.644 h -1.542 z m 1.322,3.526 c 1.321,0 1.763,0.661 1.763,1.322 0,0.882 -0.661,1.322 -1.763,1.322 H 18.731 V -3.966 Z M 26.002,0 h 5.069 v -1.102 h -3.746 v -2.203 h 3.084 V -4.407 H 27.325 V -7.492 H 26.002 Z M 39.444,-7.492 H 38.122 L 37.461,-5.73 H 34.156 L 33.494,-7.492 H 32.173 L 35.037,0 h 1.543 z m -3.746,6.39 -1.322,-3.305 H 36.8 Z m 8.373,0 v -6.39 H 42.75 v 6.39 H 40.105 V 0 h 6.611 v -1.102 z m 7.934,0 v -6.39 h -1.323 v 6.39 H 48.039 V 0 h 6.611 v -1.102 z m 4.849,-6.39 V 0 h 5.068 v -1.102 h -3.747 v -1.983 h 3.086 v -1.102 h -3.086 v -1.984 h 3.747 v -1.321 z m 9.034,0 H 64.566 V 0 h 2.643 c 1.984,0 3.086,-0.881 3.086,-2.424 0,-1.102 -0.661,-1.763 -1.543,-2.204 l 1.984,-3.084 h -1.543 l -1.762,2.644 h -1.543 z m 1.321,3.526 c 1.324,0 1.765,0.661 1.765,1.322 0,0.882 -0.663,1.322 -1.765,1.322 h -1.321 v -2.644 z m 5.29,-0.441 h 3.966 v 1.322 h -3.966 z m 14.104,-3.305 c -2.204,0 -3.969,1.541 -3.969,3.967 0,2.203 1.543,3.966 3.969,3.966 2.203,0 3.966,-1.543 3.966,-3.966 0,-2.426 -1.543,-3.967 -3.966,-3.967 m 0,6.831 c -1.543,0 -2.645,-1.102 -2.645,-2.864 0,-1.763 1.102,-2.865 2.645,-2.865 1.54,0 2.642,1.102 2.642,2.865 0,1.762 -1.102,2.864 -2.642,2.864 M 96.738,-6.61 c 0.661,0 1.102,0.22 1.543,0.439 v 1.543 h -1.984 v 1.102 h 3.306 v -3.525 c -0.881,-0.441 -1.982,-0.661 -2.865,-0.661 -2.423,0 -3.966,1.541 -3.966,3.967 0,2.423 1.543,3.966 3.966,3.966 0.883,0 1.984,-0.221 2.645,-0.661 l -0.441,-1.102 c -0.661,0.44 -1.543,0.661 -2.204,0.661 -1.543,0 -2.644,-1.102 -2.644,-2.864 0,-1.763 1.101,-2.865 2.644,-2.865 M 5.288,14.765 H 6.611 V 7.052 H 5.288 l -3.966,5.73 V 7.052 H 0 v 7.713 h 1.542 l 3.746,-5.73 z m 7.713,-7.713 c -2.204,0 -3.966,1.542 -3.966,3.966 0,2.204 1.542,3.967 3.966,3.967 2.204,0 3.966,-1.543 3.966,-3.967 0,-2.204 -1.542,-3.966 -3.966,-3.966 m 0,6.831 c -1.543,0 -2.645,-1.101 -2.645,-2.865 0,-1.762 1.102,-2.864 2.645,-2.864 1.543,0 2.645,1.102 2.645,2.864 0,1.764 -1.102,2.865 -2.645,2.865 m 7.933,-6.61 h -1.322 v 7.492 h 2.645 c 1.983,0 3.084,-0.882 3.084,-2.425 0,-1.101 -0.661,-1.762 -1.542,-2.203 L 25.782,7.052 H 24.24 l -1.764,2.644 h -1.542 z m 1.323,3.745 c 1.321,0 1.762,0.662 1.762,1.322 0,0.882 -0.66,1.323 -1.762,1.323 h -1.323 v -2.645 z m 9.695,-1.762 c 0,0.66 -0.661,0.881 -1.763,1.322 -1.102,0.219 -2.423,0.661 -2.423,2.204 0,1.321 1.102,2.203 2.643,2.203 0.882,0 1.764,-0.22 2.645,-0.662 l -0.441,-1.101 c -0.661,0.441 -1.542,0.661 -2.204,0.661 -1.101,0 -1.541,-0.441 -1.541,-0.882 0,-0.661 0.66,-0.881 1.762,-1.321 1.102,-0.221 2.424,-0.883 2.424,-2.204 0,-1.322 -1.102,-2.203 -2.865,-2.203 -0.881,0 -1.983,0.219 -2.644,0.66 l 0.44,1.102 c 0.662,-0.441 1.543,-0.661 2.424,-0.661 0.882,-0.22 1.543,0.22 1.543,0.882 m 5.068,1.983 3.085,3.526 h 1.543 l -3.305,-3.747 3.524,-3.745 h -1.54 l -3.086,3.524 V 7.273 h -1.323 v 7.492 h 1.323 z m 11.019,3.526 h 5.068 v -1.102 h -3.746 v -2.204 h 3.086 V 10.357 H 49.361 V 7.273 H 48.039 Z M 61.481,7.273 H 60.159 L 59.496,9.035 H 56.191 L 55.53,7.273 h -1.321 l 2.864,7.492 h 1.543 z m -3.525,6.39 -1.324,-3.306 h 2.425 z m 9.253,-5.509 c 0.663,0 1.102,0.22 1.543,0.44 v 1.543 H 66.77 v 1.102 h 3.305 V 7.713 c -0.882,-0.44 -1.984,-0.661 -2.866,-0.661 -2.423,0 -3.966,1.542 -3.966,3.966 0,2.424 1.543,3.967 3.966,3.967 0.882,0 1.984,-0.22 2.645,-0.662 l -0.441,-1.101 c -0.661,0.441 -1.541,0.661 -2.204,0.661 -1.541,0 -2.643,-1.101 -2.643,-2.865 0,-1.762 1.102,-2.864 2.643,-2.864 m 5.509,-0.881 v 7.492 h 1.324 V 8.374 h 3.746 V 7.273 Z m 7.274,0 h 1.321 v 7.492 h -1.321 z m 7.491,6.39 v -6.39 h -1.322 v 6.39 h -2.644 v 1.102 h 6.61 v -1.102 z m 7.934,0 v -6.39 h -1.323 v 6.39 h -2.645 v 1.102 h 6.611 v -1.102 z m 4.846,-6.39 v 7.492 h 5.07 v -1.102 h -3.746 V 11.68 h 3.083 v -1.102 h -3.083 V 8.594 h 3.746 V 7.492 h -5.07 z m 9.036,0 h -1.323 v 7.492 h 2.645 c 1.984,0 3.086,-0.882 3.086,-2.425 0,-1.101 -0.661,-1.762 -1.543,-2.203 l 1.984,-3.085 h -1.543 l -1.543,2.864 h -1.543 V 7.273 Z m 1.322,3.745 c 1.323,0 1.762,0.662 1.762,1.322 0,0.882 -0.661,1.323 -1.762,1.323 h -1.322 v -2.645 z m 6.61,-3.745 h -1.542 l 4.187,7.492 h 5.95 V 13.663 H 122.08 V 11.68 h 3.305 V 10.578 H 122.08 V 8.374 h 3.746 V 7.273 h -5.067 v 1.983 h -2.645 z m 3.528,3.084 v 3.526 l -1.985,-3.526 z m 9.033,-3.084 h -1.321 v 7.492 h 2.643 c 1.984,0 3.086,-0.882 3.086,-2.425 0,-1.101 -0.661,-1.762 -1.543,-2.203 l 1.984,-3.085 h -1.543 l -1.763,2.644 h -1.543 z m 1.322,3.745 c 1.323,0 1.764,0.662 1.764,1.322 0,0.882 -0.662,1.323 -1.764,1.323 h -1.322 v -2.645 z" /></g><g
           transform="translate(217.9062,22.6676)"
           id="g24"><path
             id="path26"
             style="fill:#000000;fill-opacity:1;fill-rule:nonzero;stroke:none"
             d="M 0,0 H -0.219 0 c -0.219,0 0,0 0,0 m -49.581,0 h -0.22 0.22 c -0.22,0 0,0 0,0 m -56.412,0 h -0.22 0.22 m -33.495,0 h -0.22 0.22 c -0.22,0 0,0 0,0" /></g><g
           transform="translate(217.6868,14.955)"
           id="g28"><path
             id="path30"
             style="fill:#000000;fill-opacity:1;fill-rule:nonzero;stroke:none"
             d="m 0,0 v 0 c -2.423,0 -3.966,1.543 -3.966,3.966 0,2.423 1.543,3.966 3.747,3.966 H 0 c 0.882,0 1.984,-0.219 2.645,-0.661 L 2.204,6.17 C 1.543,6.611 0.661,6.83 0,6.83 c -1.543,0 -2.645,-1.101 -2.645,-2.864 0,-1.762 1.102,-2.864 2.645,-2.864 0.661,0 1.102,0.219 1.543,0.441 V 3.084 H -0.441 V 3.966 H 2.864 V 0.441 C 1.984,0.219 0.882,0 0,0 m -139.488,0 v 0 c -2.424,0 -3.967,1.543 -3.967,3.966 0,2.204 1.543,3.966 3.746,3.966 h 0.221 c 2.203,0 3.745,-1.543 3.745,-3.966 C -135.522,1.543 -137.065,0 -139.488,0 m 0,6.611 c -1.543,0 -2.645,-1.102 -2.645,-2.864 0,-1.765 1.102,-2.867 2.645,-2.867 1.542,0 2.643,1.102 2.643,2.867 0,1.762 -1.101,2.864 -2.643,2.864 M -49.581,0 c -2.204,0 -3.966,1.543 -3.966,3.966 0,2.204 1.543,3.966 3.746,3.966 h 0.22 c 2.203,0 3.746,-1.543 3.746,-3.966 C -45.615,1.543 -47.378,0 -49.581,0 m 0,6.611 c -1.543,0 -2.645,-1.102 -2.645,-2.864 0,-1.765 1.102,-2.867 2.645,-2.867 1.543,0 2.645,1.102 2.645,2.867 0,1.762 -1.102,2.864 -2.645,2.864 M -105.994,0 c -0.881,0 -1.983,0.219 -2.644,0.661 l 0.44,1.101 c 0.662,-0.441 1.543,-0.66 2.425,-0.66 0.881,0 1.543,0.441 1.543,1.102 0,0.66 -0.662,0.88 -1.764,1.321 -1.102,0.222 -2.424,0.661 -2.424,2.204 0,1.323 1.102,2.203 2.645,2.203 h 0.22 c 0.881,0 1.764,-0.219 2.424,-0.661 L -103.57,6.17 c -0.66,0.441 -1.543,0.66 -2.203,0.66 -1.102,0 -1.543,-0.441 -1.543,-0.88 0,-0.663 0.661,-0.882 1.763,-1.323 1.101,-0.22 2.424,-0.88 2.424,-2.204 0,-1.543 -1.101,-2.423 -2.865,-2.423 m 99.603,0 h -1.322 l -3.966,5.729 V 0 h -1.323 v 7.491 h 1.543 L -7.493,1.762 V 7.491 H -6.17 V 0 m -14.104,0 h -1.321 l -3.966,5.729 V 0 h -1.324 v 7.491 h 1.543 l 3.967,-5.729 v 5.729 h 1.323 V 0 m -39.226,0 h -1.321 v 7.491 h 5.068 V 6.389 h -3.747 V 4.186 h 3.086 V 3.084 h -3.086 V 0 m -8.373,0 h -1.322 v 7.491 h 2.645 c 1.982,0 3.084,-0.88 3.084,-2.423 0,-1.102 -0.661,-1.763 -1.543,-2.204 l 1.984,-3.086 h -1.543 l -1.762,2.645 h -1.543 V 0 m 0,6.611 V 3.966 h 1.323 c 1.321,0 1.763,0.661 1.763,1.321 0,0.883 -0.661,1.324 -1.763,1.324 h -1.323 M -76.685,0 v 0 m -4.849,0 h -1.321 V 6.389 H -85.5 v 1.102 h 6.611 V 6.389 h -2.645 V 0 m -8.153,0 h -1.322 v 6.389 h -2.644 v 1.102 h 6.61 V 6.389 h -2.644 V 0 m 73.601,0 h -1.324 v 7.491 h 1.324 z m -13.222,0 h -5.067 v 7.491 h 5.067 V 6.389 h -3.746 V 4.407 h 3.086 V 3.305 h -3.086 V 1.321 h 3.746 V 0 m -7.712,0 h -1.543 l -1.763,2.645 h -1.543 V 0 h -1.321 v 7.491 h 2.643 c 1.984,0 3.086,-0.88 3.086,-2.423 0,-1.102 -0.661,-1.763 -1.543,-2.204 L -37.02,0 m -4.849,6.611 V 3.966 h 1.322 c 1.323,0 1.764,0.661 1.764,1.321 0,0.883 -0.663,1.324 -1.764,1.324 h -1.322 M -71.617,0 h -5.068 v 7.491 h 5.068 V 6.389 h -3.747 V 4.407 h 3.086 V 3.305 h -3.086 V 1.321 h 3.747 V 0 m -23.799,0 h -5.068 v 7.491 h 5.068 V 6.389 h -3.747 V 4.407 h 3.086 V 3.305 h -3.086 V 1.321 h 3.747 V 0 m -15.206,0 h -1.542 l -1.763,2.645 h -1.542 V 0 h -1.322 v 7.491 h 2.644 c 1.983,0 3.085,-0.88 3.085,-2.423 0,-1.102 -0.662,-1.763 -1.543,-2.204 L -110.622,0 m -4.847,6.611 V 3.966 h 1.322 c 1.322,0 1.763,0.661 1.763,1.321 0,0.883 -0.661,1.324 -1.763,1.324 h -1.322 M -119.436,0 h -5.068 v 7.491 h 5.068 V 6.389 h -3.746 V 4.407 h 3.085 V 3.305 h -3.085 V 1.321 h 3.746 V 0 m -10.136,0 v 0 h -1.543 l -2.864,7.491 h 1.321 l 2.204,-6.17 2.203,6.17 h 1.543 L -129.572,0 M -7.713,7.713 v 0" /></g><g
           transform="translate(52.857,10.9889)"
           id="g32"><path
             id="path34"
             style="fill:#000000;fill-opacity:1;fill-rule:nonzero;stroke:none"
             d="m 0,0 c -1.322,-2.645 -3.967,-3.968 -7.273,-3.968 -3.305,0 -5.949,1.543 -7.271,3.968 h -5.73 c 1.983,-5.29 6.832,-8.375 12.781,-8.375 5.95,0 10.798,3.305 12.782,8.375 z m -31.733,35.477 -12.56,18.731 h -5.729 V 28.425 h 4.848 v 18.731 l 12.781,-18.95 h 5.509 z M -12.12,54.208 V 38.783 H 3.305 V 43.19 H -6.831 v 6.611 h 12.56 v 4.407 z M -50.022,2.643 h 15.425 V 7.05 h -10.357 v 6.832 h 12.561 v 4.407 h -17.629 z" /></g><path
           id="path36"
           style="fill:#717c83;fill-opacity:1;fill-rule:nonzero;stroke:none"
           d="M 2.835,3.496 H 7.903 V 13.632 H 2.835 Z m 37.902,35.918 h 5.068 V 49.771 H 40.737 Z M 58.146,10.989 c 0.66,1.541 1.101,3.525 1.101,5.287 0,8.374 -5.729,13.444 -13.663,13.444 -7.933,0 -13.661,-5.509 -13.661,-13.663 0,-1.984 0.219,-3.747 0.881,-5.29 h 5.73 c -0.883,1.543 -1.323,3.306 -1.323,5.29 0,5.509 3.306,9.255 8.373,9.255 5.289,0 8.594,-3.746 8.594,-9.477 0,-1.982 -0.44,-3.744 -1.321,-5.287 z M 21.124,65.197 V 46.466 l 4.849,-7.271 h 0.22 v 26.002 z" /></g></g><g
       id="g38"><g
         clip-path="url(#clipPath44)"
         id="g40"><g
           transform="translate(76.698,37.1644)"
           id="g46"><path
             id="path48"
             style="fill:#000000;fill-opacity:1;fill-rule:nonzero;stroke:none"
             d="M 0,0 H 4.672 V -1.016 H 1.219 V -3.047 H 4.063 V -4.063 H 1.219 V -6.907 H 0 Z m 9.954,-7.109 c -2.031,0 -3.656,1.42 -3.656,3.656 0,2.032 1.421,3.656 3.656,3.656 2.031,0 3.656,-1.422 3.656,-3.656 0,-2.236 -1.421,-3.656 -3.656,-3.656 m 0,6.297 c -1.422,0 -2.438,-1.016 -2.438,-2.641 0,-1.625 1.016,-2.64 2.438,-2.64 1.422,0 2.438,1.015 2.438,2.64 0,1.625 -1.016,2.641 -2.438,2.641 m 7.313,-6.095 H 16.048 V 0 h 2.439 c 1.828,0 2.843,-0.812 2.843,-2.235 0,-1.016 -0.61,-1.625 -1.422,-2.031 l 1.828,-2.843 h -1.421 l -1.626,2.437 h -1.422 z m 1.22,3.251 c 1.218,0 1.624,0.609 1.624,1.219 0,0.812 -0.609,1.218 -1.624,1.218 h -1.22 V -3.656 Z M 23.971,0 h 4.673 V -1.016 H 25.19 v -2.031 h 2.844 V -4.063 H 25.19 v -2.844 h -1.219 z m 12.392,-6.907 h -1.219 l -0.609,1.625 h -3.047 l -0.61,-1.625 H 29.66 L 32.3,0 h 1.423 z m -3.454,5.891 -1.218,-3.047 h 2.234 z m 7.719,0 V -6.907 H 39.41 v 5.891 H 36.972 V 0 h 6.094 v -1.016 z m 7.315,0 v -5.891 h -1.22 v 5.891 H 44.287 V 0 h 6.094 v -1.016 z m 4.469,-5.891 V 0 h 4.672 v -1.016 h -3.453 v -1.828 h 2.844 V -3.86 h -2.844 v -1.829 h 3.453 v -1.218 z m 8.329,0 H 59.523 V 0 h 2.436 c 1.829,0 2.845,-0.812 2.845,-2.235 0,-1.016 -0.609,-1.625 -1.423,-2.031 l 1.829,-2.843 h -1.422 l -1.625,2.437 h -1.422 z m 1.218,3.251 c 1.22,0 1.627,0.609 1.627,1.219 0,0.812 -0.612,1.218 -1.627,1.218 h -1.218 v -2.437 z m 4.876,-0.407 h 3.656 v 1.219 h -3.656 z m 13.002,-3.046 c -2.031,0 -3.658,1.42 -3.658,3.656 0,2.032 1.422,3.656 3.658,3.656 2.032,0 3.656,-1.422 3.656,-3.656 0,-2.236 -1.422,-3.656 -3.656,-3.656 m 0,6.297 c -1.422,0 -2.438,-1.016 -2.438,-2.641 0,-1.625 1.016,-2.64 2.438,-2.64 1.421,0 2.436,1.015 2.436,2.64 0,1.625 -1.015,2.641 -2.436,2.641 m 9.344,-5.281 c 0.609,0 1.016,0.202 1.423,0.404 v 1.423 h -1.83 v 1.015 h 3.048 V -6.5 c -0.812,-0.407 -1.827,-0.609 -2.641,-0.609 -2.234,0 -3.656,1.42 -3.656,3.656 0,2.234 1.422,3.656 3.656,3.656 0.814,0 1.829,-0.203 2.438,-0.609 l -0.406,-1.015 c -0.609,0.405 -1.423,0.609 -2.032,0.609 -1.422,0 -2.438,-1.016 -2.438,-2.641 0,-1.625 1.016,-2.64 2.438,-2.64 M 4.875,13.611 H 6.094 V 6.501 H 4.875 L 1.219,11.783 V 6.501 H 0 v 7.11 H 1.421 L 4.875,8.329 Z m 7.11,-7.11 c -2.031,0 -3.656,1.421 -3.656,3.656 0,2.032 1.422,3.658 3.656,3.658 2.032,0 3.657,-1.423 3.657,-3.658 0,-2.031 -1.422,-3.656 -3.657,-3.656 m 0,6.298 c -1.422,0 -2.438,-1.016 -2.438,-2.642 0,-1.624 1.016,-2.64 2.438,-2.64 1.423,0 2.439,1.016 2.439,2.64 0,1.626 -1.016,2.642 -2.439,2.642 M 19.299,6.704 H 18.08 v 6.907 h 2.438 c 1.828,0 2.844,-0.812 2.844,-2.235 0,-1.015 -0.61,-1.624 -1.423,-2.031 L 23.768,6.501 H 22.346 L 20.72,8.938 h -1.421 z m 1.219,3.453 c 1.218,0 1.625,0.61 1.625,1.219 0,0.813 -0.609,1.219 -1.625,1.219 h -1.219 v -2.438 z m 8.938,-1.624 c 0,0.609 -0.61,0.812 -1.626,1.219 -1.015,0.202 -2.233,0.609 -2.233,2.031 0,1.218 1.015,2.032 2.437,2.032 0.812,0 1.626,-0.204 2.438,-0.611 l -0.407,-1.015 c -0.609,0.406 -1.421,0.61 -2.031,0.61 -1.016,0 -1.422,-0.407 -1.422,-0.814 0,-0.609 0.609,-0.812 1.625,-1.218 1.016,-0.203 2.235,-0.813 2.235,-2.031 0,-1.219 -1.016,-2.032 -2.642,-2.032 -0.812,0 -1.828,0.203 -2.437,0.609 l 0.406,1.016 c 0.61,-0.407 1.422,-0.609 2.235,-0.609 0.812,-0.203 1.422,0.202 1.422,0.813 m 4.672,1.828 2.844,3.25 h 1.423 l -3.048,-3.454 3.25,-3.453 h -1.421 l -2.844,3.25 v -3.25 h -1.22 v 6.907 h 1.22 z m 10.159,3.25 h 4.672 V 12.595 H 45.505 V 10.564 H 48.35 V 9.548 H 45.505 V 6.704 H 44.287 Z M 56.678,6.704 H 55.46 L 54.849,8.329 H 51.801 L 51.192,6.704 h -1.218 l 2.641,6.907 h 1.422 z m -3.25,5.891 -1.22,-3.047 h 2.236 z m 8.531,-5.078 c 0.611,0 1.015,0.203 1.422,0.405 v 1.423 h -1.827 v 1.016 h 3.047 V 7.11 C 63.788,6.704 62.772,6.501 61.959,6.501 c -2.234,0 -3.657,1.421 -3.657,3.656 0,2.235 1.423,3.658 3.657,3.658 0.813,0 1.829,-0.204 2.438,-0.611 L 63.99,12.189 c -0.609,0.406 -1.42,0.61 -2.031,0.61 -1.421,0 -2.436,-1.016 -2.436,-2.642 0,-1.624 1.015,-2.64 2.436,-2.64 m 5.078,-0.813 v 6.907 h 1.22 V 7.72 h 3.454 V 6.704 Z m 6.706,0 h 1.218 v 6.907 h -1.218 z m 6.906,5.891 V 6.704 h -1.218 v 5.891 h -2.439 v 1.016 h 6.095 v -1.016 z m 7.314,0 V 6.704 h -1.22 v 5.891 h -2.438 v 1.016 h 6.094 v -1.016 z m 4.468,-5.891 v 6.907 h 4.674 v -1.016 h -3.454 v -1.828 h 2.843 V 9.752 h -2.843 v -1.83 h 3.454 V 6.907 h -4.674 z m 8.33,0 h -1.22 v 6.907 h 2.438 c 1.829,0 2.845,-0.812 2.845,-2.235 0,-1.015 -0.609,-1.624 -1.423,-2.031 l 1.83,-2.844 h -1.423 l -1.422,2.641 h -1.423 V 6.704 Z m 1.218,3.453 c 1.22,0 1.625,0.61 1.625,1.219 0,0.813 -0.609,1.219 -1.625,1.219 h -1.218 v -2.438 z m 6.094,-3.453 h -1.422 l 3.861,6.907 h 5.485 v -1.016 h -3.454 v -1.828 h 3.047 V 9.752 h -3.047 V 7.72 h 3.454 V 6.704 h -4.672 v 1.829 h -2.438 z m 3.252,2.844 v 3.251 l -1.829,-3.251 z m 8.328,-2.844 h -1.218 v 6.907 h 2.436 c 1.829,0 2.845,-0.812 2.845,-2.235 0,-1.015 -0.609,-1.624 -1.422,-2.031 l 1.829,-2.844 H 122.7 l -1.624,2.437 h -1.423 z m 1.218,3.453 c 1.22,0 1.627,0.61 1.627,1.219 0,0.813 -0.611,1.219 -1.627,1.219 h -1.218 v -2.438 z" /></g><g
           transform="translate(208.7423,23.5541)"
           id="g50"><path
             id="path52"
             style="fill:#000000;fill-opacity:1;fill-rule:nonzero;stroke:none"
             d="M 0,0 H -0.202 0 c -0.202,0 0,0 0,0 m -45.708,0 h -0.202 0.202 c -0.202,0 0,0 0,0 m -52.005,0 h -0.203 0.203 m -30.878,0 h -0.203 0.203 c -0.203,0 0,0 0,0" /></g></g></g><g
       id="g54"><g
         clip-path="url(#clipPath60)"
         id="g56"><g
           transform="translate(208.54,16.444)"
           id="g62"><path
             id="path64"
             style="fill:#000000;fill-opacity:1;fill-rule:nonzero;stroke:none"
             d="m 0,0 v 0 c -2.234,0 -3.656,1.422 -3.656,3.656 0,2.234 1.422,3.656 3.454,3.656 H 0 c 0.813,0 1.829,-0.202 2.438,-0.609 L 2.031,5.688 C 1.422,6.094 0.609,6.297 0,6.297 c -1.422,0 -2.438,-1.016 -2.438,-2.641 0,-1.625 1.016,-2.64 2.438,-2.64 0.609,0 1.016,0.202 1.422,0.406 V 2.843 H -0.407 V 3.656 H 2.64 V 0.407 C 1.829,0.202 0.813,0 0,0 m -128.591,0 v 0 c -2.235,0 -3.658,1.422 -3.658,3.656 0,2.032 1.423,3.656 3.454,3.656 h 0.204 c 2.031,0 3.452,-1.422 3.452,-3.656 C -124.935,1.422 -126.358,0 -128.591,0 m 0,6.094 c -1.423,0 -2.439,-1.015 -2.439,-2.64 0,-1.627 1.016,-2.643 2.439,-2.643 1.421,0 2.437,1.016 2.437,2.643 0,1.625 -1.016,2.64 -2.437,2.64 M -45.708,0 c -2.031,0 -3.656,1.422 -3.656,3.656 0,2.032 1.422,3.656 3.454,3.656 h 0.202 c 2.031,0 3.454,-1.422 3.454,-3.656 C -42.052,1.422 -43.677,0 -45.708,0 m 0,6.094 c -1.422,0 -2.438,-1.015 -2.438,-2.64 0,-1.627 1.016,-2.643 2.438,-2.643 1.422,0 2.438,1.016 2.438,2.643 0,1.625 -1.016,2.64 -2.438,2.64 M -97.714,0 c -0.812,0 -1.828,0.202 -2.437,0.609 l 0.406,1.016 c 0.61,-0.407 1.422,-0.609 2.235,-0.609 0.812,0 1.422,0.406 1.422,1.015 0,0.609 -0.61,0.812 -1.626,1.219 -1.016,0.204 -2.235,0.609 -2.235,2.031 0,1.22 1.016,2.031 2.439,2.031 h 0.203 c 0.812,0 1.626,-0.202 2.235,-0.609 l -0.407,-1.015 c -0.609,0.406 -1.422,0.609 -2.031,0.609 -1.016,0 -1.423,-0.407 -1.423,-0.812 0,-0.611 0.61,-0.813 1.626,-1.22 1.015,-0.202 2.235,-0.811 2.235,-2.031 C -95.072,0.811 -96.088,0 -97.714,0 M -5.892,0 H -7.11 l -3.656,5.281 V 0 h -1.22 v 6.906 h 1.422 l 3.656,-5.281 v 5.281 h 1.22 V 0 M -18.69,0 h -1.218 l -3.656,5.281 V 0 h -1.22 v 6.906 h 1.422 l 3.656,-5.281 v 5.281 h 1.22 V 0 m -36.161,0 h -1.218 v 6.906 h 4.672 V 5.89 h -3.454 V 3.859 h 2.845 V 2.843 h -2.845 V 0 m -7.719,0 h -1.219 v 6.906 h 2.439 c 1.827,0 2.842,-0.812 2.842,-2.234 0,-1.016 -0.609,-1.625 -1.422,-2.032 l 1.829,-2.844 h -1.422 l -1.625,2.438 h -1.422 V 0 m 0,6.094 V 3.656 h 1.22 c 1.218,0 1.624,0.609 1.624,1.218 0,0.814 -0.609,1.22 -1.624,1.22 h -1.22 M -70.695,0 v 0 m -4.469,0 h -1.218 v 5.89 h -2.439 v 1.016 h 6.095 V 5.89 h -2.438 V 0 m -7.517,0 h -1.218 v 5.89 h -2.438 v 1.016 h 6.094 V 5.89 h -2.438 V 0 m 67.852,0 h -1.22 v 6.906 h 1.22 z m -12.189,0 h -4.672 v 6.906 h 4.672 V 5.89 h -3.454 V 4.063 h 2.845 V 3.047 h -2.845 V 1.218 h 3.454 V 0 m -7.11,0 h -1.423 l -1.624,2.438 h -1.423 V 0 h -1.218 v 6.906 h 2.436 c 1.829,0 2.845,-0.812 2.845,-2.234 0,-1.016 -0.609,-1.625 -1.422,-2.032 L -34.128,0 m -4.47,6.094 V 3.656 h 1.218 c 1.22,0 1.627,0.609 1.627,1.218 0,0.814 -0.611,1.22 -1.627,1.22 h -1.218 M -66.023,0 h -4.672 v 6.906 h 4.672 V 5.89 h -3.454 V 4.063 h 2.845 V 3.047 h -2.845 V 1.218 h 3.454 V 0 m -21.939,0 h -4.672 v 6.906 h 4.672 V 5.89 h -3.454 V 4.063 h 2.845 V 3.047 h -2.845 V 1.218 h 3.454 V 0 m -14.018,0 h -1.421 l -1.626,2.438 h -1.422 V 0 h -1.219 v 6.906 h 2.438 c 1.829,0 2.844,-0.812 2.844,-2.234 0,-1.016 -0.61,-1.625 -1.422,-2.032 L -101.98,0 m -4.469,6.094 V 3.656 h 1.219 c 1.218,0 1.625,0.609 1.625,1.218 0,0.814 -0.609,1.22 -1.625,1.22 h -1.219 M -110.106,0 h -4.672 v 6.906 h 4.672 V 5.89 h -3.453 V 4.063 h 2.844 V 3.047 h -2.844 V 1.218 h 3.453 V 0 m -9.344,0 v 0 h -1.422 l -2.641,6.906 h 1.218 l 2.032,-5.688 2.031,5.688 h 1.423 L -119.45,0 M -7.11,7.11 v 0" /></g><g
           transform="translate(56.5866,12.7878)"
           id="g66"><path
             id="path68"
             style="fill:#000000;fill-opacity:1;fill-rule:nonzero;stroke:none"
             d="m 0,0 c -1.219,-2.438 -3.657,-3.658 -6.704,-3.658 -3.048,0 -5.485,1.422 -6.704,3.658 h -5.282 c 1.828,-4.876 6.298,-7.721 11.782,-7.721 5.486,0 9.955,3.047 11.783,7.721 z m -29.254,32.706 -11.579,17.267 h -5.282 V 26.205 h 4.47 v 17.267 l 11.782,-17.47 h 5.079 z m 18.081,17.267 v -14.22 h 14.22 v 4.063 H -6.298 V 45.91 H 5.281 v 4.063 z M -46.115,2.436 h 14.221 v 4.063 h -9.549 v 6.299 h 11.58 v 4.063 h -16.252 z" /></g></g></g><g
       id="g70"><g
         clip-path="url(#clipPath76)"
         id="g72"><path
           id="path78"
           style="fill:#717c83;fill-opacity:1;fill-rule:nonzero;stroke:none"
           d="m 10.472,5.88 h 4.672 v 9.344 h -4.672 z m 34.942,33.112 h 4.672 V 48.54 H 45.414 Z M 61.462,12.788 c 0.609,1.42 1.016,3.249 1.016,4.874 0,7.719 -5.282,12.393 -12.596,12.393 -7.313,0 -12.594,-5.078 -12.594,-12.595 0,-1.829 0.202,-3.454 0.812,-4.877 h 5.282 c -0.813,1.423 -1.219,3.048 -1.219,4.877 0,5.078 3.047,8.532 7.719,8.532 4.876,0 7.923,-3.454 7.923,-8.737 0,-1.827 -0.406,-3.452 -1.218,-4.874 z M 27.333,62.761 V 45.494 l 4.469,-6.704 h 0.204 v 23.971 z" /></g></g></g></svg>