<svg xmlns="http://www.w3.org/2000/svg" xmlns:xlink="http://www.w3.org/1999/xlink" width="173.5" height="68" xml:space="preserve"><path d="m2.8 59 17.1 6.2v-3.6L6.5 56.7V11.5l8.5 3.1v-3.7L2.8 6.6zM153.5 2.8v3.7l13.5 4.9v45.1l-10-3.6v3.6l13.6 5V9.1zM32.2 26.3l1.9-.3v9.3l-1.7.3-3.3-5.2v5.8l-1.9.4v-9.4l1.7-.3 3.3 5.2zm10.6-1.8 2.2-.4-3.6 5.7V34l-1.9.4v-4.3l-3.6-4.4 2.3-.4 2.3 3.1zm9.1-1.6 1.9-.4v9.4l-1.7.3-3.4-5.3v5.9l-1.9.3v-9.3l1.8-.3 3.3 5.2z"/><defs><path id="a" d="M2.8 2.8h167.8v62.4H2.8z"/></defs><clipPath id="b"><use xlink:href="#a" overflow="visible"/></clipPath><path d="M56.4 26.7c0-2.7 2.1-5.2 4.7-5.7s4.8 1.3 4.8 4c0 2.6-2.1 5.2-4.8 5.7-2.6.5-4.7-1.3-4.7-4m7.6-1.3c0-1.7-1.2-2.8-2.9-2.6-1.7.3-2.9 1.9-2.9 3.6 0 1.7 1.2 2.8 2.9 2.5 1.7-.2 2.9-1.8 2.9-3.5" clip-path="url(#b)"/><defs><path id="c" d="M2.8 2.8h167.8v62.4H2.8z"/></defs><clipPath id="d"><use xlink:href="#c" overflow="visible"/></clipPath><path d="m73.3 28.4-2.2-2.9-.6.1v3.3l-1.9.3v-9.3l3.7-.7c2.1-.4 3.1 1 3.1 2.5 0 1.3-.9 2.8-2.2 3.3l2.4 3-2.3.4zm-2.9-7.1v2.8l1.5-.3c1.1-.2 1.5-.9 1.5-1.6 0-.7-.5-1.3-1.4-1.2l-1.6.3z" clip-path="url(#d)"/><defs><path id="e" d="M2.8 2.8h167.8v62.4H2.8z"/></defs><clipPath id="f"><use xlink:href="#e" overflow="visible"/></clipPath><path d="m77.6 25 1.9-.3c0 .7.7 1.1 1.5.9.8-.1 1.4-.7 1.4-1.4 0-.5-.4-.8-1.2-.9l-1.1-.1c-2-.2-2.4-1.3-2.4-2.2 0-1.7 1.4-3.1 3.2-3.4 1.8-.3 3.1.5 3.1 2.3l-1.9.3c0-.7-.5-1.1-1.3-1-.7.1-1.3.7-1.3 1.3 0 .2.1.7 1 .8l1 .1c1.4.2 2.6.7 2.6 2.3 0 1.9-1.6 3.1-3.3 3.5-1.9.4-3.2-.6-3.2-2.2" clip-path="url(#f)"/><defs><path id="g" d="M2.8 2.8h167.8v62.4H2.8z"/></defs><clipPath id="h"><use xlink:href="#g" overflow="visible"/></clipPath><path clip-path="url(#h)" d="m94.2 24.7-2.4.5-3-3.3v3.8l-1.9.3v-9.3l1.9-.3v3.8l2.6-4.3 2.3-.4-3.3 5.2z"/><defs><path id="i" d="M2.8 2.8h167.8v62.4H2.8z"/></defs><clipPath id="j"><use xlink:href="#i" overflow="visible"/></clipPath><path clip-path="url(#j)" d="m34.5 50-2.4.5-3-3.3V51l-1.9.3V42l1.9-.3v3.8l2.6-4.3 2.2-.4-3.2 5.2z"/><defs><path id="k" d="M2.8 2.8h167.8v62.4H2.8z"/></defs><clipPath id="l"><use xlink:href="#k" overflow="visible"/></clipPath><path d="M36.3 46.4v-6l1.9-.3V46c0 1.3.8 1.6 1.7 1.5.9-.2 1.7-.8 1.7-2.1v-5.9l1.9-.3v6c0 2.1-1.7 3.7-3.6 4.1-1.9.3-3.6-.7-3.6-2.9" clip-path="url(#l)"/><defs><path id="m" d="M2.8 2.8h167.8v62.4H2.8z"/></defs><clipPath id="n"><use xlink:href="#m" overflow="visible"/></clipPath><path clip-path="url(#n)" d="m48.4 45.9 3.6-.6v1.6l-5.5 1v-9.3l1.9-.4z"/><defs><path id="o" d="M2.8 2.8h167.8v62.4H2.8z"/></defs><clipPath id="p"><use xlink:href="#o" overflow="visible"/></clipPath><path clip-path="url(#p)" d="M59.4 36.3V38l-2.6.4v7.7l-1.9.3v-7.6l-2.5.4v-1.7z"/><defs><path id="q" d="M2.8 2.8h167.8v62.4H2.8z"/></defs><clipPath id="r"><use xlink:href="#q" overflow="visible"/></clipPath><path d="M61.7 41.9v-6l1.9-.3v5.9c0 1.3.8 1.6 1.7 1.5.9-.2 1.7-.8 1.7-2.1V35l1.9-.3v6c0 2.1-1.7 3.7-3.6 4.1-2 .3-3.6-.7-3.6-2.9" clip-path="url(#r)"/><defs><path id="s" d="M2.8 2.8h167.8v62.4H2.8z"/></defs><clipPath id="t"><use xlink:href="#s" overflow="visible"/></clipPath><path d="m76.6 42.6-2.2-2.9-.6.1v3.3l-1.9.3v-9.3l3.7-.7c2.1-.4 3.1 1 3.1 2.5 0 1.3-.9 2.8-2.2 3.3l2.4 3-2.3.4zm-2.8-7.2v2.8l1.5-.3c1.1-.2 1.5-.9 1.5-1.6 0-.7-.5-1.3-1.4-1.2l-1.6.3z" clip-path="url(#t)"/><defs><path id="u" d="M2.8 2.8h167.8v62.4H2.8z"/></defs><clipPath id="v"><use xlink:href="#u" overflow="visible"/></clipPath><path d="m80.9 39.1 1.9-.3c0 .7.7 1.1 1.5.9.8-.1 1.4-.7 1.4-1.4 0-.5-.4-.8-1.2-.9l-1.1-.1c-2-.2-2.4-1.3-2.4-2.2 0-1.7 1.4-3.1 3.2-3.4 1.8-.3 3.1.5 3.1 2.3l-1.9.3c0-.7-.5-1.1-1.3-1-.7.1-1.3.7-1.3 1.3 0 .2.1.7 1 .8l1 .1c1.4.2 2.6.7 2.6 2.3 0 1.9-1.6 3.1-3.3 3.5-1.8.5-3.2-.5-3.2-2.2" clip-path="url(#v)"/><defs><path id="w" d="M2.8 2.8h167.8v62.4H2.8z"/></defs><clipPath id="x"><use xlink:href="#w" overflow="visible"/></clipPath><path clip-path="url(#x)" d="m92.1 38.2 4.1-.7v1.6l-5.9 1.1v-9.3l5.8-1.1v1.7l-4 .7v2.2l3.5-.6v1.7l-3.5.6z"/><defs><path id="y" d="M2.8 2.8h167.8v62.4H2.8z"/></defs><clipPath id="z"><use xlink:href="#y" overflow="visible"/></clipPath><path clip-path="url(#z)" d="m104.1 28.4 1.8-.3v9.3l-1.7.3-3.3-5.2v5.8l-1.9.3v-9.3l1.7-.3 3.4 5.2z"/><defs><path id="A" d="M2.8 2.8h167.8v62.4H2.8z"/></defs><clipPath id="B"><use xlink:href="#A" overflow="visible"/></clipPath><path clip-path="url(#B)" d="M115.3 26.5v1.6l-2.6.5v7.6l-1.8.4v-7.7l-2.6.5v-1.7z"/><defs><path id="C" d="M2.8 2.8h167.8v62.4H2.8z"/></defs><clipPath id="D"><use xlink:href="#C" overflow="visible"/></clipPath><path d="m122.4 34.5-2.2-2.9-.6.1V35l-1.9.3V26l3.7-.7c2.1-.4 3.1 1 3.1 2.5 0 1.3-.9 2.8-2.2 3.2l2.4 3-2.3.5zm-2.9-7.1v2.8l1.5-.3c1.1-.2 1.5-.9 1.5-1.6 0-.7-.5-1.3-1.4-1.2l-1.6.3z" clip-path="url(#D)"/><defs><path id="E" d="M2.8 2.8h167.8v62.4H2.8z"/></defs><clipPath id="F"><use xlink:href="#E" overflow="visible"/></clipPath><path d="M127.1 30.4v-6l1.9-.4v6c0 1.3.8 1.6 1.7 1.5.9-.2 1.7-.8 1.7-2.1v-5.9l1.9-.3v6c0 2.1-1.7 3.7-3.6 4.1-1.9.3-3.6-.8-3.6-2.9" clip-path="url(#F)"/><defs><path id="G" d="M2.8 2.8h167.8v62.4H2.8z"/></defs><clipPath id="H"><use xlink:href="#G" overflow="visible"/></clipPath><path clip-path="url(#H)" d="m148.1 30-1.9.3-.7-5.6-2.3 5.1-1.5.3-2.3-4.4-.6 5.9-2 .4 1.2-9.5 1.6-.3 2.9 5.6 2.8-6.6 1.7-.3z"/></svg>