<svg id="Layer_1" xmlns="http://www.w3.org/2000/svg" xmlns:xlink="http://www.w3.org/1999/xlink" viewBox="0 0 303.8 68"><style>.st0{clip-path:url(#SVGID_2_)}.st1{clip-path:url(#SVGID_4_)}</style><path d="M9.4 48v7.2L4.9 48H2.8v10.6h1.9v-7.2l4.6 7.2h2V48zM31.6 46.7V36.1h-2.5l-2.8 7.6-2.8-7.6h-2.6v10.6h1.9v-7.6l2.7 7.5h1.4l2.8-7.4v7.5z"/><defs><path id="SVGID_1_" d="M2.8 9.3h62.4v49.4H2.8z"/></defs><clipPath id="SVGID_2_"><use xlink:href="#SVGID_1_" overflow="visible"/></clipPath><path class="st0" d="M62.7 9.3v6.5c0 1.5-.7 2.5-2.2 2.5-1.5 0-2.2-1-2.2-2.5V9.3h-1.9v6.5c0 2.5 1.4 4.3 4.2 4.3 2.7 0 4.2-1.7 4.2-4.3V9.3h-2.1zM46.6 23.9c0-.9-.5-1.8-1.2-2.3-.7-.5-1.6-.6-2.5-.6h-4.2v10.6h4.2c1 0 2-.1 2.8-.7.8-.6 1.1-1.4 1.1-2.4s-.5-1.9-1.5-2.4c.9-.3 1.3-1.3 1.3-2.2m-6-1.2H43c.9 0 1.6.3 1.6 1.3s-.7 1.3-1.6 1.3h-2.4v-2.6zm2.4 7.2h-2.4V27H43c1 0 1.8.4 1.8 1.5.1 1.1-.9 1.4-1.8 1.4M57 41.1H43.1v-4.7h-1.9v4.7h-4.7V43h4.7v13.9H17.9v1.9h24.3c.5 0 .9-.4.9-.9V43h14.8c.5 0 .9-.4.9-.9V24.8H57v16.3z"/><path class="st0" d="M25.3 31.7h1.9V27h4.6v-1.9h-4.6V11.3h23.2V9.4H26.2c-.5 0-.9.4-.9.9v14.8H10.5c-.5 0-.9.4-.9.9v17.3h1.9V27h13.9v4.7zM84.7 25.2l-3-4.7v4.7h-1.1V19h1.3l2.8 4.4V19h1.1v6.2zM91.3 23.1c0 1.3-.9 2.3-2.2 2.3-1.3 0-2.2-.9-2.2-2.3 0-1.3.9-2.2 2.2-2.2 1.3-.1 2.2.9 2.2 2.2m-1 0c0-.9-.6-1.3-1.2-1.3s-1.2.5-1.2 1.3c0 .9.6 1.3 1.2 1.3s1.2-.5 1.2-1.3M94.8 21.9h-.3c-.8 0-1.1.5-1.1 1.2v2h-1v-4.2h1v.7c.2-.5.7-.7 1.2-.7h.3v1zM99.5 24c-.2.7-.9 1.3-1.9 1.3-1.1 0-2.2-.8-2.2-2.3 0-1.3 1-2.2 2.1-2.2 1.3 0 2.1.9 2.1 2.2v.3h-3.1c0 .6.5 1.1 1.2 1.1.6 0 .9-.3 1.1-.7l.7.3zm-1-1.4c0-.5-.3-.9-1-.9-.6 0-1 .5-1 .9h2zM101.2 25.2c.1.5.5.9 1.1.9.8 0 1.2-.4 1.2-1.3v-.4c-.2.3-.6.6-1.2.6-1.1 0-2-.9-2-2.1 0-1.1.8-2.1 2-2.1.7 0 1.1.3 1.3.6v-.5h1v3.8c0 1.1-.6 2.2-2.2 2.2-1.1 0-1.9-.7-2-1.5l.8-.2zm2.3-2.3c0-.7-.5-1.2-1.1-1.2-.6 0-1.1.5-1.1 1.2s.4 1.2 1.1 1.2c.7 0 1.1-.4 1.1-1.2M106.3 23.8c0 .4.3.7.9.7.4 0 .6-.2.6-.5 0-.2-.2-.4-.5-.5l-.6-.1c-.7-.2-1.1-.7-1.1-1.2 0-.7.7-1.4 1.6-1.4 1.2 0 1.6.8 1.6 1.2l-.9.2c0-.2-.2-.6-.8-.6-.4 0-.6.2-.6.5 0 .2.2.4.4.4l.6.1c.8.2 1.2.7 1.2 1.3 0 .6-.5 1.4-1.6 1.4-1.2 0-1.7-.8-1.7-1.3l.9-.2zM112.1 25.2V21h1v.5c.2-.4.8-.7 1.3-.7.6 0 1 .3 1.3.7.3-.6.8-.7 1.4-.7.8 0 1.5.5 1.5 1.6v2.7h-1v-2.6c0-.5-.3-.9-.8-.9s-.9.4-.9.9V25h-1v-2.6c0-.5-.2-.9-.8-.9-.5 0-.9.4-.9.9v2.5h-1.1zM120.3 18.8c.4 0 .7.3.7.7 0 .4-.3.7-.7.7-.4 0-.7-.3-.7-.7 0-.4.3-.7.7-.7m-.5 2.1h1v4.2h-1v-4.2zM122.1 18.9h1v6.3h-1zM124.5 20.9h1v4.7c0 .8-.5 1.4-1.3 1.4-.3 0-.5-.1-.6-.1V26h.3c.4 0 .5-.2.5-.5v-4.6zm.5-2.1c.4 0 .7.3.7.7 0 .4-.3.7-.7.7-.4 0-.7-.3-.7-.7.1-.4.4-.7.7-.7M129.9 21.1l.5-.6.5.4-.5.6c.3.4.5.9.5 1.5 0 1.3-.9 2.3-2.2 2.3-.4 0-.8-.1-1.1-.3l-.4.5-.5-.4.4-.5c-.3-.4-.5-.9-.5-1.5 0-1.3.9-2.2 2.2-2.2.4-.1.8 0 1.1.2m-2.1 2.7l1.5-1.9c-.2-.1-.3-.1-.5-.1-.6 0-1.2.5-1.2 1.3 0 .2.1.5.2.7m2.2-.7c0-.3-.1-.5-.2-.7l-1.5 1.9c.2.1.3.1.5.1.6 0 1.2-.5 1.2-1.3M131.8 22.2h2.5v.9h-2.5zM141.2 23.1c0 1.3-.9 2.3-2.2 2.3-1.3 0-2.2-.9-2.2-2.3 0-1.3.9-2.2 2.2-2.2 1.3-.1 2.2.9 2.2 2.2m-1 0c0-.9-.6-1.3-1.2-1.3s-1.2.5-1.2 1.3c0 .9.6 1.3 1.2 1.3.7 0 1.2-.5 1.2-1.3M142.9 25.2c.1.5.5.9 1.1.9.8 0 1.2-.4 1.2-1.3v-.4c-.2.3-.6.6-1.2.6-1.1 0-2-.9-2-2.1 0-1.1.8-2.1 2-2.1.7 0 1.1.3 1.3.6v-.5h1v3.8c0 1.1-.6 2.2-2.2 2.2-1.1 0-1.9-.7-2-1.5l.8-.2zm2.3-2.3c0-.7-.5-1.2-1.1-1.2-.6 0-1.1.5-1.1 1.2s.4 1.2 1.1 1.2c.7 0 1.1-.4 1.1-1.2M80.5 36.8v-6.3h1v2.6c.2-.3.7-.6 1.3-.6 1.3 0 2 1 2 2.2 0 1.3-.8 2.2-2 2.2-.6 0-1.1-.3-1.3-.7v.6h-1zm2.1-3.5c-.6 0-1.1.5-1.1 1.3s.5 1.3 1.1 1.3c.7 0 1.1-.5 1.1-1.3.1-.8-.4-1.3-1.1-1.3M86.4 30.4c.4 0 .7.3.7.7 0 .4-.3.7-.7.7-.4 0-.7-.3-.7-.7 0-.4.3-.7.7-.7m-.5 2.1h1v4.2h-1v-4.2zM92.3 34.6c0 1.3-.9 2.3-2.2 2.3-1.3 0-2.2-.9-2.2-2.3 0-1.3.9-2.2 2.2-2.2 1.3 0 2.2 1 2.2 2.2m-1 0c0-.9-.6-1.3-1.2-1.3s-1.2.5-1.2 1.3c0 .9.6 1.3 1.2 1.3.6.1 1.2-.4 1.2-1.3M95.4 36.8h-1l-1.7-4.3h1.1l1.1 3.1 1.1-3.1h1.1zM98.4 30.4c.4 0 .7.3.7.7 0 .4-.3.7-.7.7-.4 0-.7-.3-.7-.7 0-.4.3-.7.7-.7m-.5 2.1h1v4.2h-1v-4.2zM101.6 32.5h.9v.9h-.9v2c0 .4.2.5.5.5h.3v.8c-.1 0-.3.1-.6.1-.8 0-1.3-.5-1.3-1.3v-2.1h-.8v-.9h.2c.5 0 .7-.3.7-.7v-.6h.9v1.3zM104.1 35.4c0 .4.3.7.9.7.4 0 .6-.2.6-.5 0-.2-.2-.4-.5-.5l-.6-.1c-.7-.2-1.1-.7-1.1-1.2 0-.7.7-1.4 1.6-1.4 1.2 0 1.6.8 1.6 1.2l-.9.2c0-.2-.2-.6-.8-.6-.4 0-.6.2-.6.5 0 .2.2.4.4.4l.6.1c.8.2 1.2.7 1.2 1.3 0 .6-.5 1.4-1.6 1.4-1.2 0-1.7-.8-1.7-1.3l.9-.2zM109.9 34.3l1.8 2.5h-1.3l-1.2-1.8-.5.6v1.2h-1v-6.3h1v3.7l1.6-1.7h1.3zM113.4 34.3l1.1-.2c.2 0 .3-.2.3-.3 0-.4-.2-.6-.8-.6-.5 0-.8.3-.9.8l-.9-.2c.1-.7.7-1.4 1.8-1.4 1.3 0 1.8.7 1.8 1.6v2.1c0 .4 0 .6.1.7h-.9v-.5c-.2.3-.6.7-1.3.7-.9 0-1.4-.6-1.4-1.3-.2-.8.4-1.3 1.1-1.4m1.4.7v-.2l-1.1.2c-.3.1-.6.2-.6.6 0 .3.2.5.6.5.6 0 1.1-.3 1.1-1.1M117.1 38.4v-5.9h1v.6c.2-.4.7-.7 1.3-.7 1.2 0 2 1 2 2.2 0 1.3-.8 2.2-2 2.2-.6 0-1.1-.3-1.3-.6v2.1h-1zm2.2-5.1c-.7 0-1.1.5-1.1 1.3s.5 1.3 1.1 1.3c.7 0 1.1-.5 1.1-1.3 0-.7-.5-1.3-1.1-1.3M122.4 30.5h1v6.3h-1zM128.5 35.6c-.2.7-.9 1.3-1.9 1.3-1.1 0-2.2-.8-2.2-2.3 0-1.3 1-2.2 2.1-2.2 1.3 0 2.1.9 2.1 2.2v.3h-3.1c0 .6.5 1.1 1.2 1.1.6 0 .9-.3 1.1-.7l.7.3zm-.9-1.4c0-.5-.3-.9-1-.9-.6 0-1 .5-1 .9h2zM130.2 36.8c.1.5.5.9 1.1.9.8 0 1.2-.4 1.2-1.3V36c-.2.3-.6.6-1.2.6-1.1 0-2-.9-2-2.1 0-1.1.8-2.1 2-2.1.7 0 1.1.3 1.3.6v-.5h1v3.8c0 1.1-.6 2.2-2.2 2.2-1.1 0-1.9-.7-2-1.5l.8-.2zm2.3-2.3c0-.7-.5-1.2-1.1-1.2-.6 0-1.1.5-1.1 1.2s.4 1.2 1.1 1.2c.7 0 1.1-.5 1.1-1.2M138.6 35.6c-.2.7-.9 1.3-1.9 1.3-1.1 0-2.2-.8-2.2-2.3 0-1.3 1-2.2 2.1-2.2 1.3 0 2.1.9 2.1 2.2v.3h-3.1c0 .6.5 1.1 1.2 1.1.6 0 .9-.3 1.1-.7l.7.3zm-1-1.4c0-.5-.3-.9-1-.9-.6 0-1 .5-1 .9h2zM82.1 48.5c-1 0-1.6-.7-1.6-1.7v-2.7h1v2.5c0 .5.2 1 .9 1 .6 0 .9-.4.9-.9v-2.5h1v4.3h-1V48c-.2.3-.7.5-1.2.5M86.6 48.4h-1v-4.2h1v.6c.3-.5.8-.7 1.3-.7 1 0 1.5.7 1.5 1.7v2.7h-1V46c0-.5-.2-.9-.9-.9-.6 0-.9.4-.9 1v2.3zM91.2 42c.4 0 .7.3.7.7 0 .4-.3.7-.7.7-.4 0-.7-.3-.7-.7 0-.4.3-.7.7-.7m-.5 2.1h1v4.2h-1v-4.2zM95.2 48.4h-1l-1.7-4.3h1.1l1.2 3.1 1-3.1h1.1zM101.4 47.2c-.2.7-.9 1.3-1.9 1.3-1.1 0-2.2-.8-2.2-2.3 0-1.3 1-2.2 2.1-2.2 1.3 0 2.1.9 2.1 2.2v.3h-3.1c0 .6.5 1.1 1.2 1.1.6 0 .9-.3 1.1-.7l.7.3zm-1-1.4c0-.5-.3-.9-1-.9-.6 0-1 .5-1 .9h2zM104.9 45.1h-.3c-.8 0-1.1.5-1.1 1.2v2h-1v-4.2h1v.7c.2-.5.7-.7 1.2-.7h.3v1zM106.4 47c0 .4.3.7.9.7.4 0 .6-.2.6-.5 0-.2-.2-.4-.5-.5l-.6-.1c-.7-.2-1.1-.7-1.1-1.2 0-.7.7-1.4 1.6-1.4 1.2 0 1.6.8 1.6 1.2l-.9.2c0-.2-.2-.6-.8-.6-.4 0-.6.2-.6.5 0 .2.2.4.4.4l.6.1c.8.2 1.2.7 1.2 1.3 0 .6-.5 1.4-1.6 1.4-1.2 0-1.7-.8-1.7-1.3l.9-.2zM110.4 42c.4 0 .7.3.7.7 0 .4-.3.7-.7.7-.4 0-.7-.3-.7-.7.1-.4.4-.7.7-.7m-.5 2.1h1v4.2h-1v-4.2zM113.6 44.1h.9v.9h-.9v2c0 .4.2.5.5.5h.3v.8c-.1 0-.3.1-.6.1-.8 0-1.3-.5-1.3-1.3V45h-.8v-.9h.2c.5 0 .7-.3.7-.7v-.6h.9v1.3zM119.3 47.2c-.2.7-.9 1.3-1.9 1.3-1.1 0-2.2-.8-2.2-2.3 0-1.3 1-2.2 2.1-2.2 1.3 0 2.1.9 2.1 2.2v.3h-3.1c0 .6.5 1.1 1.2 1.1.6 0 .9-.3 1.1-.7l.7.3zm-1-1.4c0-.5-.3-.9-1-.9-.6 0-1 .5-1 .9h2zM121.7 44.1h.9v.9h-.9v2c0 .4.2.5.5.5h.3v.8c-.1 0-.3.1-.6.1-.8 0-1.3-.5-1.3-1.3V45h-.8v-.9h.2c.5 0 .7-.3.7-.7v-.6h.9v1.3z"/><path d="M84.7 17.4V26l-5.4-8.6h-2.6v12.1h2v-9.1l5.9 9.1h2.1V17.4z"/><g><defs><path id="SVGID_3_" d="M76.5 17h224.4v36.9H76.5z"/></defs><clipPath id="SVGID_4_"><use xlink:href="#SVGID_3_" overflow="visible"/></clipPath><path class="st1" d="M93.2 21c.6 0 1.2.1 1.7.3.5.2 1 .5 1.4.9.4.4.7.9.9 1.4.2.5.3 1.1.3 1.7s-.1 1.2-.3 1.8c-.2.5-.5 1-.9 1.4-.4.4-.8.7-1.4.9-.5.2-1.1.3-1.7.3-.6 0-1.2-.1-1.7-.3-.5-.2-1-.5-1.4-.9-.4-.4-.7-.9-.9-1.4-.2-.5-.3-1.1-.3-1.8s.1-1.2.3-1.7c.2-.5.5-1 .9-1.4.4-.4.8-.7 1.4-.9.5-.2 1-.3 1.7-.3m0 7c.3 0 .6-.1.9-.2.3-.1.5-.3.7-.5.2-.2.4-.5.5-.8.1-.3.2-.7.2-1.1 0-.4-.1-.8-.2-1.1-.1-.3-.3-.6-.5-.8-.2-.2-.5-.4-.7-.5-.3-.1-.6-.2-.9-.2-.3 0-.6.1-.9.2-.3.1-.5.3-.7.5-.2.2-.4.5-.5.8-.1.3-.2.7-.2 1.1 0 .4.1.8.2 1.1.1.3.3.6.5.8.2.2.5.4.7.5.3.1.5.2.9.2M104.3 23.2c-.2 0-.4-.1-.6-.1-.8 0-1.3.2-1.7.6-.4.4-.5 1-.5 1.8v3.9h-2v-8.3h1.9v1.3c.2-.5.5-.8.9-1.1.4-.2.9-.4 1.5-.4h.5v2.3zM107.1 29.5c.1.5.3.9.7 1.3.4.3.8.5 1.4.5 1.6 0 2.3-.8 2.3-2.5v-.9c-.2.3-.5.6-.9.8-.4.2-.9.4-1.5.4s-1.1-.1-1.5-.3c-.5-.2-.9-.5-1.2-.8-.3-.4-.6-.8-.8-1.3-.2-.5-.3-1-.3-1.6 0-.6.1-1.1.3-1.6.2-.5.4-.9.8-1.3.3-.4.7-.7 1.2-.9.5-.2 1-.3 1.6-.3.6 0 1.2.1 1.6.3.4.2.7.5.9.9v-1.1h1.9v7.5c0 .6-.1 1.1-.2 1.6-.2.5-.4 1-.7 1.4-.3.4-.8.7-1.3 1-.5.2-1.2.4-2 .4-.5 0-1-.1-1.5-.2-.5-.2-.9-.4-1.2-.6s-.6-.6-.8-1c-.2-.4-.3-.8-.4-1.2l1.6-.5zm2.4-2.1c.6 0 1.1-.2 1.5-.6.4-.4.6-1 .6-1.7 0-.4-.1-.7-.2-1-.1-.3-.3-.5-.4-.7-.2-.2-.4-.4-.7-.5-.3-.1-.5-.2-.8-.2-.6 0-1.2.2-1.6.6-.4.4-.6 1-.6 1.7s.2 1.3.6 1.7c.4.5.9.7 1.6.7M123.5 27.1c-.1.4-.3.7-.5 1-.2.3-.5.6-.8.8-.3.2-.7.4-1.1.6-.4.1-.9.2-1.4.2-.6 0-1.1-.1-1.6-.3-.5-.2-1-.5-1.3-.9-.4-.4-.7-.8-.9-1.4-.2-.5-.3-1.2-.3-1.9s.1-1.2.3-1.8c.2-.5.5-1 .9-1.4.4-.4.8-.7 1.3-.9s1-.3 1.5-.3c.6 0 1.2.1 1.7.3.5.2.9.5 1.3.9.3.4.6.8.8 1.3.2.5.3 1.1.3 1.8V25.7h-6c0 .3.1.6.2.9.1.3.3.5.5.7.2.2.4.3.7.5.3.1.6.2.9.2.6 0 1.1-.1 1.4-.4s.6-.6.7-1l1.4.5zm-1.9-2.7c0-.2-.1-.5-.1-.7-.1-.2-.2-.4-.4-.6-.2-.2-.4-.3-.6-.4-.2-.1-.5-.2-.9-.2-.3 0-.6.1-.8.2-.2.1-.4.2-.6.4-.2.2-.3.4-.4.6-.1.2-.2.4-.2.7h4zM126.7 26.8c0 .4.2.7.5 1 .3.3.7.4 1.2.4.4 0 .7-.1.9-.3.2-.2.3-.4.3-.7 0-.2-.1-.4-.2-.6-.2-.2-.4-.3-.7-.3l-1.2-.3c-.7-.2-1.3-.5-1.7-.9-.4-.4-.6-.9-.6-1.5 0-.4.1-.7.2-1 .2-.3.4-.6.6-.8.3-.2.6-.4 1-.6.4-.1.8-.2 1.2-.2.6 0 1.1.1 1.4.2.4.2.7.4 1 .6.2.2.4.5.6.8.1.3.2.5.2.7l-1.7.5c0-.1-.1-.2-.1-.4-.1-.1-.1-.3-.3-.4-.1-.1-.3-.2-.5-.3-.2-.1-.4-.1-.7-.1-.4 0-.6.1-.9.3-.2.2-.3.4-.3.7 0 .2.1.4.2.6s.4.2.6.3l1.3.3c.8.2 1.4.5 1.8.9.4.4.6 1 .6 1.6 0 .3-.1.6-.2.9-.1.3-.3.6-.6.8-.3.3-.6.5-1 .6-.4.2-.9.2-1.4.2-.6 0-1.1-.1-1.5-.3-.4-.2-.8-.4-1-.6-.3-.3-.5-.5-.6-.8-.1-.3-.2-.6-.2-.8l1.8-.5zM137.8 29.5v-8.3h1.9v1.1c.2-.4.6-.7 1.1-1 .5-.2.9-.3 1.4-.3.5 0 1 .1 1.5.4.4.2.8.6 1 1.1.3-.5.7-.9 1.2-1.1.5-.2 1-.3 1.5-.3.4 0 .7.1 1.1.2.3.1.7.3.9.6.3.3.5.6.7 1 .2.4.2.9.2 1.4v5.4h-1.9v-5c0-.5-.1-.9-.4-1.2-.3-.3-.7-.5-1.2-.5s-.9.2-1.2.5c-.3.4-.5.8-.5 1.3v4.9H143v-5c0-.5-.1-.9-.4-1.2-.2-.3-.7-.5-1.2-.5s-.9.2-1.3.5c-.3.3-.5.8-.5 1.3v4.9h-1.8zM152.3 18.3c0-.4.1-.7.4-.9.2-.2.5-.4.9-.4s.7.1.9.4c.2.2.4.6.4.9 0 .4-.1.7-.4.9-.2.2-.6.4-.9.4-.4 0-.7-.1-.9-.4s-.4-.5-.4-.9m.3 2.9h1.9v8.3h-1.9v-8.3zM157.1 17.2h2v12.3h-2zM161.6 21.2h2v9.1c0 .4-.1.7-.2 1.1-.1.3-.3.6-.5.8-.2.2-.5.4-.8.6s-.6.2-1 .2c-.3 0-.6 0-.8-.1-.2 0-.3-.1-.3-.1v-1.6h.5c.4 0 .6-.1.8-.3.2-.2.2-.5.2-.8v-8.9zm-.3-2.9c0-.4.1-.7.4-.9.2-.2.5-.4.9-.4s.7.1.9.4c.2.2.4.6.4.9 0 .4-.1.7-.4.9-.2.2-.6.4-.9.4-.4 0-.6-.1-.9-.4-.3-.3-.4-.6-.4-.9M169.9 21c.4 0 .8 0 1.2.1.4.1.7.2 1 .4l.9-1.1 1.1.9-.9 1.1c.3.4.6.8.8 1.3.2.5.3 1 .3 1.6 0 .6-.1 1.2-.3 1.8-.2.5-.5 1-.9 1.4-.4.4-.8.7-1.4.9-.5.2-1.1.3-1.7.3-.4 0-.8 0-1.2-.1-.4-.1-.7-.2-1-.4l-.8 1.1-1.1-.9.8-1.1c-.3-.4-.6-.8-.8-1.3-.2-.5-.3-1.1-.3-1.7 0-.6.1-1.2.3-1.7.2-.5.5-1 .9-1.4s.8-.7 1.4-.9c.5-.2 1-.3 1.7-.3m-2.3 4.3c0 .6.1 1 .3 1.4l3-3.8c-.3-.2-.7-.2-1-.2-.3 0-.6.1-.9.2-.3.1-.5.3-.7.5-.2.2-.4.5-.5.8-.2.3-.2.7-.2 1.1m1.3 2.4c.3.1.6.2 1 .2.3 0 .6-.1.9-.2.3-.1.5-.3.7-.5.2-.2.4-.5.5-.8.1-.3.2-.7.2-1.1 0-.3 0-.5-.1-.8-.1-.2-.1-.4-.2-.6l-3 3.8zM176 23.6h4.8v1.7H176zM191.2 21c.6 0 1.2.1 1.7.3.5.2 1 .5 1.4.9.4.4.7.9.9 1.4.2.5.3 1.1.3 1.7s-.1 1.2-.3 1.8c-.2.5-.5 1-.9 1.4-.4.4-.8.7-1.4.9-.5.2-1.1.3-1.7.3-.6 0-1.2-.1-1.7-.3-.5-.2-1-.5-1.4-.9s-.7-.9-.9-1.4c-.2-.5-.3-1.1-.3-1.8s.1-1.2.3-1.7c.2-.5.5-1 .9-1.4.4-.4.8-.7 1.4-.9.5-.2 1-.3 1.7-.3m0 7c.3 0 .6-.1.9-.2.3-.1.5-.3.7-.5.2-.2.4-.5.5-.8.1-.3.2-.7.2-1.1 0-.4-.1-.8-.2-1.1-.1-.3-.3-.6-.5-.8-.2-.2-.5-.4-.7-.5-.3-.1-.6-.2-.9-.2-.3 0-.6.1-.9.2-.3.1-.5.3-.7.5-.2.2-.4.5-.5.8-.1.3-.2.7-.2 1.1 0 .4.1.8.2 1.1.1.3.3.6.5.8.2.2.5.4.7.5.3.1.6.2.9.2M198.7 29.5c.1.5.3.9.7 1.3.4.3.8.5 1.4.5 1.6 0 2.3-.8 2.3-2.5v-.9c-.2.3-.5.6-.9.8-.4.2-.9.4-1.5.4s-1.1-.1-1.5-.3c-.5-.2-.9-.5-1.2-.8-.3-.4-.6-.8-.8-1.3-.2-.5-.3-1-.3-1.6 0-.6.1-1.1.3-1.6.2-.5.4-.9.8-1.3.3-.4.7-.7 1.2-.9.5-.2 1-.3 1.6-.3.6 0 1.2.1 1.6.3.4.2.7.5.9.9v-1.1h1.9v7.5c0 .6-.1 1.1-.2 1.6-.2.5-.4 1-.7 1.4-.3.4-.8.7-1.3 1-.5.2-1.2.4-2 .4-.5 0-1-.1-1.5-.2-.5-.2-.9-.4-1.2-.6s-.6-.6-.8-1c-.2-.4-.3-.8-.4-1.2l1.6-.5zm2.4-2.1c.6 0 1.1-.2 1.5-.6s.6-1 .6-1.7c0-.4-.1-.7-.2-1-.1-.3-.3-.5-.4-.7-.2-.2-.4-.4-.7-.5-.3-.1-.5-.2-.8-.2-.6 0-1.2.2-1.6.6-.4.4-.6 1-.6 1.7s.2 1.3.6 1.7c.4.5.9.7 1.6.7M76.5 50.4V38.1h1.9v5c.2-.3.5-.6 1-.9.4-.2 1-.4 1.6-.4.6 0 1.2.1 1.6.3.5.2.9.5 1.2.9.3.4.6.8.7 1.4.2.5.2 1.1.2 1.7 0 .6-.1 1.2-.3 1.7-.2.5-.4 1-.8 1.4-.3.4-.7.7-1.2.9-.5.2-1 .3-1.6.3-.6 0-1.1-.1-1.5-.4-.4-.2-.8-.6-1-1v1.1h-1.8zm6.4-4.2c0-.8-.2-1.5-.6-1.9-.4-.4-.9-.7-1.6-.7-.6 0-1.2.2-1.6.7-.4.4-.6 1.1-.6 1.9 0 .4.1.8.2 1.1.1.3.3.6.5.8.2.2.4.4.7.5.3.1.6.2.9.2.6 0 1.2-.2 1.6-.7.3-.4.5-1.1.5-1.9M86.6 39.2c0-.4.1-.7.4-.9s.5-.4.9-.4.7.1.9.4.4.6.4.9c0 .4-.1.7-.4.9-.2.2-.6.4-.9.4-.4 0-.7-.1-.9-.4-.3-.2-.4-.5-.4-.9m.3 2.9h1.9v8.3h-1.9v-8.3zM95.1 41.9c.6 0 1.2.1 1.7.3.5.2 1 .5 1.4.9.4.4.7.9.9 1.4.2.5.3 1.1.3 1.7 0 .6-.1 1.2-.3 1.8-.2.5-.5 1-.9 1.4-.4.4-.8.7-1.4.9-.5.2-1.1.3-1.7.3-.6 0-1.2-.1-1.7-.3-.5-.2-1-.5-1.4-.9-.4-.4-.7-.9-.9-1.4-.2-.5-.3-1.1-.3-1.8 0-.6.1-1.2.3-1.7.2-.5.5-1 .9-1.4.4-.4.8-.7 1.4-.9.6-.2 1.1-.3 1.7-.3m0 7c.3 0 .6-.1.9-.2.3-.1.5-.3.7-.5.2-.2.4-.5.5-.8.1-.3.2-.7.2-1.1 0-.4-.1-.8-.2-1.1-.1-.3-.3-.6-.5-.8-.2-.2-.5-.4-.7-.5-.3-.1-.6-.2-.9-.2-.3 0-.6.1-.9.2-.3.1-.5.3-.7.5-.2.2-.4.5-.5.8-.1.3-.2.7-.2 1.1 0 .4.1.8.2 1.1.1.3.3.6.5.8.2.2.5.4.7.5.3.1.6.2.9.2M105.5 50.4h-1.9l-3.4-8.3h2.2l2.2 5.9 2.1-5.9h2.1zM110.1 39.2c0-.4.1-.7.4-.9.2-.2.5-.4.9-.4s.7.1.9.4.4.6.4.9c0 .4-.1.7-.4.9-.2.2-.6.4-.9.4-.3 0-.6-.1-.9-.4-.3-.2-.4-.5-.4-.9m.3 2.9h1.9v8.3h-1.9v-8.3zM117.5 42.1h1.7v1.7h-1.7v3.8c0 .4.1.6.3.8.2.2.4.2.8.2h.7v1.6c-.1 0-.2.1-.4.1-.2.1-.5.1-.8.1-.8 0-1.4-.2-1.8-.6-.4-.4-.7-1-.7-1.8v-4.2H114v-1.7h.4c.4 0 .8-.1 1-.4.2-.2.3-.6.3-.9v-1.2h1.8v2.5zM128.6 48c-.1.4-.3.7-.5 1-.2.3-.5.6-.8.8-.3.2-.7.4-1.1.6-.4.1-.9.2-1.4.2-.6 0-1.1-.1-1.6-.3-.5-.2-1-.5-1.3-.9-.4-.4-.7-.8-.9-1.4-.2-.5-.3-1.2-.3-1.9s.1-1.2.3-1.8c.2-.5.5-1 .9-1.4.4-.4.8-.7 1.3-.9s1-.3 1.5-.3c.6 0 1.2.1 1.7.3.5.2.9.5 1.3.9.3.4.6.8.8 1.3.2.5.3 1.1.3 1.8V46.6h-6c0 .3.1.6.2.9.1.3.3.5.5.7.2.2.4.3.7.5.3.1.6.2.9.2.6 0 1.1-.1 1.4-.4.3-.3.6-.6.7-1l1.4.5zm-1.9-2.7c0-.2-.1-.5-.1-.7-.1-.2-.2-.4-.4-.6-.2-.2-.4-.3-.6-.4-.2-.1-.5-.2-.9-.2-.3 0-.6.1-.8.2-.2.1-.5.2-.6.4-.2.2-.3.4-.4.6-.1.2-.2.4-.2.7h4zM132.6 50.4h-2v-8.3h1.9v1.1c.3-.5.6-.8 1.1-1 .4-.2.9-.3 1.4-.3.5 0 .9.1 1.3.3.4.2.7.4.9.7.2.3.4.6.6 1 .1.4.2.8.2 1.3v5.2h-2v-4.9c0-.5-.1-.9-.4-1.3-.3-.4-.7-.5-1.3-.5-.6 0-1 .2-1.3.6-.3.4-.4.8-.4 1.4v4.7zM141.6 47.7c0 .4.2.7.5 1 .3.3.7.4 1.2.4.4 0 .7-.1.9-.3.2-.2.3-.4.3-.7 0-.2-.1-.4-.2-.6-.2-.2-.4-.3-.7-.3l-1.2-.3c-.7-.2-1.3-.5-1.7-.9-.4-.4-.6-.9-.6-1.5 0-.4.1-.7.2-1 .2-.3.4-.6.6-.8.3-.2.6-.4 1-.6.4-.1.8-.2 1.2-.2.6 0 1.1.1 1.4.2s.7.4 1 .6c.2.2.4.5.6.8.1.3.2.5.2.7l-1.7.5c0-.1-.1-.2-.1-.4-.1-.1-.1-.3-.3-.4-.1-.1-.3-.2-.5-.3-.2-.1-.4-.1-.7-.1-.4 0-.6.1-.9.3-.2.2-.3.4-.3.7 0 .2.1.4.2.6.1.1.4.2.6.3l1.3.3c.8.2 1.4.5 1.8.9.4.4.6 1 .6 1.6 0 .3-.1.6-.2.9-.1.3-.3.6-.6.8-.3.3-.6.5-1 .6-.4.2-.9.2-1.4.2-.6 0-1.1-.1-1.5-.3-.4-.2-.8-.4-1-.6s-.5-.5-.6-.8c-.1-.3-.2-.6-.2-.8l1.8-.5zM152.8 45.6l3.5 4.8h-2.5l-2.4-3.4-1 1.1v2.3h-1.9V38.1h1.9v7.4l3.2-3.4h2.6zM157 48.1c0-.4.1-.7.2-1 .1-.3.3-.5.5-.7.2-.2.5-.4.8-.5.3-.1.6-.2 1-.3l2.1-.3c.2 0 .4-.1.5-.2.1-.1.1-.2.1-.4 0-.4-.1-.6-.4-.9-.2-.2-.6-.4-1.2-.4-.5 0-.9.1-1.2.4-.3.3-.4.6-.5 1.1l-1.8-.4c0-.4.1-.7.3-1 .2-.3.4-.6.7-.9.3-.2.6-.4 1.1-.6.4-.1.9-.2 1.4-.2.6 0 1.2.1 1.6.3.4.2.8.4 1.1.7.3.3.5.6.6 1 .1.4.2.8.2 1.2v5c0 .2 0 .4.1.4h-1.8s0-.1-.1-.3v-.8c-.2.3-.5.6-.9.9-.4.3-1 .4-1.6.4-.4 0-.8-.1-1.2-.2-.3-.1-.6-.3-.9-.6-.2-.2-.4-.5-.6-.8-.1-.2-.1-.5-.1-.9m3.1 1c.3 0 .5 0 .8-.1.2-.1.5-.2.7-.4.2-.2.3-.4.4-.7.1-.3.2-.6.2-1v-.4l-2.2.3c-.3.1-.6.2-.8.3-.2.2-.3.4-.3.8 0 .3.1.5.3.7.3.4.6.5.9.5M166.6 53.6V42.1h1.9v1.1c.2-.4.5-.7 1-.9.5-.3 1-.4 1.6-.4.6 0 1.2.1 1.6.3.5.2.9.5 1.2.9.3.4.6.8.7 1.4.2.5.3 1.1.3 1.7 0 .6-.1 1.2-.3 1.7-.2.5-.4 1-.8 1.4-.3.4-.8.7-1.2.9-.5.2-1 .3-1.6.3-.6 0-1.1-.1-1.5-.3-.4-.2-.8-.5-1-.8v4.2h-1.9zm6.4-7.4c0-.8-.2-1.4-.6-1.9-.4-.5-.9-.7-1.6-.7-.3 0-.6.1-.9.2-.3.1-.5.3-.7.5-.2.2-.3.5-.5.8-.1.3-.2.7-.2 1.1 0 .8.2 1.4.6 1.9s.9.7 1.6.7c.7 0 1.2-.2 1.6-.7.5-.4.7-1.1.7-1.9M184.4 48c-.1.4-.3.7-.5 1-.2.3-.5.6-.8.8-.3.2-.7.4-1.1.6-.4.1-.9.2-1.4.2-.6 0-1.1-.1-1.6-.3-.5-.2-1-.5-1.3-.9-.4-.4-.7-.8-.9-1.4-.2-.5-.3-1.2-.3-1.9s.1-1.2.3-1.8c.2-.5.5-1 .9-1.4.4-.4.8-.7 1.3-.9.5-.2 1-.3 1.5-.3.6 0 1.2.1 1.7.3.5.2.9.5 1.3.9.3.4.6.8.8 1.3.2.5.3 1.1.3 1.8V46.6h-6c0 .3.1.6.2.9.1.3.3.5.5.7.2.2.4.3.7.5.3.1.6.2.9.2.6 0 1.1-.1 1.4-.4.3-.3.6-.6.7-1l1.4.5zm-1.9-2.7c0-.2-.1-.5-.1-.7-.1-.2-.2-.4-.4-.6-.2-.2-.4-.3-.6-.4-.2-.1-.5-.2-.9-.2-.3 0-.6.1-.8.2-.2.1-.4.2-.6.4-.2.2-.3.4-.4.6-.1.2-.2.4-.2.7h4zM186.5 38.1h2v12.3h-2zM190.7 39.2c0-.4.1-.7.4-.9.2-.2.5-.4.9-.4s.7.1.9.4c.2.2.4.6.4.9 0 .4-.1.7-.4.9-.2.2-.6.4-.9.4-.4 0-.7-.1-.9-.4-.3-.2-.4-.5-.4-.9m.3 2.9h1.9v8.3H191v-8.3zM196.8 50.4c.1.5.3.9.7 1.3.4.3.8.5 1.4.5 1.6 0 2.3-.8 2.3-2.5v-.9c-.2.3-.5.6-.9.8-.4.2-.9.4-1.5.4s-1.1-.1-1.5-.3c-.5-.2-.9-.5-1.2-.8-.3-.4-.6-.8-.8-1.3-.2-.5-.3-1-.3-1.6 0-.6.1-1.1.3-1.6.2-.5.4-.9.8-1.3.3-.4.7-.6 1.2-.9.5-.2 1-.3 1.6-.3.6 0 1.2.1 1.6.3s.7.5.9.9V42h1.9v7.5c0 .6-.1 1.1-.2 1.6-.2.5-.4 1-.7 1.4-.3.4-.8.7-1.3.9-.5.2-1.2.4-2 .4-.5 0-1-.1-1.5-.2-.5-.2-.9-.4-1.2-.6-.3-.3-.6-.6-.8-1-.2-.4-.3-.8-.4-1.2l1.6-.4zm2.3-2.1c.6 0 1.1-.2 1.5-.6.4-.4.6-1 .6-1.7 0-.4-.1-.7-.2-1-.1-.3-.3-.5-.4-.7-.2-.2-.4-.4-.7-.5-.3-.1-.5-.2-.8-.2-.6 0-1.2.2-1.6.6-.4.4-.6 1-.6 1.7s.2 1.3.6 1.7c.5.5 1 .7 1.6.7M213.1 48c-.1.4-.3.7-.5 1-.2.3-.5.6-.8.8-.3.2-.7.4-1.1.6-.4.1-.9.2-1.4.2-.6 0-1.1-.1-1.6-.3-.5-.2-1-.5-1.3-.9-.4-.4-.7-.8-.9-1.4-.2-.5-.3-1.2-.3-1.9s.1-1.2.3-1.8c.2-.5.5-1 .9-1.4.4-.4.8-.7 1.3-.9.5-.2 1-.3 1.5-.3.6 0 1.2.1 1.7.3.5.2.9.5 1.3.9.3.4.6.8.8 1.3.2.5.3 1.1.3 1.8V46.6h-6c0 .3.1.6.2.9.1.3.3.5.5.7.2.2.4.3.7.5.3.1.6.2.9.2.6 0 1.1-.1 1.4-.4.3-.3.6-.6.7-1l1.4.5zm-1.9-2.7c0-.2-.1-.5-.1-.7-.1-.2-.2-.4-.4-.6-.2-.2-.4-.3-.6-.4-.2-.1-.5-.2-.9-.2-.3 0-.6.1-.8.2-.2.1-.4.2-.6.4-.2.2-.3.4-.4.6-.1.2-.2.4-.2.7h4zM224.8 49.5c-.2.4-.5.7-1 .9-.4.2-.9.3-1.4.3-.5 0-.9-.1-1.3-.3-.4-.2-.7-.4-1-.7-.3-.3-.5-.6-.6-1-.1-.4-.2-.8-.2-1.3v-5.2h2V47c0 .3 0 .5.1.7l.3.6c.1.2.3.3.5.4s.5.2.8.2c.6 0 1-.2 1.3-.5.3-.3.4-.8.4-1.3v-4.9h2V49.8c0 .3 0 .5.1.6h-1.9c0-.1 0-.2-.1-.4v-.5M231.2 50.4h-2v-8.3h1.9v1.1c.3-.5.6-.8 1.1-1 .4-.2.9-.3 1.4-.3.5 0 .9.1 1.3.3.4.2.7.4.9.7.2.3.4.6.6 1 .1.4.2.8.2 1.3v5.2h-2v-4.9c0-.5-.1-.9-.4-1.3-.3-.4-.7-.5-1.3-.5-.6 0-1 .2-1.3.6-.3.4-.4.8-.4 1.4v4.7zM238.7 39.2c0-.4.1-.7.4-.9.2-.2.5-.4.9-.4s.7.1.9.4c.2.2.4.6.4.9 0 .4-.1.7-.4.9-.2.2-.6.4-.9.4-.4 0-.6-.1-.9-.4-.3-.2-.4-.5-.4-.9m.3 2.9h1.9v8.3H239v-8.3zM247.9 50.4h-2l-3.4-8.3h2.2l2.2 5.9 2.1-5.9h2.1zM259.9 48c-.1.4-.3.7-.5 1-.2.3-.5.6-.8.8-.3.2-.7.4-1.1.6-.4.1-.9.2-1.4.2-.6 0-1.1-.1-1.6-.3-.5-.2-1-.5-1.3-.9-.4-.4-.7-.8-.9-1.4-.2-.5-.3-1.2-.3-1.9s.1-1.2.3-1.8c.2-.5.5-1 .9-1.4.4-.4.8-.7 1.3-.9.5-.2 1-.3 1.5-.3.6 0 1.2.1 1.7.3.5.2.9.5 1.3.9.3.4.6.8.8 1.3.2.5.3 1.1.3 1.8V46.6h-6c0 .3.1.6.2.9s.3.5.5.7c.2.2.4.3.7.5.3.1.6.2.9.2.6 0 1.1-.1 1.4-.4.3-.3.6-.6.7-1l1.4.5zm-1.9-2.7c0-.2-.1-.5-.1-.7-.1-.2-.2-.4-.4-.6-.2-.2-.4-.3-.6-.4-.2-.1-.5-.2-.9-.2-.3 0-.6.1-.8.2-.2.1-.4.2-.6.4-.2.2-.3.4-.4.6-.1.2-.2.4-.2.7h4zM266.8 44.1c-.2 0-.4-.1-.6-.1-.8 0-1.3.2-1.7.6-.4.4-.5 1-.5 1.8v3.9h-2V42h1.9v1.3c.2-.5.5-.8.9-1.1.4-.2.9-.4 1.5-.4h.5v2.3zM269.6 47.7c0 .4.2.7.5 1 .3.3.7.4 1.2.4.4 0 .7-.1.9-.3.2-.2.3-.4.3-.7 0-.2-.1-.4-.2-.6-.2-.2-.4-.3-.7-.3l-1.2-.3c-.7-.2-1.3-.5-1.7-.9-.4-.4-.6-.9-.6-1.5 0-.4.1-.7.2-1 .2-.3.4-.6.6-.8.3-.2.6-.4 1-.6.4-.1.8-.2 1.2-.2.6 0 1.1.1 1.4.2.4.2.7.4 1 .6.2.2.4.5.6.8.1.3.2.5.2.7l-1.7.5c0-.1-.1-.2-.1-.4-.1-.1-.1-.3-.3-.4-.1-.1-.3-.2-.5-.3-.2-.1-.4-.1-.7-.1-.4 0-.6.1-.9.3-.2.2-.3.4-.3.7 0 .2.1.4.2.6.1.1.4.2.6.3l1.3.3c.8.2 1.4.5 1.8.9.4.4.6 1 .6 1.6 0 .3-.1.6-.2.9-.1.3-.3.6-.6.8-.3.3-.6.5-1 .6-.4.2-.9.2-1.4.2-.6 0-1.1-.1-1.5-.3-.4-.2-.8-.4-1-.6-.3-.3-.5-.5-.6-.8-.1-.3-.2-.6-.2-.8l1.8-.5zM276.2 39.2c0-.4.1-.7.4-.9.2-.2.5-.4.9-.4s.7.1.9.4c.2.2.4.6.4.9 0 .4-.1.7-.4.9-.2.2-.6.4-.9.4-.4 0-.6-.1-.9-.4-.3-.2-.4-.5-.4-.9m.3 2.9h2v8.3h-2v-8.3zM283.6 42.1h1.7v1.7h-1.7v3.8c0 .4.1.6.3.8.2.2.4.2.8.2h.7v1.6c-.1 0-.2.1-.4.1-.2.1-.5.1-.8.1-.8 0-1.4-.2-1.8-.6-.4-.4-.7-1-.7-1.8v-4.2h-1.5v-1.7h.4c.4 0 .8-.1 1-.4.2-.2.3-.6.3-.9v-1.2h1.8v2.5zM294.6 48c-.1.4-.3.7-.5 1-.2.3-.5.6-.8.8-.3.2-.7.4-1.1.6-.4.1-.9.2-1.4.2-.6 0-1.1-.1-1.6-.3-.5-.2-1-.5-1.3-.9-.4-.4-.7-.8-.9-1.4-.2-.5-.3-1.2-.3-1.9s.1-1.2.3-1.8c.2-.5.5-1 .9-1.4.4-.4.8-.7 1.3-.9.5-.2 1-.3 1.5-.3.6 0 1.2.1 1.7.3.5.2.9.5 1.3.9.3.4.6.8.8 1.3.2.5.3 1.1.3 1.8V46.6h-6c0 .3.1.6.2.9.1.3.3.5.5.7.2.2.4.3.7.5.3.1.6.2.9.2.6 0 1.1-.1 1.4-.4.3-.3.6-.6.7-1l1.4.5zm-1.9-2.7c0-.2-.1-.5-.1-.7-.1-.2-.2-.4-.4-.6-.2-.2-.4-.3-.6-.4-.2-.1-.5-.2-.9-.2-.3 0-.6.1-.8.2-.2.1-.4.2-.6.4-.2.2-.3.4-.4.6-.1.2-.2.4-.2.7h4zM299.2 42.1h1.7v1.7h-1.7v3.8c0 .4.1.6.3.8.2.2.4.2.8.2h.7v1.6c-.1 0-.2.1-.4.1-.2.1-.5.1-.8.1-.8 0-1.4-.2-1.8-.6-.4-.4-.7-1-.7-1.8v-4.2h-1.5v-1.7h.4c.4 0 .8-.1 1-.4.2-.2.3-.6.3-.9v-1.2h1.8v2.5z"/></g></svg>