<?xml version="1.0" encoding="UTF-8" standalone="no"?>
<svg
   xmlns:dc="http://purl.org/dc/elements/1.1/"
   xmlns:cc="http://creativecommons.org/ns#"
   xmlns:rdf="http://www.w3.org/1999/02/22-rdf-syntax-ns#"
   xmlns:svg="http://www.w3.org/2000/svg"
   xmlns="http://www.w3.org/2000/svg"
   viewBox="0 0 306.53067 90.708664"
   height="90.708664"
   width="306.53067"
   xml:space="preserve"
   id="svg2"
   version="1.1"><metadata
     id="metadata8"><rdf:RDF><cc:Work
         rdf:about=""><dc:format>image/svg+xml</dc:format><dc:type
           rdf:resource="http://purl.org/dc/dcmitype/StillImage" /></cc:Work></rdf:RDF></metadata><defs
     id="defs6"><clipPath
       id="clipPath18"
       clipPathUnits="userSpaceOnUse"><path
         id="path16"
         d="M 2.836,2.835 H 65.198 V 65.197 H 2.836 Z" /></clipPath><clipPath
       id="clipPath30"
       clipPathUnits="userSpaceOnUse"><path
         id="path28"
         d="M 76.536,2.835 H 227.064 V 63.767 H 76.536 Z" /></clipPath></defs><g
     transform="matrix(1.3333333,0,0,-1.3333333,0,90.708667)"
     id="g10"><g
       id="g12"><g
         clip-path="url(#clipPath18)"
         id="g14"><g
           transform="translate(220.8368,23.6215)"
           id="g20"><path
             id="path22"
             style="fill:#000000;fill-opacity:1;fill-rule:nonzero;stroke:none"
             d="M 0,0 C -0.091,1.425 -0.811,2.109 -2.056,2.109 -3.228,2.109 -4.021,1.335 -4.222,0 Z m 2.541,-0.884 v -0.72 h -6.796 c 0.071,-1.572 0.916,-2.472 2.345,-2.472 1.208,0 1.804,0.523 1.964,1.315 h 2.474 c -0.31,-2.036 -1.933,-3.174 -4.514,-3.174 -2.85,0 -4.92,1.786 -4.92,4.797 v 0.145 c 0,2.977 2.109,4.906 4.85,4.906 2.434,0 4.597,-1.424 4.597,-4.797 m -14.752,-4.852 h 2.596 V 7.971 h -2.596 z m -9.814,4.672 c 0,-1.804 0.824,-2.886 2.305,-2.886 1.461,0 2.31,1.082 2.31,2.866 v 0.127 c 0,1.805 -0.849,2.887 -2.31,2.887 -1.44,0 -2.305,-1.046 -2.305,-2.851 z m -2.673,-0.054 v 0.143 c 0,2.959 2.147,4.888 4.978,4.888 2.833,0 4.961,-1.892 4.961,-4.834 v -0.143 c 0,-2.977 -2.146,-4.871 -4.978,-4.871 -2.814,0 -4.961,1.877 -4.961,4.817 m -1.374,-4.618 -3.697,5.142 3.426,4.292 h -2.776 l -3.029,-3.987 v 8.26 h -2.613 V -5.736 h 2.613 v 4.456 l 3.119,-4.456 z m -11.079,2.905 c 0,2.02 -1.296,2.615 -3.66,2.956 -1.369,0.198 -1.823,0.434 -1.823,1.028 0,0.577 0.487,0.976 1.337,0.976 0.901,0 1.336,-0.362 1.482,-1.138 h 2.396 c -0.237,2.164 -1.808,2.922 -3.897,2.922 -1.928,0 -3.733,-0.974 -3.733,-2.939 0,-1.84 0.971,-2.563 3.483,-2.94 1.351,-0.197 1.911,-0.469 1.911,-1.119 0,-0.65 -0.472,-1.027 -1.478,-1.027 -1.138,0 -1.552,0.486 -1.661,1.335 h -2.436 c 0.091,-2.039 1.569,-3.158 4.111,-3.158 2.49,0 3.968,1.064 3.968,3.104 m -13.133,2.183 c 0,1.605 -0.848,2.578 -2.271,2.578 -1.462,0 -2.271,-1.046 -2.271,-2.597 v -0.144 c 0,-1.569 0.918,-2.544 2.219,-2.544 1.366,0 2.323,0.975 2.323,2.579 z m -0.072,4.346 h 2.6 v -8.696 c -0.022,-2.795 -1.881,-4.219 -4.982,-4.219 -3.047,0 -4.433,1.334 -4.688,3.282 h 2.6 c 0.16,-0.829 0.756,-1.369 2.088,-1.369 1.588,0 2.382,0.828 2.382,2.306 v 1.427 c -0.525,-0.919 -1.638,-1.751 -3.031,-1.751 -2.288,0 -4.111,1.714 -4.111,4.511 v 0.124 c 0,2.708 1.804,4.6 4.15,4.6 1.532,0 2.451,-0.668 2.992,-1.622 z m -11.855,-4.655 c 0,0.541 -0.09,1.011 -0.232,1.409 l -3.608,-3.896 c 0.38,-0.346 0.885,-0.525 1.517,-0.525 1.477,0 2.323,1.101 2.323,2.885 z m -4.469,-1.423 3.554,3.841 c -0.362,0.306 -0.849,0.469 -1.408,0.469 -1.462,0 -2.326,-1.046 -2.326,-2.851 v -0.143 c 0,-0.505 0.052,-0.938 0.18,-1.316 m 7.106,1.316 c 0,-2.977 -2.146,-4.871 -4.982,-4.871 -1.151,0 -2.181,0.309 -2.992,0.868 l -1.26,-1.354 -0.889,0.795 1.266,1.35 c -0.685,0.812 -1.081,1.878 -1.081,3.158 v 0.143 c 0,2.959 2.142,4.888 4.978,4.888 1.099,0 2.109,-0.288 2.904,-0.829 l 1.189,1.282 0.885,-0.795 -1.174,-1.263 c 0.723,-0.812 1.156,-1.911 1.156,-3.229 z m -18.651,0.775 c 0,1.389 0.842,2.074 1.96,2.074 1.158,0 1.661,-0.612 1.661,-1.892 v -5.629 h 2.616 V 0.27 c 0,2.524 -1.318,3.643 -3.177,3.643 -1.566,0 -2.597,-0.774 -3.06,-1.714 v 5.772 h -2.616 V -5.736 h 2.616 z m -8.159,3.987 -3.032,-3.987 v 8.26 h -2.613 V -5.736 h 2.613 v 4.456 l 3.119,-4.456 h 2.959 l -3.699,5.142 3.43,4.292 z m -16.833,4.273 V -5.736 h 2.618 v 4.456 l 3.119,-4.456 h 2.956 l -3.696,5.142 3.427,4.292 h -2.778 l -3.028,-3.987 v 8.26 z m -6.172,-13.707 h 2.6 v 9.434 h -2.6 z m 1.282,13.563 c -0.828,0 -1.478,-0.614 -1.478,-1.425 0,-0.812 0.65,-1.425 1.478,-1.425 0.849,0 1.499,0.613 1.499,1.425 0,0.811 -0.65,1.425 -1.499,1.425 m -12.088,-6.853 c 0,-1.84 0.977,-2.563 3.482,-2.94 1.354,-0.197 1.911,-0.469 1.911,-1.119 0,-0.65 -0.468,-1.027 -1.478,-1.027 -1.136,0 -1.55,0.486 -1.659,1.335 h -2.436 c 0.089,-2.039 1.571,-3.158 4.11,-3.158 2.491,0 3.972,1.064 3.972,3.104 0,2.02 -1.301,2.615 -3.664,2.956 -1.37,0.198 -1.82,0.434 -1.82,1.028 0,0.577 0.484,0.976 1.334,0.976 0.901,0 1.335,-0.362 1.481,-1.138 h 2.397 c -0.236,2.164 -1.803,2.922 -3.897,2.922 -1.931,0 -3.733,-0.974 -3.733,-2.939 m -2.983,-6.71 v 9.434 h -2.596 v -5.537 c 0,-1.389 -0.864,-2.075 -1.968,-2.075 -1.111,0 -1.638,0.613 -1.638,1.893 v 5.719 h -2.592 V -2.38 c 0,-2.472 1.366,-3.555 3.206,-3.555 1.553,0 2.505,0.722 2.992,1.677 v -1.478 z m -14.738,5.756 v -5.756 h 2.597 v 6.042 c 0,2.506 -1.354,3.607 -3.104,3.607 -1.191,0 -2.415,-0.505 -3.171,-1.642 -0.45,1.119 -1.391,1.642 -2.635,1.642 -1.406,0 -2.416,-0.774 -2.887,-1.66 v 1.445 h -2.614 v -9.434 h 2.614 v 5.574 c 0,1.279 0.816,1.929 1.825,1.929 0.916,0 1.479,-0.54 1.479,-1.747 v -5.756 h 2.596 v 5.574 c 0,1.279 0.811,1.929 1.82,1.929 0.939,0 1.48,-0.54 1.48,-1.747 m 49.204,17.518 c -1.136,0 -1.547,0.487 -1.662,1.335 h -2.43 c 0.091,-2.039 1.568,-3.155 4.11,-3.155 2.487,0 3.969,1.064 3.969,3.1 0,2.021 -1.302,2.616 -3.661,2.959 -1.374,0.198 -1.822,0.432 -1.822,1.026 0,0.579 0.487,0.975 1.337,0.975 0.9,0 1.332,-0.361 1.475,-1.135 h 2.401 c -0.235,2.164 -1.806,2.922 -3.898,2.922 -1.928,0 -3.733,-0.975 -3.733,-2.94 0,-1.841 0.973,-2.56 3.479,-2.941 1.353,-0.198 1.916,-0.467 1.916,-1.118 0,-0.65 -0.471,-1.028 -1.481,-1.028 m -12.703,4.112 h 4.223 c -0.089,1.425 -0.811,2.111 -2.057,2.111 -1.172,0 -1.964,-0.776 -2.166,-2.111 m -2.684,-1.135 v 0.144 c 0,2.975 2.11,4.906 4.85,4.906 2.434,0 4.598,-1.426 4.598,-4.799 v -0.721 h -6.797 c 0.072,-1.57 0.916,-2.471 2.345,-2.471 1.209,0 1.801,0.523 1.964,1.318 h 2.473 c -0.309,-2.04 -1.932,-3.174 -4.512,-3.174 -2.85,0 -4.921,1.784 -4.921,4.797 m -9.44,0.324 c 0,-1.569 0.922,-2.546 2.219,-2.546 1.368,0 2.327,0.977 2.327,2.582 v 0.127 c 0,1.604 -0.846,2.578 -2.273,2.578 -1.46,0 -2.273,-1.046 -2.273,-2.598 z m -2.665,0 v 0.126 c 0,2.706 1.801,4.6 4.144,4.6 1.535,0 2.454,-0.669 2.994,-1.624 v 1.407 h 2.596 v -8.692 c -0.017,-2.796 -1.873,-4.223 -4.974,-4.223 -3.05,0 -4.44,1.336 -4.691,3.285 h 2.596 c 0.164,-0.831 0.762,-1.373 2.095,-1.373 1.587,0 2.378,0.829 2.378,2.311 v 1.423 c -0.523,-0.919 -1.64,-1.747 -3.028,-1.747 -2.294,0 -4.11,1.711 -4.11,4.507 m -4.822,-0.2 c 0,1.806 1.119,2.436 3.047,2.418 v 2.433 c -1.533,-0.015 -2.451,-0.683 -3.047,-1.946 v 1.804 h -2.614 v -9.433 h 2.614 z m -12.449,-0.055 c 0,-1.8 0.831,-2.884 2.309,-2.884 1.462,0 2.313,1.084 2.313,2.869 v 0.125 c 0,1.804 -0.851,2.886 -2.313,2.886 -1.442,0 -2.309,-1.046 -2.309,-2.85 z m -2.666,-0.052 v 0.143 c 0,2.959 2.146,4.89 4.975,4.89 2.836,0 4.96,-1.894 4.96,-4.835 v -0.146 c 0,-2.974 -2.149,-4.866 -4.978,-4.866 -2.811,0 -4.957,1.875 -4.957,4.814 m -10.99,-4.617 h -2.599 v 12.897 h 3.391 l 4.905,-8.496 v 8.496 h 2.6 V 15.915 h -2.923 l -5.374,9.18 z m -70.87,-17.756 c 7.805,0 12.013,4.027 12.228,11.638 h -12.228 z m 0,12.863 h 12.228 c -0.215,7.609 -4.423,11.638 -12.228,11.638 z m 32.225,9.05 c -3.081,4.671 -6.547,9.433 -6.547,9.433 0,0 -3.465,-4.762 -6.546,-9.433 -2.429,-3.688 -4.788,-7.569 -5.681,-9.05 h 24.455 c -0.891,1.481 -3.25,5.362 -5.681,9.05 M -204.55,9.788 h 24.455 c -0.891,-1.479 -3.25,-5.36 -5.681,-9.047 -3.081,-4.671 -6.547,-9.434 -6.547,-9.434 0,0 -3.465,4.763 -6.546,9.434 -2.429,3.687 -4.788,7.568 -5.681,9.047 m 25.678,-30.575 h 12.228 v 30.57 h -12.228 z m 0,62.362 h 12.228 v -30.57 h -12.228 z" /></g></g></g><g
       id="g24"><g
         clip-path="url(#clipPath30)"
         id="g26"><g
           transform="translate(224.5512,22.6724)"
           id="g32"><path
             id="path34"
             style="fill:#000000;fill-opacity:1;fill-rule:nonzero;stroke:none"
             d="M 0,0 C -0.089,1.409 -0.801,2.085 -2.032,2.085 -3.191,2.085 -3.974,1.319 -4.173,0 Z m 2.512,-0.874 v -0.711 h -6.718 c 0.07,-1.554 0.905,-2.444 2.318,-2.444 1.194,0 1.783,0.517 1.941,1.299 h 2.445 c -0.306,-2.012 -1.909,-3.137 -4.461,-3.137 -2.817,0 -4.863,1.766 -4.863,4.742 v 0.144 c 0,2.942 2.084,4.848 4.794,4.848 2.405,0 4.544,-1.407 4.544,-4.741 M -12.07,-5.67 h 2.566 V 7.879 h -2.566 z m -9.7,4.618 c 0,-1.783 0.815,-2.852 2.278,-2.852 1.445,0 2.283,1.069 2.283,2.833 v 0.125 c 0,1.784 -0.838,2.853 -2.283,2.853 -1.424,0 -2.278,-1.034 -2.278,-2.817 z m -2.642,-0.053 v 0.141 c 0,2.925 2.122,4.831 4.92,4.831 2.801,0 4.904,-1.87 4.904,-4.777 v -0.142 c 0,-2.943 -2.122,-4.815 -4.921,-4.815 -2.781,0 -4.903,1.856 -4.903,4.762 m -1.359,-4.565 -3.653,5.083 3.386,4.242 h -2.745 l -2.993,-3.941 v 8.165 h -2.583 V -5.67 h 2.583 v 4.405 l 3.083,-4.405 z m -10.95,2.872 c 0,1.996 -1.281,2.584 -3.618,2.922 -1.353,0.195 -1.802,0.428 -1.802,1.016 0,0.57 0.481,0.965 1.321,0.965 0.891,0 1.322,-0.359 1.465,-1.125 h 2.369 c -0.234,2.139 -1.787,2.887 -3.852,2.887 -1.906,0 -3.69,-0.962 -3.69,-2.904 0,-1.819 0.96,-2.533 3.443,-2.906 1.335,-0.195 1.889,-0.464 1.889,-1.106 0,-0.642 -0.467,-1.015 -1.462,-1.015 -1.124,0 -1.533,0.48 -1.641,1.319 h -2.408 c 0.09,-2.016 1.551,-3.122 4.064,-3.122 2.461,0 3.922,1.052 3.922,3.069 m -12.981,2.157 c 0,1.586 -0.839,2.548 -2.246,2.548 -1.444,0 -2.244,-1.034 -2.244,-2.566 v -0.143 c 0,-1.551 0.908,-2.514 2.194,-2.514 1.35,0 2.296,0.963 2.296,2.549 z m -0.071,4.296 h 2.569 V -4.94 c -0.021,-2.763 -1.858,-4.17 -4.924,-4.17 -3.012,0 -4.382,1.318 -4.634,3.243 h 2.57 c 0.158,-0.819 0.747,-1.352 2.064,-1.352 1.569,0 2.355,0.818 2.355,2.279 v 1.41 c -0.52,-0.909 -1.62,-1.73 -2.996,-1.73 -2.262,0 -4.064,1.694 -4.064,4.458 v 0.123 c 0,2.676 1.783,4.546 4.102,4.546 1.515,0 2.422,-0.66 2.958,-1.603 z m -11.718,-4.601 c 0,0.535 -0.089,1 -0.23,1.393 l -3.566,-3.852 c 0.376,-0.341 0.875,-0.518 1.5,-0.518 1.46,0 2.296,1.088 2.296,2.852 z m -4.418,-1.407 3.513,3.797 c -0.358,0.302 -0.839,0.463 -1.391,0.463 -1.446,0 -2.299,-1.034 -2.299,-2.817 v -0.142 c 0,-0.499 0.051,-0.927 0.177,-1.301 m 7.024,1.301 c 0,-2.943 -2.121,-4.815 -4.924,-4.815 -1.137,0 -2.156,0.306 -2.958,0.858 l -1.245,-1.338 -0.878,0.786 1.251,1.335 c -0.677,0.803 -1.069,1.855 -1.069,3.121 v 0.141 c 0,2.925 2.118,4.831 4.921,4.831 1.086,0 2.085,-0.284 2.87,-0.818 l 1.175,1.266 0.875,-0.785 -1.16,-1.249 c 0.714,-0.802 1.142,-1.888 1.142,-3.191 z m -18.436,0.766 c 0,1.373 0.833,2.05 1.938,2.05 1.145,0 1.642,-0.605 1.642,-1.87 V -5.67 h 2.586 v 5.937 c 0,2.495 -1.303,3.6 -3.14,3.6 -1.549,0 -2.567,-0.765 -3.026,-1.693 v 5.705 h -2.585 V -5.67 h 2.585 z m -8.064,3.941 -2.997,-3.941 v 8.165 h -2.583 V -5.67 h 2.583 v 4.405 l 3.083,-4.405 h 2.925 l -3.656,5.083 3.39,4.242 z m -16.638,4.224 V -5.67 h 2.588 v 4.405 l 3.083,-4.405 h 2.921 l -3.653,5.083 3.388,4.242 h -2.746 l -2.993,-3.941 v 8.165 z m -6.101,-13.549 h 2.57 v 9.325 h -2.57 z m 1.268,13.406 c -0.819,0 -1.461,-0.606 -1.461,-1.408 0,-0.803 0.642,-1.409 1.461,-1.409 0.839,0 1.481,0.606 1.481,1.409 0,0.802 -0.642,1.408 -1.481,1.408 m -11.948,-6.773 c 0,-1.819 0.965,-2.533 3.441,-2.906 1.339,-0.195 1.889,-0.464 1.889,-1.106 0,-0.642 -0.463,-1.015 -1.461,-1.015 -1.123,0 -1.532,0.48 -1.64,1.319 h -2.408 c 0.089,-2.016 1.554,-3.122 4.063,-3.122 2.462,0 3.926,1.052 3.926,3.069 0,1.996 -1.286,2.584 -3.622,2.922 -1.353,0.195 -1.798,0.428 -1.798,1.016 0,0.57 0.478,0.965 1.318,0.965 0.89,0 1.32,-0.359 1.464,-1.125 h 2.369 c -0.233,2.139 -1.782,2.887 -3.852,2.887 -1.908,0 -3.689,-0.962 -3.689,-2.904 m -2.949,-6.633 v 9.325 h -2.566 v -5.473 c 0,-1.373 -0.854,-2.05 -1.945,-2.05 -1.099,0 -1.619,0.605 -1.619,1.87 v 5.653 h -2.563 v -6.008 c 0,-2.443 1.35,-3.514 3.169,-3.514 1.536,0 2.477,0.714 2.958,1.659 V -5.67 Z m -14.567,5.69 v -5.69 h 2.567 v 5.973 c 0,2.477 -1.339,3.564 -3.069,3.564 -1.177,0 -2.387,-0.499 -3.134,-1.622 -0.445,1.105 -1.375,1.622 -2.605,1.622 -1.389,0 -2.387,-0.765 -2.854,-1.64 v 1.428 h -2.583 V -5.67 h 2.583 v 5.51 c 0,1.264 0.808,1.906 1.805,1.906 0.905,0 1.461,-0.533 1.461,-1.726 v -5.69 h 2.566 v 5.51 c 0,1.264 0.802,1.906 1.799,1.906 0.929,0 1.464,-0.533 1.464,-1.726 m 48.634,17.315 c -1.123,0 -1.529,0.481 -1.642,1.319 h -2.402 c 0.089,-2.015 1.549,-3.118 4.062,-3.118 2.459,0 3.923,1.052 3.923,3.065 0,1.997 -1.287,2.585 -3.618,2.924 -1.359,0.196 -1.801,0.427 -1.801,1.014 0,0.573 0.481,0.964 1.321,0.964 0.89,0 1.316,-0.357 1.458,-1.122 h 2.373 c -0.232,2.139 -1.785,2.888 -3.853,2.888 -1.906,0 -3.69,-0.964 -3.69,-2.905 0,-1.82 0.962,-2.531 3.439,-2.908 1.338,-0.195 1.894,-0.461 1.894,-1.105 0,-0.643 -0.466,-1.016 -1.464,-1.016 m -12.556,4.065 h 4.174 c -0.087,1.408 -0.801,2.087 -2.033,2.087 -1.159,0 -1.941,-0.768 -2.141,-2.087 m -2.653,-1.122 v 0.142 c 0,2.941 2.086,4.849 4.794,4.849 2.406,0 4.545,-1.409 4.545,-4.743 v -0.713 h -6.719 c 0.071,-1.552 0.906,-2.442 2.318,-2.442 1.195,0 1.78,0.517 1.942,1.303 h 2.444 c -0.306,-2.017 -1.909,-3.138 -4.46,-3.138 -2.817,0 -4.864,1.763 -4.864,4.742 m -9.33,0.32 c 0,-1.551 0.911,-2.516 2.193,-2.516 1.352,0 2.3,0.965 2.3,2.551 v 0.126 c 0,1.585 -0.837,2.548 -2.247,2.548 -1.443,0 -2.246,-1.033 -2.246,-2.568 z m -2.635,0 v 0.125 c 0,2.674 1.78,4.546 4.096,4.546 1.518,0 2.425,-0.661 2.96,-1.605 v 1.391 h 2.566 v -8.592 c -0.018,-2.764 -1.852,-4.174 -4.917,-4.174 -3.015,0 -4.388,1.321 -4.636,3.247 h 2.566 c 0.161,-0.821 0.753,-1.357 2.07,-1.357 1.569,0 2.351,0.82 2.351,2.284 v 1.407 c -0.517,-0.908 -1.622,-1.727 -2.993,-1.727 -2.268,0 -4.063,1.691 -4.063,4.455 m -4.766,-0.197 c 0,1.784 1.106,2.407 3.012,2.39 v 2.405 c -1.515,-0.016 -2.423,-0.676 -3.012,-1.925 v 1.784 h -2.584 v -9.324 h 2.584 z m -12.305,-0.055 c 0,-1.78 0.822,-2.851 2.282,-2.851 1.446,0 2.286,1.071 2.286,2.837 v 0.122 c 0,1.784 -0.84,2.853 -2.286,2.853 -1.425,0 -2.282,-1.033 -2.282,-2.817 z m -2.635,-0.052 v 0.142 c 0,2.925 2.121,4.833 4.917,4.833 2.803,0 4.903,-1.872 4.903,-4.779 v -0.144 c 0,-2.939 -2.125,-4.81 -4.921,-4.81 -2.778,0 -4.899,1.853 -4.899,4.758 m -10.863,-4.563 h -2.569 v 12.748 h 3.352 l 4.849,-8.398 v 8.398 h 2.569 V 15.731 h -2.889 l -5.312,9.073 z m -70.05,-17.55 c 7.714,0 11.874,3.98 12.086,11.503 h -12.086 z m 0,12.714 h 12.086 c -0.212,7.521 -4.372,11.503 -12.086,11.503 z m 31.852,8.944 c -3.046,4.618 -6.471,9.325 -6.471,9.325 0,0 -3.425,-4.707 -6.47,-9.325 -2.401,-3.644 -4.733,-7.481 -5.616,-8.944 h 24.173 c -0.881,1.463 -3.213,5.3 -5.616,8.944 M -202.184,9.674 h 24.173 c -0.881,-1.461 -3.213,-5.297 -5.616,-8.942 -3.046,-4.617 -6.471,-9.324 -6.471,-9.324 0,0 -3.425,4.707 -6.47,9.324 -2.401,3.645 -4.733,7.481 -5.616,8.942 m 25.381,-30.22 h 12.086 V 9.67 h -12.086 z m 0,61.641 h 12.086 V 10.879 h -12.086 z" /></g></g></g></g></svg>