<?xml version="1.0" encoding="UTF-8" standalone="no"?>
<svg
   xmlns:dc="http://purl.org/dc/elements/1.1/"
   xmlns:cc="http://creativecommons.org/ns#"
   xmlns:rdf="http://www.w3.org/1999/02/22-rdf-syntax-ns#"
   xmlns:svg="http://www.w3.org/2000/svg"
   xmlns="http://www.w3.org/2000/svg"
   viewBox="0 0 213.16533 90.708664"
   height="90.708664"
   width="213.16533"
   xml:space="preserve"
   id="svg2"
   version="1.1"><metadata
     id="metadata8"><rdf:RDF><cc:Work
         rdf:about=""><dc:format>image/svg+xml</dc:format><dc:type
           rdf:resource="http://purl.org/dc/dcmitype/StillImage" /></cc:Work></rdf:RDF></metadata><defs
     id="defs6"><clipPath
       id="clipPath18"
       clipPathUnits="userSpaceOnUse"><path
         id="path16"
         d="M 2.835,2.835 H 157.039 V 65.197 H 2.835 Z" /></clipPath></defs><g
     transform="matrix(1.3333333,0,0,-1.3333333,0,90.708667)"
     id="g10"><g
       id="g12"><g
         clip-path="url(#clipPath18)"
         id="g14"><g
           transform="translate(144.3774,34.0076)"
           id="g20"><path
             id="path22"
             style="fill:#000000;fill-opacity:1;fill-rule:nonzero;stroke:none"
             d="m 0,0 c 2.9,0 4.759,0.507 6.026,1.605 1.211,1.042 1.972,2.675 1.972,4.702 0,2.141 -0.846,3.943 -2.366,5.013 -1.437,1.014 -3.379,1.239 -5.661,1.239 h -1.21 V -10e-4 H 0 M -5.717,16.474 H 0 c 3.633,0 6.448,-0.591 8.56,-2.056 2.508,-1.746 3.916,-4.619 3.916,-8.111 0,-3.21 -1.211,-5.941 -3.381,-7.715 -2.083,-1.688 -5.011,-2.506 -9.291,-2.506 h -5.521 z m -11.04,-8.985 c 1.211,0 2.141,0.141 2.816,0.478 0.761,0.395 1.155,1.071 1.155,2.056 0,0.958 -0.338,1.577 -1.155,1.999 -0.704,0.367 -1.802,0.536 -3.351,0.536 H -19.01 V 7.49 h 2.253 m -6.73,8.982 h 6.393 c 2.421,0 4.703,-0.338 6.335,-1.351 1.493,-0.93 2.451,-2.45 2.451,-4.788 0,-2.619 -1.436,-4.759 -4.14,-5.632 l 5.745,-8.617 h -5.155 l -5.152,8.054 h -2 v -8.054 h -4.477 z M -30.162,6.278 c 0,3.604 -2.646,6.448 -6.166,6.448 -3.52,0 -6.167,-2.844 -6.167,-6.448 0,-3.604 2.647,-6.448 6.167,-6.448 3.52,0 6.166,2.844 6.166,6.448 m -16.81,0 c 0,5.942 4.588,10.504 10.644,10.504 6.054,0 10.644,-4.562 10.644,-10.504 0,-5.942 -4.59,-10.504 -10.644,-10.504 -6.056,0 -10.644,4.562 -10.644,10.504 M -59.506,4.309 c -1.323,1.774 -2.563,3.491 -3.83,5.265 l -0.056,-0.027 c 0.028,-1.943 0.056,-3.915 0.056,-5.886 v -7.577 h -4.308 v 20.388 h 4.224 l 6.111,-8.223 c 1.323,-1.774 2.562,-3.491 3.83,-5.266 l 0.056,0.029 c -0.028,1.943 -0.056,3.914 -0.056,5.886 v 7.574 h 4.308 V -3.916 h -4.223 l -6.112,8.223 M 5.224,-10.451 H 3.889 v 0.816 h 1.35 v 2.027 h 0.994 v -2.027 h 1.884 v -0.816 H 6.233 v -3.762 c 0,-1.722 1.112,-1.955 1.691,-1.955 0.208,0 0.341,0.029 0.341,0.029 v -0.86 c 0,0 -0.178,-0.029 -0.43,-0.029 -0.86,0 -2.611,0.277 -2.611,2.728 v 3.851 M 1.885,-12.58 c -0.061,1.545 -1.01,2.289 -2.108,2.289 -1.246,0 -2.33,-0.802 -2.566,-2.289 h 4.674 m -2.077,3.123 c 2.062,0 3.128,-1.56 3.128,-3.383 0,-0.175 -0.043,-0.468 -0.043,-0.468 h -5.726 c 0.044,-1.882 1.35,-2.946 2.892,-2.946 1.365,0 2.271,0.875 2.271,0.875 l 0.459,-0.744 c 0,0 -1.068,-1.02 -2.758,-1.02 -2.227,0 -3.903,1.575 -3.903,3.835 0,2.407 1.662,3.85 3.68,3.85 m -7.806,-0.988 h -1.334 v 0.816 h 1.35 v 2.028 h 0.995 V -9.63 h 1.883 v -0.816 h -1.883 v -3.763 c 0,-1.722 1.111,-1.955 1.69,-1.955 0.208,0 0.341,0.029 0.341,0.029 v -0.86 c 0,0 -0.178,-0.03 -0.431,-0.03 -0.861,0 -2.611,0.276 -2.611,2.727 v 3.85 m -4.303,3.729 h 1.143 v -1.233 h -1.143 v 1.24 m -1.201,-9.444 h 1.26 v 5.704 h -1.335 v 0.817 h 2.344 v -6.52 h 1.261 v -0.816 h -3.531 z m -6.989,1.458 h 0.918 v -0.525 c 0,-0.743 1.083,-1.065 1.944,-1.065 0.95,0 1.751,0.408 1.751,1.152 0,0.847 -0.949,1.138 -2.018,1.531 -1.126,0.41 -2.314,0.906 -2.314,2.188 0,1.342 1.336,1.955 2.581,1.955 1.01,0 2.478,-0.423 2.478,-1.429 v -0.846 h -0.92 v 0.54 c 0,0.539 -0.74,0.875 -1.529,0.875 -0.828,0 -1.572,-0.35 -1.572,-1.065 0,-0.801 0.905,-1.137 1.885,-1.488 1.158,-0.408 2.433,-0.888 2.433,-2.202 0,-1.269 -1.157,-2.071 -2.819,-2.071 -1.379,0 -2.818,0.613 -2.818,1.736 v 0.715 m -5.833,-1.46 h 1.159 v 5.383 c 0,0.218 -0.12,0.32 -0.328,0.32 h -1.009 v 0.816 h 1.409 c 0.624,0 0.906,-0.247 0.906,-0.831 v -0.497 c 0,-0.307 -0.03,-0.554 -0.03,-0.554 h 0.03 c 0.37,1.107 1.201,1.954 2.358,1.954 0.209,0 0.416,-0.043 0.416,-0.043 v -0.978 c 0,0 -0.193,0.029 -0.386,0.029 -1.677,0 -2.358,-1.853 -2.358,-3.311 v -2.289 H -23 v -0.816 h -3.324 v 0.817 m -2.493,3.575 c -0.06,1.546 -1.01,2.289 -2.106,2.289 -1.248,0 -2.33,-0.802 -2.568,-2.29 h 4.674 m -2.075,3.125 c 2.063,0 3.131,-1.561 3.131,-3.384 0,-0.175 -0.045,-0.467 -0.045,-0.467 h -5.728 c 0.044,-1.882 1.35,-2.946 2.892,-2.946 1.365,0 2.27,0.874 2.27,0.874 l 0.46,-0.744 c 0,0 -1.068,-1.021 -2.758,-1.021 -2.226,0 -3.903,1.575 -3.903,3.836 0,2.407 1.661,3.85 3.678,3.85 m -12.536,-0.17 h 3.086 v -0.816 h -1.068 l 1.869,-4.916 c 0.105,-0.263 0.149,-0.57 0.149,-0.57 h 0.046 c 0,0 0.043,0.307 0.148,0.569 l 1.869,4.915 h -1.067 v 0.816 h 3.086 v -0.817 h -0.981 l -2.536,-6.52 h -1.084 l -2.537,6.52 h -0.978 v 0.816 m -2.778,2.923 h 1.143 v -1.242 h -1.143 v 1.24 m -1.202,-9.435 h 1.261 v 5.704 h -1.334 v 0.816 h 2.343 v -6.52 h 1.261 v -0.816 h -3.531 z m -10.003,-0.003 h 1.26 v 5.383 c 0,0.218 -0.119,0.321 -0.326,0.321 h -1.008 v 0.816 h 1.423 c 0.623,0 0.905,-0.263 0.905,-0.816 v -0.423 c 0,-0.292 -0.059,-0.526 -0.059,-0.526 h 0.03 c 0.208,0.555 1.172,1.94 3.041,1.94 1.84,0 2.478,-1.036 2.478,-2.843 v -3.851 h 1.262 v -0.816 h -2.27 v 4.404 c 0,1.153 -0.193,2.174 -1.632,2.174 -1.645,0 -2.833,-1.429 -2.833,-3.049 v -2.712 h 1.261 v -0.816 h -3.531 v 0.817 m -8.756,5.7 h -1.336 v 0.817 h 2.344 v -4.419 c 0,-1.153 0.178,-2.174 1.632,-2.174 1.676,0 2.745,1.518 2.745,3.107 v 2.669 h -1.336 v 0.817 h 2.344 v -6.214 c 0,-0.218 0.119,-0.32 0.327,-0.32 h 0.845 v -0.803 h -1.261 c -0.622,0 -0.89,0.263 -0.89,0.817 v 0.365 c 0,0.292 0.015,0.525 0.015,0.525 h -0.029 c -0.194,-0.554 -1.113,-1.882 -2.953,-1.882 -1.72,0 -2.447,0.934 -2.447,2.844 v 3.851" /></g><g
           transform="translate(3.8868,29.5763)"
           id="g24"><path
             id="path26"
             style="fill:#000000;fill-opacity:1;fill-rule:nonzero;stroke:none"
             d="M 0,0 45.566,-5.587 11.656,22.052 -0.284,2.832 C -0.232,1.884 -0.137,0.939 0,0 m 46.634,-6.364 c -0.014,0 -0.027,10e-4 -0.04,0.003 l -46.915,5.753 c -0.143,0.017 -0.257,0.127 -0.279,0.27 -0.165,1.073 -0.276,2.154 -0.332,3.238 -0.003,0.066 0.014,0.131 0.049,0.187 l 12.186,19.616 c 0.048,0.079 0.128,0.133 0.219,0.148 0.092,0.015 0.185,-0.009 0.257,-0.068 L 46.837,-5.792 c 0.111,-0.09 0.149,-0.244 0.092,-0.375 -0.05,-0.12 -0.167,-0.196 -0.296,-0.196" /></g><g
           transform="translate(54.2928,46.7838)"
           id="g28"><path
             id="path30"
             style="fill:#000000;fill-opacity:1;fill-rule:nonzero;stroke:none"
             d="M 0,0 -3.297,-22.241 9.404,-8.119 c -0.469,3.033 -1.39,5.955 -2.738,8.69 L 0.001,0 m -3.773,-23.571 c -0.048,0 -0.095,0.01 -0.138,0.031 -0.128,0.06 -0.201,0.197 -0.181,0.337 l 3.492,23.551 c 0.022,0.147 0.142,0.26 0.29,0.272 L 6.828,1.231 C 6.963,1.245 7.084,1.172 7.143,1.055 8.597,-1.841 9.58,-4.947 10.062,-8.174 10.076,-8.269 10.047,-8.365 9.983,-8.436 L -3.533,-23.465 c -0.061,-0.068 -0.148,-0.107 -0.239,-0.108" /></g><g
           transform="translate(14.0417,56.9115)"
           id="g32"><path
             id="path34"
             style="fill:#000000;fill-opacity:1;fill-rule:nonzero;stroke:none"
             d="m 0,0 c -6.669,-5.757 -10.482,-14.07 -10.482,-22.891 0,-0.151 10e-4,-0.303 0.004,-0.456 L 1.078,-4.745 0,0 m -10.765,-24.741 c -0.027,0 -0.054,0.003 -0.081,0.01 -0.136,0.036 -0.233,0.155 -0.24,0.296 -0.026,0.513 -0.039,1.034 -0.039,1.544 0,9.189 4.052,17.837 11.115,23.727 C 0.126,0.95 0.329,0.932 0.443,0.796 0.476,0.757 0.499,0.71 0.51,0.66 L 1.735,-4.732 C 1.753,-4.815 1.739,-4.901 1.694,-4.973 l -12.186,-19.616 c -0.058,-0.095 -0.162,-0.152 -0.273,-0.152 M 19.036,-3.839 36.292,-32.444 39.64,-9.862 34.643,3.443 C 31.769,5.075 28.666,6.211 25.414,6.826 L 19.037,-3.839 m 17.442,-29.859 c -0.113,-10e-4 -0.218,0.058 -0.276,0.155 L 18.386,-4.006 c -0.062,0.102 -0.062,0.229 -0.002,0.332 l 6.592,11.022 c 0.069,0.115 0.202,0.175 0.333,0.151 3.443,-0.624 6.725,-1.819 9.754,-3.554 0.065,-0.037 0.115,-0.096 0.141,-0.167 l 5.068,-13.493 c 0.019,-0.05 0.025,-0.105 0.017,-0.159 l -3.492,-23.55 c -0.023,-0.158 -0.159,-0.275 -0.318,-0.274" /></g><g
           transform="translate(15.7517,52.2874)"
           id="g36"><path
             id="path38"
             style="fill:#000000;fill-opacity:1;fill-rule:nonzero;stroke:none"
             d="M 0,0 33.537,-27.335 16.708,0.564 5.201,9.115 C 2.922,8.044 0.787,6.693 -1.156,5.091 L 0,0.001 m 34.769,-29.076 c -0.072,0 -0.144,0.024 -0.204,0.073 L -0.492,-0.428 c -0.057,0.045 -0.095,0.107 -0.111,0.178 L -1.828,5.141 C -1.854,5.259 -1.813,5.382 -1.72,5.459 0.356,7.192 2.65,8.645 5.104,9.78 5.211,9.829 5.337,9.815 5.432,9.746 L 17.143,1.041 c 0.033,-0.026 0.062,-0.057 0.084,-0.093 l 17.817,-29.537 c 0.092,-0.153 0.043,-0.351 -0.11,-0.443 -0.05,-0.029 -0.107,-0.046 -0.165,-0.046" /></g><g
           transform="translate(3.992,28.9157)"
           id="g40"><path
             id="path42"
             style="fill:#000000;fill-opacity:1;fill-rule:nonzero;stroke:none"
             d="M 0,0 C 0.659,-3.883 2.051,-7.544 4.143,-10.891 L 44.035,-5.401 0,0 m 3.981,-11.561 c -0.111,0 -0.214,0.057 -0.272,0.15 -2.277,3.591 -3.763,7.539 -4.414,11.733 -0.016,0.099 0.017,0.201 0.087,0.273 0.07,0.072 0.169,0.109 0.27,0.095 l 46.915,-5.753 c 0.177,-0.022 0.301,-0.184 0.279,-0.36 -0.019,-0.143 -0.13,-0.257 -0.274,-0.278 L 4.024,-11.557 C 4.01,-11.56 3.995,-11.561 3.981,-11.561 m 13.65,44.353 10.987,-8.166 6.169,10.315 c -1.644,0.272 -3.307,0.408 -4.972,0.407 -4.242,0 -8.338,-0.86 -12.184,-2.556 m 11.08,-8.957 c -0.069,0 -0.137,0.021 -0.192,0.064 l -11.712,8.703 c -0.091,0.067 -0.14,0.178 -0.128,0.291 0.012,0.113 0.082,0.211 0.185,0.258 4.074,1.885 8.431,2.84 12.95,2.84 1.871,0 3.738,-0.167 5.545,-0.497 0.104,-0.019 0.193,-0.088 0.236,-0.184 0.044,-0.096 0.038,-0.208 -0.017,-0.298 L 28.988,23.99 C 28.93,23.893 28.825,23.833 28.712,23.832" /></g><g
           transform="translate(8.5171,17.4283)"
           id="g44"><path
             id="path46"
             style="fill:#000000;fill-opacity:1;fill-rule:nonzero;stroke:none"
             d="m 0,0 c 3.089,-4.7 7.397,-8.432 12.491,-10.816 l 34.915,6.782 c 1.942,2.078 3.58,4.42 4.866,6.956 L 41.982,5.778 0,0 m 12.46,-11.473 c -0.046,0 -0.108,0.011 -0.15,0.03 -5.398,2.505 -9.937,6.488 -13.126,11.52 -0.059,0.092 -0.067,0.209 -0.02,0.308 0.046,0.099 0.139,0.169 0.248,0.184 l 42.547,5.857 c 0.044,0.006 0.088,0.003 0.13,-0.009 L 52.82,3.44 C 52.912,3.414 52.987,3.348 53.026,3.261 53.065,3.174 53.063,3.074 53.021,2.987 51.668,0.229 49.908,-2.311 47.802,-4.548 47.755,-4.597 47.695,-4.631 47.629,-4.644 l -35.108,-6.822 c -0.02,-0.004 -0.041,-0.006 -0.062,-0.006" /></g><g
           transform="translate(52.7241,23.2582)"
           id="g48"><path
             id="path50"
             style="fill:#000000;fill-opacity:1;fill-rule:nonzero;stroke:none"
             d="m 0,0 8.355,-2.32 c 0.395,0.819 0.752,1.656 1.069,2.509 L 0,0 m 8.527,-3.024 c -0.029,0 -0.058,0.004 -0.087,0.012 l -10.73,2.978 c -0.154,0.043 -0.254,0.192 -0.233,0.351 0.02,0.158 0.153,0.278 0.313,0.281 L 9.879,0.84 C 9.968,0.848 10.086,0.792 10.147,0.707 10.208,0.621 10.225,0.511 10.189,0.412 9.797,-0.7 9.338,-1.787 8.815,-2.843 8.761,-2.953 8.649,-3.022 8.527,-3.023" /></g><g
           transform="translate(63.3132,27.3623)"
           id="g52"><path
             id="path54"
             style="fill:#000000;fill-opacity:1;fill-rule:nonzero;stroke:none"
             d="m 0,0 -10.633,-3.463 9.7,0.194 C -0.561,-2.197 -0.249,-1.106 0,0 m -12.793,-4.15 c -0.157,0 -0.291,0.114 -0.317,0.268 -0.027,0.157 0.066,0.31 0.217,0.36 L 0.333,0.785 C 0.441,0.821 0.561,0.796 0.647,0.72 0.732,0.643 0.77,0.527 0.747,0.414 0.46,-0.98 0.077,-2.353 -0.4,-3.694 -0.445,-3.82 -0.563,-3.905 -0.697,-3.908 l -12.09,-0.241 c -0.002,-0.001 -0.004,-0.001 -0.006,-0.001" /></g><g
           transform="translate(24.1184,6.5588)"
           id="g56"><path
             id="path58"
             style="fill:#000000;fill-opacity:1;fill-rule:nonzero;stroke:none"
             d="m 0,0 21.767,-0.272 c 3.466,1.51 6.574,3.626 9.254,6.299 L 0,0.001 m 21.833,-0.916 h -0.004 l -24.974,0.312 c -0.165,0.002 -0.301,0.128 -0.317,0.293 -0.014,0.164 0.098,0.313 0.26,0.345 L 31.906,6.856 C 32.043,6.882 32.182,6.817 32.249,6.695 32.317,6.573 32.298,6.42 32.202,6.319 29.289,3.218 25.843,0.792 21.961,-0.889 21.92,-0.907 21.877,-0.916 21.833,-0.916 M 39.694,31.273 27.444,17.653 39.35,21.53 c 0.387,1.939 0.582,3.934 0.582,5.932 0,1.274 -0.079,2.547 -0.238,3.811 M 26.402,16.654 c -0.107,0 -0.209,0.053 -0.27,0.146 -0.079,0.123 -0.067,0.283 0.032,0.391 l 13.515,15.028 c 0.119,0.132 0.322,0.144 0.454,0.025 0.056,-0.05 0.093,-0.118 0.104,-0.192 0.226,-1.52 0.34,-3.054 0.34,-4.59 0,-2.105 -0.212,-4.205 -0.634,-6.244 -0.023,-0.113 -0.104,-0.205 -0.214,-0.241 L 26.502,16.67 c -0.032,-0.011 -0.066,-0.016 -0.1,-0.016" /></g><g
           transform="translate(20.977,5.9554)"
           id="g60"><path
             id="path62"
             style="fill:#000000;fill-opacity:1;fill-rule:nonzero;stroke:none"
             d="M 0,0 C -0.005,0 -0.01,0 -0.015,0.001 V 0 c -0.178,0 -0.322,0.144 -0.322,0.322 0,0.178 0.144,0.322 0.322,0.322 H 10e-4 C 0.178,0.643 0.322,0.498 0.321,0.321 0.32,0.155 0.193,0.016 0.028,0.002 0.018,0.001 0.01,0 0,0" /></g><g
           transform="translate(22.5585,5.9352)"
           id="g64"><path
             id="path66"
             style="fill:#000000;fill-opacity:1;fill-rule:nonzero;stroke:none"
             d="m 0,0 c 0.053,-0.02 0.106,-0.042 0.16,-0.063 3.532,-1.392 7.263,-2.098 11.087,-2.098 3.629,0 7.173,0.636 10.542,1.89 L 0,0 m 11.248,-2.805 c -3.906,0 -7.716,0.722 -11.325,2.144 -0.539,0.212 -1.079,0.445 -1.652,0.71 -0.132,0.061 -0.207,0.204 -0.182,0.348 0.026,0.144 0.145,0.252 0.29,0.265 0.01,0.001 0.034,0.004 0.045,0.002 L 23.397,0.351 C 23.574,0.35 23.717,0.204 23.715,0.026 23.713,-0.101 23.637,-0.215 23.52,-0.266 23.206,-0.403 22.889,-0.534 22.571,-0.661 18.963,-2.083 15.154,-2.805 11.248,-2.805" /></g></g></g></g></svg>