<?xml version="1.0" encoding="UTF-8" standalone="no"?>
<svg
   xmlns:dc="http://purl.org/dc/elements/1.1/"
   xmlns:cc="http://creativecommons.org/ns#"
   xmlns:rdf="http://www.w3.org/1999/02/22-rdf-syntax-ns#"
   xmlns:svg="http://www.w3.org/2000/svg"
   xmlns="http://www.w3.org/2000/svg"
   viewBox="0 0 253.53467 90.708664"
   height="90.708664"
   width="253.53467"
   xml:space="preserve"
   id="svg2"
   version="1.1"><metadata
     id="metadata8"><rdf:RDF><cc:Work
         rdf:about=""><dc:format>image/svg+xml</dc:format><dc:type
           rdf:resource="http://purl.org/dc/dcmitype/StillImage" /></cc:Work></rdf:RDF></metadata><defs
     id="defs6"><clipPath
       id="clipPath18"
       clipPathUnits="userSpaceOnUse"><path
         id="path16"
         d="M 2.835,17.008 H 187.316 V 51.024 H 2.835 Z" /></clipPath></defs><g
     transform="matrix(1.3333333,0,0,-1.3333333,0,90.708667)"
     id="g10"><g
       id="g12"><g
         clip-path="url(#clipPath18)"
         id="g14"><g
           transform="translate(27.9846,51.0237)"
           id="g20"><path
             id="path22"
             style="fill:#000000;fill-opacity:1;fill-rule:nonzero;stroke:none"
             d="m 0,0 h -16.77 c -4.628,0 -8.38,-3.753 -8.38,-8.38 v -16.77 c 0,-4.628 3.752,-8.381 8.38,-8.381 H 0 c 4.629,0 8.381,3.753 8.381,8.381 V -8.38 C 8.381,-3.753 4.629,0 0,0 M 0,-25.15 H -16.77 V -8.379 H 0 Z" /></g><g
           transform="translate(19.5444,41.1924)"
           id="g24"><path
             id="path26"
             style="fill:#000000;fill-opacity:1;fill-rule:nonzero;stroke:none"
             d="m 0,0 c -3.799,0 -6.879,-3.08 -6.879,-6.878 0,-3.799 3.08,-6.877 6.879,-6.877 3.799,0 6.877,3.078 6.877,6.877 C 6.877,-3.08 3.799,0 0,0" /></g><g
           transform="translate(59.8208,50.9903)"
           id="g28"><path
             id="path30"
             style="fill:#000000;fill-opacity:1;fill-rule:nonzero;stroke:none"
             d="m 0,0 16.331,-23.74 v 18.265 l -0.047,4.342 H 11.375 V 0 h 10.526 v -1.133 h -4.059 l -0.049,-4.342 v -28.271 l -0.754,-0.236 -21.9,31.858 v -25.581 l 0.048,-4.484 h 5.049 v -1.133 h -10.902 v 1.133 h 4.342 l 0.047,4.484 v 22.23 l -0.047,4.342 h -4.342 V 0 Z" /></g><g
           transform="translate(114.2871,50.9903)"
           id="g32"><path
             id="path34"
             style="fill:#000000;fill-opacity:1;fill-rule:nonzero;stroke:none"
             d="m 0,0 v -10.667 h -1.416 c -0.141,1.652 -0.33,3.728 -1.793,6.183 -1.699,2.879 -4.012,3.021 -6.277,3.115 h -2.644 l -0.047,-4.248 v -21.757 l 0.047,-4.815 h 5.099 v -1.133 h -15.482 v 1.133 h 5.098 l 0.047,4.815 v 21.757 l -0.047,4.248 h -2.171 c -2.739,-0.047 -4.815,-0.047 -6.797,-3.21 -1.557,-2.501 -1.699,-4.483 -1.794,-6.088 h -1.367 V 0 Z" /></g><g
           transform="translate(127.6916,50.9903)"
           id="g36"><path
             id="path38"
             style="fill:#000000;fill-opacity:1;fill-rule:nonzero;stroke:none"
             d="m 0,0 16.331,-23.74 v 18.265 l -0.047,4.342 h -4.91 V 0 h 10.525 v -1.133 h -4.058 l -0.047,-4.342 v -28.271 l -0.756,-0.236 -21.899,31.858 v -25.581 l 0.047,-4.484 h 5.05 v -1.133 h -10.903 v 1.133 h 4.343 l 0.046,4.484 v 22.23 l -0.046,4.342 h -4.343 V 0 Z" /></g><g
           transform="translate(167.9171,50.9903)"
           id="g40"><path
             id="path42"
             style="fill:#000000;fill-opacity:1;fill-rule:nonzero;stroke:none"
             d="m 0,0 v -1.133 h -4.673 l -0.046,-4.012 v -18.029 c 0.046,-4.672 0.14,-9.109 8.92,-9.109 8.872,0 9.439,3.871 9.581,8.07 v 19.068 l -0.048,4.012 H 8.968 V 0 h 10.431 v -1.133 h -4.106 l -0.049,-4.012 v -17.179 c -0.046,-6.183 -0.092,-11.469 -12.317,-11.469 -1.747,0 -5.9,0.188 -8.544,1.274 -4.2,1.793 -4.295,5.475 -4.341,10.006 v 17.368 l -0.048,4.012 h -4.058 V 0 Z" /></g></g></g></g></svg>