<?xml version="1.0" encoding="UTF-8" standalone="no"?>
<svg
   xmlns:dc="http://purl.org/dc/elements/1.1/"
   xmlns:cc="http://creativecommons.org/ns#"
   xmlns:rdf="http://www.w3.org/1999/02/22-rdf-syntax-ns#"
   xmlns:svg="http://www.w3.org/2000/svg"
   xmlns="http://www.w3.org/2000/svg"
   viewBox="0 0 148.01067 90.708664"
   height="90.708664"
   width="148.01067"
   xml:space="preserve"
   id="svg2"
   version="1.1"><metadata
     id="metadata8"><rdf:RDF><cc:Work
         rdf:about=""><dc:format>image/svg+xml</dc:format><dc:type
           rdf:resource="http://purl.org/dc/dcmitype/StillImage" /></cc:Work></rdf:RDF></metadata><defs
     id="defs6"><clipPath
       id="clipPath18"
       clipPathUnits="userSpaceOnUse"><path
         id="path16"
         d="m 2.835,2.835 h 105.34 V 65.197 H 2.835 Z" /></clipPath></defs><g
     transform="matrix(1.3333333,0,0,-1.3333333,0,90.708667)"
     id="g10"><g
       id="g12"><g
         clip-path="url(#clipPath18)"
         id="g14"><g
           transform="translate(17.4562,19.0619)"
           id="g20"><path
             id="path22"
             style="fill:#050505;fill-opacity:1;fill-rule:nonzero;stroke:none"
             d="m 0,0 c -2.467,2.467 -6.011,2.57 -8.25,0.331 -2.321,-2.321 -2.176,-5.824 0.29,-8.29 2.468,-2.468 5.97,-2.613 8.292,-0.291 C 2.591,-5.991 2.467,-2.467 0,0 m -11.401,-11.401 c -4.249,4.249 -4.332,10.592 -0.02,14.904 4.249,4.249 10.612,4.187 14.862,-0.062 4.249,-4.249 4.312,-10.613 0.062,-14.862 -4.332,-4.333 -10.655,-4.229 -14.904,0.02" /></g><g
           transform="translate(35.4375,22.1186)"
           id="g24"><path
             id="path26"
             style="fill:#050505;fill-opacity:1;fill-rule:nonzero;stroke:none"
             d="m 0,0 c -3.441,-3.441 -7.566,-3.296 -10.531,-0.331 l 3.214,3.213 c 1.389,-1.39 3.067,-1.535 4.622,0.021 0.932,0.932 1.285,2.196 0.352,3.129 -0.995,0.994 -2.57,0.539 -4.808,-0.456 -2.736,-1.12 -6.094,-2.363 -8.499,0.041 -2.757,2.757 -2.155,6.426 0.539,9.12 3.172,3.172 7.048,2.944 9.494,0.498 l -3.006,-3.006 c -1.057,0.891 -2.446,0.996 -3.69,-0.248 -0.912,-0.912 -1.077,-2.032 -0.29,-2.82 0.767,-0.766 1.823,-0.455 4.022,0.457 3.772,1.492 7.005,2.363 9.638,-0.27 C 3.814,6.591 3.005,3.005 0,0" /></g><g
           transform="translate(56.8867,58.538)"
           id="g28"><path
             id="path30"
             style="fill:#050505;fill-opacity:1;fill-rule:nonzero;stroke:none"
             d="m 0,0 c -2.467,2.467 -6.011,2.57 -8.249,0.332 -2.322,-2.322 -2.177,-5.825 0.29,-8.291 2.467,-2.468 5.97,-2.613 8.291,-0.291 C 2.591,-5.991 2.467,-2.467 0,0 m -11.4,-11.4 c -4.249,4.249 -4.332,10.592 -0.021,14.903 C -7.172,7.752 -0.809,7.69 3.441,3.441 7.69,-0.808 7.753,-7.172 3.503,-11.421 -0.829,-15.754 -7.151,-15.649 -11.4,-11.4" /></g></g></g><g
       transform="translate(48.1511,41.69)"
       id="g32"><path
         id="path34"
         style="fill:#050505;fill-opacity:1;fill-rule:nonzero;stroke:none"
         d="m 0,0 3.163,-3.163 -8.234,-8.234 -14.414,14.414 3.214,3.213 11.25,-11.251 z" /></g><g
       transform="translate(95.4927,20.5146)"
       id="g36"><path
         id="path38"
         style="fill:#050505;fill-opacity:1;fill-rule:nonzero;stroke:none"
         d="M 0,0 3.214,-3.213 -7.978,-14.404 -4.702,-17.68 6.489,-6.488 9.7,-9.699 l 2.982,2.981 -9.7,9.7 z" /></g><g
       transform="translate(85.0857,14.4764)"
       id="g40"><path
         id="path42"
         style="fill:#050505;fill-opacity:1;fill-rule:nonzero;stroke:none"
         d="M 0,0 -2.985,-2.985 -11.427,5.457 2.762,19.646 11.197,11.212 8.212,8.227 2.969,13.469 0.373,10.873 5.127,6.119 2.307,3.3 -2.446,8.054 -5.25,5.25 Z" /></g><g
       transform="translate(71.0472,22.545)"
       id="g44"><path
         id="path46"
         style="fill:#050505;fill-opacity:1;fill-rule:nonzero;stroke:none"
         d="m 0,0 -3.171,3.171 7.804,7.851 -10.53,-5.128 -2.928,2.928 5.119,10.629 -7.854,-7.891 -3.171,3.171 14.189,14.189 4.228,-4.228 -6.479,-12.807 12.733,6.554 4.249,-4.25 z" /></g></g></svg>