<svg version="1.1" id="Layer_1" xmlns="http://www.w3.org/2000/svg" xmlns:xlink="http://www.w3.org/1999/xlink" x="0" y="0" viewBox="0 0 167.4 68" xml:space="preserve"><style>.st2{clip-path:url(#SVGID_6_)}</style><defs><path id="SVGID_1_" d="M2.8 2.8h70.9v62.4H2.8z"/></defs><clipPath id="SVGID_2_"><use xlink:href="#SVGID_1_" overflow="visible"/></clipPath><path d="M654.7 41.9h-5.6V36h5.4c1.5 0 2.8 1 2.8 2.8 0 2.1-1.3 3.1-2.6 3.1m-5.6-16.3h5.1c1.3.3 2.3 1 2.3 2.5s-1 2.3-2.3 2.5h-5.1v-5zm10.7 7.1c2.8-1 4.1-2.8 4.1-5.3 0-3.6-2.5-6.4-7.1-6.9-1.3-.3-2-.3-3.6-.3H642v27.5h10.9c1.8 0 2.5 0 4.1-.3 3.8-.5 7.9-3.1 7.9-8.1 0-3.2-1.8-5.5-5.1-6.6m-23.2 14.8V20.3h-7.1V32c0 1.5 0 4.3.3 7.1l-10.4-18.8h-8.9v27.5h7.1V36.3c0-1.5 0-4.1-.3-6.9l9.9 18.1h9.4zm-44-5.6h-4.8V25.6h4.8c3.6.3 6.1 3.1 6.1 7.9 0 4.8-2.5 8.2-6.1 8.4m1.8-21.6c-1.3-.3-2-.3-3.6-.3h-10.2v27.5H591c1.5 0 2 0 3.6-.3 6.4-.8 11.7-5.3 11.7-14-.2-8.3-5.5-12.2-11.9-12.9m-26.2 27.2V20.3H561V32c0 1.5 0 4.3.3 7.1l-10.4-18.8H542v27.5h7.1V36.3c0-1.5 0-4.1-.3-6.9l9.9 18.1h9.5zm-30.6-5.3h-14v-5.3h12.7v-5.6h-12.7V26h13.5v-5.6h-20.6v27.5h21.1v-5.7zm-36.4-22.7c-5.3 0-10.4 3.1-10.4 8.1 0 5.6 3.6 7.4 9.9 8.9 3.3.8 4.3 2 4.3 3.6 0 1.5-1.5 2.5-3.6 2.5-2 0-4.3-1-4.8-3.8h-7.1c.5 6.1 5.1 8.9 12.2 8.9 5.6 0 10.7-2.8 10.7-8.1 0-4.3-2.5-7.1-8.4-8.7-4.6-1-5.9-2-5.9-3.8 0-1.8 1-2.5 2.8-2.5 2.3 0 3.6 1.5 3.8 3.8h7.1c-.1-4.8-3.2-8.9-10.6-8.9m-13.5 22.2h-14V20.3h-7.1v27.5h21.1v-6.1zm-25.4.5h-14v-5.3H461v-5.6h-12.7V26h13.5v-5.6h-20.6v27.5h21.1v-5.7zm-23.9-16.6v-5.3h-24.9v5.6h8.9v21.9h7.1V25.9h8.9v-.3zm-39.5 0h13.5v-5.3h-20.6v27.5h7.1v-11h12.2v-5.6h-12.2v-5.6zm-12.7-5.3h-7.1v27.5h7.1V20.3zm-10 5.3v-5.3h-24.9v5.6h8.9v21.9h7.1V25.9h8.9v-.3zm-37.4-6.1c-5.3 0-10.4 3.1-10.4 8.1 0 5.6 3.6 7.4 9.9 8.9 3.3.8 4.3 2 4.3 3.6 0 1.5-1.5 2.5-3.6 2.5-2 0-4.3-1-4.8-3.8h-7.1c.5 6.1 5.1 8.9 12.2 8.9 5.6 0 10.7-2.8 10.7-8.1 0-4.3-2.5-7.1-8.4-8.7-4.6-1-5.9-2-5.9-3.8 0-1.8 1-2.5 2.8-2.5 2.3 0 3.6 1.5 3.8 3.8h7.1c-.4-4.8-3.4-8.9-10.6-8.9M313.9 33l12-13h-8.7l-10.4 12.2v-12h-7.1v27.5h7.1v-8.4l2-2 7.6 10.7h8.9l-11.4-15zm-19.6 14.5V20.3h-7.1V32c0 1.5 0 4.3.3 7.1L277 20.3h-8.9v27.5h7.1V36.3c0-1.5 0-4.1-.3-6.9l9.9 18.1h9.5zM251 26.4l2.5 8.4h-5.1l2.6-8.4zm4.3 14l2.3 7.1h7.9l-10.2-27.2h-8.7l-9.9 27.5h7.6l2.3-7.1h8.7v-.3zm-29.7 1.5H220V36h5.4c1.5 0 2.8 1 2.8 2.8-.1 2.1-1.4 3.1-2.6 3.1M220 25.6h5.1c1.3.3 2.3 1 2.3 2.5s-1 2.3-2.3 2.5H220v-5zm10.7 7.1c2.8-1 4.1-2.8 4.1-5.3 0-3.6-2.5-6.4-7.1-6.9-1.5-.3-2-.3-3.6-.3h-11.2v27.5h10.9c1.8 0 2.5 0 4.1-.3 3.8-.5 7.9-3.1 7.9-8.1-.3-3.2-1.8-5.5-5.1-6.6m-22.4 9.5h-14v-5.3H207v-5.6h-12.7V26h13.5v-5.6h-20.6v27.5h21.1v-5.7zm-41-10.2v-6.4h4.8c1.8.3 3.3.8 3.3 3.1s-1.8 3.1-3.6 3.1h-4.5v.2zm14.2 8.9c-.5-3.3-1.5-5.3-4.3-6.4 3.6-1 5.6-3.3 5.6-6.9 0-4.8-3.6-6.9-7.4-7.4-1.5-.3-2.5-.3-4.3-.3h-10.9v27.5h7.1V37.1h3.8c1.8 0 3.1 1.8 3.3 4.8.3 2 .5 3.6 1.3 5.6h7.9c-1.1-1.5-1.6-3.6-2.1-6.6m-38.2-14.5l2.5 8.4h-5.1l2.6-8.4zm4.1 14l2.3 7.1h7.9l-9.9-27.2H139l-9.9 27.5h7.6l2.3-7.1h8.4v-.3zm-26.7-7.9h-4.8v-6.6h4.8c1.8.3 2.8 1.3 2.8 3.3.2 2-.8 3-2.8 3.3m2.8-12.2c-1.5-.3-2.5-.3-4.3-.3h-10.4v27.5h7.1v-9.4h3.3c1.8 0 2.8 0 4.3-.3 4.1-.5 7.6-3.3 7.6-8.7s-3.5-8.3-7.6-8.8m-29.8-.8c-5.3 0-10.4 3.1-10.4 8.1 0 5.6 3.6 7.4 9.9 8.9 3.3.8 4.3 2 4.3 3.6 0 1.5-1.5 2.5-3.6 2.5-2 0-4.3-1-4.8-3.8H82c.5 6.1 5.1 8.9 12.2 8.9 5.6 0 10.7-2.8 10.7-8.1 0-4.3-2.5-7.1-8.4-8.7-4.6-1-5.9-2-5.9-3.8 0-1.8 1-2.5 2.8-2.5 2.3 0 3.6 1.5 3.8 3.8h7.1c-.4-4.8-3.5-8.9-10.6-8.9" clip-path="url(#SVGID_2_)"/><g><defs><path id="SVGID_3_" d="M2.8 7.8h62.9v52.4H2.8z"/></defs><clipPath id="SVGID_4_"><use xlink:href="#SVGID_3_" overflow="visible"/></clipPath><path d="M6.4 39.4c1.5-11.7 9.2-22.1 21.1-26.5 13.5-4.8 28.3 2 33.3 15.5 1.8 5.3 1.5 10.9-.8 16s-6.6 8.9-11.7 10.7c-1.8.8-3.8 1-5.9 1-2.5 0-4.8-.5-7.1-1.5-4.1-2-7.1-5.3-8.7-9.7-2.5-6.9 1-14.5 7.6-17.3" clip-path="url(#SVGID_4_)" fill="none" stroke="#000" stroke-width="7.382" stroke-miterlimit="10"/></g><g><defs><path id="SVGID_5_" d="M0 0h167.4v68H0z"/></defs><clipPath id="SVGID_6_"><use xlink:href="#SVGID_5_" overflow="visible"/></clipPath><path class="st2" d="M102.9 49.5H101v-1.8H102.8c.5 0 .9.3.9.9 0 .5-.4.9-.8.9m-1.9-5.1H102.7c.4.1.7.3.7.8s-.3.7-.7.8H101v-1.6zm3.5 2.2c.9-.3 1.3-.9 1.3-1.7 0-1.1-.8-2-2.3-2.2h-4.9v8.5h4.9c1.2-.1 2.6-.9 2.6-2.5.1-1.1-.4-1.8-1.6-2.1m-8 4.6v-8.5h-2.4v3.6c0 .5 0 1.4.1 2.2l-3.4-5.9h-2.9v8.5h2.4v-3.5c0-.5 0-1.2-.1-2.1l3.3 5.6h3zm-14.9-1.7H80v-5.1h1.6c1.2.1 2 .9 2 2.4 0 1.6-.9 2.6-2 2.7m.6-6.8h-4.6v8.5h4.6c2.1-.2 3.8-1.7 3.8-4.3s-1.7-3.9-3.8-4.2M160 38.9v-8.5h-2.4V34c0 .5 0 1.4.1 2.2l-3.4-5.9h-2.9v8.5h2.4v-3.5c0-.5 0-1.2-.1-2.1l3.3 5.6h3zm-10.5-1.8H145v-1.7h4.2v-1.7H145V32h4.4v-1.7h-6.8v8.5h6.9v-1.7zm-12.3-6.9c-1.8 0-3.4.9-3.4 2.6 0 1.7 1.2 2.3 3.3 2.8 1.1.3 1.5.6 1.5 1.1 0 .5-.5.8-1.2.8s-1.4-.3-1.6-1.2h-2.4c.1 1.9 1.7 2.8 4 2.8 1.8 0 3.6-.9 3.6-2.6 0-1.3-.8-2.2-2.8-2.7-1.5-.3-1.9-.7-1.9-1.2s.4-.8.9-.8c.8 0 1.2.5 1.3 1.2h2.4c-.4-1.6-1.4-2.8-3.7-2.8m-4.9 6.8h-4.6v-6.6h-2.4v8.5h6.9V37zm-8.8.1h-4.6v-1.7h4.2v-1.7h-4.2V32h4.4v-1.7h-6.8v8.5h6.9v-1.7zm-8.2-5v-1.7H107v1.7h2.9v6.8h2.4v-6.8h3zm-13.5 0h4.4v-1.7h-6.8v8.5h2.4v-3.4h4.1v-1.7h-4.1v-1.7zm-4.5-1.8h-2.4v8.5h2.4v-8.5zm-3.7 1.8v-1.7h-8.2v1.7h2.9v6.8h2.4v-6.8h2.9zm-12.8-1.9c-1.8 0-3.4.9-3.4 2.6 0 1.7 1.2 2.3 3.3 2.8 1.1.3 1.5.6 1.5 1.1 0 .5-.5.8-1.2.8s-1.4-.3-1.6-1.2H77c.1 1.9 1.7 2.8 4 2.8 1.8 0 3.6-.9 3.6-2.6 0-1.3-.8-2.2-2.8-2.7-1.5-.3-1.9-.7-1.9-1.2s.4-.8.9-.8c.8 0 1.2.5 1.3 1.2h2.4c-.3-1.6-1.3-2.8-3.7-2.8M164.6 22.4h-3.3v1.2h3.3v-1.2zm-8-.4l3.9-4h-2.8l-3.5 3.8V18h-2.4v8.5h2.4v-2.6l.6-.7 2.6 3.3h3l-3.8-4.5zm-6.9 4.5V18h-2.4v3.6c0 .5 0 1.4.1 2.2L144 18h-3v8.5h2.4V23c0-.5 0-1.2-.1-2.1l3.3 5.6h3.1zM135 19.9l.8 2.6h-1.7l.9-2.6zm1.4 4.4l.8 2.2h2.6l-3.3-8.5h-2.9l-3.3 8.5h2.5l.8-2.2h2.8zm-10.1.5h-1.9V23H126.2c.5 0 .9.3.9.9 0 .5-.4.8-.8.9m-1.9-5.1H126.1c.4.1.7.3.7.8s-.3.7-.7.8H124.4v-1.6zm3.5 2.2c.9-.3 1.3-.9 1.3-1.7 0-1.1-.8-2-2.3-2.2H122v8.5h4.9c1.2-.1 2.6-.9 2.6-2.5.1-1.1-.5-1.8-1.6-2.1m-7.7 2.9h-4.6v-1.7h4.2v-1.7h-4.2v-1.7h4.4V18h-6.8v8.5h6.9v-1.7zm-13.9-3.1v-2h1.5c.6 0 1.1.2 1.1 1 0 .7-.6.9-1.2 1h-1.4zm4.7 2.7c-.1-1-.5-1.7-1.4-2 1.2-.3 1.8-1 1.8-2.1 0-1.5-1.1-2.1-2.5-2.3-.5 0-.9-.1-1.4-.1h-3.6v8.5h2.4v-3.2h1.2c.6 0 1 .6 1.1 1.5.1.6.2 1.1.4 1.7h2.6c-.3-.4-.5-1-.6-2m-13.1-4.5l.8 2.6H97l.9-2.6zm1.4 4.4l.8 2.2h2.6L99.4 18h-2.9l-3.3 8.5h2.5l.8-2.2h2.8zm-9.2-2.5h-1.5v-2.1h1.5c.6 0 1 .4 1 1 0 .7-.4 1-1 1.1M91 18c-.5 0-.9-.1-1.4-.1h-3.4v8.5h2.4v-3h1.1c.6 0 .9 0 1.4-.1 1.3-.1 2.5-1 2.5-2.7 0-1.5-1.2-2.4-2.6-2.6m-10.2-.2c-1.8 0-3.4.9-3.4 2.6 0 1.7 1.2 2.3 3.3 2.8 1.1.3 1.5.6 1.5 1.1 0 .5-.5.8-1.2.8s-1.4-.3-1.6-1.1H77c.1 1.9 1.7 2.8 4 2.8 1.8 0 3.6-.9 3.6-2.6 0-1.3-.8-2.2-2.8-2.7-1.5-.3-1.9-.7-1.9-1.2s.4-.8.9-.8c.8 0 1.2.5 1.3 1.2h2.4c-.3-1.7-1.3-2.9-3.7-2.9"/></g></svg>