<?xml version="1.0" encoding="utf-8"?>
<!-- Generator: Adobe Illustrator 22.1.0, SVG Export Plug-In . SVG Version: 6.00 Build 0)  -->
<svg version="1.1" id="Layer_1" xmlns="http://www.w3.org/2000/svg" xmlns:xlink="http://www.w3.org/1999/xlink" x="0px" y="0px"
	 viewBox="0 0 567.1 420.8" style="enable-background:new 0 0 567.1 420.8;" xml:space="preserve">
<style type="text/css">
	.st0{clip-path:url(#SVGID_2_);fill:#12110C;}
</style>
<g>
	<defs>
		<rect id="SVGID_1_" width="567.1" height="420.8"/>
	</defs>
	<clipPath id="SVGID_2_">
		<use xlink:href="#SVGID_1_"  style="overflow:visible;"/>
	</clipPath>
	<path class="st0" d="M217.4,354.5c-82.9,0-140.1-57.2-140.1-148c0-77,57.2-136.2,140.1-136.2c80.9,0,138.2,61.2,138.2,142.1
		C355.6,301.2,304.3,354.5,217.4,354.5 M213.5,417.6c69.1,0,130.3-31.6,167.8-82.9l157.9,71.1l23.7-45.4l-150-92.8
		c5.9-17.8,7.9-37.5,7.9-57.2c0-116.5-90.8-207.2-207.2-207.2S4.3,93.9,4.3,210.4C4.3,326.8,97,417.6,213.5,417.6"/>
</g>
</svg>
