<?xml version="1.0" encoding="UTF-8"?>
<svg version="1.1" xmlns="http://www.w3.org/2000/svg" viewBox="0 0 42.6 42.6">
<g>
	<path fill="#203e51" d="M24.6,19.4c1.9,0,3.5-0.8,4.5-2.2l4.2,1.9l0.6-1.2l-4-2.5c0.2-0.5,0.2-1,0.2-1.5c0-3.1-2.4-5.6-5.6-5.6   c-3.1,0-5.6,2.4-5.6,5.6C19,17,21.5,19.4,24.6,19.4 M26.1,14.3c-0.2,0-0.4-0.2-0.4-0.4c0-0.3,0.2-0.4,0.4-0.4   c0.2,0,0.4,0.2,0.4,0.4C26.5,14.2,26.3,14.3,26.1,14.3 M26,15.1c0.6,0,1.2-0.5,1.2-1.2c0-0.7-0.5-1.2-1.2-1.2   c-0.6,0-1.2,0.5-1.4,1.2C24.8,14.5,25.3,15.1,26,15.1 M24.7,17.7c-2.2,0-3.8-1.5-3.8-4c0-2.1,1.5-3.7,3.8-3.7   c2.2,0,3.7,1.6,3.7,3.8C28.5,16.3,27.1,17.7,24.7,17.7 M20.7,39.7c-9.9-0.4-17.5-8.2-17.5-18.3C3.1,11,11,3,21.3,3   s18.2,8,18.2,18.3c0,9.9-6.8,17.6-16.8,18.3l0.4-6.8c5.5-0.8,7-6.4,4.2-11.4L25,22.1c2,3.7,2.9,8.5-2.4,8.5   c-2.9,0-7.2-0.8-11.2-6.7c3,1.6,7-0.7,9.7-2.7l-1.9-1.4L17.3,21c-2.1,1.5-3.2,1.8-4.4,1.8c-1.9,0-2.8-0.8-4-4l-1.6,0.6   c3.5,9.2,8.5,12.8,13.2,13.3L20.7,39.7z M13.3,25.1c3.6,0.7,7.2-0.3,9.7-2.4l-1.2-0.9C19.8,23.6,16.6,25.3,13.3,25.1 M21.3,42.6   c12.3,0,21.3-9.5,21.3-21.2c0-11.7-9.5-21.2-21.3-21.2S0,9.6,0,21.3C0,33.1,9.5,42.6,21.3,42.6"/>
</g>
</svg>
