<svg id="Layer_1" xmlns="http://www.w3.org/2000/svg" xmlns:xlink="http://www.w3.org/1999/xlink" viewBox="0 0 193.2 68"><style>.st0{clip-path:url(#SVGID_2_)}.st1{clip-path:url(#SVGID_4_)}.st2{clip-path:url(#SVGID_6_)}.st3{clip-path:url(#SVGID_8_)}.st4{clip-path:url(#SVGID_10_)}.st5{clip-path:url(#SVGID_12_)}</style><defs><path id="SVGID_1_" d="M2.8 2.8h56.8v62.4H2.8z"/></defs><clipPath id="SVGID_2_"><use xlink:href="#SVGID_1_" overflow="visible"/></clipPath><path class="st0" d="M79.8 17.5v20.8c0 7.2 3.8 9.3 7.8 9.3 4.6 0 7.7-2.4 7.7-9.3V17.5h6.5V38c0 11.7-6.7 14.8-14.3 14.8-7.6 0-14.2-3.3-14.2-14.6V17.5h6.5zM108.4 17.5h6.3v6.1h-6.3v-6.1zm0 10.9h6.3v23.9h-6.3V28.4zM128.6 43.4l-3.1 8.9h-6.4l12-34.8h8.2l12.5 34.8h-6.9l-3.2-8.9h-13.1zm11.7-5.4c-2.8-8-4.4-12.7-5.2-15.7h-.1c-.9 3.3-2.7 8.9-4.9 15.7h10.2zM26.2 24.8H31c-.9-4.9.3-7 4.4-7h18.1v-5H35.3c-7.2.1-10.7 4.3-9.1 12M48.2 32.1h5.3v33.1h-5.3zM37.3 32.1h5.3v33.1h-5.3z"/><path class="st0" d="M37 22.3h16.4v5H37zM24.9 60.3c-5.3-.2-8.8-3.2-8.7-7.7.1-4 2.8-7.3 6.8-7.3 2.4 0 4.7.5 6.3 2.5v-5.2c-1.7-1.4-4.1-2-6.2-2-6.2 0-11.6 4.8-11.6 11.7 0 3.1 1.4 5.9 3.1 7.7-4.5-2.2-7.1-6.2-7.1-12.2 0-7 5.7-12.3 12.7-12.3 1.2 0 2.3.1 3.5.4v-5.2c-.9-.2-2.3-.3-3.3-.3C10.8 30.4 3 38.2 3 47.8c0 10.9 8 17.4 17.1 17.4H32v-4.8c-.2 0-4.2 0-7.1-.1zM3.2 2.8v30c1.4-1.5 2.7-2.6 4.5-3.7V7.4h45.7V2.8H3.2zM162 17.5v8.9c0 3.4 1.8 4.3 3.7 4.3 2.1 0 3.6-1 3.6-4.3v-8.9h2.2v8.8c0 4.8-2.7 6.2-5.9 6.2-3.1 0-5.8-1.5-5.8-6.1v-8.9h2.2zM174.5 24.1v-2.7h2c.1.3.1 1.4.1 1.7.4-.9 1.3-2 3.4-2 2.1 0 3.6 1.3 3.6 4.1v6.9h-2.1v-6.7c0-1.6-.6-2.6-2.2-2.6-1.9 0-2.7 1.4-2.7 3.5v5.8h-2.1v-8zM186.6 16.6h2.1V19h-2.1v-2.4zm0 4.8h2.1v10.8h-2.1V21.4zM192.8 21.4c1.4 4.3 2.4 7.6 2.7 8.9.3-1.3 1.4-4.6 2.9-8.9h2.1l-3.9 10.8h-2.3l-3.8-10.8h2.3zM203.6 27.2c0 2 1 3.6 2.8 3.6 1.6 0 2.1-.8 2.5-1.6h2.1c-.4 1.4-1.6 3.3-4.6 3.3-3.4 0-4.9-2.7-4.9-5.5 0-3.3 1.6-5.8 5-5.8 3.5 0 4.7 2.8 4.7 5.2v.9h-7.6zm5.4-1.4c0-1.7-.8-3-2.6-3s-2.6 1.3-2.8 3h5.4zM213.5 24.3v-2.9h2c0 .3.1 1.2.1 2.1.5-1.4 1.8-2.4 3.6-2.4v2.1c-2.2 0-3.6 1.1-3.6 3.9v5.1h-2.1v-7.9zM222.3 29.1c.3 1.1 1.1 1.8 2.5 1.8 1.5 0 2.1-.6 2.1-1.5 0-1-.5-1.4-2.5-1.9-3.2-.8-3.8-1.7-3.8-3.2 0-1.5 1.1-3.1 4-3.1s4 1.6 4.2 3.1h-2c-.1-.6-.6-1.6-2.2-1.6-1.4 0-1.8.7-1.8 1.3 0 .8.4 1.1 2.4 1.6 3.3.8 4 1.9 4 3.5 0 1.9-1.5 3.3-4.3 3.3-2.9 0-4.3-1.4-4.5-3.4h1.9zM231.4 16.6h2.1V19h-2.1v-2.4zm0 4.8h2.1v10.8h-2.1V21.4zM235.3 21.4h1.8v-3.1h2.1v3.1h2.3v1.7h-2.3v6.1c0 1 .3 1.5 1.2 1.5.2 0 .6 0 .9-.1v1.5c-.5.2-1.2.2-1.7.2-1.8 0-2.5-.9-2.5-2.7V23h-1.8v-1.6zM244.8 27.2c0 2 1 3.6 2.8 3.6 1.6 0 2.1-.8 2.5-1.6h2.1c-.4 1.4-1.6 3.3-4.6 3.3-3.4 0-4.9-2.7-4.9-5.5 0-3.3 1.6-5.8 5-5.8 3.5 0 4.7 2.8 4.7 5.2v.9h-7.6zm5.5-1.4c0-1.7-.8-3-2.6-3s-2.6 1.3-2.8 3h5.4zM253.5 21.4h1.8v-3.1h2.1v3.1h2.3v1.7h-2.3v6.1c0 1 .3 1.5 1.2 1.5.2 0 .6 0 .9-.1v1.5c-.5.2-1.2.2-1.7.2-1.8 0-2.5-.9-2.5-2.7V23h-1.8v-1.6zM262.9 27.2c0 2 1 3.6 2.8 3.6 1.6 0 2.1-.8 2.5-1.6h2.1c-.4 1.4-1.6 3.3-4.6 3.3-3.4 0-4.9-2.7-4.9-5.5 0-3.3 1.6-5.8 5-5.8 3.5 0 4.7 2.8 4.7 5.2v.9h-7.6zm5.5-1.4c0-1.7-.8-3-2.6-3s-2.6 1.3-2.8 3h5.4zM271.6 21.4h1.8v-3.1h2.1v3.1h2.3v1.7h-2.3v6.1c0 1 .3 1.5 1.2 1.5.2 0 .6 0 .9-.1v1.5c-.5.2-1.2.2-1.7.2-1.8 0-2.5-.9-2.5-2.7V23h-1.8v-1.6zM160.4 36.7h2.1v2.4h-2.1v-2.4zm0 4.8h2.1v10.8h-2.1V41.5zM172.6 48.1l-1.5 4.2h-2.2l5.2-14.8h2.7l5.4 14.8h-2.3l-1.6-4.2h-5.7zm5.2-1.9c-1.3-3.7-2.1-5.8-2.4-6.9-.4 1.3-1.2 3.8-2.3 6.9h4.7zM193.4 51.2c0 3.5-1.4 5.5-5 5.5-3.4 0-4.4-1.9-4.6-3.3h2.1c.3 1.1 1.2 1.7 2.5 1.7 2.4 0 2.9-1.5 2.9-3.9v-.8c-.6 1.2-1.5 1.8-3.3 1.8-2.7 0-4.5-2.2-4.5-5.3 0-3.5 2.1-5.7 4.7-5.7 2 0 2.9 1 3.1 1.6 0-.5.1-1.2.1-1.4h2v9.8zm-7.6-4.4c0 2.2 1.1 3.7 2.8 3.7 2.2 0 2.9-1.5 2.9-3.8s-.6-3.7-2.8-3.7c-1.9 0-2.9 1.5-2.9 3.8M205.7 36.7v15.5h-2c-.1-.3-.1-1.1-.1-1.5-.5 1.1-1.6 1.7-3.3 1.7-2.8 0-4.5-2.2-4.5-5.6 0-3.3 1.8-5.8 4.9-5.8 1.8 0 2.7.7 3 1.3v-5.8h2zM198 46.9c0 2.5 1.2 3.9 2.8 3.9 2.4 0 2.9-1.8 2.9-4.1s-.5-3.8-2.8-3.8c-1.8.1-2.9 1.5-2.9 4M210.2 47.3c0 2 1 3.6 2.8 3.6 1.6 0 2.1-.8 2.5-1.6h2.1c-.4 1.4-1.6 3.3-4.6 3.3-3.4 0-4.9-2.7-4.9-5.5 0-3.3 1.6-5.8 5-5.8 3.5 0 4.7 2.8 4.7 5.2v.9h-7.6zm5.4-1.4c0-1.7-.8-3-2.6-3s-2.6 1.3-2.8 3h5.4zM220.1 44.4v-2.9h2c0 .3.1 1.2.1 2.1.5-1.4 1.8-2.4 3.6-2.4v2.1c-2.2 0-3.6 1.1-3.6 3.9v5.2h-2.1v-8z"/><g><defs><path id="SVGID_3_" d="M76.5 2.8h113.9v62.4H76.5z"/></defs><clipPath id="SVGID_4_"><use xlink:href="#SVGID_3_" overflow="visible"/></clipPath><path class="st1" d="M.1 17.8v19.9c0 6.9 3.6 8.9 7.5 8.9 4.4 0 7.3-2.3 7.3-8.9V17.8h6.3v19.6c0 11.2-6.4 14.2-13.7 14.2-7.3 0-13.6-3.1-13.6-14V17.8H.1zM27.5 17.8h6v5.9h-6v-5.9zm0 10.4h6v22.9h-6V28.2zM46.9 42.6L44 51.1h-6.2l11.5-33.3h7.8l12 33.3h-6.6l-3.1-8.5H46.9zM58 37.5c-2.6-7.6-4.2-12.2-5-15-.8 3.1-2.6 8.5-4.7 15H58z"/></g><g><defs><path id="SVGID_5_" d="M76.5 3.7h113.3v59.7H76.5z"/></defs><clipPath id="SVGID_6_"><use xlink:href="#SVGID_5_" overflow="visible"/></clipPath><path class="st2" d="M-51.2 24.8h4.5c-.9-4.7.3-6.7 4.2-6.7h17.3v-4.8h-17.4c-6.8.1-10.1 4.1-8.6 11.5M-30.2 31.8h5.1v31.7h-5.1zM-40.6 31.8h5.1v31.7h-5.1z"/><path class="st2" d="M-40.8 22.4h15.7v4.8h-15.7zM-52.4 58.8c-5.1-.2-8.4-3.1-8.3-7.3.1-3.8 2.7-7 6.5-7 2.3 0 4.5.5 6 2.4v-5c-1.7-1.3-3.9-1.9-5.9-1.9-5.9 0-11.2 4.6-11.2 11.2 0 3 1.4 5.6 2.9 7.3-4.3-2.1-6.8-5.9-6.8-11.7 0-6.7 5.4-11.8 12.1-11.8 1.1 0 2.2.1 3.3.4v-5c-.9-.2-2.2-.3-3.2-.3-9.2 0-16.7 7.5-16.7 16.7 0 10.4 7.7 16.7 16.4 16.7h11.4v-4.6s-3.8 0-6.5-.1z"/></g><g><defs><path id="SVGID_7_" d="M76.5 2.8h113.9v62.4H76.5z"/></defs><clipPath id="SVGID_8_"><use xlink:href="#SVGID_7_" overflow="visible"/></clipPath><path class="st3" d="M-73.3 3.7v28.7c1.3-1.4 2.6-2.5 4.3-3.5V8.1h43.8V3.7h-48.1zM78.9 17.7v8.5c0 3.2 1.7 4.1 3.5 4.1 2.1 0 3.5-1 3.5-4.1v-8.5H88v8.4c0 4.6-2.6 5.9-5.6 5.9-3 0-5.6-1.4-5.6-5.8v-8.5h2.1zM90.8 24.1v-2.6h1.9c0 .3.1 1.3.1 1.6.4-.8 1.2-1.9 3.2-1.9s3.5 1.2 3.5 4v6.7h-2v-6.4c0-1.5-.6-2.5-2.1-2.5-1.8 0-2.6 1.3-2.6 3.4v5.5h-2v-7.8zM102.4 16.9h2v2.3h-2v-2.3zm0 4.6h2v10.4h-2V21.5zM108.4 21.5c1.3 4.1 2.3 7.2 2.6 8.5.3-1.3 1.3-4.4 2.8-8.5h2L112 31.9h-2.2l-3.6-10.4h2.2zM118.7 27.1c0 2 1 3.4 2.7 3.4 1.6 0 2-.8 2.4-1.5h2c-.4 1.3-1.5 3.1-4.4 3.1-3.3 0-4.6-2.6-4.6-5.3 0-3.1 1.6-5.5 4.8-5.5 3.4 0 4.5 2.7 4.5 4.9v.9h-7.4zm5.2-1.4c0-1.6-.8-2.9-2.5-2.9s-2.5 1.2-2.7 2.9h5.2zM128.2 24.3v-2.8h2c0 .3.1 1.1.1 2.1.5-1.4 1.7-2.3 3.5-2.3v2c-2.1 0-3.5 1-3.5 3.7v4.9h-2v-7.6zM136.7 28.9c.3 1.1 1.1 1.7 2.4 1.7 1.4 0 2-.6 2-1.5s-.5-1.3-2.4-1.8c-3-.7-3.6-1.7-3.6-3.1 0-1.5 1.1-3 3.8-3 2.8 0 3.9 1.6 4 3H141c-.1-.6-.6-1.5-2.1-1.5-1.4 0-1.8.6-1.8 1.3 0 .7.4 1.1 2.3 1.5 3.2.8 3.8 1.8 3.8 3.4 0 1.8-1.4 3.2-4.1 3.2-2.8 0-4.1-1.4-4.3-3.2h1.9zM145.4 16.9h2v2.3h-2v-2.3zm0 4.6h2v10.4h-2V21.5zM149.1 21.5h1.8v-3h2v3h2.2v1.6h-2.2V29c0 1 .2 1.4 1.2 1.4.2 0 .6 0 .9-.1v1.5c-.5.2-1.1.2-1.6.2-1.7 0-2.4-.9-2.4-2.6v-6.3h-1.8v-1.6zM158.2 27.1c0 2 1 3.4 2.7 3.4 1.6 0 2-.8 2.4-1.5h2c-.4 1.3-1.5 3.1-4.4 3.1-3.3 0-4.6-2.6-4.6-5.3 0-3.1 1.6-5.5 4.8-5.5 3.4 0 4.5 2.7 4.5 4.9v.9h-7.4zm5.2-1.4c0-1.6-.8-2.9-2.5-2.9s-2.5 1.2-2.7 2.9h5.2zM166.5 21.5h1.8v-3h2v3h2.2v1.6h-2.2V29c0 1 .2 1.4 1.2 1.4.2 0 .6 0 .9-.1v1.5c-.5.2-1.1.2-1.6.2-1.7 0-2.4-.9-2.4-2.6v-6.3h-1.8v-1.6z"/></g><g><defs><path id="SVGID_9_" d="M76.5 3.7h113.3v59.7H76.5z"/></defs><clipPath id="SVGID_10_"><use xlink:href="#SVGID_9_" overflow="visible"/></clipPath><path class="st4" d="M175.6 27.1c0 2 1 3.4 2.7 3.4 1.6 0 2-.8 2.4-1.5h2c-.4 1.3-1.5 3.1-4.4 3.1-3.3 0-4.6-2.6-4.6-5.3 0-3.1 1.6-5.5 4.8-5.5 3.4 0 4.5 2.7 4.5 4.9v.9h-7.4zm5.2-1.4c0-1.6-.8-2.9-2.5-2.9s-2.5 1.2-2.7 2.9h5.2zM183.9 21.5h1.8v-3h2v3h2.2v1.6h-2.2V29c0 1 .2 1.4 1.2 1.4.2 0 .6 0 .9-.1v1.5c-.5.2-1.1.2-1.6.2-1.7 0-2.4-.9-2.4-2.6v-6.3H184v-1.6z"/></g><g><defs><path id="SVGID_11_" d="M76.5 2.8h113.9v62.4H76.5z"/></defs><clipPath id="SVGID_12_"><use xlink:href="#SVGID_11_" overflow="visible"/></clipPath><path class="st5" d="M77.3 36.2h2v2.3h-2v-2.3zm0 4.5h2v10.4h-2V40.7zM89 47.1l-1.4 4.1h-2.1l5-14.1h2.6l5.2 14.1h-2.2l-1.5-4.1H89zm5.1-1.8c-1.3-3.6-2-5.5-2.3-6.7-.3 1.2-1.2 3.6-2.2 6.7h4.5zM109 50.1c0 3.3-1.3 5.3-4.8 5.3-3.3 0-4.2-1.8-4.4-3.2h2c.3 1.1 1.1 1.6 2.4 1.6 2.3 0 2.8-1.4 2.8-3.7v-.8c-.5 1.1-1.5 1.7-3.2 1.7-2.6 0-4.3-2.1-4.3-5.1 0-3.4 2-5.4 4.5-5.4 1.9 0 2.8.9 3 1.6 0-.4.1-1.1.1-1.3h1.9v9.3zm-7.4-4.2c0 2.1 1.1 3.5 2.7 3.5 2.1 0 2.8-1.4 2.8-3.6s-.6-3.6-2.7-3.6c-1.8 0-2.8 1.4-2.8 3.7M120.8 36.2v14.9h-1.9c-.1-.3-.1-1-.1-1.4-.5 1-1.5 1.6-3.2 1.6-2.7 0-4.3-2.1-4.3-5.3 0-3.2 1.8-5.5 4.6-5.5 1.8 0 2.6.7 2.9 1.3v-5.6h2zm-7.5 9.8c0 2.4 1.1 3.7 2.7 3.7 2.3 0 2.8-1.8 2.8-3.9 0-2.2-.4-3.6-2.7-3.6-1.7 0-2.8 1.4-2.8 3.8M125 46.3c0 2 1 3.4 2.7 3.4 1.6 0 2-.8 2.4-1.5h2c-.4 1.3-1.5 3.1-4.4 3.1-3.3 0-4.6-2.6-4.6-5.3 0-3.1 1.6-5.5 4.8-5.5 3.4 0 4.5 2.7 4.5 4.9v.9H125zm5.3-1.3c0-1.6-.8-2.9-2.5-2.9s-2.5 1.2-2.7 2.9h5.2zM134.5 43.6v-2.8h2c0 .3.1 1.1.1 2.1.5-1.4 1.7-2.3 3.5-2.3v2c-2.1 0-3.5 1-3.5 3.7v4.9h-2v-7.6z"/></g></svg>