<svg xmlns="http://www.w3.org/2000/svg" xmlns:xlink="http://www.w3.org/1999/xlink" width="224.4" height="68"><defs><path id="a" d="M2.8 2.8h66.6v62.4H2.8z"/></defs><clipPath id="b"><use xlink:href="#a" overflow="visible"/></clipPath><path clip-path="url(#b)" d="M8.4 27.4c-.6-.1-1.6-.3-1.9-.2-.1 0-.2.2-.3.4l-.1.2c-.1 0-.2 0-.2-.1.1-.3.1-.7.2-1 .1-.4.1-.6.1-1 .1-.1.2 0 .2 0v.2c0 .2 0 .4.1.5.4.3 1.5.5 2 .6l1 .2c.8.1 1.6.4 2.1 1 .4.5.5 1.2.4 1.9-.1.6-.3 1.2-.8 1.6-.5.4-1.2.5-2.3.3l-2.1-.4c-.9-.2-1.1-.2-1.2.3l-.1.2s-.2 0-.2-.1c.1-.5.2-.8.2-1.1.1-.4.1-.7.2-1.1h.2v.2c0 .5.1.6 1.1.7l2 .3c1.5.3 2.5 0 2.7-1.4.2-1.3-.7-2-2.1-2.2H8.4zM14.2 20c.2.1 1.2.7 1.4.8 0 0 .1.1 0 .2-.2 0-.6.1-1.8.3l-3.2.7c-.4.1-1.3.3-1.6.3.1.1.3.2.5.3l1.8 1c.4.2 1.4.8 1.7.8.1 0 .3-.1.4-.3l.2-.2c.1 0 .2 0 .2.1-.2.4-.4.6-.6.9-.2.3-.3.6-.4.9-.1 0-.2 0-.2-.1l.1-.2c.1-.2.1-.4 0-.4-.2-.3-1.2-.8-1.6-1l-2.3-1.3c-.2-.1-.4-.2-.7-.1-.2 0-.3.2-.5.4l-.1.1c-.1 0-.2 0-.2-.1.2-.3.5-.8.5-.9.1-.2.2-.4.2-.5.5.1 2.1-.3 2.5-.4l1.3-.3c.9-.2 1.6-.4 2.2-.5 0-.1-.2-.1-.3-.2l-1.7-1c-.4-.2-1.4-.8-1.8-.8-.1 0-.2.1-.4.4l-.1.1c-.1 0-.2-.1-.2-.1.2-.4.4-.6.6-.9.2-.3.3-.6.4-.8.1 0 .2 0 .2.1v.1c-.1.3-.1.5-.1.5.2.3 1.2.8 1.6 1l2 1.1zM14.1 15.4c-.7-.7-.8-.8-1.2-.4l-.2.2c-.1 0-.2-.1-.2-.2.3-.3.6-.5.8-.8l.8-.8c.1 0 .2.1.2.1l-.1.2c-.3.4-.2.5.5 1.2l2.4 2.3c.7.7.8.8 1.2.4l.2-.1c.1 0 .2.1.2.2-.3.3-.6.5-.8.8-.3.3-.5.5-.8.9-.1 0-.2-.1-.2-.1l.1-.2c.3-.4.3-.5-.5-1.2l-2.4-2.5zM17.4 11.8c-.5-.3-.7-.4-1-.2l-.2.1c-.1 0-.1-.1-.1-.2.2-.1.5-.3.8-.5l.9-.6c.1 0 .2.1.1.2l-.1.1c-.3.2-.3.3-.3.4.1.1.5.4 1.1.8.9.7 1.9 1.4 2.8 2-.1-.7-.3-1.7-.3-2.2-.1-.7-.3-1.8-.4-2.2 0-.2-.1-.3-.1-.3 0-.1-.2-.1-.4.1l-.2.1c0-.3-.1-.4 0-.4.2-.1.5-.3.8-.5.3-.2.5-.3.7-.5.1 0 .2.1.1.2l-.2.2c-.2.1-.2.3-.2.5 0 .5.1 1.3.3 2.3l.2 1.2c.1.9.3 2.1.5 2.5 0 0 0 .1-.1.1H22c-.3-.3-.7-.6-1-.8l-3.6-2.4zM25.1 8.2c-.3-.9-.3-1.1-.9-1h-.1c-.1 0-.1-.2 0-.2.4-.1.7-.2 1.1-.3l1.7-.5c.5-.1 1-.2 1.1-.3.1.1.3.8.5 1.1 0 .1-.2.1-.2.1-.3-.4-.4-.7-.9-.7-.2 0-.5.1-.9.2l-.6.2c-.3.1-.3.1-.2.4l.5 1.8c.1.2.1.2.4.2l.4-.1c.4-.1.6-.2.7-.3.1-.1.1-.1.1-.4V8c.1 0 .2-.1.3 0 .1.2.1.6.2.9.1.3.2.6.3.8 0 .1-.2.1-.2.1l-.2-.3c-.1-.1-.2-.3-.4-.3-.1 0-.3.1-.7.2l-.5.1c-.3.1-.3.1-.2.3l.4 1.3c.1.5.2.8.4.9.1.1.4.1 1.1-.1.7-.2.9-.3 1.1-.5.1-.1.3-.5.4-1 0-.1.2-.1.2 0 0 .3 0 1.1-.1 1.3l-2.4.6-.8.2c-.4.1-.7.2-1.2.4-.1 0-.1-.1-.1-.2l.3-.1c.5-.2.5-.3.2-1.3l-.8-3.1zM32.4 6.7c0-.9 0-1-.4-1.1h-.3c-.1 0-.1-.2 0-.2.5 0 1.2-.1 2.1-.1.6 0 1.1.1 1.5.3.4.2.8.7.8 1.3 0 .9-.7 1.4-1.2 1.5v.2c.7 1.2 1.2 1.9 1.8 2.5l.6.3s.1.1 0 .1h-.4c-.8 0-1.3-.2-1.9-1.2-.2-.3-.6-1-.9-1.4-.1-.2-.3-.3-.7-.3-.4 0-.4 0-.4.2V10c0 1 0 1.1.5 1.2h.2c.1 0 0 .2 0 .2h-2.3c-.1 0-.1-.2 0-.2h.2c.5-.1.6-.2.6-1.1l.2-3.4zm.8 1.4v.3s.2 0 .6.1c.3 0 .7 0 1-.2.2-.3.4-.6.4-1.3 0-.7-.4-1.4-1.5-1.4-.6 0-.6 0-.6.3l.1 2.2zM40.6 12.6c-.7-.2-1.1-.6-1.3-.8 0-.2 0-.9.2-1.3h.2c0 .5.1 1.5 1.1 1.8.7.2 1.3-.1 1.4-.7.1-.4.2-.8-.3-1.5l-.7-.8c-.3-.4-.7-1.1-.5-1.8.3-.7 1.2-1.2 2.3-.9.3.1.6.2.8.4.1.1.2.1.3.2 0 .2-.1.8-.2 1.1h-.2c0-.5 0-1.1-.9-1.4-.9-.3-1.2.2-1.4.6-.2.5.1 1 .4 1.3l.6.7c.4.5.8 1.2.6 2-.3 1-1.3 1.4-2.4 1.1M47.9 10.6c.5-.8.6-1 .1-1.3l-.2-.1c0-.1.1-.2.1-.2.4.3.6.4 1 .6.3.2.6.3 1 .6 0 .1 0 .2-.1.2l-.2-.1c-.5-.2-.6-.1-1.1.7l-1.7 2.8c-.5.8-.6 1-.1 1.3l.2.1c0 .1-.1.2-.1.2-.4-.3-.6-.4-1-.6-.3-.2-.6-.4-1-.6 0-.1 0-.2.1-.2l.2.1c.5.2.6.1 1.1-.7l1.7-2.8zM51.8 18c-.7.7-.8.8-.5 1.2l.2.2c0 .1-.1.2-.2.1-.3-.4-.6-.6-.8-.9-.2-.3-.5-.5-.9-.9 0-.1.1-.2.2-.2l.2.2c.4.4.5.3 1.2-.4l3-2.8c.2-.2.2-.2 0-.4l-.2-.2c-.3-.3-.6-.7-.9-.7-.3 0-.5 0-.8.1-.1 0-.1-.1-.1-.2.4-.2.9-.5 1.2-.7l.1.1c-.2.2 0 .5.3.8l2.5 2.7c.3.4.4.4.7.4l.1.1c-.3.2-.9.6-1.1.9-.1 0-.2-.1-.2-.2.2-.2.4-.5.3-.6 0-.3-.2-.6-.6-.9l-.4-.5c-.2-.2-.2-.2-.4 0L51.8 18zM56.7 24.2c.2-.1.2-.2 0-.4l-.6-1.3c-.1-.2-.1-.2-.4-.2l-1 .1c-.4.1-.7.1-.8.1-.1 0-.1.1-.1.3l.1.3c0 .1-.1.1-.2.1-.1-.2-.2-.5-.4-.9-.1-.3-.3-.6-.4-.8 0-.1.1-.1.2-.1l.2.3c.1.2.3.3.6.3.5 0 1.1-.1 2.2-.1l2.7-.2c.4 0 .5-.1.7-.1.2.2.4.2.5.3v.2l-.9.9-2.8 2.7c-.6.6-.7.8-.5 1.1l.1.2c0 .1-.2.1-.2.1-.1-.4-.3-.6-.5-1s-.4-.7-.5-.9c0-.1.1-.2.2-.1l.1.2c.1.2.2.3.3.2.1 0 .2-.2.4-.3l1-1zm0-2c-.2 0-.2 0-.1.3l.5 1c.1.2.2.2.3.1l1.1-1.1c.2-.2.4-.3.4-.4h-.6l-1.6.1zM56.2 30.5c-.1-.8.1-1.3.1-1.5.2-.1.8-.4 1.2-.4.1 0 .1.2.1.2-.4.2-1.3.7-1.1 1.8.1.8.7 1.1 1.2 1 .4-.1.8-.2 1.2-.9l.4-1c.2-.5.7-1.1 1.4-1.2.9-.1 1.7.4 1.8 1.6v1.2c-.2.1-.7.3-1.1.3-.1 0-.1-.2-.1-.2.4-.2 1-.5.8-1.4-.1-.9-.8-1-1.2-.9-.5.1-.8.6-1 .9l-.3.8c-.3.6-.7 1.3-1.6 1.4-.9.2-1.7-.5-1.8-1.7M11.2 40.8c.6-.2.8-.3.7-.7l-.1-.3c0-.1.2-.1.2-.1.2.5.5 1 .8 1.8.2.5.4 1.1.3 1.5 0 .4-.3.9-.8 1.1-.6.2-1.1 0-1.5-.4-.1 0-.1.1-.1.2.1.5-.1 1.4-1 1.7-1 .4-2-.1-2.5-1.7-.1-.2-.2-.7-.4-1-.1-.4-.3-.7-.4-1 0-.1.1-.1.2-.1l.1.1c.2.4.3.4 1.2.1l3.3-1.2zm-2.9 1.8c-.3.1-.7.3-.9.5-.1.2-.1.5 0 .8.3.8.8 1.2 1.7.9.7-.3 1.4-.9.8-2.3-.2-.5-.2-.5-.4-.4l-1.2.5zm2-.7c-.3.1-.3.1-.1.5.4.9.8 1.3 1.6.9.8-.3.9-1.1.7-1.7-.1-.2-.1-.3-.2-.4-.1-.1-.1-.1-.3 0l-1.7.7zM13.9 47.2c.8-.6.9-.7.6-1.1l-.1-.1c0-.1.1-.2.2-.1l.6.9 1 1.4c.4.5.7.9.8 1l-.9.9c-.1 0-.2-.1-.2-.2.3-.4.5-.6.3-1.1-.1-.2-.2-.4-.5-.8l-.4-.5c-.2-.2-.2-.2-.5 0l-1.5 1.1c-.2.2-.2.2 0 .4l.3.4c.2.3.4.5.5.6.1.1.2.1.4 0l.3-.2c.1 0 .2.1.1.2-.2.1-.5.3-.8.5-.3.2-.5.4-.7.6-.1 0-.2-.1-.2-.2l.2-.3c.1-.1.2-.3.1-.4 0-.1-.2-.3-.4-.6l.1-.6c-.2-.2-.2-.2-.4-.1l-1 .8c-.4.3-.6.5-.7.7 0 .2 0 .4.5 1 .4.6.6.8.8.9.2.1.6.1 1.1 0 .1 0 .1.1.1.2-.3.1-1 .4-1.3.4-.5-.7-1-1.3-1.5-2l-.5-.7c-.2-.3-.4-.6-.8-1 0-.1.1-.2.2-.2l.2.2c.4.4.5.3 1.3-.2l2.7-1.8zM18.4 52.3c.5-.7.6-.8.3-1.1l-.2-.2c0-.1.1-.2.1-.2.4.3 1 .6 1.7 1.2.5.3.9.7 1.1 1.1.2.4.2 1-.1 1.5-.5.7-1.4.7-1.8.6-.1 0-.1.1-.1.2-.1 1.4-.1 2.3 0 3.1 0 .2.2.4.4.6 0 0 0 .1-.1.1s-.2-.1-.4-.2c-.6-.5-.9-.9-.9-2.1 0-.4.1-1.2.1-1.7 0-.2-.1-.4-.4-.6-.3-.2-.4-.2-.5-.1l-.7.9c-.6.8-.6.9-.2 1.3l.1.1c0 .1-.1.2-.2.2-.3-.3-.6-.5-.9-.7-.3-.2-.6-.4-.9-.7 0-.1 0-.2.1-.2l.2.1c.5.3.6.2 1.1-.6l2.2-2.6zm-.1 1.5c-.1.1-.2.2-.2.3 0 0 .1.1.5.4.3.2.6.4.9.4.3 0 .7-.1 1-.7.4-.6.5-1.4-.4-2-.5-.3-.5-.3-.7-.1l-1.1 1.7zM27.8 61.1c-.1.4-.1.6 0 .7v.1c-.1 0-.3-.1-.5-.1-.5 0-1.2-.1-1.6-.3-1-.3-1.9-.9-2.4-1.9-.4-.7-.4-1.5-.2-2.3.2-.7.7-1.4 1.5-1.8.8-.4 1.8-.5 3.1-.1.5.2.9.4 1.1.5.2.1.4.2.5.3-.1.3-.2.8-.3 1.3 0 .1-.2 0-.2-.1.1-1-.5-1.5-1.4-1.8-1.7-.6-2.8.4-3.3 1.7-.6 1.7-.1 3.3 1.6 3.9.5.2.9.2 1 .1.1 0 .2-.2.3-.5l.1-.4c.2-.7.2-.8-.3-1l-.4-.2c-.1-.1 0-.2.1-.2.2.1.7.3 1.2.4l.9.3c.1.1 0 .2-.1.2h-.1c-.4-.1-.5.2-.6.6v.6zM32.5 58c0-1 0-1.1-.6-1.2h-.1c-.1 0 0-.2 0-.2h4c.1.2.1.8.1 1.2 0 .1-.2.1-.2 0-.1-.4-.2-.8-.7-.9-.2 0-.5-.1-.9-.1h-.7c-.3 0-.3 0-.3.4V59c0 .3 0 .3.3.3h.5c.4 0 .7 0 .8-.1.1 0 .2-.1.2-.3l.1-.4c0-.1.2-.1.2 0v1.8c0 .1-.2.1-.2 0v-.2c0-.2-.1-.3-.3-.3h-1.2c-.3 0-.3 0-.3.2v1.3c0 .5 0 .8.2 1 .1.1.3.2 1.1.2.7 0 1 0 1.2-.1.2-.1.4-.4.7-.9.1 0 .2 0 .2.1-.1.3-.3 1-.4 1.3h-4.6c-.1 0-.1-.2 0-.2h.3c.5 0 .6-.2.6-1.2V58zM45.1 56.5c-.1-.4-.6-1.5-.5-1.8 0-.1.2-.2.4-.4l.1-.1c0-.1 0-.2-.1-.2-.3.1-.5.2-.9.4-.3.1-.6.2-1 .4-.1.1 0 .2.1.2h.2c.4-.1.5-.1.6 0 .3.2.7 1.3.8 1.7l.7 1.9c.1.2.1.3.1.4l-2-1-1.2-.6c-.4-.2-1.8-1-2.2-1.4-.1.1-.2.1-.4.2s-.6.2-1 .3c-.1.1 0 .2.1.2h.2c.2 0 .4-.1.6 0 .3.1.3.3.4.6l.9 2.5c.2.4.6 1.5.6 1.8 0 .1-.1.2-.3.3l-.2.1c0 .1 0 .2.1.2.3-.1.5-.2.9-.4.3-.1.6-.2 1-.4 0-.1 0-.2-.1-.2l-.3.1c-.2.1-.4.1-.5 0-.2-.2-.7-1.3-.8-1.7l-.7-1.9c-.1-.3-.2-.5-.2-.6.3.1 1.1.6 1.4.8l2.9 1.5c1.1.6 1.4.8 1.6.9.1 0 .1-.1.1-.2-.1-.2-.5-1.2-.6-1.5l-.8-2.1zM52.3 56.2c-.6.5-1.1.6-1.3.7-.2-.1-.7-.5-1-.8 0-.1.1-.2.2-.2.4.3 1.3.7 2.1 0 .6-.5.6-1.1.2-1.6-.3-.3-.6-.6-1.4-.5L50 54c-.5.1-1.3 0-1.8-.6-.6-.7-.5-1.7.4-2.4.2-.2.5-.4.7-.5.1 0 .2-.1.3-.2.2.1.6.5.8.8 0 .1-.1.2-.2.2-.4-.3-1-.6-1.6 0-.7.6-.5 1.2-.2 1.5.3.4.9.4 1.3.4l.9-.1c.7-.1 1.5-.1 2 .6.8.8.6 1.8-.3 2.5M53.3 48.2c-.8-.6-.9-.6-1.3-.2l-.2.2c-.1 0-.2-.1-.2-.2.3-.4.5-.6.7-.9l.6-.9c.1 0 .2.1.2.1l-.1.2c-.3.5-.2.6.6 1.1l2.7 1.9c.8.6.9.6 1.3.2l.2-.2c.1 0 .2.1.2.2-.3.4-.5.6-.7.9-.2.3-.4.6-.7 1-.1 0-.2 0-.2-.1l.1-.2c.3-.5.2-.6-.6-1.1l-2.6-2zM60.9 44.3c-.3.7-.7 1.1-.8 1.2-.2 0-.9-.1-1.3-.2 0-.1 0-.2.1-.2.5 0 1.5 0 1.8-1 .3-.7-.1-1.3-.6-1.5-.4-.1-.8-.2-1.5.3l-.8.6c-.4.3-1.1.6-1.8.4-.8-.3-1.2-1.2-.8-2.3.1-.3.3-.6.4-.8.1-.1.1-.2.2-.3.2 0 .7.1 1.1.2 0 .1 0 .2-.1.2-.5 0-1.1 0-1.4.8-.3.8.2 1.2.6 1.4.5.2 1-.1 1.3-.3l.7-.5c.5-.4 1.2-.8 2.1-.5.9.4 1.2 1.4.8 2.5"/><path clip-path="url(#b)" d="M34 2.8C16.8 2.8 2.8 16.8 2.8 34s14 31.2 31.2 31.2 31.2-14 31.2-31.2S51.2 2.8 34 2.8m0 61.5C17.3 64.3 3.8 50.7 3.8 34S17.3 3.8 34 3.8 64.2 17.3 64.2 34 50.7 64.3 34 64.3"/><path clip-path="url(#b)" d="M41.4 49.1c-.6.5-1 1.2-1.3 1.8.6.4 1.9 1 4.2 1.4 1-.5 1.8-1 2.6-1.7-.8-.2-1.6-.6-2.1-.9-1-.6-2.2-1.5-3.4-.6M26.8 45c-.8-.2-1.2-.2-2.3.2-2 .6-5 4-5 4 .9.9 1.9 1.7 3 2.4.8-1.1 3.1-3.6 5.2-3.6 1.1 0 1.7.5 2.7 1.1.1-.1.2-.2.3-.4-1.8-.9-3.9-3.7-3.9-3.7M33.4 48c-.9.1-1.6.9-2.1 1.7 1.8 1.2 3.3 2.6 5.6 3.3 1.8.5 2.5.7 4.3.8.8-.3 1.6-.7 2.3-1-1.1-.1-2.6-.7-3.9-1.3-1.9-1.1-4.3-3.8-6.2-3.5"/><path clip-path="url(#b)" d="M28.1 49c-2.6 0-3.7 2.2-4.5 3.2C26.6 54 30.2 55 34 55c2 0 3.9-.3 5.8-.8-1.2-.1-2.6-.4-3.9-.9-2.9-1.1-6-4.3-7.8-4.3M46.7 47.3C45 45 43.6 44.6 43 44.8c-.7.2-.5.7-1.3 1.6-.7.9-2.4 1.8-2.7 2.1.3.3.6.7.7.8.8-.8 1.9-1.5 2.9-1.5 1.9 0 2.4 1.5 4.9 2.4.5-.4 1-.9 1.5-1.4-.1 0-1.2-.2-2.3-1.5"/><path clip-path="url(#b)" d="M42.7 29.2c-.1-.1 0-.3-.1-.3-.1-.4-.2-.7-.2-1.1-.1-.2.2-.4.4-.5.1-.2.1-.5 0-.7-.1-.4-.6-.4-.6-.8 0-.3-.2-.5-.2-.9-.1-.4-.1-.9-.2-1.4-.1-.5-.1-1-.2-1.6-.1-.6-.2-1.3-.3-1.9-.1-.5-.3-1-.5-1.5 0-.3-.4-.6-.2-1 .3-.4.5-.9.7-1.4.1-.3.1-.6.2-.9 0-.3.1-.5 0-.8h-.1c-.1.4-.6.6-.9.9-.5.2-1.1.1-1.6.2-.4 0-.7.3-1 .1l-.6-.3h-1.2c-.6 0-1.1-.3-1.7-.3-.8 0-1.4.4-2.2.3-.7-.2-1.4.1-2 .4-.2 0-.4-.2-.7-.2-.6-.2-1.4.2-1.9-.3-.2-.3-.4-.5-.4-.9-.1.1-.1.2-.2.3-.1.2-.2.5-.3.8-.1.4 0 .8.1 1.1.1.6.5 1.1.4 1.8l-.3.9c-.3.3-.2.7-.3 1.1-.2.7-.1 1.4 0 2.2-.3.8-.4 1.7-.5 2.6-.1.6 0 1.2-.3 1.8-.3.3-.6.6-.5 1.1 0 .2.2.4.3.6.1.5 0 .9 0 1.4 0 .4-.4.5-.4.8-.1.3.2.5.4.7.1.2.1.5.1.7.1.6.2 1.2.2 1.7.2.9.2 1.8.4 2.6.2 1 .4 2 .7 3 .3.7.5 1.5.7 2.2.2.6.5 1.1.5 1.8 0 .1 0 .1.1.2 0 .4-.3.7-.3 1.2 0 0 1.3 2.2 2.8 3.2.6-.7 1.5-1.3 2.6-1.3 1.8 0 3.5 1.9 5.3 3.2l.4-.4c-.6-.8-3.1-3.8-5.3-4.1 0 0 .2-.4 0-.6-.2-.2-.1-.4-.2-.7 0-.1-.1-.3 0-.4.3.1.5.4.6.7h.1l.1-.1c0-.3.4-.5.6-.7 0 0 .1 0 .1.1.1.3 0 .8.2 1.1.1.1 0 .2-.1.3 0 .2-.2.2-.2.2 1.6.8 2.5 1.7 3.4 2.7.6-.4 2.8-1.8 2.7-3.3 0-.5-.3-.4-.4-.7-.2-.2-.4-.4-.5-.6-.2-.5-.4-1-.3-1.6.2-.4.2-.9.4-1.3.2-.8.4-1.6.7-2.4.3-1.1.6-2.2.7-3.3.2-.4.1-.8.2-1.2.2-.4.1-.9.2-1.3 0-.3 0-.7.1-1 0-.2 0-.4.1-.5 0-.3.2-.2.3-.4.2-.1.2-.3.3-.5.3-.3 0-.5-.2-.8m-1.1-3.1c.1.1.4.1.4.2.2.1.2.3.3.4 0 .1 0 .2-.1.3-.3 0-.6-.2-.8-.4 0-.2.1-.4.2-.5m-1.8 4.3c0 .5 0 1.1-.1 1.6-.1.1 0 .2 0 .2-.1.5 0 1.1-.1 1.6h-.1c-.2-.2-.6-.3-.6-.7.2-.9.2-1.9.3-2.9.1-.8.1-1.6 0-2.4 0 0 0-.1.1-.1.2.1.4.3.6.5 0 .8-.2 1.4-.1 2.2m-12-7c-.2 0-.2-.3-.3-.5-.1-.1-.1-.2-.1-.4.1-.1.1-.2.1-.3-.1-.1-.2 0-.3-.2 0-.2-.1-.4.1-.5.2-.1.5 0 .7-.2 0 0 0-.1-.1-.1-.2 0-.4.1-.6.1-.1 0-.1-.1-.1-.2 0-.6-.1-1.1.1-1.6 0-.1-.1-.2 0-.3.2 0 .4.3.6.2-.2-.2-.3-.3-.5-.4-.1-.2 0-.4 0-.6.1-.1.1-.2.2-.1.2.1.3.2.5.3.1 0 .1-.1.1-.2-.2-.2-.7-.3-.5-.7 0-.1.1-.3.3-.4.2.1.3.3.5.4-.2-.1-.2-.3-.2-.6.1-.1.2.1.4.1h.2c.2.1.4.2.4.5.2.2.2.5.4.7.1.2.2.2.3.4-.1.1-.1.1-.2 0-.2-.1-.3-.4-.4-.6-.1 0-.1 0-.1.1.1.2.1.4.3.6v.1c-.3 0-.6-.2-.8-.5 0 0-.1-.1-.2 0-.1 0 0 .1 0 .2.1.2.3.5.5.6.1 0 .1.1 0 .2 0 .1-.2.1-.3.1-.2-.2-.4-.3-.5-.5h-.1c0 .1.1.2.2.3.1.2.6.2.5.6 0 .1 0 .1-.1.2-.4-.1-1.1-.2-1.4.1 0 0 0 .1.1.1.4 0 .8 0 1.1.2.1.1.2.2.1.3-.1 0-.2 0-.2.1-.1.1-.3.2-.4.3v.1l.6-.3c.1 0 .1 0 .2.1 0 .1-.1.1-.2.2-.2.2-.5.3-.5.6h.1c.3 0 .4-.5.7-.4 0 0 .1.1.1.2-.4.2-.9.5-.9 1v.1c.1 0 .1-.1.2-.2.3-.3.6-.6 1-.6 0 0 .1 0 .1.1 0 .2-.3.3-.3.6 0 .2-.1.3-.2.5 0 0 .1.1.1 0 .2-.3.4-.7.7-.9 0 .1.1 0 .2.1.2 0 .4.1.6.2 0 .4-.2.9 0 1.3.1-.1 0-.2 0-.3 0-.3.2-.6.2-.9 0-.1.1-.1.2-.1.2.1.2.3.3.4.1-.1 0-.3 0-.5.1-.1.2-.1.3-.1h.1c.1-.1 0-.1 0-.2.2-.2.3-.5.6-.4l.1.1c0 .2 0 .4-.1.6-.1 0-.1-.2-.2-.1s0 .2 0 .2c.1.2.2.4.3.5 0 .1.1.1 0 .2-.2 0-.3-.2-.5-.4-.1-.1-.1 0-.1.1 0 .3.2.5.4.7.1 0 .1 0 .2.1 0 .1-.1.2 0 .3l.1.2c-.1.1-.3 0-.4 0-.3-.2-.6-.5-.6-.9 0 0-.1-.1-.1 0-.1.2 0 .5.1.6.1.1.3.3.3.5-.1.1-.2.1-.3.1-.3-.2-.3-.5-.3-.8h-.1c-.1.1 0 .3 0 .5 0 .1 0 .3-.1.4-.2.1-.4 0-.5.1-.2-.1-.2-.3-.2-.6 0-.1-.1 0-.1 0-.2.4-.2.8-.5.7-.2-.1-.4-.2-.6-.4-.1-.2.2-.4.2-.6.1-.2.3-.3.3-.5-.1-.1-.2.1-.3.2-.2.2-.3.5-.4.8 0 .1-.1.1-.2.1-.3-.3-.9-.4-.8-.9.1-.1.1-.2.2-.3-.2-.2-.2 0-.3 0m6.1 1c.1 0 .1 0 0 0 .2-.2.2-.5.2-.7 0-.6.1-1.2.2-1.8 0-.1 0-.2.1-.2.2 0 .4.1.5.3.1.8 0 1.6-.2 2.4-.1.4-.4.6-.5 1-.1.1-.1.3-.3.3-.5-.9-.9-1.7-.9-2.7 0-.4-.2-.8.1-1.1.2-.1.4-.3.7-.3v.1c.1.9-.1 1.8.1 2.7m2.3 2.5c-.4-.2-.8-.6-.9-1.1 0-.1.1-.1.1 0l.4.4c.3.2.7.4.9.8 0 .1 0 .3-.1.4-.1.2-.4.3-.6.2-.4-.1-.8-.4-1-.8-.1-.3-.1-.6 0-.9.1 0 .1.2.1.2.2.4.5.8 1 1 .2-.1.2-.1.1-.2m-.2-4.1c-.1.1-.2.2-.3.2-.1-.2.1-.3.1-.4v-.1c-.1-.1-.2 0-.2-.1v-.2h.1c.2.2.5.4.7.6 0 .2 0 .4-.1.5 0 .2-.2.4-.2.6 0 0 .1.1.1 0 .2-.3.3-.6.5-.8.2-.1.5 0 .8 0 .2.1.1.4.2.5 0 .1 0 .3.1.4.2 0 .1-.2.2-.4s0-.4 0-.7v-.2c.1-.1.2-.1.2 0 .2.1.3.3.4.4v-.2c0-.2-.2-.3-.3-.5 0-.1.1-.1.2-.1.2.1.1.3.3.4.1 0 0-.1 0-.2-.1-.2-.2-.3-.2-.6 0-.1.1 0 .2 0 .2.1.5.2.7.4.3.2.3.5.4.8.1.4.4.7.1.9-.2.1-.3.3-.5.3-.1-.1-.1-.2-.1-.3-.2-.2-.2-.6-.6-.5-.1.1.1.3.1.4 0 .3.3.5.1.8-.3-.1-.4.3-.6.2-.3-.1-.6.4-.8 0 0-.4 0-.7-.1-1.1 0-.1-.1-.3-.2-.3-.1.1 0 .3-.1.4 0 .3-.1.7-.3 1-.1.1-.2.1-.3.1l-.1-.1c0-.2 0-.4.1-.5h-.1c-.2.2-.4.6-.8.5l-.1-.1c.1-.2.4-.3.3-.6-.2 0-.3.2-.4.2-.1-.6.5-1 .5-1.6.1 0 .1 0 0 0m0-2.9c.3-.4.7-.5 1.1-.6.5 0 .9.1 1.3.5.3.4.5 1.1.3 1.6-.3.6-.8.9-1.4 1-.2.1-.5-.1-.7-.1-.3-.2-.5-.5-.7-.8-.2-.6-.1-1.1.1-1.6m4.6 7s.1-.1.2-.1c.2 0 .3 0 .4.1.1.2.1.4.1.6-.2.1-.5 0-.6-.2-.2-.1 0-.2-.1-.4m.2-.3c-.3-.1-.5-.3-.7-.6-.1-.3-.3-.4-.3-.7 0-.2-.1-.4 0-.5.2.4.5.7.9 1.1.1.1.3.1.3.3 0 .2 0 .4-.2.4m-2.1 5.5c-.3.1-.4-.3-.7-.4-.3-.3-.6-.7-.6-1.2h.1c.2.2.4.6.7.7 0 0 .1 0 .1-.1 0-.3-.2-.5-.2-.8.2 0 .3.2.5.3.1.1.1.3.1.5 0 .3.1.7 0 1m-.1 5.7c0-.7.2-1.5.2-2.2.1-.1.3-.1.4-.2v.4c0 .7-.1 1.4-.1 2.2 0 .3-.1.6-.1.9 0 .2-.1.4-.1.6 0 .6-.2 1.2-.3 1.7-.1.1-.1.4-.2.4-.2-.2-.1-.4-.1-.6.1-.2 0-.4.1-.6 0-.9.3-1.7.2-2.6m-.2 5.1c.1.3.2.7.3 1 0 .2.1.3 0 .4-.4-.1-.8.1-1.1.3-.1 0-.2 0-.2-.1-.1-.2 0-.3 0-.5.1-.2 0-.5.2-.6.1-.1.3-.1.3-.2-.2-.1-.5 0-.6-.2-.2-.3-.4-.5-.4-.9.3-.3.7-.4 1.1-.2.1 0 .2.1.3.2 0 .3 0 .6.1.8m-.6 2.1c.1-.3.4-.3.6-.4.1 0 .2 0 .2.1-.1.5-.2 1.1-.5 1.5 0 0-.1.1-.2.1v-.1c.1-.4 0-.9-.1-1.2m-.9.9c-.3-.1-.8-.4-.8-.8 0-.1-.1-.2 0-.3.2-.2.4-.2.7-.2l.1.1c-.1.4-.3.9 0 1.2m-.6-1.5c-.2 0-.3.2-.5.2-.1-.2-.1-.4-.1-.6-.1-.6 0-1.2.5-1.6.1-.1.2 0 .3 0 .2.2.3.4.4.6.1.2.2.3.2.5.1.3 0 .5 0 .8-.3.2-.5 0-.8.1m-4 .9c.1-.1.4-.2.6-.1.2.1.1.4.2.6-.2.4-.5.7-.9.8 0 0-.1 0-.1-.1 0-.3.1-.5.1-.7-.1-.3.1-.4.1-.5m.7-.4c-.2 0-.3-.1-.5-.1s-.2.2-.4.2l-.1.1v-.5c-.1-.2 0-.4.1-.6.1-.1.3-.3.5-.2.1-.1.1-.1.1-.2-.1-.1-.2-.1-.3-.1-.2.1-.3.2-.4.3-.2-.2-.2-.5-.2-.8 0-.3.1-.6.3-.7.2.1.5.1.6.3.3.5.7.9.8 1.5 0 .4.1.7-.1 1-.2 0-.3-.1-.4-.2m-1-3.3c-.5-.3-.6-.9-.6-1.4 0-.1 0-.2.1-.3.1.1.1.2.1.3.3.5.9.8 1.3 1.3.4.2.5.6.5 1 .1.1 0 .3 0 .4 0 0-.1 0-.1-.1-.1-.5-.7-1-1.3-1.2m-2.5-15.3c.2 0 .3-.2.4-.3.1-.1.3-.3.4-.5.1 0 .2 0 .2.1 0 .3-.1.4-.1.7-.3.5-.6 1.1-1.2 1.2-.2 0-.3 0-.4-.2 0-.2-.1-.4-.1-.7 0-.5.3-.8.6-1.2.1-.1.2-.2.3 0-.2.2-.2.4-.1.9-.1-.1-.1-.1 0 0m1.3 3.2c.4-.3.6-.7.9-1h.1c0 .6-.4 1.2-.8 1.7-.2.3-.7.4-1.1.4-.3 0-.3-.4-.4-.6 0-.2.1-.4.2-.6.3-.2.8-.5 1-.9 0-.1.1-.1.2 0 0 .4-.3.8-.4 1.2.1 0 .2-.1.3-.2m1-2.4c.3-.1.5-.4.7-.7 0-.2.2-.3.3-.4h.1c0 .7-.3 1.3-.8 1.7-.1.1-.3.1-.4.1-.2-.1-.4-.2-.4-.4 0-.4.1-.8.5-1 .1-.1.2-.3.3-.3 0 .2-.1.5-.1.7-.2.1-.3.2-.2.3m1.6 6.1s.1.1 0 0c.2-.1.1-.2.2-.3h.2c.2.2.1.6.2.8 0 .3-.1.6-.2.8.1.1.1 0 .2 0 .2-.3.2-.7.3-1.1 0-.1 0-.2.1-.2s.1 0 .1.1v.8c.3-.3.1-.8.3-1.2.1-.2 0-.5.1-.7.1 0 .1.2.2.3 0 .2.1.3.1.4.1.9.3 2.1-.5 2.6-.3.2-.7.1-1 0-.3-.1-.3-.4-.5-.6-.2-.5-.4-1.1-.2-1.6.1-.5.1-1.1.4-1.6.1 0 0 .2 0 .2 0 .5-.1.9 0 1.3m2.6-1.8c-.1-.2-.1-.5-.1-.7 0-.2.1 0 .2.1.2.5.9.7 1 1.2.1.1.1.4 0 .5-.2.2-.5.3-.8.2-.4-.2-.7-.6-1-.9 0-.2-.2-.5-.1-.7.1 0 .1.1.2.1.2.3.5.5.8.7.1 0 .1 0 .1-.1 0-.2-.3-.3-.3-.4m-.5 5.1c-.1-.2-.3-.3-.4-.5 0-.1-.1-.2.1-.3.4.2.8.4 1.1.8.1.2.1.6 0 .8 0 .1-.1.2-.2.3-.1.1-.3.1-.4.1-.5-.3-.7-.8-.8-1.3h.1c.2.2.2.6.6.5 0-.2 0-.3-.1-.4m.8-1c-.3-.3-.5-.7-.5-1.2 0 0 .1-.1.1 0 .1.1.1.2.1.3.1.2.1.5.4.5.1 0 0-.1 0-.2 0-.3-.2-.5-.1-.7.3.3.8.7.6 1.2 0 .1-.2.2-.3.3 0-.1-.2-.1-.3-.2m-4.5-.5c.2-.2.4-.5.6-.8.1 0 .1 0 .1.1.1.7-.3 1.3-.8 1.6-.1.1-.3.1-.5.1-.1-.1-.2-.2-.2-.3-.1-.5.1-1 .4-1.3.1-.1.2-.3.3-.4.2.1.1.4.1.6 0 .2-.2.4-.2.6.1-.1.1-.2.2-.2m.5 1c.1-.2.4-.3.5-.6.1 0 .2 0 .2.1 0 .4-.2.8-.5 1.1.1.1.2-.1.4-.1.3-.2.3-.6.5-.8.1 0 .1.1.2.1.3.6-.1 1.1-.4 1.5-.2.3-.5.2-.8.2-.2 0-.3-.1-.4-.2-.2-.4.2-.8.3-1.3m.8-5.1c0 .2-.1.5-.2.7l-.1.1c.1.1 0 .2 0 .3-.1.5-.5.9-1 1-.2 0-.3-.1-.5-.2-.2-.2-.2-.6-.2-.8.2-.6.5-1.1.8-1.6 0 0 .1-.1.1 0 .1.5 0 1-.2 1.4 0 .1 0 .2.1.3.2-.1.2-.3.4-.4v-.1c.2-.4.4-.7.5-1.1 0-.1.1 0 .1 0 .2.1.1.3.2.4m-2.7-2.7c-.2.2-.4.4-.7.3-.1 0-.2-.1-.2-.1-.1-.5.3-.8.4-1.2.1-.1.2-.2.3-.2.1.3-.1.6-.1.8.1 0 .2-.1.2-.2.2-.4.3-.8.4-1.2 0-.1.1 0 .1 0 .1.7-.1 1.3-.4 1.8m-1 3.2l.5-.5c.1 0 .1 0 .1.1.1.3-.1.6-.2.8 0 .1-.1.2 0 .4.1 0 .2-.2.3-.3.2-.3.4-.5.6-.7h.1c0 .4-.2.8-.4 1.2-.2.3-.5.6-1 .6l-.1-.1c0-.5-.2-1.1.1-1.5m1.5 5.4c.1-.1.1-.2.2-.2 0 .2-.2.3-.2.5-.1.2-.2.3-.2.6.1.1.2 0 .2 0l.5-.5v.2c-.2.4-.4.9-.8 1-.2 0-.3 0-.4-.1-.1-.3 0-.7.2-.9.2-.3.3-.6.5-.6m-.1 3.3c0 .4.1.8-.1 1.1-.1.1-.2.2-.3.1-.1 0-.2-.2-.2-.3 0-.4-.1-.7.1-1 .1-.2.1-.5.1-.7 0-.2.1-.4.1-.5.1.1 0 .3.1.4.2.2.1.6.2.9m-.6 2.7c.1-.2.2-.4.4-.6.1-.2.4-.1.5-.2.1.1.5-.1.5.2-.2.4-.3.8-.2 1.2-.1.2-.5 0-.4.3.1.2.4.1.5.3.1.3.1.6.1.9h-.1c-.2-.2-.5-.3-.8-.2-.2.1-.3.3-.4.4-.1 0-.1-.1-.1-.1-.3-.7-.2-1.5 0-2.2m2.2-2.3c-.2-.3-.3-.6-.4-.9 0-.3-.1-.6 0-.9 0-.1 0-.2.1-.2 0 .7.4 1.2.8 1.7.3.3.8.4.8.9 0 .2.2.5 0 .7-.1 0 0 0-.1-.1-.3-.6-.8-.8-1.2-1.2m1.3-.8c-.3-.4-.6-.8-.4-1.3 0-.3.2-.7.4-.9.1-.1 0-.2.1-.3.1.1 0 .1 0 .2.1.3.3.9-.1 1.1 0 .1 0 .1.1.2.3.1.3-.3.5-.5 0 .3-.2.5-.3.7 0 .1.1.1.2.1.2 0 .2-.2.3-.4.1-.4 0-.8-.2-1.2 0-.1-.1-.3 0-.4.2 0 .3.3.4.4.2.4.2.9.1 1.3.1.4-.3.5-.5.8-.2.2-.4.3-.6.2m.9.8c0-.2.2-.3.2-.4.1-.4.4-.8.6-1.1.1-.2.1-.5.2-.7.1 0 .1.2.2.3 0 .5.1 1-.1 1.4-.3.5-.7.9-.9 1.4-.1.1-.1.2-.1.3-.3-.4-.2-.8-.1-1.2m.3 1.7c.1-.4.3-.8.5-1.1.3-.4.5-.9.7-1.4 0-.1-.1-.2 0-.3.2.3.2.6.2 1 0 .9-.9 1.4-1.1 2.2-.1.1-.2.2-.2.3-.1-.1-.1-.4-.1-.7m2.1-1.7c0-.5.2-1 .2-1.5 0-.1.1-.2.1-.1.1.5 0 1 .1 1.5 0 .3.1.8-.2 1-.1.1-.2 0-.2-.1-.2-.4 0-.6 0-.8m.7-3.1c-.1.1-.2.2-.3.1-.5-.2-.7-.7-.8-1.2.1 0 .2.1.3.2.2 0 .3.4.5.3 0-.2-.3-.4-.3-.6 0-.1-.1-.2-.1-.3.1 0 .1.2.2.2.3.1.5.3.6.6.1.3.1.6-.1.7m-1-7.7c-.3-.3-.4-.6-.5-1v-.4c.1 0 .1.1.1.1.2.2.3.5.6.7.1 0 .1.1.1.2.1 0 .1 0 .2-.1 0-.1-.1-.2-.2-.3-.1-.3-.4-.5-.3-.8.1-.1.2.1.3.2.4.1.9.3.9.8 0 .2 0 .6-.2.8-.2 0-.7 0-1-.2m1.1-2.6c.1.1.2.2.3.2.2.2.3.4.2.7-.1.1-.1.3-.2.3-.2 0-.4-.3-.6-.4-.2-.2-.3-.4-.2-.6 0-.1.1 0 .1 0 .1 0 .3.3.4.2.1-.1-.1-.2 0-.4m.2-.1c-.3-.4-.5-.8-.6-1.3h.1c.2.3.5.7.9.7.1-.1-.1-.3-.1-.4 0-.1-.1-.3-.1-.4.1 0 .1.1.2.2.3.2.5.4.6.7 0 .3 0 .7-.3.8-.2-.1-.5-.2-.7-.3m-2.8 3.3c-.3.4-.8.7-1.3.7-.3-.1-.5-.1-.7-.3 0-.2-.2-.3-.2-.5-.2-.4-.4-.9-.3-1.4-.1-.5.1-1.1.2-1.6 0-.1.2-.4.3-.2 0 .5-.1 1 .1 1.4.1 0 .1.1.2.1.1-.1 0-.4.1-.5.1 0 .1 0 .1.1.1.5 0 1.1.2 1.6 0 .1.2.2.2.1.1-.1 0-.1 0-.2-.3-.7-.3-1.6 0-2.3.1 0 .1 0 .1.1.1.5-.1.9.1 1.4.2-.1.2-.3.2-.4.1-.5 0-1 .1-1.4.1 0 0 .1.1.1.5.8 1.3 2.1.5 3.2m-2.1-10c0-.1 0-.2-.1-.3-.1 0-.2.1-.3.1l-.1-.1v-.1c.2-.1.4-.3.6-.4 0-.1.2-.2.2-.1.1.4-.1.7-.3.9 0 .1.1 0 0 0m-.6-.8c-.2 0-.4.1-.5-.1 0-.2.3-.1.4-.2.2-.1.4.1.6.2v.1c-.2.1-.3 0-.5 0m.6-1.4c-.1 0-.1-.1-.2-.1-.1-.1-.1-.1-.2-.1-.1.1-.1.3-.2.4v.1c-.2 0-.2-.2-.3-.3-.1-.3.1-.5.3-.7.2 0 .4.1.5.2 0 .2.1.3.1.5m-.8.6c-.1.2.2.2.3.3v.1c0 .1-.2.1-.2.1-.2-.1-.5 0-.7.1-.1 0-.2 0-.3-.1 0-.2.3-.1.4-.1.1 0 .2-.1.3-.2-.2-.2-.6 0-.9 0-.2.1-.4.1-.6 0 0 0 0-.1.1-.1.3.1.4-.2.7-.2.2-.1.5 0 .7 0 0 .1.1.1.2.1m-.6-.4c-.5 0-.8.2-1.3.2 0 0-.1 0-.1-.1s.1 0 .1-.1c.1-.2.3-.1.5-.2.1 0 .3 0 .4-.1.3 0 .6 0 .8.2v.1h-.4m-1.2 1.2c.5-.2 1 0 1.4.3.3.5.4 1.2.2 1.7-.1.4-.5.8-.9.8-.5.2-1.1 0-1.5-.4-.3-.3-.6-.8-.4-1.2.2-.5.6-1 1.2-1.2m-1.7 8.6s.1 0 0 0c0 1.1.1 2.1.1 3.1.1.9.1 1.9.1 2.8 0 .2-.2.3-.3.5-.1.1-.2.3-.3.3-.1-.3-.1-.6-.1-1-.1-1.5-.3-3.1-.2-4.7l.3-.6.4-.4m.5 6.2l.7-.7h.1c-.1.5-.2.9-.5 1.3 0 .1 0 .1.1.1.2-.2.3-.5.6-.7.1-.2.2-.4.4-.5.1.1 0 .3 0 .5 0 .7-.4 1.3-1 1.6-.2 0-.4.2-.6.1-.2 0-.4-.2-.5-.4-.1-.4.3-.9.7-1.3m-.4 2l.3-.1s.1 0 .1.1c.1.8.1 1.6.2 2.4 0 .6.1 1.1.2 1.7.1.4 0 .8.2 1.1.2.3-.1.6-.2.8-.3 0 0-.4-.2-.5-.3-1-.6-2-.6-3.1-.1-.5-.1-1-.1-1.6-.1-.3 0-.6-.1-.8 0-.1.1 0 .2 0m-.2 7.6c0-.4 0-.7.3-1 0-.2.2-.2.3-.3.2 0 .4-.2.5 0 0 .1.2.2.1.3-.1.2-.2.4-.4.5-.1 0-.2-.1-.3 0 0 .2.4.1.4.3 0 .2.1.4 0 .6-.2 0-.5 0-.7.1-.1.1-.2.1-.3.1 0-.1.1-.4.1-.6m.4.8c.2-.1.4-.1.6 0 0 .2-.1.4-.1.6 0 .3.2.5.4.6-.2 0-.4-.1-.5-.2-.2-.1-.3-.4-.4-.6 0 0-.1-.2 0-.4m1.8.2c.2 0 .4 0 .5.2 0 .2-.1.4-.1.6 0 .2 0 .5.2.7v.1c-.2 0-.3-.2-.4-.3-.3-.3-.5-.5-.5-.9-.1-.2.1-.3.3-.4m8.3-.2v-.2c.2-.3.5-.1.7-.1 0 .3-.3.5-.3.7 0 .1-.1.1-.1.2-.1.2-.3.4-.5.5h-.1c.1-.3.4-.6.3-1.1m.8-.6c-.1 0-.1.1-.2.1-.3-.1-.5.1-.7.1-.1-.2-.2-.4-.1-.6.2-.2.3-.3.5-.4 0 0 0-.1-.1-.1-.2 0-.4.3-.5.1-.1-.2-.2-.4-.3-.7.2-.1.3 0 .5.1l.3.1c.5.1.5.6.7.9-.1 0 .1.3-.1.4m-1-8.9c-.5.1-1-.1-1.4-.5-.2-.3-.3-.5-.4-.9 0 0 .1-.1.1 0 .3.3.6.5.9.6l.1-.1c.1 0 .1.1.2.1 0 0 .1-.1 0-.1-.4-.4-.7-.8-.8-1.3 0-.1.1-.1.1-.1.4.3.9.6 1.3.9.2.2.4.5.2.8.1.4-.1.6-.3.6m.3-8.6h.1c.2.1.3.4.4.5.3.3.6.6 1 .7.1.2.3.1.5.3 0 .2-.1.3-.3.4-.5 0-.8-.3-1.1-.7-.3-.3-.4-.7-.6-1.2m2-.8c-.1 0-.2 0-.3-.1-.4-.2-.2-.6-.3-.9 0-.2-.1-.5.1-.7.1 0 .1.1.1.1.2.6.4 1 .4 1.6m-.3-3.4c0 .1-.1 0-.2 0-.1-.2-.4-.3-.4-.5 0-.1-.1 0-.2 0 0 0-.1.1 0 .1.3.3.3.7.6 1 0 .2-.2.3-.3.5h-.1c-.1-.1-.1-.3-.3-.4 0-.1-.1-.2-.1-.3.1-.4-.2-.5-.4-.8-.2-.1-.4-.1-.6-.3v-.2c.2-.2.5.1.8-.1.1.1.3 0 .4 0 .2.1.3.3.6.3.1.1.2.3.2.5v.2m-.5-3.2c0 .1-.1.2 0 .3.1.1.3.1.3.3 0 .1 0 .2-.1.2-.3 0-.6.1-.7.4v.1c.2 0 .2-.3.4-.3.1 0 .3-.1.4 0 0 .2.2.2.2.4-.1.3 0 .6-.1.8-.3 0-.6-.4-1-.1-.2 0-.4-.1-.7-.1-.2-.1-.2-.4-.2-.6.1-.2.2-.1.3-.2.1 0 .2.1.3 0 0-.1-.3-.1-.4-.1-.1 0-.2.1-.3.1.1-.1.1-.2.1-.3.2-.4.6-.4.9-.5 0 0 .1 0 0-.1-.4-.2-.8.1-1.1.3 0 0-.1 0-.1-.1.1-.3.2-.5.5-.6l.1-.1c-.1-.1-.2 0-.3 0-.1.1-.3.2-.5.3 0-.2.2-.4.3-.6v-.1c-.3.1-.5.4-.8.6h-.2c-.1 0 0-.1 0-.2.2-.2.4-.5.5-.8.2-.5.8-.4 1.1-.8.2 0 .4-.1.4.1-.1.1-.2.1-.2.1-.2.2-.5.2-.6.6.1.1.2-.1.3-.2.1-.1.2-.1.3-.1.1.2.3-.2.4.1l-.3.3c-.1.1-.3.3-.3.5 0 .1.1 0 .2 0 .2-.2.4-.4.6-.4.2.2.4.5.3.8m-3-2.6c.2-.2.5-.2.7-.4.6-.2 1.3.1 1.8-.3l.6-.4c.2 0 .4-.2.5-.4.1 0 .1 0 .1.1-.1.3-.2.6-.2.9-.1.5-.6.5-.8.8-.2.1-.4.1-.7.2-.5 0-1 .3-1.2.7.1.1-.1.2-.2.3-.1.1-.3.1-.4.2.1.1.2 0 .2.2-.3.2-.7 0-1 .2l-.1.1c.1.1.2 0 .2.1-.2.2-.5.1-.7.2 0 .1 0 .1.1.1s.2-.1.3 0c0 .1-.1.1-.2.1-.2.1-.5 0-.7.2.1.1.3 0 .3.2-.3.2-.6.2-.8.3-.2.1.1.6-.3.5-.2-.2-.3-.4-.3-.6.1-.1 0-.3.1-.3.2.1.1.3.3.4.1 0 .2-.1.2-.2-.2-.3.2-.3.4-.5 0-.2.2-.2.3-.3.2-.1.5-.1.7-.2l-.1-.1h-.1v-.1c.2-.3.7-.3 1-.4 0-.1-.2-.1-.1-.2.2-.2.7-.1.8-.5 0-.1.1-.2 0-.2-.2.1-.3.2-.5.3-.1.2-.3.3-.5.3 0-.1.1-.2.2-.2.3-.3.5-.7.6-1 0-.1-.1 0-.2 0-.3.3-.6.5-.9.7h-.2c-.1-.2.1-.2.2-.3.2-.1.4-.3.6-.5m-2.9 1.5c-.1-.1-.1-.3-.1-.4h-.1c-.1.1-.2.2-.2.4h-.1c-.1-.2 0-.5.1-.7.1-.1.2-.2.3-.1l.3.3c-.1.1-.1.4-.2.5m.9-.3c-.1-.1-.2 0-.2.1-.1.1-.2.2-.3.4-.1 0-.1 0-.1-.1 0-.2.1-.5.2-.7.1-.1.3-.1.4-.3.1-.1.3-.1.3.1s.1.4.2.5c0 .2-.1.3-.2.5 0 0-.1.1-.2.1 0-.2-.1-.4-.1-.6m.2-2c0-.2.3-.2.4-.3.3 0 .6 0 .8.3 0 .1.1.2.1.3-.1.1-.1.3-.3.4-.2-.1-.2-.4-.4-.5-.3-.2-.5.1-.7.2-.1-.1 0-.3.1-.4m.3.5c.1 0 .1 0 .2.1 0 .3.4.6.1.9-.3 0-.2-.3-.3-.5-.2-.2-.3.1-.5.1-.1 0-.2-.1-.1-.1-.1-.3.3-.4.6-.5m-1.9-.5c.1-.3.5-.4.9-.4.2.1.2.3.3.5 0 .1 0 .2-.1.3-.1 0-.1-.2-.2-.2-.2-.1-.4-.1-.6-.1-.1 0-.2.1-.3.1v-.2m.4.4c.2-.1.3.2.4.3 0 .1.2.2.1.3 0 .1-.1.2-.2.2-.2-.1-.2-.3-.5-.2-.1.1-.1.2-.3.2-.1-.1 0-.3-.1-.4.3-.2.4-.3.6-.4m-.5 3.5c.1-.1.4.1.5-.1 0 .2.2.4 0 .6 0 .1.1.2.1.3-.1 0-.1-.2-.2-.2 0-.1-.1-.1-.1-.2-.2 0-.1.4-.3.2-.1-.1.1-.4-.1-.4-.1.1-.1.3-.2.4-.1 0-.1-.1-.2-.2.3-.1 0-.4.3-.5.1 0 .2 0 .2.1m-.2-1.8c-.1 0-.1-.1-.1-.2s-.1-.2-.2-.1-.1.2-.1.4c-.1-.2-.2-.4-.2-.6 0-.1.1-.3.3-.3.1 0 .2.1.3.1.1.2.1.5 0 .7m-.6-1.1c0 .1-.1.2-.2.2s-.1-.1-.2-.1c-.1-.1 0-.2 0-.2.1-.2.2-.4.4-.5.2 0 .3.3.6.2.1.1.1.2.1.2-.3.3-.6 0-.7.2m0-1.4c.1 0 .2 0 .3.1.1.1.1.3.2.4 0 .1 0 .2-.1.2-.3.1-.4-.4-.7-.3-.1.1-.3.2-.4.4 0 0-.1.1-.2.1l-.2-.2c.4-.4.7-.7 1.1-.7m-.7 1.4c0 .1.1.2 0 .3-.2 0-.4 0-.5.2-.1.1-.1.3-.2.4-.1-.1-.2-.2-.2-.3l.3-.6.1-.1c.2 0 .3.1.5.1m-1.2-1.1c.2 0 .4 0 .5.1.1.1.1.3.3.3.1 0 .1.1.1.1-.1.1-.2 0-.3 0-.2 0-.5-.2-.6.1-.1.1-.1.3-.2.3-.1-.1-.1-.2-.1-.4.1-.2.2-.4.3-.5m-4.5.1v-.7l.1-.1c.3-.1.2.2.3.3.1.2.3.5.6.6.5 0 1.1-.1 1.5.1.4.1.7.4 1 .7.1 0 .1-.1.2 0s.3.2.3.4c.3 0 .4.4.6.5-.2.2.4.4-.1.4-.4-.2-.7.1-1 .1-.1 0-.2 0-.3-.1v-.1c.2-.2.5-.3.7-.3.1 0 0-.2.1-.1 0 .1.1.1.2.1v-.1c-.2 0-.2-.2-.4-.3-.1 0-.3 0-.3-.2-.1-.2-.3-.3-.5-.4-.1-.1-.2-.1-.3-.1-.1 0-.1.1-.1.2.2.3.4.5.6.7-.2 0-.4-.3-.7-.3 0 0-.1.1 0 .1.1.2.3.3.2.5-.2 0-.3-.2-.3-.3 0-.2-.3-.3-.4-.4-.2-.1-.4 0-.6 0-.2-.1-.4.1-.5-.1-.4.1-.8-.5-.9-1.1m-.1 9.8c.1-.3 0-.7.2-1 .2 0 .1.2.1.4.1.3.1.6.1.9-.1.2-.3.3-.4.2-.1-.1 0-.3 0-.5m1.5-.5c0-.1.2-.1.2 0 0 .3-.1.5-.2.8-.2.4-.3.8-.7 1.2-.2.1-.3.4-.6.3-.1-.2-.3-.4-.3-.6.6-.5 1.2-1.1 1.6-1.7m-1.1 3.3c-.1 0-.2.1-.3.1 0-.2-.1-.5.1-.6.1-.1.3-.3.4-.1 0 .2 0 .5-.2.6m.4-.1c.2-.4.6-.6.8-1 0 0 .1-.1.1 0 0 .7-.3 1.4-.8 1.9-.2.3-.5.3-.8.5-.1 0-.2-.1-.2-.2s-.1-.2-.1-.3c.3-.3.7-.6 1-.9m-1.9-.4c0-.2.1-.5.3-.6.1-.1.3-.2.4-.1l.1.3c0 .4-.4.5-.6.7-.1 0-.1.1-.2.1.1-.2 0-.3 0-.4m.3 3.5c-.1 0-.2 0-.2-.1-.1-.1-.2-.3-.1-.4.1-.2.3-.2.4-.4.3-.1.5-.5.7-.7.1 0 .3-.1.4 0-.4.5-.7 1.1-1.2 1.6m1.5 8.2c-.3-1.1-.7-2.3-.8-3.5-.2-1-.2-2.1-.4-3.2.1-.5 0-1 0-1.4.1-.1.3-.2.4-.4h.1c0 .8.2 1.5.1 2.3.1.6.1 1.2.2 1.8 0 .6.1 1.2.1 1.8.1.7.2 1.3.3 2v.6zm.3-.8c-.1-.5-.1-1.1-.2-1.7-.1-1-.2-2.2-.2-3.2-.1-.3-.1-.6-.1-1-.1-.7-.1-1.4-.2-2.1-.1-.4.1-.8.2-1.1.1-.1.2-.3.3-.1.1.7 0 1.4.1 2.1.1.3.1.6.1.9.1 1.1.1 2.2.2 3.3.2 1.5.4 3 .5 4.6.1.6.2 1.1.2 1.6 0 0-.1.1-.1 0-.4-1-.6-2.2-.8-3.3m12.4.3c-.2.8-.3 1.6-.5 2.3 0 .3-.1.5-.2.7h-.1c0-.6.2-1 .3-1.6.1-.5.1-.9.2-1.4 0-.6.1-1.2.1-1.8.1-.2.1-.4.1-.6 0-.5.1-.9.1-1.3.1-.5.2-.9.1-1.4 0-.9.2-1.7.2-2.5.1-.2 0-.6.1-.8V30c.1-.2-.1-.6.2-.7.1.1.3.2.4.3 0 .3-.1.5 0 .8 0 .5-.1.9-.1 1.4 0 .7 0 1.3-.1 2-.1.8-.2 1.5-.3 2.3-.1 1-.4 2-.5 3m1.9-8.4c-.1.5 0 1-.1 1.5 0 .5-.2.8-.1 1.3 0 .7-.2 1.3-.3 2-.1.7-.3 1.4-.4 2-.2.8-.4 1.6-.7 2.3h-.1c.1-.7.2-1.5.3-2.2.2-.9.3-1.8.5-2.8.1-.7.1-1.4.2-2.1.1-.8.2-1.7.3-2.6.1-.1.2.1.4.1v.5m.5-.4c-.4-.3-.9-.6-1.2-1.1-.1-.1-.2-.3-.2-.4.1-.1.1-.1.2-.1.2 0 .3.3.5.2.1 0 0 .2.1.2.2.2.5.4.7.6.1.1.1.2.1.4 0 .1-.1.3-.2.2"/><path clip-path="url(#b)" d="M27.4 16c.2.1.5.2.7.2.2.1.5 0 .7.2.1.1.3.2.2.4h-.1c-.5-.3-1.2 0-1.6-.5-.2 0-.3-.2-.3-.4v-.1c.3 0 .4.1.4.2M40.8 15.9c0 .1-.1.3-.2.4-.5.3-1.1.5-1.6.4v-.1c.4-.1.8-.2 1.1-.4.2-.1.4-.3.7-.3zM30.2 20.2c-.1 0-.7 1-.1 1.5.8.7 1.8-.5 1.6-.8-.1 0-.4.7-1.1.5-.8-.1-.4-1.2-.4-1.2M36.5 21.5c0 .2 1 .7 1.5 0 .6-.9-.3-1.5-.6-1.3 0 .1.5.4.2 1-.2.7-1.1.1-1.1.3M88.3 34.8c0 2.8-1 4.9-3.6 4.9-2.8 0-3.7-1.9-3.7-4.9v-3.9c0-1.9 0-2.2 1.1-2.3h.4c.1-.1.1-.4 0-.4-.9 0-1.5.1-2.2.1-.7 0-1.4 0-2.3-.1-.1.1-.1.4 0 .4h.5c1.1.1 1.1.4 1.1 2.3v4.3c0 2.2.5 3.5 1.4 4.3.9.8 2.2 1 3.4 1 1.4 0 2.7-.5 3.5-1.3 1-1.1 1.3-2.8 1.3-4.4v-2.1c0-1 0-3.1.3-3.7.1-.2.5-.4.9-.4h.4c.1-.1.1-.3 0-.4-.7 0-1.2.1-1.9.1s-1.4 0-2.1-.1c-.1.1-.1.3 0 .4h.5c.5 0 .8.2.9.4.3.5.3 2.6.3 3.8v2zm17.4-2.1c0-.8 0-3.1.3-3.8.1-.1.4-.3 1-.4h.3c.1-.1.1-.4 0-.5-.6 0-1.1.1-1.9.1-.7 0-1.3 0-2.2-.1-.1.1-.2.3 0 .5h.3c.7.1 1 .2 1.1.4.3.5.4 2.9.4 3.8v3.9c0 .4 0 .7-.1.8-.9-.9-1.8-1.9-3-3.3l-1.8-2c-.6-.7-2.8-3.1-3.1-4-.2 0-.5.1-.8.1-.3 0-1.3 0-2.1-.1-.1.1-.1.3 0 .5h.3c.4.1.9.2 1.1.4.4.4.4.8.4 1.3v5.3c0 .9 0 3.1-.2 3.8-.1.2-.4.3-.8.4l-.5.1c-.1.1-.1.4 0 .5.6 0 1.1-.1 1.9-.1.7 0 1.3 0 2.1.1.1-.1.1-.3 0-.5l-.6-.1c-.5 0-.8-.1-.9-.3-.3-.5-.3-2.9-.3-3.8v-4c0-.5 0-1 .1-1.2.4.4 1.6 1.9 2.1 2.5l4.2 4.8c1.6 1.8 2.1 2.4 2.3 2.8.2 0 .3-.1.3-.2-.1-.5-.1-2.6-.1-3.2v-4.5zm7.2 4.7c0 1.9 0 2.2-1.1 2.3l-.5.1c-.1.1-.1.4 0 .5.9 0 1.5-.1 2.3-.1.7 0 1.4 0 2.3.1.1-.1.1-.4 0-.5l-.5-.1c-1.1-.1-1.1-.4-1.1-2.3v-6.5c0-1.9 0-2.2 1.1-2.3h.5c.1-.1.1-.4 0-.5-.9 0-1.5.1-2.3.1-.8 0-1.4 0-2.3-.1-.1.1-.1.4 0 .5h.5c1.1.1 1.1.4 1.1 2.3v6.5zm11.7.5c.3.8.6 1.7.8 2.4.1 0 .2.1.3.1.1 0 .1 0 .2-.1.3-1 1.2-3.1 1.9-4.8l1-2.2c.8-1.9 1.5-3.3 2-4.2.2-.4.5-.6.9-.6h.5c.1-.1.1-.4 0-.5-.6 0-1.2.1-1.8.1-.7 0-1.4 0-1.9-.1-.1.1-.2.3 0 .5h.3c.6.1.8.2.8.3 0 .1 0 .3-.2.7-.3.8-1.2 2.8-1.7 4.1-.4 1-1.2 2.8-1.7 4-.9-2.1-1.8-4.2-2.6-6.3-.6-1.4-.9-2.4-.9-2.6 0-.1.2-.3.9-.3h.3c.1-.1.1-.4 0-.5-.8 0-1.4.1-2.2.1-.8 0-1.4 0-1.9-.1-.1.1-.2.3 0 .5h.3c.8.1 1.1.5 1.5 1.5l3.2 8zm12.3-.5c0 1.9-.1 2.2-1.1 2.3l-.6.1c-.1.1-.1.4 0 .5 1.1 0 1.7-.1 2.5-.1h1.6c1.6 0 3.2 0 4.9.1.2-.5.7-1.9.8-2.5-.1-.2-.3-.2-.5-.1-.5.9-1 1.6-1.3 1.8-.4.2-.9.3-2.3.3-1.6 0-2-.2-2.2-.4-.3-.3-.3-.9-.3-1.9v-2.6c0-.5.1-.5.6-.5h1.1c.7 0 1.1 0 1.4.1.4.1.5.4.6.7l.2.7c.1.1.4.1.5 0 0-.4-.1-1.1-.1-1.8s.1-1.4.1-1.8c-.1-.1-.4-.1-.5 0l-.1.7c-.1.5-.2.6-.4.6-.2.1-.8.1-1.6.1H139c-.5 0-.6 0-.6-.5v-3.6c0-.7 0-.7.5-.7h1.3c.8 0 1.4 0 1.8.1.9.2 1.1.9 1.4 1.7.1.1.4.1.5 0-.1-.8-.2-2.1-.3-2.4-.2.1-1.3.1-2.5.1h-3.4c-.7 0-1.4 0-2.2-.1-.1.1-.1.4 0 .5h.3c1.1.1 1.1.4 1.1 2.3v6.3zm13.4 0c0 1.9 0 2.2-1.1 2.3l-.5.1c-.1.1-.1.4 0 .5.9 0 1.5-.1 2.3-.1.7 0 1.3 0 2.2.1.1-.1.1-.4 0-.5l-.4-.1c-1.1-.1-1.1-.4-1.1-2.3v-2.3c0-.4 0-.4.9-.4.7 0 1 .2 1.3.6.6.8 1.3 2.1 1.8 2.8 1.3 1.8 2.2 2.3 3.8 2.3.3 0 .6 0 .8-.1.1-.1.1-.2 0-.3-.5 0-.9-.2-1.3-.5-1.2-1-2.2-2.5-3.7-4.9-.1-.1-.2-.3-.1-.4.9-.4 2.3-1.3 2.3-3 0-1.3-.6-2.1-1.5-2.6-.8-.5-1.9-.5-3-.5-1.8 0-3 .1-4.1.1-.1.1-.1.4 0 .5l.6.1c.7.1.8.4.8 2.1v6.5zm1.5-8.2c0-.5.1-.6 1.2-.6 2 0 2.9 1.4 2.9 2.8 0 1.2-.4 1.9-.9 2.3-.5.4-1.2.5-1.9.5-.9 0-1.2 0-1.3-.1-.1-.1-.1-.3-.1-.6v-4.3zm18.7 7.8c0-1.7-1.1-2.8-2.3-3.5l-1.5-.9c-.7-.4-1.5-1.2-1.5-2.2 0-.8.4-2 2.2-2 1.8 0 2.2 1.2 2.5 2.1.1.1.4.1.5-.1 0-.8-.2-1.8-.3-2.2-.1 0-.4 0-.6-.1-.5-.1-1.1-.2-1.7-.2-2.4 0-3.7 1.4-3.7 3.1 0 1.5 1.1 2.5 2 3.1l1.7 1.1c1.3.9 1.5 1.8 1.5 2.6 0 1.1-.8 2.1-2.3 2.1-2.1 0-2.9-1.8-3.1-2.7-.1-.1-.3-.1-.4.1 0 .9.3 2.2.5 2.6.3.2 1.3.7 2.8.7 2.1-.2 3.7-1.5 3.7-3.6m6 .4c0 1.9 0 2.2-1.1 2.3l-.5.1c-.1.1-.1.4 0 .5.9 0 1.5-.1 2.3-.1.7 0 1.3 0 2.3.1.1-.1.1-.4 0-.5l-.5-.1c-1.1-.1-1.1-.4-1.1-2.3v-6.5c0-1.9 0-2.2 1.1-2.3h.5c.1-.1.1-.4 0-.5-.9 0-1.5.1-2.3.1-.8 0-1.4 0-2.3-.1-.1.1-.1.4 0 .5h.5c1.1.1 1.1.4 1.1 2.3v6.5zm13.3-8.1c0-.6 0-.6.5-.6h1.3c1 0 1.7.1 2.1.5.3.2.4.9.5 1.3.1.1.4.1.5 0-.1-.5.1-2 .3-2.8 0-.1-.2-.1-.3-.1-.3.5-.4.5-1.4.5h-7.4c-.8 0-1.4 0-1.5-.6-.1-.1-.3 0-.3 0-.1.7-.4 1.9-.7 2.7.1.1.3.2.5.1.2-.5.4-.9.8-1.3.5-.4 1.5-.5 2.2-.5h1c.5 0 .5 0 .5.6v8.2c0 1.9-.1 2.2-1.1 2.3l-.7.1c-.1.1-.1.4 0 .5 1.2 0 1.8-.1 2.5-.1s1.4 0 2.4.1c.1-.1.1-.4 0-.5l-.6-.1c-1.1-.1-1.1-.4-1.1-2.3v-8zm10.4 8.1c0 1.9-.1 2.2-1.1 2.3l-.6.1c-.1.1-.1.4 0 .5 1.1 0 1.7-.1 2.5-.1h1.6c1.6 0 3.2 0 4.9.1.2-.5.7-1.9.8-2.5-.1-.2-.3-.2-.5-.1-.5.9-1 1.6-1.3 1.8-.4.2-.9.3-2.3.3-1.6 0-2-.2-2.2-.4-.3-.3-.3-.9-.3-1.9v-2.6c0-.5.1-.5.6-.5h1.1c.7 0 1.1 0 1.4.1.4.1.5.4.6.7l.2.7c.1.1.4.1.5 0 0-.4-.1-1.1-.1-1.8s.1-1.4.1-1.8c-.1-.1-.4-.1-.5 0l-.1.7c-.1.5-.2.6-.4.6-.2.1-.8.1-1.6.1h-1.1c-.5 0-.6 0-.6-.5v-3.6c0-.7 0-.7.5-.7h1.3c.8 0 1.4 0 1.8.1.9.2 1.1.9 1.4 1.7.1.1.4.1.5 0-.1-.8-.2-2.1-.3-2.4-.2.1-1.3.1-2.5.1h-3.4c-.7 0-1.4 0-2.2-.1-.1.1-.1.4 0 .5h.3c1.1.1 1.1.4 1.1 2.3v6.3zm17.7-8.1c0-.6 0-.6.5-.6h1.3c1 0 1.7.1 2.1.5.3.2.4.9.5 1.3.1.1.4.1.5 0-.1-.5.1-2 .3-2.8 0-.1-.2-.1-.3-.1-.3.5-.4.5-1.4.5H214c-.8 0-1.4 0-1.6-.6-.1-.1-.3 0-.3 0-.1.7-.4 1.9-.7 2.7.1.1.3.2.5.1.2-.5.4-.9.8-1.3.5-.4 1.5-.5 2.2-.5h1c.5 0 .5 0 .5.6v8.2c0 1.9-.1 2.2-1.1 2.3l-.7.1c-.1.1-.1.4 0 .5 1.2 0 1.8-.1 2.5-.1s1.4 0 2.4.1c.1-.1.1-.4 0-.5l-.6-.1c-1.1-.1-1.1-.4-1.1-2.3v-8zm10.4 8.1c0 1.9-.1 2.2-1.1 2.3l-.6.1c-.1.1-.1.4 0 .5 1.1 0 1.7-.1 2.5-.1h1.6c1.6 0 3.2 0 4.9.1.2-.5.7-1.9.8-2.5-.1-.2-.3-.2-.5-.1-.5.9-1 1.6-1.3 1.8-.4.2-.9.3-2.3.3-1.6 0-2-.2-2.2-.4-.3-.3-.3-.9-.3-1.9v-2.6c0-.5.1-.5.6-.5h1.1c.7 0 1.2 0 1.4.1.4.1.5.4.6.7l.2.7c.1.1.4.1.5 0 0-.4-.1-1.1-.1-1.8s.1-1.4.1-1.8c-.1-.1-.4-.1-.5 0l-.1.7c-.1.5-.2.6-.4.6-.2.1-.8.1-1.6.1h-1.1c-.6 0-.6 0-.6-.5v-3.6c0-.7 0-.7.5-.7h1.3c.8 0 1.4 0 1.8.1.9.2 1.1.9 1.4 1.7.1.1.4.1.5 0-.1-.8-.2-2.1-.3-2.4-.2.1-1.3.1-2.5.1h-3.4c-.7 0-1.4 0-2.2-.1-.1.1-.1.4 0 .5h.3c1.1.1 1.1.4 1.1 2.3v6.3zm17.8-8.1c0-.6 0-.6.5-.6h1.3c1 0 1.7.1 2.1.5.3.2.4.9.5 1.3.1.1.4.1.5 0-.1-.5.1-2 .3-2.8 0-.1-.2-.1-.3-.1-.3.5-.4.5-1.4.5h-7.4c-.8 0-1.4 0-1.6-.6-.1-.1-.3 0-.3 0-.1.7-.4 1.9-.7 2.7.1.1.3.2.5.1.2-.5.4-.9.8-1.3.5-.4 1.5-.5 2.2-.5h1c.5 0 .5 0 .5.6v8.2c0 1.9-.1 2.2-1.1 2.3l-.7.1c-.1.1-.1.4 0 .5 1.2 0 1.8-.1 2.5-.1s1.4 0 2.4.1c.1-.1.1-.4 0-.5l-.6-.1c-1.1-.1-1.1-.4-1.1-2.3v-8zm17.7 8.1c0 1.9 0 2.2-1.1 2.3l-.5.1c-.1.1-.1.4 0 .5.9 0 1.5-.1 2.3-.1.7 0 1.3 0 2.3.1.1-.1.1-.4 0-.5l-.5-.1c-1.1-.1-1.1-.4-1.1-2.3v-6.5c0-1.9 0-2.2 1.1-2.3h.5c.1-.1.1-.4 0-.5-.9 0-1.5.1-2.3.1-.8 0-1.4 0-2.3-.1-.1.1-.1.4 0 .5h.5c1.1.1 1.1.4 1.1 2.3v6.5zm16.2 0c0 1.9 0 2.1-1 2.3l-.3.1c-.1.1-.1.4 0 .5.7 0 1.3-.1 2.1-.1s1.7.1 2.2.1c3.3 0 4.9-1.4 4.9-3.5 0-2-1.5-2.9-2.4-3-.2 0-.4-.1-.4-.3 1.1-.5 1.9-1.2 1.9-2.5 0-1.2-.6-1.9-1.4-2.3-.8-.4-1.9-.5-3.1-.5-1.7 0-2.9.1-3.9.1-.1.1-.2.3 0 .5l.6.1c.8.1.9.4.9 1.8v6.7zm1.5-3c0-.4.1-.5 1.1-.5 2.9 0 3.6 1.7 3.6 3.1 0 1.8-1.2 2.6-2.9 2.6-.5 0-1.1-.1-1.4-.5-.3-.4-.4-1.3-.4-2v-2.7zm0-5.2c0-.3.1-.4.3-.5.2-.1.4-.1.8-.1 1.4 0 2.7.7 2.7 2.5 0 1.7-1 2.3-2.9 2.3-.9 0-1 0-1-.5v-3.7zm12.3 8.2c0 1.9-.1 2.2-1.1 2.3l-.6.1c-.1.1-.1.4 0 .5 1.1 0 1.7-.1 2.5-.1h1.6c1.6 0 3.2 0 4.9.1.2-.5.7-1.9.8-2.5-.1-.2-.3-.2-.5-.1-.5.9-1 1.6-1.3 1.8-.4.2-.9.3-2.3.3-1.6 0-2-.2-2.2-.4-.3-.3-.3-.9-.3-1.9v-2.6c0-.5.1-.5.6-.5h1.1c.7 0 1.1 0 1.4.1.4.1.5.4.6.7l.2.7c.1.1.4.1.5 0 0-.4-.1-1.1-.1-1.8s.1-1.4.1-1.8c-.1-.1-.4-.1-.5 0l-.1.7c-.1.5-.2.6-.4.6-.2.1-.8.1-1.6.1H296c-.5 0-.6 0-.6-.5v-3.6c0-.7 0-.7.5-.7h1.3c.8 0 1.4 0 1.8.1.9.2 1.1.9 1.4 1.7.1.1.4.1.5 0-.1-.8-.2-2.1-.3-2.4-.2.1-1.3.1-2.5.1h-3.4c-.7 0-1.4 0-2.2-.1-.1.1-.1.4 0 .5h.3c1.1.1 1.1.4 1.1 2.3v6.3zm13.4 0c0 1.9 0 2.2-1.1 2.3l-.5.1c-.1.1-.1.4 0 .5.9 0 1.5-.1 2.3-.1.7 0 1.3 0 2.2.1.1-.1.1-.4 0-.5l-.4-.1c-1.1-.1-1.1-.4-1.1-2.3v-2.3c0-.4 0-.4.9-.4.7 0 1 .2 1.3.6.6.8 1.3 2.1 1.8 2.8 1.3 1.8 2.2 2.3 3.8 2.3.3 0 .6 0 .8-.1.1-.1.1-.2 0-.3-.5 0-.9-.2-1.3-.5-1.2-1-2.2-2.5-3.7-4.9-.1-.1-.2-.3-.1-.4.9-.4 2.3-1.3 2.3-3 0-1.3-.6-2.1-1.5-2.6-.8-.5-1.9-.5-3-.5-1.8 0-3 .1-4.1.1-.1.1-.1.4 0 .5l.6.1c.7.1.8.4.8 2.1v6.5zm1.5-8.2c0-.5.1-.6 1.2-.6 2 0 2.9 1.4 2.9 2.8 0 1.2-.4 1.9-.9 2.3-.5.4-1.2.5-1.9.5-.9 0-1.2 0-1.3-.1-.1-.1-.1-.3-.1-.6v-4.3zm21.8 8.1c0-.9 0-1.4.8-1.5h.3c.1-.1.1-.4 0-.5-.6 0-1.2.1-1.9.1-1.1 0-2.1 0-2.6-.1-.1.1-.1.4 0 .5l.8.1c1.1.1 1.2.2 1.2 1.8v.7c0 .6-.1.9-.2 1-.2.3-.9.5-2 .5-3.7 0-5.5-2.8-5.5-6.3 0-2.7 1.6-5.3 5.1-5.3 1.9 0 3.2.6 3.7 2.6.1.1.4.1.5-.1-.2-1.1-.3-2-.3-2.6-.2 0-.8-.1-1.1-.2-.3-.1-1.3-.3-2.3-.3-2.8 0-4.6.9-5.8 2.1-1.1 1.2-1.6 2.8-1.6 4.3 0 1.6.6 3 1.7 4.1 1.4 1.4 3.4 2 5.6 2 1 0 2.3-.2 3.3-.5.3-.1.7-.2.9-.2.1-.1.1-.2 0-.2-.3-.1-.4-.6-.4-1.3v-.7zm6.9.1c0 1.9-.1 2.2-1.1 2.3l-.6.1c-.1.1-.1.4 0 .5 1.1 0 1.7-.1 2.5-.1h1.6c1.6 0 3.2 0 4.9.1.2-.5.7-1.9.8-2.5-.1-.2-.3-.2-.5-.1-.5.9-1 1.6-1.3 1.8-.4.2-.9.3-2.3.3-1.6 0-2-.2-2.2-.4-.3-.3-.3-.9-.3-1.9v-2.6c0-.5.1-.5.6-.5h1.1c.7 0 1.1 0 1.4.1.4.1.5.4.6.7l.2.7c.1.1.4.1.5 0 0-.4-.1-1.1-.1-1.8s.1-1.4.1-1.8c-.1-.1-.4-.1-.5 0l-.1.7c-.1.5-.2.6-.4.6-.2.1-.8.1-1.6.1h-1.1c-.5 0-.6 0-.6-.5v-3.6c0-.7 0-.7.5-.7h1.3c.8 0 1.4 0 1.8.1.9.2 1.1.9 1.4 1.7.1.1.4.1.5 0-.1-.8-.2-2.1-.3-2.4-.2.1-1.3.1-2.5.1h-3.4c-.7 0-1.4 0-2.2-.1-.1.1-.1.4 0 .5h.3c1.1.1 1.1.4 1.1 2.3v6.3zm23.2-4.7c0-.8 0-3.1.3-3.8.1-.1.4-.3 1-.4h.3c.1-.1.1-.4 0-.5-.6 0-1.1.1-1.9.1-.7 0-1.3 0-2.2-.1-.1.1-.2.3 0 .5h.3c.7.1 1 .2 1.1.4.3.5.4 2.9.4 3.8v3.9c0 .4 0 .7-.1.8-.9-.9-1.8-1.9-3-3.3l-1.8-2c-.6-.7-2.8-3.1-3.1-4-.2 0-.5.1-.8.1-.3 0-1.3 0-2.1-.1-.1.1-.1.3 0 .5h.3c.4.1.9.2 1.1.4.4.4.4.8.4 1.3v5.3c0 .9 0 3.1-.2 3.8-.1.2-.4.3-.8.4l-.5.1c-.1.1-.1.4 0 .5.6 0 1.1-.1 1.9-.1.7 0 1.3 0 2.1.1.1-.1.1-.3 0-.5l-.6-.1c-.5 0-.8-.1-.9-.3-.3-.5-.3-2.9-.3-3.8v-4c0-.5 0-1 .1-1.2.4.4 1.6 1.9 2.1 2.5l4.2 4.8c1.6 1.8 2.1 2.4 2.3 2.8.2 0 .3-.1.3-.2-.1-.5-.1-2.6-.1-3.2v-4.5z"/><g><defs><path id="c" d="M0 0h224.4v68H0z"/></defs><clipPath id="d"><use xlink:href="#c" overflow="visible"/></clipPath><path clip-path="url(#d)" d="M158.5 43.5c0-1.4 0-2.9.2-3.5.1-.3.4-.3.8-.4l.4-.1c.1-.1.1-.4 0-.5-.6 0-1.1.1-1.8.1s-1.3 0-2-.1c-.2.1-.2.4 0 .5l.4.1c.4.1.7.2.9.4.3.5.3 2.1.3 3.5v3.4c0 .3 0 .4-.1.4-.2-.1-1.8-2-2.6-2.8l-1.8-1.9c-.6-.7-2.5-2.9-2.8-3.6-.4 0-.8.1-1.2.1-.4 0-1.4 0-2.1-.1-.2.1-.2.4-.1.5l.3.1c.2.1.7.2.9.4.6.5.6.8.6 2.2v4.2c0 1.4 0 2.9-.2 3.5-.1.3-.4.3-.8.4l-.4.1c-.1.1-.1.4 0 .5.6 0 1.1-.1 1.8-.1s1.4 0 2 .1c.2-.1.2-.4 0-.5l-.4-.1c-.4-.1-.7-.2-.9-.4-.3-.5-.3-2.1-.3-3.5V43c0-.9 0-1.1.1-1.1.3.3.9.9 2 2.2l4.1 4.7c1.3 1.4 1.8 2 2.1 2.4.2 0 .5-.1.6-.2-.1-.4-.1-2.6-.1-3.1v-4.4zm-20.8 4.6c0 1.9-.2 1.9-1 2l-.7.1c-.1.1-.1.4 0 .5.8 0 1.9-.1 2.6-.1h2c2.1 0 3.6 0 4.3.1.2-.5.6-1.8.7-2.6-.1-.2-.4-.2-.6-.1-.6 1.4-1 1.9-3.2 1.9-1.5 0-1.8-.1-2-.4-.3-.3-.3-.9-.3-1.8v-2.2c0-.4 0-.5.4-.5h.8c1.5 0 1.8 0 1.9.8l.1.7c.1.1.5.1.6 0v-1.8-1.8c-.1-.1-.4-.1-.6 0l-.1.6c-.2.8-.4.8-1.9.8h-.8c-.4 0-.4 0-.4-.5v-3c0-1 0-1 .8-1h1.2c.5 0 1 .1 1.4.2.6.2.8.6 1.1 1.6.1.1.5.1.6-.1-.1-.8-.2-2.1-.3-2.4-.2 0-1.3.1-2.4.1h-3.4c-.8 0-1.6 0-2.3-.1-.1.1-.2.4 0 .5h.3c.8.1 1 .2 1 2v6.5zm-4.3-.3c0-1.1.1-1.2.8-1.3l.3-.1c.2-.1.1-.4 0-.5-.8 0-1.4.1-2.1.1-1.2 0-2.1 0-2.7-.1-.1.1-.1.4 0 .5l.6.1c1.2.2 1.2.3 1.2 1.5v.6c0 .6-.1.9-.2 1.1-.2.3-.7.4-1.6.4-1 0-2.4-.4-3.4-1.5-.9-1.1-1.3-2.6-1.3-4 0-3 1.5-5.2 4.6-5.2 1.7 0 3 .8 3.4 2.6.1.2.5.1.6 0-.1-1.4-.2-2.3-.2-2.8-.2 0-.7-.1-1.1-.2-.6-.1-1.5-.3-2.3-.3-2.4 0-4.4.8-5.6 2.1-1.1 1.1-1.6 2.7-1.6 4.1 0 1.5.5 3 1.5 4 1.3 1.4 3.3 1.9 5.4 1.9 1 0 2.3-.2 3.4-.5.3-.1.6-.1.8-.1.1-.1.1-.2 0-.3-.3-.2-.4-.6-.4-1.2v-.9zm-19.2-7.2c0-.8 0-.9.9-.9 1.5 0 2.4 1.2 2.4 2.6 0 1.7-.8 2.5-2.5 2.5-.8 0-.8 0-.8-.6v-3.6zm-2 7.5c0 1.9-.2 1.9-1 2l-.4.1c-.2.1-.1.4 0 .5.8 0 1.6-.1 2.4-.1.8 0 1.6 0 2.3.1.1-.1.2-.4 0-.5l-.4-.1c-.8-.1-1-.2-1-2v-2.3c0-.4 0-.4.5-.4.6 0 .8.1 1.1.6.4.7.9 1.7 1.4 2.4 1.1 1.6 2 2.3 3.7 2.3.6 0 .9-.1 1.2-.1.1-.1.1-.3 0-.4-.2 0-.7-.1-1.2-.5-.8-.7-1.7-2.2-3.1-4.6-.1-.1-.1-.2 0-.3.9-.4 2.1-1.2 2.1-2.8 0-1.3-.6-2.1-1.5-2.6-.8-.4-2-.6-3.3-.6-1.4 0-2.9.1-4 .2-.1.1-.1.4 0 .5l.5.1c.8.1.8.3.8 2v6.5zm-11.1 0c0 1.9-.2 1.9-1 2l-.7.1c-.1.1-.1.4 0 .5.8 0 1.9-.1 2.6-.1h2c2.1 0 3.6 0 4.3.1.2-.5.6-1.8.7-2.6-.1-.2-.4-.2-.6-.1-.6 1.4-1 1.9-3.2 1.9-1.5 0-1.8-.1-2-.4-.3-.3-.3-.9-.3-1.8v-2.2c0-.4 0-.5.4-.5h.8c1.5 0 1.8 0 1.9.8l.1.7c.1.1.5.1.6 0v-1.8-1.8c-.1-.1-.4-.1-.6 0l-.1.6c-.2.8-.4.8-1.9.8h-.8c-.4 0-.4 0-.4-.5v-3c0-1 0-1 .8-1h1.2c.5 0 1 .1 1.4.2.6.2.8.6 1.1 1.6.1.1.5.1.6-.1-.1-.8-.2-2.1-.3-2.4-.2 0-1.3.1-2.4.1h-3.4c-.8 0-1.6 0-2.3-.1-.1.1-.2.4 0 .5h.3c.8.1 1 .2 1 2v6.5zm-9.4-7.6c0-.7.1-.7.9-.7 1.1 0 2.2.6 2.2 2.2s-.8 2.2-2.4 2.2c-.7 0-.8 0-.8-.5v-3.2zm0 4.7c0-.4 0-.5.8-.5 2 0 3.2 1.1 3.2 2.9 0 1.6-1.1 2.4-2.3 2.4-1.5 0-1.7-.7-1.7-2.3v-2.5zm-2 2.9c0 1.9-.2 1.9-1 2l-.4.1c-.1.1-.1.4 0 .5.8 0 1.6-.1 2.4-.1.7 0 1.4.1 2.2.1 2 0 3.2-.3 4-1 .8-.7 1.1-1.5 1.1-2.3 0-2-1.5-2.8-2.8-3.1-.1 0-.1-.1-.1-.1s0-.1.1-.1c1.2-.4 2-1.2 2-2.2 0-1.1-.4-1.8-1.2-2.3-.8-.5-2-.6-3.4-.6-1.9 0-3.2.1-4 .2-.1.1-.1.4 0 .5l.5.1c.8.1.8.3.8 2v6.3zM80 41.6c0-1.9.2-1.9 1-2l.4-.1c.1-.1.1-.4 0-.5-.8 0-1.6.1-2.3.1-.8 0-1.6 0-2.4-.1-.1.1-.2.4 0 .5l.4.1c.8.1 1 .2 1 2v6.5c0 1.9-.2 1.9-1 2l-.4.1c-.1.1-.1.4 0 .5.8 0 1.6-.1 2.4-.1.8 0 1.6 0 2.3.1.1-.1.2-.4 0-.5H81c-.8-.1-1-.2-1-2v-6.6zM214.8 27c0 1.9-.2 1.9-1 2l-.7.1c-.1.1-.1.4 0 .5 1.1 0 2-.1 2.7-.1.8 0 1.6 0 2.6.1.1-.1.2-.4 0-.5l-.6-.1c-.8-.1-1-.1-1-2v-7.6c0-.7 0-.8.5-.8h1c1.9 0 2.2.3 2.4 1.7.2.1.5.1.5-.1-.1-.6.1-2.1.3-2.8 0-.1-.1-.1-.2-.1s-.1 0-.2.1c-.2.4-.5.5-1.3.5h-7.2c-1.2 0-1.4 0-1.5-.5 0-.1-.1-.1-.2-.1s-.2 0-.2.1c-.1.6-.4 1.7-.7 2.7.1.2.4.2.6.1.7-1.4 1.1-1.6 2.7-1.6h1c.5 0 .5 0 .5.8V27zm-13.6 0c0 1.9-.2 1.9-1 2l-.7.1c-.1.1-.1.4 0 .5.8 0 1.9-.1 2.6-.1h2c2.1 0 3.6 0 4.3.1.2-.5.6-1.8.7-2.6-.1-.2-.4-.2-.6-.1-.6 1.4-1 1.9-3.2 1.9-1.5 0-1.8-.1-2-.4-.3-.3-.3-.9-.3-1.8v-2.2c0-.4 0-.5.4-.5h.8c1.5 0 1.8 0 2 .8l.1.7c.1.1.5.1.6 0v-1.8-1.8c-.1-.1-.4-.1-.6 0l-.1.6c-.2.8-.4.8-2 .8h-.8c-.4 0-.4 0-.4-.5v-3c0-1 0-1 .8-1h1.2c.5 0 1 .1 1.4.2.6.2.8.6 1.1 1.6.1.1.5.1.6-.1-.1-.8-.2-2.1-.3-2.4-.2 0-1.3.1-2.4.1H202c-.8 0-1.6 0-2.3-.1-.1.1-.2.4 0 .5h.3c.8.1 1 .2 1 2V27zm-9.7 0c0 1.9-.2 1.9-1 2l-.7.1c-.1.1-.1.4 0 .5 1.1 0 2-.1 2.7-.1s1.6 0 2.6.1c.1-.1.2-.4 0-.5l-.6-.1c-.8-.1-1-.1-1-2v-7.6c0-.7 0-.8.5-.8h1c1.9 0 2.2.3 2.4 1.7.2.1.5.1.5-.1-.1-.6.1-2.1.3-2.8 0-.1-.1-.1-.2-.1s-.1 0-.2.1c-.2.4-.5.5-1.3.5h-7.2c-1.2 0-1.4 0-1.5-.5 0-.1-.1-.1-.2-.1s-.2 0-.2.1c-.1.6-.4 1.7-.7 2.7.1.2.4.2.6.1.7-1.4 1.1-1.6 2.7-1.6h1c.5 0 .5 0 .5.8V27zm-13.7 0c0 1.9-.2 1.9-1 2l-.7.1c-.1.1-.1.4 0 .5.8 0 1.9-.1 2.6-.1h2c2.1 0 3.6 0 4.3.1.2-.5.6-1.8.7-2.6-.1-.2-.4-.2-.6-.1-.6 1.4-1 1.9-3.2 1.9-1.5 0-1.8-.1-2-.4-.3-.3-.3-.9-.3-1.8v-2.2c0-.4 0-.5.4-.5h.8c1.5 0 1.8 0 1.9.8l.1.7c.1.1.5.1.6 0v-1.8-1.8c-.1-.1-.4-.1-.6 0l-.1.6c-.2.8-.4.8-1.9.8h-.8c-.4 0-.4 0-.4-.5v-3c0-1 0-1 .8-1h1.2c.5 0 1 .1 1.4.2.6.2.8.6 1.1 1.6.1.1.5.1.6-.1-.1-.8-.2-2.1-.3-2.4-.2 0-1.3.1-2.4.1h-3.4c-.8 0-1.6 0-2.3-.1-.1.1-.2.4 0 .5h.3c.8.1 1 .2 1 2V27zm-9.7 0c0 1.9-.2 1.9-1 2l-.7.1c-.1.1-.1.4 0 .5 1.1 0 2-.1 2.7-.1.8 0 1.6 0 2.6.1.1-.1.2-.4 0-.5l-.6-.1c-.8-.1-1-.1-1-2v-7.6c0-.7 0-.8.5-.8h1c1.9 0 2.2.3 2.4 1.7.2.1.5.1.5-.1-.1-.6.1-2.1.3-2.8 0-.1-.1-.1-.2-.1s-.1 0-.2.1c-.2.4-.5.5-1.3.5h-7.2c-1.2 0-1.4 0-1.5-.5 0-.1-.1-.1-.2-.1s-.2 0-.2.1c-.1.6-.4 1.7-.7 2.7.1.2.4.2.6.1.7-1.4 1.1-1.6 2.7-1.6h1c.5 0 .5 0 .5.8V27zm-7.6-6.5c0-1.9.2-1.9 1-2l.4-.1c.1-.1.1-.4 0-.5-.8 0-1.6.1-2.3.1-.8 0-1.6 0-2.4-.1-.1.1-.2.4 0 .5l.4.1c.8.1 1 .2 1 2V27c0 1.9-.2 1.9-1 2l-.4.1c-.1.1-.1.4 0 .5.8 0 1.6-.1 2.4-.1.8 0 1.6 0 2.3.1.1-.1.2-.4 0-.5l-.4-.1c-.8-.1-1-.2-1-2v-6.5zm-9.1 9.3c2.6 0 4.1-1.4 4.1-3.4 0-1.8-1.3-2.9-2.4-3.5l-1.1-.6c-1.2-.6-1.7-1.4-1.7-2.1 0-.9.6-1.8 2-1.8 1.5 0 2.1 1.2 2.4 2.1.2.1.5.1.6-.1 0-.8-.2-2-.4-2.4-.8-.2-1.5-.4-2.4-.4-2.6 0-3.9 1.5-3.9 3.2 0 1.6 1.2 2.7 2.5 3.4l.8.4c1.3.7 1.8 1.5 1.8 2.6s-.8 1.9-2.1 1.9c-1.7 0-2.7-1.9-3-2.8-.1-.1-.4-.1-.5.1 0 1.1.2 2.3.5 2.7.2.2 1.2.7 2.8.7m-12.3-10.3c0-.8 0-.9.9-.9 1.5 0 2.4 1.2 2.4 2.6 0 1.7-.8 2.5-2.5 2.5-.8 0-.8 0-.8-.6v-3.6zM137 27c0 1.9-.2 1.9-1 2l-.4.1c-.2.1-.1.4 0 .5.8 0 1.6-.1 2.4-.1.8 0 1.6 0 2.3.1.1-.1.2-.4 0-.5l-.4-.1c-.8-.1-1-.2-1-2v-2.3c0-.4 0-.4.5-.4.6 0 .8.1 1.1.6.4.7.9 1.7 1.4 2.4 1.1 1.6 2 2.3 3.7 2.3.6 0 .9-.1 1.2-.1.1-.1.1-.3 0-.4-.2 0-.7-.1-1.2-.5-.8-.7-1.7-2.2-3.1-4.6-.1-.1-.1-.2 0-.3.9-.4 2.1-1.2 2.1-2.8 0-1.3-.7-2.1-1.5-2.6-.8-.4-2-.6-3.3-.6-1.4 0-2.9.1-4 .2-.1.1-.1.4 0 .5l.5.1c.8.1.8.3.8 2V27zm-10.8 0c0 1.9-.2 1.9-1 2l-.7.1c-.1.1-.1.4 0 .5.8 0 1.9-.1 2.6-.1h2c2.1 0 3.6 0 4.3.1.2-.5.6-1.8.7-2.6-.1-.2-.4-.2-.6-.1-.6 1.4-1 1.9-3.2 1.9-1.5 0-1.8-.1-2-.4-.3-.3-.3-.9-.3-1.8v-2.2c0-.4 0-.5.4-.5h.8c1.5 0 1.8 0 1.9.8l.1.7c.1.1.5.1.6 0v-1.8-1.8c-.1-.1-.4-.1-.6 0l-.1.6c-.2.8-.4.8-1.9.8h-.8c-.4 0-.4 0-.4-.5v-3c0-1 0-1 .8-1h1.2c.5 0 1 .1 1.4.2.6.2.8.6 1.1 1.6.1.1.5.1.6-.1-.1-.8-.2-2.1-.3-2.4-.2 0-1.3.1-2.4.1H127c-.8 0-1.6 0-2.3-.1-.1.1-.2.4 0 .5h.3c.8.1 1 .2 1 2V27zm-5.8-4c.8-1.8 1.3-3 1.8-3.8.3-.5.7-.6 1.1-.7l.4-.1c.1-.1.1-.4 0-.5-.5 0-1.1.1-1.7.1-.6 0-1.2 0-1.9-.1-.1.1-.2.4 0 .5l.5.1c.5.1.6.3.3 1-.9 2.4-2 4.8-2.9 7-.2-.4-.7-1.4-1-2.2l-1.3-3.1c-.7-1.8-.9-2.2-.9-2.3 0-.1.1-.2.5-.3l.4-.1c.2-.1.1-.4 0-.5-.9 0-1.5.1-2.3.1-.7 0-1.4 0-2.1-.1-.2.1-.2.4-.1.5l.4.1c.7.1.9.4 1.4 1.6l3.1 7.4c.3.7.6 1.6.8 2.3.1.1.2.1.3.1s.3 0 .3-.1c.3-.9 1.1-3 1.8-4.6l1.1-2.3zm-12-2.5c0-1.9.2-1.9 1-2l.4-.1c.1-.1.1-.4 0-.5-.8 0-1.6.1-2.3.1-.8 0-1.6 0-2.4-.1-.1.1-.2.4 0 .5l.4.1c.8.1 1 .2 1 2V27c0 1.9-.2 1.9-1 2l-.4.1c-.1.1-.1.4 0 .5.8 0 1.6-.1 2.4-.1.8 0 1.6 0 2.3.1.1-.1.2-.4 0-.5l-.4-.1c-.8-.1-1-.2-1-2v-6.5zm-6.7 1.9c0-1.4 0-2.9.2-3.5.1-.3.4-.3.8-.4l.4-.1c.1-.1.1-.4 0-.5-.6 0-1.1.1-1.8.1s-1.3 0-2-.1c-.2.1-.2.4 0 .5l.4.1c.4.1.7.2.9.4.3.5.3 2.1.3 3.5v3.4c0 .3 0 .4-.1.4-.2-.1-1.8-2-2.6-2.8l-1.8-1.9c-.6-.7-2.5-2.9-2.8-3.6-.4 0-.8.1-1.2.1-.4 0-1.4 0-2.1-.1-.2.1-.2.4-.1.5l.3.1c.2.1.7.2.9.4.6.4.6.7.6 2.1v4.2c0 1.4 0 2.9-.2 3.5-.1.3-.4.3-.8.4l-.4.1c-.1.1-.1.4 0 .5.6 0 1.1-.1 1.8-.1s1.4 0 2 .1c.2-.1.2-.4 0-.5l-.4-.1c-.4-.1-.7-.2-.9-.4-.3-.5-.3-2.1-.3-3.5v-3.4c0-.9 0-1.1.1-1.1.3.3.9.9 2 2.2l4.1 4.7c1.3 1.4 1.8 2 2.1 2.4.2 0 .5-.1.6-.2-.1-.4-.1-2.6-.1-3.1v-4.3zM77.9 25c0 1.8.4 3 1.2 3.8.8.8 2 1.1 3.6 1.1 1.2 0 2.5-.3 3.4-1.3.9-1 1.2-2.5 1.2-4.1v-2.1c0-1.4 0-2.9.2-3.5.1-.3.4-.4.8-.4l.4-.1c.1-.1.1-.4 0-.5-.7 0-1.1.1-1.9.1-.7 0-1.4 0-2-.1-.2.1-.2.4 0 .5l.4.1c.4.1.7.2.9.5.3.5.3 2.1.3 3.5v2.2c0 2.7-.9 4.4-3.3 4.4s-3.2-2-3.2-4.5v-4c0-1.9.2-1.9 1-2l.4-.1c.1-.1.1-.4 0-.5-.8 0-1.6.1-2.4.1-.8 0-1.6 0-2.3-.1-.1.1-.2.4 0 .5l.3.1c.8.1 1 .2 1 2V25z"/></g></svg>