<svg xmlns="http://www.w3.org/2000/svg" xmlns:xlink="http://www.w3.org/1999/xlink" width="252.3" height="68"><defs><path id="a" d="M2.8 2.8h62.4v62.4H2.8z"/></defs><clipPath id="b"><use xlink:href="#a" overflow="visible"/></clipPath><path clip-path="url(#b)" d="M2.8 34c0-7.5 2.7-14.4 7.1-19.8C15.7 7.3 24.3 2.8 34 2.8c17.2 0 31.2 14 31.2 31.2S51.2 65.2 34 65.2 2.8 51.2 2.8 34m.5 0c0 8.5 3.4 16.2 9 21.7 5.6 5.6 13.2 9 21.7 9s16.2-3.4 21.7-9c5.6-5.6 9-13.2 9-21.7s-3.4-16.2-9-21.7c-5.6-5.6-13.2-9-21.7-9-9.5 0-18.1 4.4-23.7 11.2-4.4 5.3-7 12.1-7 19.5"/><g><defs><path id="c" d="M2.8 2.8h62.4v62.4H2.8z"/></defs><clipPath id="d"><use xlink:href="#c" overflow="visible"/></clipPath><path clip-path="url(#d)" d="M9.7 46.7c0-.4.3-.7.7-.7.4 0 .7.3.7.7 0 .4-.3.7-.7.7-.4 0-.7-.3-.7-.7M56.6 47.1c0-.4.3-.7.7-.7.4 0 .7.3.7.7 0 .4-.3.7-.7.7-.4 0-.7-.3-.7-.7M55.3 25.1c-1.2-2.8-2.8-5.2-5-7.3-2.1-2.1-4.6-3.8-7.3-4.9-2.8-1.2-5.9-1.8-9-1.8-3.1 0-6.1.6-9 1.8-2.7 1.2-5.2 2.8-7.3 4.9-2.1 2.1-3.8 4.6-4.9 7.3-1.2 2.8-1.8 5.9-1.8 9 0 3.1.6 6.1 1.8 9 1.2 2.7 2.8 5.2 4.9 7.3 2.1 2.1 4.6 3.8 7.3 4.9.9.4 1.7.7 2.6.9.4.1.9.2 1.4.3 1.6.4 3.3.5 5 .5 1 0 2-.1 3.1-.2.6 0 1-.1 1.3-.2 1.6-.3 3.1-.8 4.6-1.4 2.8-1.2 5.2-2.8 7.3-4.9l-.2-.2.2.2c2.1-2.1 3.8-4.6 5-7.3 1.2-2.8 1.8-5.9 1.8-9 .1-3.1-.6-6.1-1.8-8.9M19.7 51.6s-.1-.1-.1-.2v-.1c.1-.2.3-.4.4-.6.2.5.8 1.5 2 2.6-.7-.5-1.5-1.1-2.3-1.7m-.1-13.7c.5.5.6.9.6 1.1v.4s-.2.4-.7.4h-.3c-.9-.2-1.8-.5-2.5-.6l1.8-2.4c.3.4.8.8 1.1 1.1m-3.7-4.1l11.5-11.6-6.9 16.2c-.1-.3-.3-.6-.6-.9-.7-.6-3.3-3-4-3.7m3.1 6.3h.4c.4 0 .7-.2.9-.3l.3-.3 7-16.5c0 .1 0 .3.1.4.1 1.9.5 3.2 1 4.1.3.6.5 1 .7 1.3.1.2.2.3.3.4 0 0 0 .1.1.1L28 35c0 .1 0 .2.1.2l.4.3v.1c0 .1-1.8 6.8-1.8 6.8L21 49c-.4-.4-1.7-1.5-3.3-4.1-1.4-2.2-1.9-3.6-1.9-4.4 0-.4.1-.6.2-.8.1-.1.3-.2.4-.2.7.1 1.6.5 2.6.6m12.1-24.3c0-.1-.2-.2-.3-.1l.3-.3 1-.1c.1 0 .2-.1.2-.3 0-.1-.1-.2-.3-.2h-.2c.3-.2.6-.3.9-.4.2-.1.3-.1.4-.2.1 0 .2-.1.2-.1.1 0 .2-.2.2-.3 0-.1-.2-.2-.3-.2 0 0-.4.1-.9.3.1-.1 0-.2-.1-.3-.1-.1-.2 0-.3.1l-.5.8-.1.1c-.1 0-.1.1-.2.2l.1-.1c.1-.1 0-.3-.1-.3-.1-.1-.3 0-.3.1l-.6 1.1-.4.4c0-.6.2-1.7.9-2.2.7-.5 1.2-.6 1.7-.6.3 0 .5 0 .7.1.1 0 .5.1.8.2l.6.2h.1c.3 0 .5.1.6.2.1.1.1.2.1.4 0 .1 0 .2-.1.3 0 0 0 .1-.1.1l-1.7.2c-.1 0-.1 0-.2.1l-1.1 1.4h-.5s-.1 0-.2.1c-.3.1-.4.2-.4.5 0 .4.1.7.3.9l.1.1-.7.7c-.1 0-.3-.1-.5-.2-.2-.2-.4-.4-.5-.8v-.6-.3l.3-.3 1-.3c.1-.1.2-.2.1-.4m3.6 1.8s0 .1-.1.1-.1.1-.1.2 0 .1.1.2V18.7s0 .2-.1.2-.2.1-.4.1h-.5c-.1 0-.2.1-.2.2v.2c0 .1 0 .3.1.5 0 .1.1.1.2.2l.8.9h-2.3l-1.5-1.1c.1 0 .1-.1.1-.1.1 0 .1-.1.1-.2V19l.9-.9c.2-.1.2-.2.2-.3 0-.1-.1-.1-.2-.2 0 0-.3-.1-.3-.7v-.1h.6c.1 0 .1 0 .2-.1 0 0 1-1.3 1-1.4.1-.1.2-.1.2-.1l1.3-.1s.1 0 .1.1v.4c0 .1 0 .1-.1.1h-.5c-.2 0-.4.1-.5.2-.1.1-.1.2 0 .3.1.1.2.1.3.1.2 0 .3.1.4.1.1 0 .2-.1.2-.2s.1-.2.2-.2.1 0 .1.1c0 .2.1.5.1.7v.2c0 .1-.1.1-.1.1h-.1c-.1 0-.1 0-.2.1s-.1.1-.1.2l.1.2zM32 21.5h.1l2.7-.2c.1 0 .2-.1.2-.1V21l-.5-.5c.3.1.5.2.7.2.1 0 .4.3.6.6.2.3.4.6.5.9-.1.5-.2 1-.4 1.4l-1.2.9-2.6-1.8c-.1-.2-.7-1.1-1.3-1.7-.3-.3-.7-.4-1.2-.4h-.2c.1-.1.2-.1.3-.2.2-.1.3-.2.5-.2l1.8 1.3zm-2.3-.5c.4 0 .7.1.9.3.3.3.6.7.9 1s.4.6.4.6l.1.1 2.8 1.9c.1.1.2.1.3 0l3.5-2.7.2-.2c.1-.1.2-.2.3-.2.2-.1 1-.6 1.5-.6h.1c.2 0 .4 0 .5.1.1.1.1.1.1.3v.7c0 .1.1.2.2.2s.2 0 .2.2-.1.2-.2.2H41l-.6.2c-.2 0-.3.1-.5.1h-.2-.6c-.1 0-.1 0-.2.1 0 0-.4.6-.9 1.2-.5.7-1.1 1.4-1.5 1.8-.4.4-.7.7-1 .9l-.2.2s-.1.1-.2 0c-.3-.1-1.1-.4-1.9-.8-1.2-.5-2.7-1.2-3.9-1.8-.2-.1-.6-.4-1-.7l-.1-.1-.1-.1s0-.1-.1-.1v-.1-.1c0-.1-.1-.1-.1-.2v-.1c0-.1 0-.1-.1-.2V23v-.1-.2-.1-.1-.2-.1s0-.1.1-.1c0 0 0-.1.1-.1 0-.1.1-.1.1-.2.5-.5 1.1-.8 1.6-.8m7.3-3.5c0-.1 0-.1.1-.1.4.1.5.2.7.4.1.1.1.2.1.3v.1c0 .1.1.2.2.2h4.5c.1 0 .2-.1.2-.2 0 0 0-.2.2-.3.1-.1.3-.2.7-.3 0 0 .1 0 .1.1v2.9c0 1.2.3 2.1.6 3.1.3.9.6 1.9.6 3.1 0 .6-.1 1.3-.4 1.8-.2-.1-.4-.2-.5-.2H44c-.2 0-.3.1-.4.2l-.3.3v.1c0 .1 0 .2.1.3 0 0-.1.1-.2.1-.1.1-.2.1-.2.2-.1.1-.1.1-.2.3v.2c0 .1 0 .3.1.4-.7.4-1.6.6-2.6.6-1.5 0-2.7-.5-3.4-1.3-.5-.6-.9-1.3-1-2 .2-.2.6-.5 1.1-1.1l.3-.3c.2.6.5 1.1.9 1.4.6.5 1.4.8 2.2.8h.1c1.7 0 3-1.5 3.1-3.3 0-.8-.2-1.3-.3-2.1-.2-.8-.3-2-.3-4 0-.1 0-.1-.1-.2 0 0-.1-.1-.2-.1h-4.5c-.1 0-.1 0-.2.1 0 0-.1.1-.1.2 0 1.5-.1 2.4-.2 3.1l-1 .8c.1-.3.2-.6.2-.9.1-.4.1-.8.1-1.2v-3.5m6.4 12.8c-.1-.2-.2-.3-.2-.4v-.1l.3-.3.2-.2c.1 0 .1-.1.1-.2v-.2-.1-.2c.1-.1.2 0 .2 0 .1 0 .2.1.4.2s.4.3.5.4c.1.1.1.3.1.4 0 .1 0 .1-.1.2s-.8.7-.8.7c-.1.1-.4.2-.6.3-.1 0-.1.1-.2.1h-.1v-.1l.1-.1c0-.1.1-.1.1-.2.1-.1.1-.1 0-.2m.7 16.1s0 .1 0 0c-.1.1-1.7 1-1.7 1l-.2-16.3c.2-.1.4-.1.5-.2l1.4 15.5zM36.6 54l.6.8v.1c-.9.7-2.4 1.3-4.1 1.4.3-1.2 1.3-6.1 2-11 .8-5.1 1.1-9.9 1.2-10.9 0 0 .6 0 .7-.1.1 0 .1.1.1.1 0 .1-.7 19.3-.7 19.3.2.2.2.2.2.3m-8-19.2s1.5-5.2 1.5-5.3c0-.1.1-.1.1-.1s1.1-.3 1.3-.4c.2-.1.5-.1.5-.1l3.8-.2c.2.4.5.9.8 1.2.3.3.7.6 1.1.8v2.9s0 .1-.1.1-3.8.3-4.7.3c-.1 0-.3 0-.4.1-.1 0-3.4.9-3.4.9h-.2c-.1 0-.1-.1-.2-.1-.2.1-.1-.1-.1-.1M30 29c-.4-.5-1.4-2-1.8-4.7 0 0 0 .1.1.1.4.4.8.7 1.1.8 2.3 1.2 6.1 2.7 6.1 2.7 0 .2.1.3.1.5l-3.6.1s-.4 0-.7.1c-.3.1-1.1.4-1.2.4H30m7.7 5.3h.2c.1 0 .2-.1.2-.2v-3c.6.2 1.3.4 2.2.4.5 0 1-.1 1.5-.2l.2 18.6c0 .2 0 .9-.6 1.3-.7.5-2.2 1.3-4.2 1.3l.5-18.2zm-.1-8.4c.5-.7 1.1-1.5 1.5-1.9v3.9c-.2-.1-.4-.2-.6-.4-.5-.5-.8-1-.9-1.6m2 2v-4.3h.1c.1 0 .2 0 .3-.1h.1V28c-.1 0-.3 0-.5-.1m1 .2v-4.7c.2-.1.4-.1.5-.1h.1V28c-.2 0-.4.1-.6.1m1.5-5.7c0-.1-.1-.2-.2-.3h-.1v-.5c0-.1 0-.2-.1-.3v-1.9h.7c0 1.9.2 3 .3 3.9.2.9.3 1.4.3 2 0 .7-.3 1.4-.8 2-.2.2-.4.4-.7.5v-4.5h.1c.1 0 .1 0 .2-.1s.1-.2.1-.3v-.3c.2-.1.2-.2.2-.2m-.9-3v1.4c-.2-.1-.4-.1-.6-.1v-1.3h.6zm-1 0v1.4c-.2 0-.4.1-.6.2v-1.6h.6zm-1.1 0v1.8c-.2.1-.3.2-.3.2-.2.1-.5.4-.5.4.1-.6.1-1.4.1-2.4h.7zM20.8 50c.1-.1 6.3-7.2 6.3-7.2v-.1s1.8-6.8 1.9-6.9l.1-.1s3.3-.9 3.4-.9c.1 0 .3-.1.3-.1l1.8-.1c0 .2-.1.6-.1 1-.3 2.3-1.3 7.3-3.6 10-3.4 4.1-8.2 4.5-10 4.5 0-.1 0-.1-.1-.1s-.1 0 0 0m-.2.5h.3c1.8 0 6.7-.4 10.3-4.6 2.9-3.5 3.7-10.2 3.8-11.3l.9-.1c0 .5-.1 1.6-.3 3.1-.2 2-.5 4.8-.9 7.6s-1 5.6-1.4 7.7c-.3 1.6-.6 2.7-.7 3.2 0 0-.1.1-.2.1h-.8c-.8 0-1.7-.1-2.6-.2-.5-.1-.9-.2-1.3-.3-3.2-1-5.1-2.4-6.1-3.6-.5-.6-.9-1.1-1.1-1.5.2.1.1 0 .1-.1M34 56.7c1.3-.2 2.5-.7 3.4-1.3l.7.2H38.9c.2 0 .3.1.3.1v.1s0 .1-.1.2-.6.2-.8.3c-1.4.3-2.8.4-4.2.4H34m20.9-13.9c-1.1 2.7-2.8 5.1-4.9 7.2-2.1 2.1-4.5 3.7-7.2 4.8-1.1.4-2.1.8-3.2 1.1v-.5c0-.3-.3-.4-.5-.4h-1l-.3-.1v-.1c.1-.1.1-.2 0-.3l-.7-1v-.7c2.2-.1 3.8-.9 4.5-1.4.7-.5.8-1.4.8-1.6v-2l2.1-1.2c.1 0 .1-.1.1-.2l-1.4-15.1c.1 0 .3-.1.5-.2.3-.1.5-.2.7-.3.1-.1.8-.6.9-.8.1-.1.2-.3.2-.5s-.1-.5-.2-.6c-.1-.1-.2-.3-.3-.4.3-.6.4-1.3.4-2.1 0-1.3-.3-2.3-.6-3.2-.3-.9-.6-1.8-.6-2.9V17c0-.1 0-.1-.1-.2 0 0-.1-.1-.2-.1-.7 0-1.1.2-1.3.5-.1.1-.2.2-.2.3h-4.2c0-.1-.1-.2-.2-.4-.2-.3-.7-.5-1.3-.5-.1 0-.1 0-.2.1 0 0-.1.1-.1.2v4.2c-.1-.1-.2-.3-.3-.4-.3-.3-.5-.6-.9-.7-.3-.1-.8-.2-1.3-.4-.2-.1-.3-.1-.3-.2s0-.1-.1-.2h.3c.2 0 .4 0 .6-.1.2-.1.3-.2.4-.4v-.3-.2l.1-.2v-.2c.1 0 .1-.1.1-.2v-.2c.1 0 .1 0 .2-.1 0 0 .1 0 .1-.1 0 0 .1-.1.1-.2v-.4c0-.6-.1-1.5-.2-1.8.1-.1.3-.4.3-.7 0-.2-.1-.5-.3-.7-.2-.2-.5-.3-.9-.3-.2 0-1.1-.3-1.4-.3-.2 0-.5-.1-.8-.1-.5 0-1.2.1-2 .7-1 .8-1 2.1-1 2.7v.3c0 .1-.1.3-.1.6 0 .2 0 .4.1.6.1.6.5 1 .8 1.2.2.1.3.2.4.2v.4c-.2.1-1.3.6-2.5 1.4l-.2.2-12.2 12.7s-.1.1-.1.2 0 .1.1.2c0 0 .9.8 1.8 1.7.2.2.5.4.7.7l-2.3 3.1c-.2.2-.3.6-.3 1.1 0 1 .5 2.4 1.9 4.7 1.7 2.6 2.9 3.8 3.4 4.2l-.6.5s-.2.2-.4.5c-.1.1-.2.3-.3.4 0 0 0 .1-.1.1-.4-.4-.8-.7-1.2-1.1-2.1-2.1-3.7-4.5-4.8-7.2-1.2-2.8-1.8-5.7-1.8-8.8 0-3.1.6-6 1.8-8.8 1.1-2.7 2.8-5.1 4.8-7.2 2.1-2.1 4.5-3.7 7.2-4.8C28 12 31 11.4 34 11.4c3.1 0 6 .6 8.8 1.8 2.7 1.1 5.1 2.8 7.2 4.8 2.1 2.1 3.7 4.5 4.9 7.2 1.2 2.8 1.8 5.8 1.8 8.8 0 3.1-.6 6.1-1.8 8.8M7.6 36h.7c.2 0 .4.1.5.2.1.1.2.3.3.5.1.2.1.4.2.7v.6c0 .2-.1.4-.2.5-.1.2-.2.3-.4.4-.2.1-.6.2-.6.2H8l-2 .3s-.1 0-.1.1v.3s0 .1-.1.1h-.1s-.1 0-.1-.1l-.2-1.4s0-.1.1-.1h.1s.1 0 .1.1l.1.3.1.1 2.3-.3c.3 0 .5-.1.6-.3.1-.3.2-.5.2-.9 0-.3-.2-.6-.3-.7-.2-.1-.8-.1-.8-.1h-.1l-2.1.3s-.1 0-.1.1v.3s0 .1-.1.1h-.1s-.1 0-.1-.1L5.1 36s0-.1.1-.1h.1s.1 0 .1.1l.1.3.1.1 2-.4zM5.2 32.8s0-.1.1-.1L8.1 31l-2.4-.2s-.1 0-.1.1l-.1.3-.1.1h-.1s-.1 0-.1-.1l.1-1.2s0-.1.1-.1h.1s.1 0 .1.1v.3s0 .1.1.1l3.4.3s.1 0 .1.1v.3s0 .1-.1.1l-3.3 2 2.8.2s.1 0 .1-.1l.1-.3s0-.1.1-.1H9s.1 0 .1.1L9 34.2s0 .1-.1.1h-.1s-.1 0-.1-.1v-.3s0-.1-.1-.1l-3.1-.2s-.1 0-.1.1l-.1.3s0 .1-.1.1h-.1s-.1 0-.1-.1l.2-1.2zM6.3 26.4c.1 0 .1 0 0 0v.4s0 .1.1.1l3 .7h.1l.1-.3s.1-.1.1 0h.1s.1 0 .1.1l-.3 1.4s0 .1-.1 0h-.1s-.1 0-.1-.1v-.3s0-.1-.1-.1l-3-.7h-.1l-.1.3s-.1.1-.1 0h-.1s-.1 0-.1-.1l.3-1.3c.2-.1.2-.2.3-.1zM11 24.1v.1l-.2.4-.1.1-3.6-.2s-.1 0-.1.1l-.1.2h-.2s-.1-.1 0-.1l.5-1.2s.1-.1.1 0h.1l.1.1v.2s0 .1.1.1l2.9.2L8.4 22h-.1l-.3.2h-.2s-.1-.1 0-.1l.4-1.1s.1-.1.1 0h.1s.1.1 0 .1l-.1.3v.1l2.7 2.6zM18.3 14.1c.1 0 .2-.1.3-.1.1 0 .2-.1.2-.1.2-.2.3-.3.4-.5.1-.2 0-.3-.1-.5-.1-.1-.2-.2-.3-.2-.1 0-.2-.1-.3-.1h-.3c-.1 0-.2 0-.3.1-.2 0-.3 0-.5.1H17c-.1 0-.2 0-.3-.1-.1-.1-.2-.1-.3-.3-.1-.1-.2-.3-.2-.4v-.4c0-.1.1-.3.2-.4l.4-.4c.1 0 .1-.1.2-.1s.2-.1.2-.1c.1 0 .2-.1.3-.1.1 0 .2-.1.2-.1h.1l.1.1.3.5v.1l-.2.1h-.1l-.4-.3c-.1 0-.1 0-.2.1s-.2.1-.3.2c-.2.1-.3.3-.3.4 0 .2 0 .3.1.5.1.1.1.2.2.2s.2.1.3.1h.3c.1 0 .2 0 .3-.1.1 0 .3 0 .5-.1h.5c.1 0 .3 0 .4.1l.3.3c.1.2.2.4.2.5 0 .2 0 .3-.1.5-.1.1-.2.3-.3.4s-.2 0-.4.2c-.2.1-.3.2-.5.3l-.4.2H18l-.1-.1-.3-.5V14l.2-.1h.1l.4.2zM21.1 8.4v.1l-.2.2v.1l1.5 2.7s.1.1.1 0l.3-.1h.1v.2l-1.2.7h-.1v-.1-.1l.2-.2v-.1l-1.5-2.7s-.1-.1-.1 0l-.3.1h-.1v-.1V9l1.2-.7.1.1zM22.6 7.5s.1 0 0 0l2.9-1.1h.1l.1.1.3.6v.1l-.2.1h-.1l-.2-.3H25h-.1l-.3.1 1.1 3 .1.1h.3s.1 0 .1.1v.2l-1.3.5h-.1v-.1-.1l.3-.2v-.1l-1.1-3-.3.1s-.1 0-.1.1l-.3.1-.1.1v.4s0 .1-.1.1l-.2.1h-.1l-.2-.6v-.4M29.6 7.9l-1.3.2-.2 1.2s0 .1.1.1h.3s.1 0 .1.1v.1s0 .1-.1.1l-1.1.2s-.1 0-.1-.1v-.1s0-.1.1-.1l.2-.1.1-.1.7-3.7s0-.1.1-.1l.5-.1h.1l1.8 3.2.1.1h.2s.1 0 .1.1V9s0 .1-.1.1l-1.2.3s-.1 0-.1-.1v-.1s0-.1.1-.1l.2-.1v-.1l-.6-1zm-.9-1.6l-.3 1.6 1.1-.2-.8-1.4zM33.2 8.7c.1 0 .2.1.3.1h.3c.3 0 .5-.1.6-.2.1-.1.2-.3.2-.5 0-.1 0-.2-.1-.3-.1-.1-.1-.2-.2-.2-.1-.1-.2-.1-.3-.2-.1 0-.2-.1-.3-.2-.2-.1-.3-.2-.4-.2-.2 0-.3-.1-.4-.2-.1-.1-.2-.2-.2-.3 0-.1-.1-.2-.1-.4s0-.3.1-.4l.3-.3c.1-.1.3-.2.5-.2s.4-.1.6-.1h.6c.1 0 .2 0 .3.1H35.3v.1l-.2.7s0 .1-.1.1h-.2s-.1 0-.1-.1l-.1-.5c-.1 0-.1-.1-.2-.1h-.3c-.2 0-.4.1-.5.2-.1.1-.2.2-.2.4 0 .1 0 .2.1.3 0 .1.1.1.2.2s.2.1.2.1c.1 0 .2.1.3.1 0 .2.1.3.3.3.1.1.3.2.4.2l.3.3c.1.1.1.3.1.4 0 .2-.1.4-.1.5-.1.1-.2.3-.3.3-.1.1-.3.1-.5.2-.2 0-.4.1-.6.1h-.6c-.2 0-.4-.1-.4-.1h-.1v-.1l.1-.6s0-.1.1-.1h.2s.1 0 .1.1v.5zM43.1 10.3c-.4.2-.9.2-1.5.1-.3-.1-.5-.2-.7-.4-.2-.2-.3-.3-.4-.5-.1-.2-.2-.4-.2-.7 0-.3 0-.5.1-.8.1-.3.2-.6.4-.8.2-.2.3-.4.6-.5.2-.1.4-.2.7-.2.2 0 .5 0 .8.1.3.1.5.2.7.4.2.2.3.3.4.5.1.2.2.4.2.7 0 .3 0 .5-.1.9-.2.5-.5 1-1 1.2m.4-2.8c-.1-.3-.3-.5-.7-.7-.3-.1-.7-.1-.9.1s-.5.6-.7 1.1c-.2.6-.2 1-.1 1.3.1.3.3.5.7.7.3.1.7.1.9-.1s.5-.6.7-1.1c.1-.5.2-1 .1-1.3M45.4 11.4l.2.2c.1.1.2.1.2.2.2.1.4.2.6.1.2 0 .3-.1.4-.3.1-.1.1-.2.1-.3 0-.1 0-.2-.1-.3 0-.1-.1-.2-.2-.3-.1-.1-.1-.2-.2-.3-.1-.1-.2-.3-.3-.4-.1-.1-.1-.2-.2-.4 0-.1-.1-.2 0-.3 0-.1.1-.2.1-.4.1-.1.2-.3.3-.3.1-.1.3-.1.4-.1h.5c.2 0 .4.1.6.2.1 0 .1.1.2.1.2.1.3.2.4.2l.2.2.1.1v.2l-.4.5h-.1l-.2-.1s-.1-.1 0-.1l.1-.5c0-.1-.1-.1-.1-.2-.1 0-.2-.1-.3-.1-.2-.1-.4-.1-.5-.1s-.3.1-.4.2c-.1.1-.1.2-.1.3 0 .1 0 .2.1.3 0 .1.1.2.1.2.1.1.1.2.2.3.1.1.2.2.3.4.1.1.2.3.2.4.1.1.1.3.1.4 0 .1 0 .3-.1.4-.1.2-.2.3-.4.4-.1.1-.3.1-.5.1s-.3 0-.5-.1-.4-.1-.6-.2c-.2-.1-.3-.2-.5-.3-.2-.1-.3-.3-.3-.3v-.1-.1l.3-.5h.1l.2.1s.1.1 0 .1v.5zM49.4 13.9c0 .1 0 .1 0 0l.5.5.1.1.3.2h.1l.3-.2h.1l.2.2v.1l-.4.5-.1.1h-.1l-2.1-1.6v-.1l.1-.1h.1l.3.1h.1l1.9-2.4v-.1l-.2-.2v-.1l.1-.1h.1l1.1.9v.1l-.1.1h-.1l-.3-.1h-.1l-1.9 2.1zM54 18.3c-.5 0-.9-.3-1.3-.7-.2-.2-.3-.4-.4-.7-.1-.2-.1-.5-.1-.7 0-.2.1-.5.2-.7.1-.2.3-.4.6-.7.2-.2.5-.4.7-.5.2-.1.5-.1.7-.1.2 0 .5.1.7.2.2.1.4.3.6.5.2.2.3.4.4.7.1.2.1.5.1.7s-.1.5-.2.7c-.1.2-.3.4-.6.7-.5.4-1 .6-1.4.6m1.7-2.2c.1-.3 0-.6-.2-.9-.2-.3-.5-.4-.9-.4-.3 0-.7.2-1.1.6-.4.4-.7.7-.8 1.1-.1.3 0 .6.2.9.2.3.5.4.9.4.3 0 .7-.2 1.1-.6.5-.5.7-.8.8-1.1M57.3 20.7v-.1l-.4-.7-1.4.8.4.8.1.1.2.3h.1l.4-.1h.1l.1.2v.1l-.6.3h-.1-.1L54.7 20v-.1h.2l.2.2h.1l2.7-1.6v-.1l-.1-.3V18h.2l1.4 2.3v.1s0 .1-.1.1l-.6.4h-.1l-.1-.2v-.1l.3-.3v-.1l-.1-.3s0-.1-.1-.1l-.3-.8-1.2.7.4.7h.1l.3-.1h.1l.1.2v.1l-.9.5h-.1L57 21v-.1l.3-.2zM11.8 19h-.1l-.5.7 1.4.9.5-.7.1-.1.2-.3v-.1l-.4-.3V19l.1-.2h.1l.5.4s.1 0 .1.1v.1l-1.5 2.4h-.2v-.1l.1-.3v-.1l-2.6-1.7h-.1l-.2.2h-.2v-.1l1.5-2.3.1-.1h.1l.6.3v.1l-.1.2h-.1l-.4-.1h-.1l-.2.2-.1.1-.4.7 1.2.8.4-.7v-.1l-.2-.2v-.1l.1-.2h.1l.9.6v.1l-.1.2h-.1l-.5-.2zM61 23.7v.1l-2 2.7 2.3-.8.1-.1v-.3s0-.1.1-.1h.2l.4 1.1v.1H62h-.1l-.1-.3h-.1l-3.2 1.1h-.1L58 27v-.1l2.3-3.1-2.7.9-.1.1v.3s0 .1-.1.1h-.1-.1L57 24v-.1h.2l.1.3s.1.1.1 0l2.9-1 .1-.1v-.3s0-.1.1-.1h.2l.3 1zM58.9 29.6v.6c0 .3.1.5.3.6.1.1.3.2.5.1.1 0 .2-.1.3-.1l.2-.2c.1-.1.1-.2.1-.3 0-.1.1-.2.1-.3.1-.2.1-.3.2-.4.1-.1.1-.2.2-.3l.2-.2c.1-.1.2-.1.4-.1h.4c.1 0 .3.1.4.2.1.1.2.3.3.4.1.2.1.4.1.6v1.2h-.7s-.1 0-.1-.1v-.2s0-.1.1-.1l.4-.2c0-.1 0-.1.1-.2v-.3c0-.2-.1-.4-.2-.5-.1-.1-.3-.2-.5-.1-.1 0-.2.1-.3.1l-.2.2c0 .1-.1.2-.1.3 0 .1-.1.2-.1.3-.1.1-.1.3-.2.4-.1.2-.1.3-.2.4l-.3.3c-.1.1-.2.1-.4.2-.2 0-.4 0-.6-.1-.2-.1-.3-.2-.4-.3s-.2-.3-.2-.5c-.1-.2-.1-.4-.1-.6v-.6-.4-.1h.7s.1 0 .1.1v.2s0 .1-.1.1l-.4-.1zM62.6 34.8l-.1-.4s0-.1-.1-.1h-3.1s-.1 0-.1.1l-.1.3s0 .1-.1.1h-.1s-.1 0-.1-.1v-1.4s0-.1.1-.1h.1s.1 0 .1.1l.1.3s0 .1.1.1h3.1s.1 0 .1-.1l.1-.3s0-.1.1-.1h.1s.1 0 .1.1v1.4c-.1.1-.1.1-.3.1zM59.1 37.2c0 .1-.1.2-.1.3 0 .1-.1.2-.1.3 0 .3 0 .5.1.6.1.2.2.3.4.3h.3c.1 0 .2-.1.3-.2.1-.1.2-.2.2-.3.1-.1.1-.2.2-.3.1-.1.2-.3.3-.4l.3-.3c.1-.1.2-.1.3-.2h.4c.2 0 .3.1.4.2l.3.3c.1.1.1.3.1.5v.6c0 .1 0 .2-.1.3 0 .1-.1.2-.1.3 0 .1-.1.2-.1.3s-.1.2-.1.2 0 .1-.1.1h-.1l-.6-.2-.1-.1v-.2s0-.1.1-.1h.5s.1-.1.1-.2.1-.2.1-.3c0-.2 0-.4-.1-.6-.1-.1-.2-.2-.4-.3h-.3c-.1 0-.2.1-.2.1l-.2.2c-.1.1-.1.2-.2.3-.1.1-.2.2-.3.4l-.3.3c-.1.1-.2.2-.4.2-.1.1-.3.1-.4 0-.2 0-.4-.1-.5-.2-.1-.1-.2-.2-.3-.4-.1-.2-.1-.3-.1-.5v-.6c0-.2.1-.4.1-.6l.2-.4v-.1h.1l.6.2s.1 0 .1.1v.2s0 .1-.1.1l-.2.1zM17.4 57.1h.1l1.6-2.3-3 1.7H16l-.1-.1v-.1l.9-3.2L15 55v.1l.2.2v.1l-.1.1H15l-.9-.8v-.1l.1-.1h.1l.3.2h.1l2-2.3v-.1l-.2-.2V52l.1-.1h.1l.9.7v.1l-.7 2.8 2.5-1.4h.1l.9.7v.1l-.1.1h-.4-.1l-1.7 2.5v.1l.2.2v.1l-.1.1h-.1l-1.1-.9V57l.1-.1h.1l.2.2zM24.1 56.9c.3.1.5.3.7.5.2.2.4.4.5.6.1.2.1.5.1.7 0 .3-.1.6-.3.9-.2.3-.3.5-.5.7-.2.2-.4.3-.7.4-.2.1-.5.1-.8 0-.3 0-.8-.3-.8-.3s-.1 0-.1-.1l-1.3-.7v-.2s.1-.1.1 0l.3.1h.1l1.4-2.7v-.1l-.2-.2v-.2h.1l1.4.6zm.6 1.6v-.6c0-.2-.1-.3-.3-.5-.1-.1-.5-.3-.5-.3l-.1-.1-.4-.2-1.4 3 .3.2c.2.1.3.1.5.2.1 0 .3.1.4.1.2 0 .4-.1.6-.3.2-.2.4-.4.6-.8.2-.3.3-.5.3-.7M30.7 59.6v-.2c0-.1 0-.2-.2-.2l-.1-.1c-.1 0-.2-.1-.3-.1h-.5c-.2 0-.3.1-.5.2-.1.1-.2.3-.3.5s-.2.4-.2.7c-.1.6-.1 1 .1 1.3.2.3.5.5.9.6h.9c.1 0 .1.1.1.1v.1s0 .1-.1.1c-.1.1-.3.1-.5.1h-.7c-.3 0-.5-.1-.7-.2-.2-.1-.4-.3-.5-.4-.1-.2-.2-.4-.3-.7v-.9l.3-.9c.1-.2.3-.4.5-.5.2-.1.4-.2.7-.2h.8c.2 0 .4.1.5.2.1 0 .2.1.3.1.1.1.1.2.1.2v.3s0 .1-.1.1h-.1s-.1-.1-.1-.2M36.5 59.7c0-.1 0-.1-.1-.2 0-.1-.1-.1-.2-.2h-.5c-.2 0-.4.1-.5.1-.2.1-.3.2-.4.3-.1.1-.2.3-.2.5s-.1.4 0 .7c0 .6.2 1 .4 1.2.2.3.6.4 1.1.3.1 0 .3 0 .4-.1.1 0 .3-.1.4-.1h.1v.2c-.1.1-.3.2-.5.2-.2.1-.4.1-.7.1-.3 0-.5 0-.7-.1l-.6-.3c-.2-.1-.3-.3-.4-.6-.1-.2-.2-.5-.2-.9s0-.7.1-.9c.1-.3.2-.5.4-.7.2-.2.4-.3.6-.4.2-.1.5-.2.8-.2h.6c.1 0 .2 0 .4.1.2 0 .1.2.1.2v.5s0 .1-.1.1h-.1s-.1.3-.2.2M42.2 58.5c-.1-.1-.1-.1-.1-.2-.1-.1-.1-.1-.2-.1h-.5c-.2.1-.3.1-.5.2-.1.1-.2.2-.3.4-.1.2-.1.3-.1.6 0 .2 0 .4.1.7.2.5.4.9.7 1.1s.7.2 1.1.1c.1 0 .3-.1.4-.2.1-.1.2-.1.4-.2h.1v.2c-.1.1-.2.2-.4.3-.2.1-.4.2-.7.3-.2.1-.5.1-.7.1-.2 0-.5-.1-.7-.2-.2-.1-.4-.3-.5-.5-.2-.2-.3-.5-.4-.8-.1-.3-.1-.7-.1-.9 0-.3.1-.5.2-.7.1-.2.3-.4.5-.5.2-.1.5-.3.8-.3.2-.1.4-.1.6-.1h.4c.2 0 .2.1.2.1l.1.5s0 .1-.1.1h-.1s-.1.1-.2 0M47 57.6l-1.7-.8h-.1l-.3.1h-.1v-.1-.1L46 56h.1v.2l-.1.1v.1l1.2.6.1-1.4s0-.1-.1 0l-.2.1h-.1v-.1-.1l1-.6h.1v.2l-.2.2-.1.1-.2 1.7 1.9.9h.1l.3-.1h.1v.2l-1.2.7h-.1v-.1-.1l.2-.1v-.1l-1.4-.7-.2 1.6s0 .1.1 0l.2-.1h.1v.2l-1 .6h-.1v-.1-.1l.2-.2.1-.1.2-1.9zM51.2 52.4v.1l-.2.2v.1l2 2.3h.1l.3-.2h.1l.1.1v.1l-1 .9h-.1l-.1-.1v-.1l.2-.2v-.1l-2-2.3h-.1l-.3.2H50v-.1l1-.9c.1-.1.1-.1.2 0zM16.5 16.2h.1l.6-.6v-.1l-.1-.1H17l-.2.2h-.1l-1.7-.3s-.1 0 0-.1c0 0 .2-.5.2-.7 0-.2-.1-.5-.3-.7-.1-.1-.3-.2-.4-.2h-.4c-.1.1-.3.1-.4.2l-.3.3-.1.1-1 1.1v.1l.1.1h.1l.2-.2h.1l2.2 2.1v.1l-.2.3v.1l.1.1h.1l1-1v-.1l-.1-.1h-.1l-.4.2h-.1l-1-1 .2-.2h.1l1.9.4zm-2.4-.4c0 .1 0 .1 0 0l-1.2-1 .2-.2.1-.1.2-.2c.1-.1.2-.1.3-.1h.3c.1 0 .2.1.3.2.2.2.3.4.3.6 0 .2-.3.5-.3.5l-.1.1-.1.2z"/></g><g><defs><path id="e" d="M76.5 17h172.9v34H76.5z"/></defs><clipPath id="f"><use xlink:href="#e" overflow="visible"/></clipPath><path clip-path="url(#f)" d="M76.5 17.8v-.3h6.3v.3c-1.8.2-1.8.4-1.8 2.4v5.4c0 3 1 4.6 3.6 4.6 2.8 0 3.7-1.9 3.8-4.8v-5.3c0-1.9 0-2.2-1.9-2.4v-.3h4.6v.3c-1.8.2-1.9.5-1.9 2.4v5.3c0 4.1-1.9 5.9-5.3 5.9-3.8 0-5.5-1.9-5.5-5.4v-5.7c0-1.9 0-2.2-1.9-2.4M101.6 17.8v-.3h4.6v.3c-1.8.2-1.9.5-1.9 2.4v10.9h-1.6l-8-10.4v7.6c0 1.9 0 2.2 1.9 2.4v.3H92v-.3c1.8-.2 1.9-.5 1.9-2.4v-8.8l-.3-.4c-.7-.9-1-1.2-1.5-1.4v-.3h3.5l8 10.3v-7.5c-.2-1.9-.2-2.2-2-2.4M111.8 28.4c0 1.9 0 2.2 1.9 2.4v.3h-6.3v-.3c1.8-.2 1.9-.5 1.9-2.4v-8.2c0-1.9 0-2.2-1.9-2.4v-.3h6.3v.3c-1.8.2-1.9.5-1.9 2.4v8.2zM116.6 19.6c-.5-1.4-.8-1.7-1.9-1.8v-.3h5.8v.3c-1.2.1-1.5.5-1.2 1.4l3.3 9.1 2.3-6.7c1.2-3.5.7-3.7-.8-3.8v-.3h4.4v.3c-1.3.1-1.5.4-2.4 3.2l-3.6 10.1H121l-4.4-11.5zM136.4 31.1h-7v-.3c1.8-.2 1.9-.5 1.9-2.4v-8.2c0-1.9 0-2.2-1.9-2.4v-.3h6.8c1.3 0 3 0 4.4-.1l.5 4.5h-.4c-.9-3.2-2.2-3.8-5.9-3.8h-1v5.5h2.2c1.1 0 1.8-.5 1.9-2.1h.3v5h-.2c-.2-1.6-.9-2.1-1.9-2.1h-2.2v5.2c0 .7.1.8 1 .8h.7c3.4 0 4.6-.8 5.7-3.8h.4l-.8 4.5h-4.5M143.3 30.8c1.8-.2 1.9-.5 1.9-2.4v-8.2c0-1.9 0-2.2-1.9-2.4v-.3h5.8c3.5 0 6.2.9 6.2 3.6 0 1.8-1.4 2.9-3.4 3.4l2.9 4.5c.9 1.3 1.1 1.7 2.5 1.8v.3h-4.2c-.4-.7-.9-1.7-1.6-2.8l-.8-1.3c-.8-1.2-1.2-1.9-1.6-2.4h-1.4v3.7c0 1.9 0 2.2 2.1 2.4v.3h-6.5v-.2zm5.7-12.7h-1.3V24h1.3c2.2 0 3.4-.8 3.4-3s-1.2-2.9-3.4-2.9M158.8 30.3v-4.6h.4c.5 3.5 1.9 4.9 4.2 4.9 1.7 0 3-.8 3-2.5 0-1.3-1-1.9-2.5-2.7l-1.7-.8c-2-.9-3.3-2.2-3.3-4 0-2.2 2.1-3.7 4.7-3.7 1.4 0 3.1.4 4.1.9v3.9h-.4c-.5-2.7-1.8-4.1-3.7-4.1-1.5 0-2.6.7-2.6 2s.9 1.9 1.9 2.4l2 .9c2.1 1 3.7 2 3.7 4.1 0 2.5-2.4 4.2-5.2 4.2-1.9.1-3.5-.3-4.6-.9M174.7 28.4c0 1.9 0 2.2 1.9 2.4v.3h-6.3v-.3c1.8-.2 1.9-.5 1.9-2.4v-8.2c0-1.9 0-2.2-1.9-2.4v-.3h6.3v.3c-1.8.2-1.9.5-1.9 2.4v8.2zM181.5 30.8c2-.2 2.1-.5 2.1-2.4V18.1h-.5c-2.6 0-3.8 1.3-4.7 4.4h-.4l.6-5c1.4.1 3.2.1 4.5.1h3.5c1.3 0 3.1 0 4.5-.1l.6 5h-.4c-.9-3-2-4.4-4.7-4.4h-.5v10.3c0 1.9.1 2.2 2.1 2.4v.3h-6.7v-.3zM200.1 31.1h-7v-.3c1.8-.2 1.9-.5 1.9-2.4v-8.2c0-1.9 0-2.2-1.9-2.4v-.3h6.8c1.3 0 3 0 4.4-.1l.5 4.5h-.4c-.9-3.2-2.2-3.8-5.9-3.8h-1v5.5h2.2c1.1 0 1.8-.5 1.9-2.1h.3v5h-.3c-.2-1.6-.9-2.1-1.9-2.1h-2.2v5.2c0 .7.1.8 1 .8h.7c3.4 0 4.6-.8 5.7-3.8h.4l-.8 4.5h-4.4M210.4 30.8c2-.2 2.1-.5 2.1-2.4V18.1h-.5c-2.6 0-3.8 1.3-4.7 4.4h-.4l.6-5c1.5.1 3.2.1 4.5.1h3.5c1.3 0 3.1 0 4.5-.1l.6 5h-.4c-.9-3-2-4.4-4.7-4.4h-.5v10.3c0 1.9.1 2.2 2.1 2.4v.3h-6.7v-.3zM229 31.1h-7v-.3c1.8-.2 1.9-.5 1.9-2.4v-8.2c0-1.9 0-2.2-1.9-2.4v-.3h6.8c1.3 0 3 0 4.4-.1l.5 4.5h-.4c-.9-3.2-2.2-3.8-5.9-3.8h-1v5.5h2.2c1.1 0 1.8-.5 1.9-2.1h.3v5h-.3c-.2-1.6-.9-2.1-1.9-2.1h-2.2v5.2c0 .7.1.8 1 .8h.7c3.4 0 4.6-.8 5.7-3.8h.4l-.8 4.5H229M239.2 30.8c2-.2 2.1-.5 2.1-2.4V18.1h-.5c-2.6 0-3.8 1.3-4.7 4.4h-.4l.6-5c1.5.1 3.2.1 4.5.1h3.5c1.3 0 3.1 0 4.5-.1l.6 5h-.4c-.9-3-2-4.4-4.7-4.4h-.5v10.3c0 1.9.1 2.2 2.1 2.4v.3h-6.7v-.3zM81.3 48c0 1.9 0 2.2 1.9 2.4v.3h-6.3v-.3c1.8-.2 1.9-.5 1.9-2.4v-8.2c0-1.9 0-2.2-1.9-2.4v-.3h6.3v.3c-1.8.2-1.9.5-1.9 2.4V48zM97.1 36.7c3.7 0 7.2 2.5 7.2 7.1 0 4.7-3.5 7.1-7.2 7.1s-7.2-2.5-7.2-7.1 3.5-7.1 7.2-7.1m0 .7c-2.6 0-4.3 2.5-4.3 6.4 0 4 1.7 6.4 4.3 6.4 2.6 0 4.3-2.5 4.3-6.4 0-3.9-1.7-6.4-4.3-6.4M106.8 50v-4.6h.4c.5 3.5 1.9 4.9 4.2 4.9 1.7 0 3-.8 3-2.5 0-1.3-1-1.9-2.5-2.7l-1.7-.8c-2-.9-3.3-2.2-3.3-4 0-2.2 2.1-3.7 4.7-3.7 1.4 0 3.1.4 4.1.9v3.9h-.4c-.5-2.7-1.8-4.1-3.7-4.1-1.5 0-2.6.7-2.6 2s.9 1.9 1.9 2.4l2 .9c2.1 1 3.7 2 3.7 4.1 0 2.5-2.4 4.2-5.2 4.2-1.9.1-3.5-.3-4.6-.9M118.3 50.4c1.8-.2 1.9-.5 1.9-2.4v-8.2c0-1.9 0-2.2-1.9-2.4v-.3h6.3v.3c-1.8.2-1.9.5-1.9 2.4v9.5c0 .6.2.8.8.8h.6c3.4 0 4.3-.8 5.3-4.1h.4l-.6 4.7h-10.9v-.3zM138.4 36.7c3.7 0 7.2 2.5 7.2 7.1 0 4.7-3.5 7.1-7.2 7.1s-7.2-2.5-7.2-7.1 3.5-7.1 7.2-7.1m0 .7c-2.6 0-4.3 2.5-4.3 6.4 0 4 1.7 6.4 4.3 6.4 2.6 0 4.3-2.5 4.3-6.4s-1.7-6.4-4.3-6.4"/></g></svg>