<?xml version="1.0" encoding="UTF-8" standalone="no"?>
<svg
   xmlns:dc="http://purl.org/dc/elements/1.1/"
   xmlns:cc="http://creativecommons.org/ns#"
   xmlns:rdf="http://www.w3.org/1999/02/22-rdf-syntax-ns#"
   xmlns:svg="http://www.w3.org/2000/svg"
   xmlns="http://www.w3.org/2000/svg"
   viewBox="0 0 258.51999 90.708664"
   height="90.708664"
   width="258.51999"
   xml:space="preserve"
   id="svg2"
   version="1.1"><metadata
     id="metadata8"><rdf:RDF><cc:Work
         rdf:about=""><dc:format>image/svg+xml</dc:format><dc:type
           rdf:resource="http://purl.org/dc/dcmitype/StillImage" /></cc:Work></rdf:RDF></metadata><defs
     id="defs6"><clipPath
       id="clipPath18"
       clipPathUnits="userSpaceOnUse"><path
         id="path16"
         d="M 2.835,2.835 H 65.197 V 65.197 H 2.835 Z" /></clipPath><clipPath
       id="clipPath124"
       clipPathUnits="userSpaceOnUse"><path
         id="path122"
         d="m 74.835,0 h 114.52 V 51.024 H 74.835 Z" /></clipPath></defs><g
     transform="matrix(1.3333333,0,0,-1.3333333,0,90.708667)"
     id="g10"><g
       id="g12"><g
         clip-path="url(#clipPath18)"
         id="g14"><g
           transform="translate(44.4819,4.4447)"
           id="g20"><path
             id="path22"
             style="fill:#000000;fill-opacity:1;fill-rule:nonzero;stroke:none"
             d="m 0,0 c 0.24,0.601 1.8,4.687 2.233,10.607 0,0 0.052,0.993 0.007,1.742 -0.061,1.067 -0.111,2.798 -0.954,4.717 -1.278,2.905 -3.627,5.27 -8.125,8.986 l -3.538,2.909 c -8.332,6.839 -10.219,11.712 -10.219,17.056 0,8.411 6.288,14.149 16.272,14.149 3.064,0 5.344,-0.313 7.311,-0.786 1.492,-0.314 2.121,-0.393 2.749,-0.393 0.631,0 0.788,-0.156 0.788,-0.551 0,-0.391 -0.315,-2.986 -0.315,-8.331 0,-1.259 -0.157,-1.808 -0.551,-1.808 -0.472,0 -0.55,0.395 -0.631,1.022 -0.077,0.943 -0.548,3.066 -1.02,3.932 -0.468,0.864 -2.595,4.164 -9.826,4.164 -5.423,0 -9.666,-3.378 -9.666,-9.118 0,-4.48 2.043,-7.31 9.59,-13.205 l 2.2,-1.73 C 5.579,26.052 7.78,21.18 7.78,14.89 7.78,11.682 5.412,3.843 0.04,-0.028 0.016,-0.043 -0.021,-0.051 0,0" /></g><g
           transform="translate(27.6247,5.1799)"
           id="g24"><path
             id="path26"
             style="fill:#000000;fill-opacity:1;fill-rule:nonzero;stroke:none"
             d="m 0,0 c 0.013,-0.012 0.011,-0.024 0.002,-0.037 -1.079,-1.439 -4.489,-2.101 -6.466,-2.101 -1.678,0 -4.718,0.093 -7.027,2.184 -1.615,1.456 -2.818,3.797 -2.818,8.388 v 4.623 c 0,4.811 0,5.698 -0.062,6.71 -0.062,1.077 -0.318,1.583 -1.362,1.805 -0.254,0.063 -0.791,0.095 -1.234,0.095 -0.349,0 -0.539,0.063 -0.539,0.284 0,0.222 0.222,0.285 0.696,0.285 1.679,0 3.672,-0.094 4.622,-0.094 0.76,0 2.755,0.094 3.893,0.094 0.476,0 0.698,-0.063 0.698,-0.285 0,-0.221 -0.192,-0.284 -0.507,-0.284 -0.348,0 -0.538,-0.032 -0.917,-0.095 -0.857,-0.159 -1.107,-0.697 -1.172,-1.805 -0.062,-1.012 -0.062,-1.899 -0.062,-6.71 V 8.625 c 0,-4.589 0.911,-6.528 2.466,-7.787 1.334,-1.079 2.479,-1.338 3.435,-1.575 1.973,-0.488 4.97,-0.399 6.316,0.733 C -0.029,0.005 -0.012,0.013 0,0" /></g><g
           transform="translate(27.082,19.8)"
           id="g28"><path
             id="path30"
             style="fill:#000000;fill-opacity:1;fill-rule:nonzero;stroke:none"
             d="m 0,0 c 0,3.982 0,4.716 -0.052,5.554 -0.052,0.892 -0.314,1.335 -0.89,1.467 -0.289,0.079 -0.628,0.105 -0.944,0.105 -0.261,0 -0.42,0.052 -0.42,0.264 0,0.155 0.211,0.209 0.631,0.209 0.994,0 2.644,-0.08 3.405,-0.08 0.656,0 2.202,0.08 3.197,0.08 0.34,0 0.549,-0.054 0.549,-0.209 C 5.476,7.178 5.319,7.126 5.057,7.126 4.794,7.126 4.586,7.1 4.273,7.047 3.566,6.917 3.355,6.472 3.305,5.554 3.25,4.716 3.25,3.982 3.25,0 v -4.612 c 0,-2.542 0,-3.281 0.105,-4.406 0.078,-0.708 0.263,-1.181 1.048,-1.285 0.369,-0.052 0.943,-0.105 1.336,-0.105 0.288,0 0.419,-0.078 0.419,-0.21 0,-0.183 -0.209,-0.263 -0.497,-0.263 -1.729,0 -3.379,0.08 -4.087,0.08 -0.605,0 -2.255,-0.08 -3.301,-0.08 -0.341,0 -0.526,0.08 -0.526,0.263 0,0.132 0.106,0.21 0.419,0.21 0.395,0 0.709,0.053 0.944,0.105 0.524,0.104 0.682,0.551 0.76,1.311 C 0,-7.893 0,-7.154 0,-4.612 V 0" /></g><g
           transform="translate(75.2675,40.3692)"
           id="g32"><path
             id="path34"
             style="fill:#000000;fill-opacity:1;fill-rule:nonzero;stroke:none"
             d="m 0,0 c 0,-1.273 -0.074,-2.454 -0.939,-3.485 -0.861,-1.031 -2.152,-1.423 -3.465,-1.423 -1.255,0 -2.586,0.262 -3.446,1.237 C -8.786,-2.623 -8.864,-1.329 -8.864,0 V 8.131 H -7.25 V 0 c 0,-0.767 0.018,-1.817 0.486,-2.493 0.525,-0.766 1.612,-0.992 2.492,-0.992 0.825,0 1.76,0.262 2.305,0.918 C -1.35,-1.838 -1.35,-0.881 -1.35,0 V 8.131 H 0 Z" /></g><g
           transform="translate(80.1556,43.4039)"
           id="g36"><path
             id="path38"
             style="fill:#000000;fill-opacity:1;fill-rule:nonzero;stroke:none"
             d="m 0,0 h 0.039 c 0.543,1.181 1.611,2.006 2.959,2.006 1.142,0 2.099,-0.487 2.7,-1.481 0.486,-0.806 0.448,-2.079 0.448,-3.018 V -7.757 H 4.684 v 5.883 c 0,0.565 0.021,1.273 -0.261,1.761 C 4.104,0.43 3.41,0.75 2.791,0.75 2.024,0.75 1.332,0.392 0.825,-0.206 0.206,-0.954 0.077,-1.818 0.077,-2.773 v -4.984 h -1.462 v 9.518 l 1.385,0 z" /></g><path
           id="path40"
           style="fill:#000000;fill-opacity:1;fill-rule:nonzero;stroke:none"
           d="m 89.691,48.5 h 1.611 v -1.647 h -1.611 z m 0.075,-3.335 h 1.462 v -9.517 h -1.462 z" /><g
           transform="translate(98.3461,35.6465)"
           id="g42"><path
             id="path44"
             style="fill:#000000;fill-opacity:1;fill-rule:nonzero;stroke:none"
             d="m 0,0 h -1.534 l -3.392,9.518 h 1.629 l 2.66,-7.736 2.603,7.736 h 1.313 z" /></g><g
           transform="translate(111.4038,38.2508)"
           id="g46"><path
             id="path48"
             style="fill:#000000;fill-opacity:1;fill-rule:nonzero;stroke:none"
             d="m 0,0 c -0.562,-1.741 -2.23,-2.79 -4.048,-2.79 -2.884,0 -4.365,2.284 -4.365,4.947 0,2.622 1.558,5.002 4.404,5.002 2.96,0 4.233,-2.475 4.159,-5.116 h -6.913 c 0,-0.749 0.037,-1.442 0.394,-2.154 0.45,-0.9 1.443,-1.441 2.434,-1.441 1.238,0 2.138,0.711 2.548,1.833 z m -1.462,3.129 c 0.021,1.576 -0.861,2.903 -2.547,2.903 -1.594,0 -2.622,-1.404 -2.679,-2.903 z" /></g><g
           transform="translate(115.7318,45.1646)"
           id="g50"><path
             id="path52"
             style="fill:#000000;fill-opacity:1;fill-rule:nonzero;stroke:none"
             d="m 0,0 v -2.23 h 0.037 c 0.451,1.295 1.254,2.494 2.791,2.494 L 3.372,0.224 V -1.18 H 3.073 C 1.947,-1.18 1.16,-1.723 0.619,-2.678 0.224,-3.371 0.15,-3.972 0.15,-4.72 V -9.517 H -1.312 V 0 Z" /></g><g
           transform="translate(122.2312,38.4568)"
           id="g54"><path
             id="path56"
             style="fill:#000000;fill-opacity:1;fill-rule:nonzero;stroke:none"
             d="m 0,0 c 0.205,-1.292 1.723,-1.779 2.864,-1.779 1.013,0 2.306,0.359 2.306,1.573 0,1.013 -1.03,1.294 -1.855,1.444 L 1.76,1.518 C 0.3,1.8 -1.031,2.475 -1.031,4.161 c 0,1.967 1.818,2.792 3.561,2.792 1.703,0 3.297,-0.639 3.763,-2.401 L 4.944,4.272 c -0.374,1.052 -1.347,1.5 -2.435,1.5 -0.862,0 -2.022,-0.338 -2.022,-1.387 0,-1.03 0.862,-1.256 1.705,-1.386 L 3.576,2.755 C 4.269,2.625 4.984,2.493 5.563,2.101 6.314,1.592 6.706,0.807 6.706,-0.055 c 0,-2.154 -2.099,-2.941 -3.952,-2.941 -1.856,0 -3.693,0.769 -4.177,2.717 z" /></g><path
           id="path58"
           style="fill:#000000;fill-opacity:1;fill-rule:nonzero;stroke:none"
           d="m 131.84,48.5 h 1.611 v -1.647 h -1.611 z m 0.077,-3.335 h 1.461 v -9.517 h -1.461 z" /><g
           transform="translate(141.394,35.572)"
           id="g60"><path
             id="path62"
             style="fill:#000000;fill-opacity:1;fill-rule:nonzero;stroke:none"
             d="m 0,0 -1.405,-0.11 c -2.079,0 -2.696,1.217 -2.696,3.108 v 5.507 h -1.687 v 1.163 h 1.687 v 2.361 l 1.461,0.15 V 9.668 h 2.116 V 8.505 H -2.64 V 2.755 C -2.64,1.65 -2.322,1.07 -1.122,1.07 L 0,1.163 Z" /></g><g
           transform="translate(151.3067,38.2508)"
           id="g64"><path
             id="path66"
             style="fill:#000000;fill-opacity:1;fill-rule:nonzero;stroke:none"
             d="m 0,0 c -0.562,-1.741 -2.23,-2.79 -4.048,-2.79 -2.884,0 -4.365,2.284 -4.365,4.947 0,2.622 1.555,5.002 4.404,5.002 2.96,0 4.233,-2.475 4.159,-5.116 h -6.915 c 0,-0.749 0.039,-1.442 0.395,-2.154 0.451,-0.9 1.444,-1.441 2.435,-1.441 1.236,0 2.135,0.711 2.548,1.833 z m -1.462,3.129 c 0.018,1.576 -0.861,2.903 -2.547,2.903 -1.594,0 -2.625,-1.404 -2.68,-2.903 z" /></g><g
           transform="translate(158.8185,35.572)"
           id="g68"><path
             id="path70"
             style="fill:#000000;fill-opacity:1;fill-rule:nonzero;stroke:none"
             d="m 0,0 -1.405,-0.11 c -2.08,0 -2.699,1.217 -2.699,3.108 V 8.505 H -5.79 v 1.163 h 1.686 v 2.361 l 1.461,0.15 V 9.668 h 2.119 V 8.505 h -2.119 v -5.75 c 0,-1.105 0.321,-1.685 1.52,-1.685 L 0,1.163 Z" /></g><g
           transform="translate(168.7286,38.2508)"
           id="g72"><path
             id="path74"
             style="fill:#000000;fill-opacity:1;fill-rule:nonzero;stroke:none"
             d="m 0,0 c -0.561,-1.741 -2.23,-2.79 -4.048,-2.79 -2.884,0 -4.365,2.284 -4.365,4.947 0,2.622 1.555,5.002 4.404,5.002 2.96,0 4.233,-2.475 4.159,-5.116 h -6.913 c 0,-0.749 0.037,-1.442 0.396,-2.154 0.448,-0.9 1.441,-1.441 2.432,-1.441 1.239,0 2.135,0.711 2.548,1.833 z m -1.462,3.129 c 0.021,1.576 -0.86,2.903 -2.547,2.903 -1.594,0 -2.622,-1.404 -2.678,-2.903 z" /></g><g
           transform="translate(176.2408,35.572)"
           id="g76"><path
             id="path78"
             style="fill:#000000;fill-opacity:1;fill-rule:nonzero;stroke:none"
             d="m 0,0 -1.405,-0.11 c -2.08,0 -2.696,1.217 -2.696,3.108 v 5.507 h -1.687 v 1.163 h 1.687 v 2.361 l 1.46,0.15 V 9.668 h 2.117 V 8.505 h -2.117 v -5.75 c 0,-1.105 0.319,-1.685 1.518,-1.685 L 0,1.163 Z" /></g><path
           id="path80"
           style="fill:#000000;fill-opacity:1;fill-rule:nonzero;stroke:none"
           d="m 67.327,27.374 h 1.611 v 1.647 h -1.611 z m 0.075,-11.206 h 1.462 v 9.518 h -1.462 z" /><g
           transform="translate(76.8244,19.9531)"
           id="g82"><path
             id="path84"
             style="fill:#000000;fill-opacity:1;fill-rule:nonzero;stroke:none"
             d="m 0,0 c 0.524,-1.779 2.006,-2.601 3.803,-2.601 0.767,0 1.703,0.167 2.304,0.634 0.487,0.375 0.787,1.031 0.787,1.649 0,1.293 -1.067,1.818 -2.192,2.1 L 2.565,2.304 c -0.86,0.207 -1.648,0.413 -2.32,1.031 -0.675,0.601 -1.052,1.481 -1.052,2.38 0,2.472 2.137,3.541 4.365,3.541 2.155,0 3.879,-1.069 4.573,-3.146 L 6.668,5.715 C 6.389,7.119 4.89,7.981 3.521,7.981 2.304,7.981 0.767,7.345 0.767,5.94 0.767,4.499 1.892,4.178 3.091,3.898 L 5.02,3.429 C 5.863,3.241 6.708,2.997 7.363,2.436 8.167,1.782 8.562,0.899 8.562,-0.111 c 0,-1.162 -0.505,-2.21 -1.444,-2.923 -0.935,-0.713 -2.192,-0.935 -3.354,-0.935 -2.623,0 -4.344,1.161 -5.205,3.651 z" /></g><g
           transform="translate(92.6924,16.0938)"
           id="g86"><path
             id="path88"
             style="fill:#000000;fill-opacity:1;fill-rule:nonzero;stroke:none"
             d="m 0,0 -1.405,-0.111 c -2.08,0 -2.699,1.217 -2.699,3.109 v 5.507 h -1.687 v 1.162 h 1.687 v 2.362 l 1.461,0.15 V 9.667 h 2.117 V 8.505 H -2.643 V 2.754 c 0,-1.104 0.32,-1.687 1.518,-1.687 L 0,1.162 Z" /></g><g
           transform="translate(100.8594,22.0719)"
           id="g90"><path
             id="path92"
             style="fill:#000000;fill-opacity:1;fill-rule:nonzero;stroke:none"
             d="m 0,0 v 0.412 c 0,1.667 -0.73,2.303 -2.416,2.303 -1.198,0 -2.344,-0.374 -2.604,-1.687 l -1.369,0.226 c 0.264,1.987 2.362,2.605 4.104,2.605 1.03,0 2.211,-0.113 2.922,-0.938 C 1.423,2.079 1.423,0.88 1.423,-0.206 v -3.692 c 0,-0.693 0.021,-1.386 0.206,-2.006 H 0.168 L 0,-4.122 c -0.673,-1.368 -1.817,-1.966 -3.334,-1.966 -1.78,0 -3.318,0.991 -3.318,2.883 0,1.143 0.714,2.174 1.762,2.641 C -3.821,-0.057 -2.416,0 -1.237,0 Z m 0,-1.106 h -1.217 c -1.501,0 -3.859,-0.206 -3.859,-2.173 0,-1.18 1.011,-1.668 2.06,-1.668 1.799,0 3.016,1.537 3.016,3.223 z" /></g><g
           transform="translate(108.7481,16.1684)"
           id="g94"><path
             id="path96"
             style="fill:#000000;fill-opacity:1;fill-rule:nonzero;stroke:none"
             d="m 0,0 h -1.534 l -3.392,9.517 h 1.629 l 2.66,-7.735 2.603,7.735 h 1.313 z" /></g><g
           transform="translate(120.0628,22.0719)"
           id="g98"><path
             id="path100"
             style="fill:#000000;fill-opacity:1;fill-rule:nonzero;stroke:none"
             d="m 0,0 v 0.412 c 0,1.667 -0.73,2.303 -2.416,2.303 -1.199,0 -2.344,-0.374 -2.604,-1.687 l -1.369,0.226 c 0.264,1.987 2.362,2.605 4.104,2.605 1.031,0 2.209,-0.113 2.924,-0.938 C 1.426,2.079 1.426,0.88 1.426,-0.206 v -3.692 c 0,-0.693 0.018,-1.386 0.206,-2.006 H 0.169 L 0,-4.122 c -0.674,-1.368 -1.815,-1.966 -3.334,-1.966 -1.779,0 -3.318,0.991 -3.318,2.883 0,1.143 0.714,2.174 1.764,2.641 C -3.821,-0.057 -2.416,0 -1.236,0 Z m 0,-1.106 h -1.217 c -1.498,0 -3.859,-0.206 -3.859,-2.173 0,-1.18 1.01,-1.668 2.062,-1.668 1.797,0 3.014,1.537 3.014,3.223 z" /></g><g
           transform="translate(126.152,23.9257)"
           id="g102"><path
             id="path104"
             style="fill:#000000;fill-opacity:1;fill-rule:nonzero;stroke:none"
             d="m 0,0 h 0.036 c 0.544,1.181 1.611,2.006 2.963,2.006 1.141,0 2.098,-0.488 2.696,-1.481 0.488,-0.807 0.451,-2.08 0.451,-3.018 V -7.757 H 4.684 v 5.883 c 0,0.564 0.018,1.273 -0.264,1.761 C 4.101,0.43 3.411,0.748 2.791,0.748 2.024,0.748 1.331,0.392 0.825,-0.206 0.206,-0.954 0.074,-1.818 0.074,-2.773 V -7.757 H -1.387 V 1.76 L 0,1.76 Z" /></g><g
           transform="translate(138.7225,25.9312)"
           id="g106"><path
             id="path108"
             style="fill:#000000;fill-opacity:1;fill-rule:nonzero;stroke:none"
             d="M 0,0 C 0.654,0 1.331,-0.133 1.93,-0.412 2.174,0.936 2.828,1.236 4.122,1.236 L 4.496,1.217 4.514,0.037 h -0.15 c -0.861,0 -1.536,-0.095 -1.686,-1.089 0.581,-0.635 0.919,-1.479 0.919,-2.34 0,-0.936 -0.506,-1.816 -1.217,-2.38 -0.693,-0.524 -1.555,-0.73 -2.419,-0.73 -0.428,0 -0.936,0.15 -1.292,0.15 -0.448,0 -1.01,-0.395 -1.01,-0.88 0,-0.451 0.299,-0.713 0.712,-0.807 0.654,-0.148 1.571,-0.113 2.248,-0.148 0.825,-0.039 2.041,-0.057 2.792,-0.339 0.879,-0.335 1.462,-1.16 1.462,-2.098 0,-2.415 -2.867,-2.736 -4.705,-2.736 -0.88,0 -1.968,0.039 -2.79,0.377 -0.918,0.374 -1.632,1.048 -1.632,2.098 0,0.993 0.543,1.611 1.444,1.929 -0.545,0.356 -0.917,0.786 -0.917,1.497 0,0.939 0.541,1.349 1.311,1.708 -0.807,0.634 -1.237,1.479 -1.237,2.51 C -3.653,-1.181 -1.911,0 0,0 m 0.188,-12.217 c 0.711,0 1.818,0.114 2.454,0.412 0.523,0.245 0.823,0.545 0.823,1.126 0,0.916 -1.029,1.086 -2.021,1.14 -0.564,0.039 -2.195,0.021 -3.223,0.152 -0.562,-0.262 -1.031,-0.618 -1.031,-1.292 0,-1.311 2.024,-1.538 2.998,-1.538 M 0,-5.359 c 1.273,0 2.117,0.843 2.117,2.118 0,1.199 -0.957,2.079 -2.117,2.079 -1.237,0 -2.135,-0.88 -2.135,-2.099 0,-1.291 0.843,-2.098 2.135,-2.098" /></g><g
           transform="translate(153.3733,18.7723)"
           id="g110"><path
             id="path112"
             style="fill:#000000;fill-opacity:1;fill-rule:nonzero;stroke:none"
             d="m 0,0 c -0.562,-1.741 -2.23,-2.788 -4.048,-2.788 -2.884,0 -4.365,2.282 -4.365,4.944 0,2.623 1.555,5.003 4.404,5.003 2.96,0 4.233,-2.475 4.159,-5.117 h -6.914 c 0,-0.748 0.038,-1.441 0.394,-2.152 0.451,-0.901 1.444,-1.442 2.435,-1.442 1.236,0 2.135,0.711 2.548,1.834 z m -1.462,3.129 c 0.021,1.576 -0.86,2.904 -2.547,2.904 -1.594,0 -2.625,-1.405 -2.678,-2.904 z" /></g><g
           transform="translate(157.7017,25.6861)"
           id="g114"><path
             id="path116"
             style="fill:#000000;fill-opacity:1;fill-rule:nonzero;stroke:none"
             d="m 0,0 v -2.23 h 0.036 c 0.448,1.295 1.255,2.494 2.792,2.494 L 3.371,0.224 V -1.18 H 3.073 C 1.946,-1.18 1.159,-1.722 0.616,-2.678 0.224,-3.371 0.15,-3.972 0.15,-4.72 V -9.517 H -1.313 V 0 Z" /></g></g></g><g
       id="g118"><g
         clip-path="url(#clipPath124)"
         id="g120"><g
           transform="translate(54.2068,5.1267)"
           id="g126"><path
             id="path128"
             style="fill:#000000;fill-opacity:1;fill-rule:nonzero;stroke:none"
             d="m 0,0 c 0.246,0.615 1.842,4.797 2.285,10.856 0,0 0.054,1.016 0.008,1.783 -0.063,1.092 -0.114,2.864 -0.977,4.828 -1.308,2.973 -3.712,5.394 -8.315,9.197 l -3.622,2.977 c -8.527,7 -10.459,11.987 -10.459,17.457 0,8.608 6.436,14.481 16.654,14.481 3.136,0 5.47,-0.321 7.483,-0.805 1.528,-0.321 2.171,-0.402 2.814,-0.402 0.645,0 0.806,-0.16 0.806,-0.564 0,-0.4 -0.322,-3.056 -0.322,-8.527 0,-1.288 -0.161,-1.85 -0.564,-1.85 -0.483,0 -0.563,0.404 -0.646,1.046 -0.078,0.966 -0.56,3.138 -1.044,4.024 -0.479,0.884 -2.656,4.262 -10.056,4.262 -5.551,0 -9.894,-3.458 -9.894,-9.332 0,-4.586 2.091,-7.481 9.815,-13.515 l 2.253,-1.77 C 5.71,26.664 7.962,21.678 7.962,15.24 7.962,11.956 5.539,3.933 0.041,-0.029 0.016,-0.044 -0.022,-0.052 0,0" /></g><g
           transform="translate(36.9537,5.8792)"
           id="g130"><path
             id="path132"
             style="fill:#000000;fill-opacity:1;fill-rule:nonzero;stroke:none"
             d="m 0,0 c 0.013,-0.012 0.011,-0.025 0.002,-0.037 -1.104,-1.473 -4.594,-2.151 -6.618,-2.151 -1.717,0 -4.828,0.095 -7.192,2.235 -1.653,1.49 -2.884,3.887 -2.884,8.585 v 4.732 c 0,4.924 0,5.832 -0.063,6.868 -0.064,1.101 -0.326,1.62 -1.395,1.846 -0.259,0.065 -0.809,0.098 -1.263,0.098 -0.357,0 -0.551,0.064 -0.551,0.291 0,0.227 0.227,0.291 0.712,0.291 1.719,0 3.758,-0.096 4.73,-0.096 0.778,0 2.821,0.096 3.985,0.096 0.487,0 0.714,-0.064 0.714,-0.291 0,-0.227 -0.196,-0.291 -0.518,-0.291 -0.357,0 -0.551,-0.033 -0.939,-0.098 -0.877,-0.162 -1.133,-0.713 -1.199,-1.846 -0.064,-1.036 -0.064,-1.944 -0.064,-6.868 V 8.828 c 0,-4.697 0.933,-6.682 2.524,-7.97 1.365,-1.105 2.538,-1.37 3.516,-1.612 2.019,-0.499 5.087,-0.409 6.464,0.75 C -0.03,0.005 -0.012,0.013 0,0" /></g><g
           transform="translate(36.3983,20.8426)"
           id="g134"><path
             id="path136"
             style="fill:#000000;fill-opacity:1;fill-rule:nonzero;stroke:none"
             d="m 0,0 c 0,4.076 0,4.827 -0.053,5.685 -0.053,0.912 -0.321,1.366 -0.911,1.501 -0.296,0.081 -0.643,0.108 -0.966,0.108 -0.267,0 -0.43,0.053 -0.43,0.269 0,0.159 0.216,0.214 0.646,0.214 1.017,0 2.706,-0.081 3.484,-0.081 0.672,0 2.254,0.081 3.273,0.081 0.347,0 0.562,-0.055 0.562,-0.214 C 5.605,7.347 5.444,7.294 5.176,7.294 4.907,7.294 4.694,7.267 4.373,7.212 3.65,7.079 3.434,6.624 3.382,5.685 3.326,4.827 3.326,4.076 3.326,0 v -4.721 c 0,-2.601 0,-3.357 0.108,-4.509 0.08,-0.725 0.269,-1.208 1.072,-1.315 0.378,-0.053 0.966,-0.108 1.368,-0.108 0.294,0 0.429,-0.08 0.429,-0.214 0,-0.188 -0.215,-0.269 -0.509,-0.269 -1.77,0 -3.459,0.081 -4.183,0.081 -0.619,0 -2.308,-0.081 -3.378,-0.081 -0.349,0 -0.539,0.081 -0.539,0.269 0,0.134 0.109,0.214 0.429,0.214 0.404,0 0.725,0.055 0.966,0.108 0.537,0.107 0.698,0.564 0.778,1.342 C 0,-8.078 0,-7.322 0,-4.721 V 0" /></g><g
           transform="translate(85.7152,41.8948)"
           id="g138"><path
             id="path140"
             style="fill:#000000;fill-opacity:1;fill-rule:nonzero;stroke:none"
             d="m 0,0 c 0,-1.303 -0.076,-2.511 -0.961,-3.567 -0.881,-1.055 -2.203,-1.456 -3.546,-1.456 -1.285,0 -2.647,0.268 -3.527,1.266 C -8.993,-2.685 -9.072,-1.36 -9.072,0 V 8.322 H -7.42 V 0 c 0,-0.785 0.019,-1.859 0.497,-2.552 0.538,-0.784 1.65,-1.015 2.551,-1.015 0.844,0 1.801,0.268 2.359,0.939 0.631,0.747 0.631,1.726 0.631,2.628 V 8.322 H 0 Z" /></g><g
           transform="translate(90.718,45.0007)"
           id="g142"><path
             id="path144"
             style="fill:#000000;fill-opacity:1;fill-rule:nonzero;stroke:none"
             d="m 0,0 h 0.04 c 0.556,1.209 1.648,2.053 3.029,2.053 1.168,0 2.148,-0.499 2.762,-1.515 0.498,-0.826 0.459,-2.129 0.459,-3.09 V -7.939 H 4.794 v 6.021 c 0,0.578 0.021,1.303 -0.267,1.802 C 4.2,0.44 3.49,0.767 2.857,0.767 2.071,0.767 1.363,0.402 0.844,-0.21 0.21,-0.976 0.079,-1.861 0.079,-2.838 v -5.101 h -1.497 v 9.741 l 1.418,0 z" /></g><path
           id="path146"
           style="fill:#000000;fill-opacity:1;fill-rule:nonzero;stroke:none"
           d="m 100.477,50.216 h 1.649 V 48.53 h -1.649 z m 0.077,-3.413 h 1.497 v -9.741 h -1.497 z" /><g
           transform="translate(109.3357,37.0612)"
           id="g148"><path
             id="path150"
             style="fill:#000000;fill-opacity:1;fill-rule:nonzero;stroke:none"
             d="m 0,0 h -1.57 l -3.472,9.741 h 1.667 l 2.723,-7.917 2.665,7.917 h 1.343 z" /></g><g
           transform="translate(122.7,39.7266)"
           id="g152"><path
             id="path154"
             style="fill:#000000;fill-opacity:1;fill-rule:nonzero;stroke:none"
             d="m 0,0 c -0.575,-1.782 -2.282,-2.856 -4.143,-2.856 -2.952,0 -4.467,2.338 -4.467,5.063 0,2.684 1.594,5.12 4.507,5.12 3.029,0 4.332,-2.533 4.256,-5.236 h -7.074 c 0,-0.766 0.037,-1.476 0.402,-2.204 0.461,-0.922 1.477,-1.475 2.492,-1.475 1.267,0 2.188,0.728 2.608,1.876 z m -1.497,3.202 c 0.022,1.613 -0.88,2.972 -2.606,2.972 -1.632,0 -2.683,-1.438 -2.742,-2.972 z" /></g><g
           transform="translate(127.1297,46.8028)"
           id="g156"><path
             id="path158"
             style="fill:#000000;fill-opacity:1;fill-rule:nonzero;stroke:none"
             d="M 0,0 V -2.282 H 0.037 C 0.499,-0.957 1.322,0.27 2.894,0.27 L 3.451,0.23 V -1.208 H 3.145 C 1.993,-1.208 1.187,-1.763 0.634,-2.741 0.229,-3.45 0.153,-4.065 0.153,-4.831 v -4.91 H -1.343 V 0 Z" /></g><g
           transform="translate(133.7816,39.9374)"
           id="g160"><path
             id="path162"
             style="fill:#000000;fill-opacity:1;fill-rule:nonzero;stroke:none"
             d="m 0,0 c 0.209,-1.322 1.763,-1.821 2.931,-1.821 1.037,0 2.36,0.367 2.36,1.61 0,1.037 -1.054,1.325 -1.898,1.478 L 1.802,1.554 c -1.495,0.288 -2.857,0.979 -2.857,2.705 0,2.013 1.86,2.857 3.644,2.857 1.743,0 3.375,-0.653 3.852,-2.457 L 5.06,4.372 C 4.678,5.449 3.681,5.908 2.568,5.908 1.686,5.908 0.499,5.562 0.499,4.488 0.499,3.433 1.38,3.203 2.243,3.069 L 3.66,2.82 C 4.369,2.686 5.101,2.552 5.694,2.15 c 0.769,-0.52 1.17,-1.324 1.17,-2.206 0,-2.205 -2.149,-3.011 -4.046,-3.011 -1.899,0 -3.779,0.788 -4.274,2.782 z" /></g><path
           id="path164"
           style="fill:#000000;fill-opacity:1;fill-rule:nonzero;stroke:none"
           d="m 143.616,50.216 h 1.649 V 48.53 h -1.649 z m 0.079,-3.413 h 1.495 v -9.741 h -1.495 z" /><g
           transform="translate(153.3944,36.9849)"
           id="g166"><path
             id="path168"
             style="fill:#000000;fill-opacity:1;fill-rule:nonzero;stroke:none"
             d="m 0,0 -1.438,-0.113 c -2.127,0 -2.759,1.246 -2.759,3.181 v 5.637 h -1.727 v 1.19 h 1.727 v 2.416 l 1.495,0.154 v -2.57 h 2.166 V 8.705 H -2.702 V 2.82 c 0,-1.131 0.325,-1.725 1.554,-1.725 L 0,1.19 Z" /></g><g
           transform="translate(163.5398,39.7266)"
           id="g170"><path
             id="path172"
             style="fill:#000000;fill-opacity:1;fill-rule:nonzero;stroke:none"
             d="m 0,0 c -0.575,-1.782 -2.283,-2.856 -4.143,-2.856 -2.952,0 -4.467,2.338 -4.467,5.063 0,2.684 1.591,5.12 4.507,5.12 3.029,0 4.332,-2.533 4.256,-5.236 h -7.077 c 0,-0.766 0.04,-1.476 0.404,-2.204 0.462,-0.922 1.478,-1.475 2.493,-1.475 1.264,0 2.185,0.728 2.608,1.876 z m -1.497,3.202 c 0.019,1.613 -0.88,2.972 -2.606,2.972 -1.632,0 -2.687,-1.438 -2.743,-2.972 z" /></g><g
           transform="translate(171.2281,36.9849)"
           id="g174"><path
             id="path176"
             style="fill:#000000;fill-opacity:1;fill-rule:nonzero;stroke:none"
             d="m 0,0 -1.438,-0.113 c -2.128,0 -2.762,1.246 -2.762,3.181 v 5.637 h -1.726 v 1.19 H -4.2 v 2.416 l 1.495,0.154 v -2.57 h 2.169 V 8.705 H -2.705 V 2.82 c 0,-1.131 0.328,-1.725 1.555,-1.725 L 0,1.19 Z" /></g><g
           transform="translate(181.3709,39.7266)"
           id="g178"><path
             id="path180"
             style="fill:#000000;fill-opacity:1;fill-rule:nonzero;stroke:none"
             d="m 0,0 c -0.575,-1.782 -2.282,-2.856 -4.143,-2.856 -2.952,0 -4.467,2.338 -4.467,5.063 0,2.684 1.591,5.12 4.507,5.12 3.029,0 4.332,-2.533 4.256,-5.236 h -7.074 c 0,-0.766 0.037,-1.476 0.404,-2.204 0.459,-0.922 1.475,-1.475 2.49,-1.475 1.268,0 2.185,0.728 2.608,1.876 z m -1.497,3.202 c 0.022,1.613 -0.88,2.972 -2.606,2.972 -1.631,0 -2.683,-1.438 -2.741,-2.972 z" /></g><g
           transform="translate(189.0595,36.9849)"
           id="g182"><path
             id="path184"
             style="fill:#000000;fill-opacity:1;fill-rule:nonzero;stroke:none"
             d="m 0,0 -1.438,-0.113 c -2.129,0 -2.759,1.246 -2.759,3.181 v 5.637 h -1.727 v 1.19 h 1.727 v 2.416 l 1.493,0.154 v -2.57 h 2.168 V 8.705 H -2.704 V 2.82 c 0,-1.131 0.327,-1.725 1.554,-1.725 L 0,1.19 Z" /></g><path
           id="path186"
           style="fill:#000000;fill-opacity:1;fill-rule:nonzero;stroke:none"
           d="m 77.589,28.595 h 1.649 v 1.686 h -1.649 z m 0.076,-11.47 h 1.497 v 9.741 h -1.497 z" /><g
           transform="translate(87.3087,20.9993)"
           id="g188"><path
             id="path190"
             style="fill:#000000;fill-opacity:1;fill-rule:nonzero;stroke:none"
             d="m 0,0 c 0.536,-1.821 2.053,-2.662 3.892,-2.662 0.786,0 1.743,0.17 2.358,0.649 0.499,0.383 0.806,1.055 0.806,1.688 0,1.323 -1.092,1.86 -2.244,2.149 L 2.625,2.358 C 1.745,2.57 0.939,2.781 0.251,3.413 -0.44,4.028 -0.826,4.929 -0.826,5.849 c 0,2.53 2.188,3.624 4.467,3.624 2.206,0 3.971,-1.094 4.681,-3.22 L 6.825,5.849 C 6.539,7.287 5.004,8.168 3.604,8.168 2.358,8.168 0.785,7.517 0.785,6.08 0.785,4.605 1.937,4.276 3.164,3.99 L 5.138,3.509 C 6.001,3.317 6.865,3.068 7.536,2.493 8.359,1.824 8.763,0.92 8.763,-0.113 c 0,-1.19 -0.517,-2.263 -1.478,-2.992 -0.957,-0.73 -2.243,-0.958 -3.433,-0.958 -2.684,0 -4.446,1.189 -5.327,3.738 z" /></g><g
           transform="translate(103.5492,17.0494)"
           id="g192"><path
             id="path194"
             style="fill:#000000;fill-opacity:1;fill-rule:nonzero;stroke:none"
             d="m 0,0 -1.438,-0.113 c -2.129,0 -2.762,1.245 -2.762,3.182 V 8.705 H -5.927 V 9.894 H -4.2 v 2.417 l 1.495,0.154 V 9.894 h 2.167 V 8.705 H -2.705 V 2.818 c 0,-1.13 0.328,-1.726 1.554,-1.726 L 0,1.19 Z" /></g><g
           transform="translate(111.9081,23.1679)"
           id="g196"><path
             id="path198"
             style="fill:#000000;fill-opacity:1;fill-rule:nonzero;stroke:none"
             d="m 0,0 v 0.422 c 0,1.705 -0.747,2.356 -2.473,2.356 -1.226,0 -2.398,-0.382 -2.665,-1.726 l -1.401,0.231 c 0.27,2.034 2.417,2.667 4.201,2.667 1.053,0 2.262,-0.116 2.99,-0.961 C 1.456,2.127 1.456,0.9 1.456,-0.21 v -3.78 c 0,-0.709 0.022,-1.419 0.211,-2.052 H 0.172 L 0,-4.219 c -0.688,-1.4 -1.86,-2.012 -3.412,-2.012 -1.822,0 -3.396,1.014 -3.396,2.951 0,1.17 0.731,2.225 1.803,2.702 C -3.911,-0.059 -2.473,0 -1.266,0 Z m 0,-1.132 h -1.246 c -1.535,0 -3.95,-0.211 -3.95,-2.224 0,-1.208 1.036,-1.707 2.109,-1.707 1.841,0 3.087,1.573 3.087,3.298 z" /></g><g
           transform="translate(119.982,17.1257)"
           id="g200"><path
             id="path202"
             style="fill:#000000;fill-opacity:1;fill-rule:nonzero;stroke:none"
             d="m 0,0 h -1.57 l -3.472,9.741 h 1.667 l 2.723,-7.917 2.665,7.917 h 1.343 z" /></g><g
           transform="translate(131.5623,23.1679)"
           id="g204"><path
             id="path206"
             style="fill:#000000;fill-opacity:1;fill-rule:nonzero;stroke:none"
             d="m 0,0 v 0.422 c 0,1.705 -0.747,2.356 -2.473,2.356 -1.227,0 -2.398,-0.382 -2.665,-1.726 l -1.401,0.231 c 0.27,2.034 2.418,2.667 4.201,2.667 1.055,0 2.261,-0.116 2.992,-0.961 C 1.459,2.127 1.459,0.9 1.459,-0.21 v -3.78 c 0,-0.709 0.019,-1.419 0.211,-2.052 H 0.173 L 0,-4.219 c -0.689,-1.4 -1.858,-2.012 -3.412,-2.012 -1.821,0 -3.396,1.014 -3.396,2.951 0,1.17 0.731,2.225 1.805,2.702 C -3.911,-0.059 -2.473,0 -1.265,0 Z m 0,-1.132 h -1.246 c -1.532,0 -3.949,-0.211 -3.949,-2.224 0,-1.208 1.034,-1.707 2.11,-1.707 1.839,0 3.085,1.573 3.085,3.298 z" /></g><g
           transform="translate(137.7945,25.0652)"
           id="g208"><path
             id="path210"
             style="fill:#000000;fill-opacity:1;fill-rule:nonzero;stroke:none"
             d="m 0,0 h 0.037 c 0.557,1.209 1.649,2.053 3.032,2.053 1.168,0 2.148,-0.499 2.76,-1.515 0.499,-0.826 0.461,-2.129 0.461,-3.09 V -7.939 H 4.794 v 6.021 c 0,0.578 0.018,1.303 -0.27,1.802 C 4.197,0.44 3.491,0.765 2.857,0.765 2.071,0.765 1.362,0.401 0.844,-0.211 0.211,-0.976 0.076,-1.861 0.076,-2.838 v -5.101 h -1.495 v 9.741 l 1.419,0 z" /></g><g
           transform="translate(150.6601,27.1178)"
           id="g212"><path
             id="path214"
             style="fill:#000000;fill-opacity:1;fill-rule:nonzero;stroke:none"
             d="m 0,0 c 0.669,0 1.362,-0.136 1.975,-0.422 0.25,1.38 0.919,1.687 2.244,1.687 L 4.602,1.246 4.62,0.037 H 4.467 c -0.882,0 -1.573,-0.096 -1.726,-1.114 0.595,-0.649 0.94,-1.514 0.94,-2.395 0,-0.958 -0.517,-1.858 -1.245,-2.436 -0.71,-0.536 -1.592,-0.747 -2.476,-0.747 -0.438,0 -0.958,0.154 -1.322,0.154 -0.459,0 -1.034,-0.404 -1.034,-0.9 0,-0.462 0.306,-0.73 0.729,-0.826 0.669,-0.152 1.608,-0.116 2.301,-0.152 0.844,-0.04 2.088,-0.059 2.857,-0.347 0.9,-0.343 1.496,-1.187 1.496,-2.148 0,-2.471 -2.934,-2.799 -4.815,-2.799 -0.9,0 -2.014,0.04 -2.856,0.385 -0.939,0.383 -1.67,1.073 -1.67,2.148 0,1.016 0.556,1.648 1.478,1.974 -0.557,0.364 -0.939,0.804 -0.939,1.532 0,0.961 0.554,1.381 1.342,1.748 -0.826,0.649 -1.266,1.514 -1.266,2.569 C -3.739,-1.209 -1.956,0 0,0 m 0.192,-12.504 c 0.728,0 1.861,0.117 2.512,0.422 0.536,0.251 0.843,0.558 0.843,1.153 0,0.937 -1.054,1.111 -2.069,1.166 -0.578,0.04 -2.246,0.022 -3.299,0.155 -0.575,-0.268 -1.055,-0.632 -1.055,-1.321 0,-1.342 2.072,-1.575 3.068,-1.575 M 0,-5.485 c 1.303,0 2.166,0.863 2.166,2.168 0,1.227 -0.979,2.127 -2.166,2.127 -1.266,0 -2.185,-0.9 -2.185,-2.147 0,-1.322 0.863,-2.148 2.185,-2.148" /></g><g
           transform="translate(165.655,19.7908)"
           id="g216"><path
             id="path218"
             style="fill:#000000;fill-opacity:1;fill-rule:nonzero;stroke:none"
             d="m 0,0 c -0.575,-1.782 -2.282,-2.854 -4.143,-2.854 -2.952,0 -4.467,2.336 -4.467,5.06 0,2.685 1.591,5.121 4.507,5.121 3.029,0 4.332,-2.533 4.256,-5.237 h -7.076 c 0,-0.765 0.039,-1.475 0.403,-2.203 0.462,-0.922 1.478,-1.475 2.493,-1.475 1.265,0 2.185,0.728 2.608,1.876 z m -1.497,3.203 c 0.022,1.612 -0.88,2.971 -2.606,2.971 -1.631,0 -2.686,-1.438 -2.741,-2.971 z" /></g><g
           transform="translate(170.0851,26.8669)"
           id="g220"><path
             id="path222"
             style="fill:#000000;fill-opacity:1;fill-rule:nonzero;stroke:none"
             d="M 0,0 V -2.282 H 0.037 C 0.496,-0.957 1.322,0.27 2.894,0.27 L 3.45,0.229 V -1.208 H 3.145 C 1.992,-1.208 1.187,-1.763 0.631,-2.741 0.229,-3.45 0.153,-4.066 0.153,-4.831 v -4.91 H -1.343 V 0 Z" /></g></g></g></g></svg>