<svg id="Layer_1" xmlns="http://www.w3.org/2000/svg" xmlns:xlink="http://www.w3.org/1999/xlink" viewBox="0 0 243.8 68"><style>.st0{clip-path:url(#SVGID_2_)}.st1{clip-path:url(#SVGID_4_)}</style><defs><path id="SVGID_1_" d="M2.8 2.8h67.7v62.4H2.8z"/></defs><clipPath id="SVGID_2_"><use xlink:href="#SVGID_1_" overflow="visible"/></clipPath><path class="st0" d="M96.8 9.6v12.6c0 1.4-.3 2.7-1 3.8s-1.6 1.9-2.8 2.5c-1.2.6-2.6.9-4.3.9-2.5 0-4.4-.6-5.8-1.9-1.4-1.3-2.1-3-2.1-5.2V9.6H85v11.9c0 1.5.3 2.6.9 3.3.6.7 1.6 1 3 1 1.3 0 2.3-.4 2.9-1.1s.9-1.8.9-3.3V9.6h4.1zM101 10.4c0-1.3.7-2 2.2-2s2.2.7 2.2 2c0 .6-.2 1.1-.6 1.5-.4.4-.9.5-1.7.5-1.3 0-2.1-.7-2.1-2m4.3 18.6h-4V14.2h4V29zM117.8 29h-4.1V13.1h-5.2V9.6h14.6v3.5h-5.3zM148.5 29H146l-10.6-16.3h-.1c.1 1.9.2 3.7.2 5.3v11h-2.1V9.6h2.5l10.6 16.2h.1c0-.2-.1-1-.1-2.3-.1-1.3-.1-2.2-.1-2.8V9.6h2.1V29zM166.1 21.7c0 2.4-.6 4.2-1.8 5.6s-2.8 2-4.9 2c-1.3 0-2.5-.3-3.5-.9-1-.6-1.8-1.5-2.3-2.6-.5-1.1-.8-2.5-.8-4 0-2.4.6-4.2 1.8-5.5 1.2-1.3 2.8-2 4.9-2 2 0 3.6.7 4.8 2 1.2 1.3 1.8 3.1 1.8 5.4m-11.1 0c0 1.9.4 3.3 1.1 4.2.7 1 1.8 1.5 3.3 1.5 1.4 0 2.5-.5 3.3-1.5.7-1 1.1-2.4 1.1-4.3 0-1.8-.4-3.3-1.1-4.2-.7-1-1.9-1.4-3.3-1.4s-2.5.5-3.3 1.4c-.7 1.1-1.1 2.5-1.1 4.3M176.6 14.2c.6 0 1.2.1 1.7.2l-.3 2c-.6-.1-1.1-.2-1.6-.2-1.2 0-2.2.5-3 1.4-.8 1-1.3 2.1-1.3 3.6V29h-2.2V14.5h1.8l.3 2.7h.1c.5-.9 1.2-1.7 1.9-2.2.8-.5 1.7-.8 2.6-.8M192.9 14.5v1.4l-2.7.3c.2.3.5.7.7 1.2.2.5.3 1.1.3 1.7 0 1.4-.5 2.6-1.5 3.4-1 .8-2.3 1.3-4 1.3-.4 0-.8 0-1.2-.1-.9.5-1.4 1.1-1.4 1.9 0 .4.2.7.5.9.3.2.9.3 1.7.3h2.6c1.6 0 2.8.3 3.6 1 .8.7 1.3 1.6 1.3 2.9 0 1.6-.6 2.8-1.9 3.7s-3.2 1.3-5.7 1.3c-1.9 0-3.4-.4-4.4-1.1-1-.7-1.5-1.7-1.5-3 0-.9.3-1.7.8-2.3.6-.6 1.4-1.1 2.4-1.3-.4-.2-.7-.4-.9-.8-.3-.4-.4-.8-.4-1.2 0-.5.1-1 .4-1.4.3-.4.7-.8 1.3-1.2-.8-.3-1.4-.8-1.8-1.6-.5-.7-.7-1.6-.7-2.5 0-1.6.5-2.8 1.4-3.7 1-.9 2.3-1.3 4.1-1.3.8 0 1.4.1 2.1.3h4.9zm-11.6 17c0 .8.3 1.4 1 1.8.7.4 1.6.6 2.9.6 1.8 0 3.2-.3 4.1-.8.9-.6 1.3-1.3 1.3-2.2 0-.8-.2-1.3-.7-1.6-.5-.3-1.4-.5-2.7-.5h-2.6c-1 0-1.8.2-2.3.7-.7.4-1 1.1-1 2m1.2-12.4c0 1 .3 1.8.9 2.3.6.5 1.4.8 2.4.8 2.1 0 3.2-1 3.2-3.1 0-2.2-1.1-3.3-3.3-3.3-1 0-1.8.3-2.4.8-.5.6-.8 1.5-.8 2.5M202.1 29.3c-2.1 0-3.8-.7-5.1-2-1.2-1.3-1.9-3.1-1.9-5.5 0-2.3.6-4.2 1.7-5.6 1.2-1.4 2.7-2.1 4.6-2.1 1.8 0 3.3.6 4.3 1.8 1.1 1.2 1.6 2.8 1.6 4.7V22h-10c0 1.7.5 3 1.3 3.9.8.9 2 1.3 3.5 1.3 1.6 0 3.1-.3 4.6-1v2c-.8.3-1.5.6-2.2.7-.6.3-1.5.4-2.4.4m-.6-13.2c-1.2 0-2.1.4-2.8 1.1-.7.8-1.1 1.8-1.2 3.2h7.6c0-1.4-.3-2.5-.9-3.2-.7-.8-1.6-1.1-2.7-1.1M220.5 25.1c0 1.4-.5 2.4-1.5 3.1-1 .7-2.4 1.1-4.2 1.1-1.9 0-3.4-.3-4.5-.9v-2c.7.4 1.4.6 2.2.8.8.2 1.6.3 2.3.3 1.1 0 2-.2 2.7-.5s.9-.9.9-1.7c0-.6-.2-1-.7-1.5s-1.4-.9-2.9-1.4c-1.4-.5-2.3-.9-2.9-1.3-.6-.4-1-.8-1.3-1.3-.3-.5-.4-1-.4-1.7 0-1.2.5-2.1 1.4-2.8 1-.7 2.3-1 4-1 1.6 0 3.1.3 4.6 1l-.8 1.8c-1.5-.6-2.8-.9-4-.9-1 0-1.8.2-2.4.5-.5.3-.8.8-.8 1.4 0 .4.1.7.3 1s.5.5 1 .8c.4.2 1.3.6 2.5 1.1 1.7.6 2.9 1.3 3.5 1.9.7.4 1 1.2 1 2.2M89.8 58.2l-.4-2.1h-.1c-.7.9-1.4 1.5-2.2 1.9-.7.3-1.6.5-2.7.5-1.4 0-2.6-.4-3.4-1.1s-1.2-1.8-1.2-3.2c0-2.9 2.3-4.5 7-4.6l2.5-.1v-.9c0-1.1-.2-2-.7-2.5-.5-.5-1.3-.8-2.4-.8-1.2 0-2.6.4-4.1 1.1l-.7-1.7c.7-.4 1.5-.7 2.4-.9.9-.2 1.7-.3 2.6-.3 1.7 0 3 .4 3.9 1.2.8.8 1.3 2 1.3 3.7v9.9h-1.8zm-5-1.5c1.4 0 2.4-.4 3.2-1.1.8-.8 1.2-1.8 1.2-3.2v-1.3l-2.2.1c-1.8.1-3 .3-3.8.8-.8.5-1.2 1.2-1.2 2.2 0 .8.2 1.4.7 1.8s1.3.7 2.1.7M102.6 43.4c.6 0 1.2.1 1.7.2l-.3 2c-.6-.1-1.1-.2-1.6-.2-1.2 0-2.2.5-3 1.4-.8 1-1.3 2.1-1.3 3.6v7.8H96V43.7h1.8l.3 2.7h.1c.5-.9 1.2-1.7 1.9-2.2.8-.5 1.6-.8 2.5-.8M109.3 50.8c.4-.5 1-1.2 1.7-2.1l4.7-5h2.6l-5.9 6.2 6.3 8.3H116l-5.1-6.9-1.7 1.4v5.4H107V37.6h2.2v10.9c0 .5 0 1.2-.1 2.3h.2zM126 56.7c.4 0 .8 0 1.1-.1.4-.1.7-.1.9-.2v1.7c-.2.1-.6.2-1.1.3-.5.1-.9.1-1.3.1-2.8 0-4.2-1.5-4.2-4.4v-8.6h-2.1v-1.1l2.1-.9.9-3.1h1.3v3.4h4.2v1.7h-4.2V54c0 .9.2 1.5.6 2 .5.4 1.1.7 1.8.7M130.7 39.8c0-.5.1-.9.4-1.1.2-.2.6-.4.9-.4.4 0 .7.1.9.4.3.2.4.6.4 1.1 0 .5-.1.9-.4 1.1-.3.2-.6.4-.9.4-.4 0-.7-.1-.9-.4-.2-.3-.4-.7-.4-1.1m2.4 18.4h-2.2V43.7h2.2v14.5zM147.2 54.3c0 1.4-.5 2.4-1.5 3.1-1 .7-2.4 1.1-4.2 1.1-1.9 0-3.4-.3-4.5-.9v-2c.7.4 1.4.6 2.2.8.8.2 1.6.3 2.3.3 1.1 0 2-.2 2.7-.6.6-.4.9-.9.9-1.7 0-.6-.2-1-.7-1.5s-1.4-.9-2.9-1.4c-1.4-.5-2.3-.9-2.9-1.3-.6-.4-1-.8-1.3-1.3-.3-.5-.4-1-.4-1.7 0-1.2.5-2.1 1.4-2.8 1-.7 2.3-1 4-1 1.6 0 3.1.3 4.6 1l-.8 1.8c-1.5-.6-2.8-.9-4-.9-1 0-1.8.2-2.4.5-.5.3-.8.8-.8 1.4 0 .4.1.7.3 1 .2.3.5.5 1 .8.4.2 1.3.6 2.5 1.1 1.7.6 2.9 1.3 3.5 1.9s1 1.3 1 2.3M152.9 50.8c.4-.5 1-1.2 1.7-2.1l4.7-5h2.6l-5.9 6.2 6.3 8.3h-2.7l-5.1-6.9-1.7 1.4v5.4h-2.2V37.6h2.2v10.9c0 .5 0 1.2-.1 2.3h.2zM171.2 58.5c-2.1 0-3.8-.7-5.1-2-1.2-1.3-1.9-3.1-1.9-5.5 0-2.3.6-4.2 1.7-5.6 1.2-1.4 2.7-2.1 4.6-2.1 1.8 0 3.3.6 4.3 1.8 1.1 1.2 1.6 2.8 1.6 4.7v1.4h-10c0 1.7.5 3 1.3 3.9.8.9 2 1.3 3.5 1.3 1.6 0 3.1-.3 4.6-1v2c-.8.3-1.5.6-2.2.7-.6.3-1.4.4-2.4.4m-.6-13.2c-1.2 0-2.1.4-2.8 1.1-.7.8-1.1 1.8-1.2 3.2h7.6c0-1.4-.3-2.5-.9-3.2-.7-.8-1.6-1.1-2.7-1.1M189.4 43.7v9.4c0 1.2.3 2.1.8 2.7.5.6 1.4.9 2.5.9 1.5 0 2.6-.4 3.3-1.2.7-.8 1.1-2.2 1.1-4.1v-7.6h2.2v14.5h-1.8l-.3-1.9h-.1c-.5.7-1.1 1.3-1.9 1.6-.8.4-1.7.6-2.7.6-1.8 0-3.1-.4-4-1.3-.9-.8-1.3-2.2-1.3-4v-9.5h2.2zM214 58.2v-9.4c0-1.2-.3-2.1-.8-2.7-.5-.6-1.4-.9-2.5-.9-1.5 0-2.6.4-3.3 1.2-.7.8-1.1 2.2-1.1 4.1v7.6H204V43.7h1.8l.4 2h.1c.5-.7 1.1-1.3 1.9-1.7.8-.4 1.7-.6 2.7-.6 1.8 0 3.1.4 4 1.3.9.8 1.3 2.2 1.3 4.1v9.5H214zM220.5 39.8c0-.5.1-.9.4-1.1s.6-.4.9-.4c.4 0 .7.1.9.4.3.2.4.6.4 1.1 0 .5-.1.9-.4 1.1-.3.2-.6.4-.9.4-.4 0-.7-.1-.9-.4-.3-.3-.4-.7-.4-1.1m2.4 18.4h-2.2V43.7h2.2v14.5zM230.7 58.2l-5.5-14.5h2.4l3.1 8.6c.7 2 1.1 3.3 1.2 3.9h.1c.1-.5.4-1.4.9-2.9s1.7-4.7 3.5-9.6h2.4l-5.5 14.5h-2.6zM247.3 58.5c-2.1 0-3.8-.7-5.1-2-1.2-1.3-1.9-3.1-1.9-5.5 0-2.3.6-4.2 1.7-5.6 1.2-1.4 2.7-2.1 4.6-2.1 1.8 0 3.3.6 4.3 1.8 1.1 1.2 1.6 2.8 1.6 4.7v1.4h-10c0 1.7.5 3 1.3 3.9.8.9 2 1.3 3.5 1.3 1.6 0 3.1-.3 4.6-1v2c-.8.3-1.5.6-2.2.7-.6.3-1.4.4-2.4.4m-.6-13.2c-1.2 0-2.1.4-2.8 1.1-.7.8-1.1 1.8-1.2 3.2h7.6c0-1.4-.3-2.5-.9-3.2-.7-.8-1.5-1.1-2.7-1.1M263 43.4c.6 0 1.2.1 1.7.2l-.3 2c-.6-.1-1.1-.2-1.6-.2-1.2 0-2.2.5-3 1.4-.8 1-1.3 2.1-1.3 3.6v7.8h-2.2V43.7h1.8l.3 2.7h.1c.5-.9 1.2-1.7 1.9-2.2.9-.5 1.7-.8 2.6-.8M276.9 54.3c0 1.4-.5 2.4-1.5 3.1-1 .7-2.4 1.1-4.2 1.1-1.9 0-3.4-.3-4.5-.9v-2c.7.4 1.4.6 2.2.8.8.2 1.6.3 2.3.3 1.1 0 2-.2 2.7-.6.6-.4.9-.9.9-1.7 0-.6-.2-1-.7-1.5s-1.4-.9-2.9-1.4c-1.4-.5-2.3-.9-2.9-1.3-.6-.4-1-.8-1.3-1.3-.3-.5-.4-1-.4-1.7 0-1.2.5-2.1 1.4-2.8 1-.7 2.3-1 4-1 1.6 0 3.1.3 4.6 1l-.8 1.8c-1.5-.6-2.8-.9-4-.9-1 0-1.8.2-2.4.5-.5.3-.8.8-.8 1.4 0 .4.1.7.3 1 .2.3.5.5 1 .8.4.2 1.3.6 2.5 1.1 1.7.6 2.9 1.3 3.5 1.9.7.5 1 1.3 1 2.3M280.3 39.8c0-.5.1-.9.4-1.1.2-.2.6-.4.9-.4.4 0 .7.1.9.4.3.2.4.6.4 1.1 0 .5-.1.9-.4 1.1-.3.2-.6.4-.9.4-.4 0-.7-.1-.9-.4-.3-.3-.4-.7-.4-1.1m2.4 18.4h-2.2V43.7h2.2v14.5zM292 56.7c.4 0 .8 0 1.1-.1.4-.1.6-.1.9-.2v1.7c-.2.1-.6.2-1.1.3-.5.1-.9.1-1.3.1-2.8 0-4.2-1.5-4.2-4.4v-8.6h-2.1v-1.1l2.1-.9.9-3.1h1.3v3.4h4.2v1.7h-4.2V54c0 .9.2 1.5.6 2 .5.4 1.1.7 1.8.7M303.1 58.5c-2.1 0-3.8-.7-5.1-2-1.2-1.3-1.9-3.1-1.9-5.5 0-2.3.6-4.2 1.7-5.6 1.2-1.4 2.7-2.1 4.6-2.1 1.8 0 3.3.6 4.3 1.8 1.1 1.2 1.6 2.8 1.6 4.7v1.4h-10c0 1.7.5 3 1.3 3.9.8.9 2 1.3 3.5 1.3 1.6 0 3.1-.3 4.6-1v2c-.8.3-1.5.6-2.2.7-.6.3-1.5.4-2.4.4m-.6-13.2c-1.2 0-2.1.4-2.8 1.1-.7.8-1.1 1.8-1.2 3.2h7.6c0-1.4-.3-2.5-.9-3.2-.7-.8-1.6-1.1-2.7-1.1M316.9 56.7c.4 0 .8 0 1.1-.1.4-.1.6-.1.9-.2v1.7c-.2.1-.6.2-1.1.3-.5.1-.9.1-1.3.1-2.8 0-4.2-1.5-4.2-4.4v-8.6h-2.1v-1.1l2.1-.9.9-3.1h1.3v3.4h4.2v1.7h-4.2V54c0 .9.2 1.5.6 2 .5.4 1 .7 1.8.7M20.6 60.6c-.6-.3-.9-1.1-.6-1.7.3-.7 1.1-.9 1.7-.6.6.3.9 1.1.6 1.7-.3.7-1 .9-1.7.6M27.2 61.8l.6-3.1 1.1.2-.5 3c-.2.9.1 1.4.8 1.5.7.1 1.1-.2 1.3-1.1l.5-3 1.1.2-.6 3.1c-.3 1.4-1.2 2-2.5 1.8-1.3-.3-2.1-1.2-1.8-2.6M33.4 59.6h1.1v5.1h-1.1zM35.9 59.5l4.4-.8.1.9-1.6.3.7 4.2-1.1.2-.7-4.2-1.6.3zM46.9 60.6c-.6.3-1.4.1-1.7-.6-.3-.7-.1-1.4.6-1.7.6-.3 1.4-.1 1.8.6.3.7 0 1.4-.7 1.7M44.4 24.4h5.8c-.3-.6-.6-1-1-1.5h-4c-.2-.4-.6-1.1-.6-1.1h3.8c-.5-.6-1.1-1.2-1.7-1.8h-4.5l-4.7 2.9 4.1 3.3 2.8-1.8z"/><path class="st0" d="M17.7 30.3c-.4.5-1 1.2-1 1.7 0 .3.2.5.5.5h4.1l.7 1.1h20.5l1-1.5h9.2l-.3-1.8h-4.9c-.1-.4-.1-.8-.2-1.1h4.8c-.2-.7-.4-1.4-.7-2.1H40.8L32 20H21c-.6.6-1.2 1.2-1.7 1.8h3.8c-.2.3-.5.8-.6 1.1h-4c-.4.5-.7 1-1 1.5h10.7l2.4 2.6h-6.7c-2.5 0-4.2 1-6.2 3.3m10.4-1.8c.7 0 1.3.6 1.3 1.3s-.6 1.3-1.3 1.3-1.3-.6-1.3-1.3.5-1.3 1.3-1.3M25.4 32h-2.8l-.5-.9H19c1-1.4 2.8-2.6 4.3-2.6h2.2V32zM52.6 36.9c.1-.6.2-1.3.2-2H37.5l-11.3 7h-9.6c.3.7.6 1.3 1 1.9h4.2c.2.4.5 1.1.5 1.1h-4c.4.6.9 1.2 1.4 1.8h4.7l1 1.3h17.8l.5-1h3.6c.3 0 .5-.2.5-.5 0-.4-.6-1.2-1-1.7-1.4-1.7-3.1-2.9-5.6-2.9h-3.8l2.8-2.6H52c.1-.5.3-.9.4-1.4h-4.9c.1-.4.1-.7.1-1.1h5zm-12.7 6.4H42c1.4 0 2.9 1.1 3.9 2.4H43l-.5.8h-2.7v-3.2zm-1.3 1.3c0 .7-.6 1.3-1.3 1.3s-1.3-.6-1.3-1.3c0-.7.6-1.3 1.3-1.3s1.3.6 1.3 1.3M14.7 50.9l.7.6-.6 4.2 2.3-2.5.8.7-3.6 3.8-.7-.7.6-4-2.3 2.4-.7-.7zM12.7 48.1c.8 1.2.4 2.7-.9 3.5-1.3.9-2.8.7-3.6-.5-.8-1.2-.4-2.7.9-3.5 1.3-1 2.8-.7 3.6.5m-3.6 2.4c.5.7 1.3.7 2.2.2.8-.6 1.1-1.4.7-2.1-.5-.7-1.3-.7-2.2-.2-.9.6-1.2 1.4-.7 2.1M8.7 44.8l1.8-.7.4 1L6 47l-.8-2c-.4-1-.1-1.9.9-2.3.8-.3 1.4-.1 1.9.5l1.4-2 .4 1.1-1.3 1.9.2.6zm-.9.3l-.4-.9c-.2-.5-.6-.7-1-.5-.4.2-.6.5-.4 1l.4.9 1.4-.5zM7.4 37.2l-.8.1.1.9-.9.1-.3-1.8 2.1-.4c.6.4.9 1.1 1 1.7.3 1.6-.7 2.7-2.2 3-1.6.3-2.8-.7-3.1-2.2-.1-.6 0-1.1.2-1.5l1.2-.1c-.3.5-.4 1-.3 1.6.2.9.9 1.4 1.9 1.3 1-.2 1.6-.8 1.4-1.8.1-.4-.1-.7-.3-.9M3.3 31l.9.1-.1 2.4 1.2.1.1-2.3.9.1-.1 2.2h1.2l.1-2.4h1l-.1 3.5-5.2-.1zM7.2 29.8c.4-.4.8-.9.9-1.5.1-.5 0-.9-.3-1-.3-.1-.5.1-.7.5l-.4.7c-.4.7-.9 1.1-1.8.9-.9-.2-1.3-1.1-1-2.1.1-.6.4-1.1.7-1.4l1 .2c-.4.4-.7.8-.9 1.4-.1.5 0 .8.3.9.3.1.5-.1.7-.4l.5-.7c.5-.8 1-1.1 1.8-.9 1 .2 1.3 1.2 1.1 2.3-.2.7-.5 1.2-.8 1.5l-1.1-.4zM7.6 18.2l5.5.9-.6.9-1.3-.2-1 1.7.9 1-.5.9-3.5-4.3.5-.9zm2 2.5l.6-1.1-1.8-.3 1.2 1.4zM13.1 16.2l1.4 1.3-.7.8-3.8-3.5 1.4-1.6c.7-.8 1.7-.9 2.4-.2.6.6.7 1.2.3 1.9l2.4.3-.8.9-2.3-.4-.3.5zm-.7-.6l.7-.7c.4-.4.3-.8 0-1.1-.3-.3-.7-.3-1.1.1l-.7.7 1.1 1zM16.5 11.5l.2-2.9 1.1-.8-.3 3.3 3.4.9-1.1.8-2.9-.8 1.3 1.9-.8.6-3.1-4.2.9-.6zM18.8 7.3l4-1.9.4.8-1.5.7 1.8 3.9-1 .4-1.8-3.8-1.5.7z"/><path transform="rotate(-16.764 25.698 7.198)" class="st0" d="M25.2 4.6h1.1v5.2h-1.1z"/><path class="st0" d="M28.1 7.7c.5.3 1.1.4 1.7.3.5-.1.9-.3.8-.7 0-.3-.3-.4-.7-.5l-.8-.1c-.8-.1-1.4-.5-1.5-1.3-.1-1 .6-1.6 1.6-1.7.6-.1 1.2 0 1.6.2l.2 1c-.5-.3-1-.4-1.6-.3-.5.1-.8.3-.7.6 0 .3.3.4.7.5l.8.2c.9.2 1.4.6 1.5 1.3.1 1-.6 1.6-1.7 1.8-.7.1-1.3 0-1.7-.2l-.2-1.1zM34.4 5.6l2-2.1 1.3.1-2.3 2.3 2.1 2.9-1.3-.1-1.9-2.5-.1 2.4-1.1-.1.3-5.1h1.1zM43.1 4.8l-.2.9-2.4-.6-.3 1.1 2.2.6-.3.8-2.1-.5-.3 1.2 2.4.6-.3.9-3.4-.8 1.3-5.1zM46.3 9.4l1.6-2.6.9.6-1.6 2.6c-.5.8-.4 1.3.2 1.7.6.4 1.1.2 1.6-.6l1.6-2.6 1 .5-1.6 2.7c-.7 1.2-1.9 1.4-3 .7s-1.4-1.8-.7-3M53 17.2l-.6-.6.6-4.1-2.4 2.4-.7-.7 3.6-3.7.7.7-.6 3.9 2.3-2.3.7.7z"/><path transform="rotate(-36.51 56.305 17.35)" class="st0" d="M53.7 16.8h5.2v1.1h-5.2z"/><path class="st0" d="M56.1 21.8l3.7-4.1.5 1-2.7 2.9 4-.5.5 1-5.5.6zM63.7 27.2l-.9.3-.7-2.4-1.1.3.6 2.2-.9.2-.6-2.1-1.2.3.7 2.4-.9.3-1-3.4 5-1.5zM61 31.1l-1.9.2-.1-1.2 5.2-.4.2 2.1c.1 1.1-.4 1.9-1.5 1.9-.8.1-1.4-.3-1.6-1.1l-1.9 1.5-.1-1.2 1.8-1.4-.1-.4zm.9-.1l.1 1c0 .5.3.8.8.8.4 0 .7-.3.7-.9l-.1-1-1.5.1zM60.6 35.6c-.4.4-.7 1-.8 1.6-.1.5 0 .9.4 1 .3 0 .5-.2.7-.5l.3-.7c.3-.7.8-1.2 1.7-1.1 1 .1 1.4 1 1.2 2-.1.6-.3 1.1-.6 1.5l-1-.1c.4-.4.7-.9.7-1.5.1-.5-.1-.8-.4-.9-.3 0-.5.2-.6.5l-.4.8c-.4.8-.9 1.2-1.7 1.1-1-.1-1.4-1.1-1.3-2.1.1-.7.4-1.3.6-1.6h1.2z"/><path transform="rotate(-74.348 60.766 41.567)" class="st0" d="M60.2 39h1.1v5.2h-1.1z"/><path class="st0" d="M62.6 44.6l-1.8 4-.9-.4.7-1.5-3.9-1.7.5-1 3.9 1.7.6-1.5zM57.7 53.1l-.7-.5 1.4-2-.9-.7-1.3 1.9-.8-.6 1.3-1.8-1-.7-1.4 2-.8-.6 2-2.8 4.3 3zM56.5 54.7l-3.3 3-.6-.7 1.2-1.1-2.9-3.1.8-.7 2.9 3 1.2-1.1zM25.7 41l5.2-3.2-4.6-2.9H14.9c0 .6.1 1.3.2 2H20c.1.5.1 1.1.1 1.1h-4.9c.1.5.2.9.4 1.4H23l2.7 1.6z"/><g><defs><path id="SVGID_3_" d="M76.5 12.6h164.4v43H76.5z"/></defs><clipPath id="SVGID_4_"><use xlink:href="#SVGID_3_" overflow="visible"/></clipPath><path class="st1" d="M87.6 17.3V26c0 1-.2 1.9-.7 2.6-.4.7-1.1 1.3-1.9 1.7-.8.4-1.8.6-3 .6-1.7 0-3.1-.4-4-1.3-1-.9-1.4-2.1-1.4-3.6v-8.6h2.8v8.2c0 1 .2 1.8.6 2.3.4.5 1.1.7 2.1.7.9 0 1.6-.2 2-.7.4-.5.6-1.2.6-2.3v-8.2h2.9zM90.5 17.8c0-.9.5-1.4 1.5-1.4s1.5.5 1.5 1.4c0 .4-.1.8-.4 1-.3.2-.6.4-1.1.4-1 0-1.5-.5-1.5-1.4m2.9 12.9h-2.8V20.5h2.8v10.2zM102.1 30.7h-2.8v-11h-3.6v-2.4h10.1v2.4h-3.7zM123.3 30.7h-1.8l-7.3-11.2h-.1c.1 1.3.1 2.5.1 3.6v7.6h-1.4V17.3h1.8l7.3 11.2h.1c0-.2 0-.7-.1-1.6 0-.9-.1-1.5 0-1.9v-7.7h1.5v13.4zM135.4 25.7c0 1.6-.4 2.9-1.2 3.8-.8.9-2 1.4-3.4 1.4-.9 0-1.7-.2-2.4-.6-.7-.4-1.2-1-1.6-1.8-.4-.8-.6-1.7-.6-2.8 0-1.6.4-2.9 1.2-3.8.8-.9 2-1.4 3.4-1.4s2.5.5 3.3 1.4c.9.9 1.3 2.2 1.3 3.8m-7.7 0c0 1.3.3 2.3.8 2.9.5.7 1.3 1 2.3 1 1 0 1.7-.3 2.3-1 .5-.7.8-1.6.8-2.9 0-1.3-.3-2.2-.8-2.9-.5-.7-1.3-1-2.3-1-1 0-1.7.3-2.2 1-.6.6-.9 1.6-.9 2.9M142.6 20.5c.4 0 .8 0 1.2.1l-.2 1.4c-.4-.1-.8-.1-1.1-.1-.8 0-1.5.3-2.1 1-.6.7-.9 1.5-.9 2.5v5.4H138v-10h1.3l.2 1.9h.1c.4-.7.8-1.2 1.3-1.5.5-.6 1.1-.7 1.7-.7M153.9 20.7v1l-1.9.2c.2.2.3.5.5.8.1.3.2.7.2 1.2 0 1-.3 1.8-1 2.4-.7.6-1.6.9-2.8.9-.3 0-.6 0-.8-.1-.6.3-1 .8-1 1.3 0 .3.1.5.3.6.2.1.6.2 1.2.2h1.8c1.1 0 1.9.2 2.5.7.6.5.9 1.1.9 2 0 1.1-.4 2-1.3 2.5-.9.6-2.2.9-3.9.9-1.3 0-2.3-.2-3-.7-.7-.5-1.1-1.2-1.1-2.1 0-.6.2-1.1.6-1.6.4-.4.9-.7 1.6-.9-.3-.1-.5-.3-.6-.5-.2-.2-.3-.5-.3-.9s.1-.7.3-1c.2-.3.5-.5.9-.8-.5-.2-.9-.6-1.3-1.1-.3-.5-.5-1.1-.5-1.8 0-1.1.3-1.9 1-2.5.7-.6 1.6-.9 2.8-.9.5 0 1 .1 1.4.2h3.5zm-8 11.7c0 .5.2 1 .7 1.2.5.3 1.1.4 2 .4 1.3 0 2.2-.2 2.8-.6.6-.4.9-.9.9-1.6 0-.5-.2-.9-.5-1.1-.3-.2-1-.3-1.9-.3h-1.8c-.7 0-1.2.2-1.6.5-.4.4-.6.8-.6 1.5m.8-8.5c0 .7.2 1.2.6 1.6.4.4.9.5 1.7.5 1.5 0 2.2-.7 2.2-2.2 0-1.5-.8-2.3-2.2-2.3-.7 0-1.3.2-1.6.6-.5.4-.7 1-.7 1.8M160.2 30.9c-1.5 0-2.7-.5-3.5-1.4-.9-.9-1.3-2.2-1.3-3.8 0-1.6.4-2.9 1.2-3.9.8-1 1.9-1.4 3.2-1.4 1.3 0 2.2.4 3 1.2.7.8 1.1 1.9 1.1 3.3v1H157c0 1.2.3 2.1.9 2.7.6.6 1.4.9 2.4.9 1.1 0 2.1-.2 3.2-.7v1.4c-.5.2-1 .4-1.5.5-.6.1-1.1.2-1.8.2m-.4-9.2c-.8 0-1.4.3-1.9.8s-.8 1.2-.8 2.2h5.2c0-1-.2-1.7-.6-2.2-.5-.5-1.1-.8-1.9-.8M172.9 27.9c0 .9-.3 1.7-1 2.2-.7.5-1.7.8-2.9.8-1.3 0-2.4-.2-3.1-.6v-1.4c.5.2 1 .4 1.6.6s1.1.2 1.6.2c.8 0 1.4-.1 1.8-.4.4-.3.6-.6.6-1.2 0-.4-.2-.7-.5-1-.3-.3-1-.6-2-1-.9-.3-1.6-.7-2-.9-.4-.3-.7-.6-.9-.9-.2-.3-.3-.7-.3-1.2 0-.8.3-1.5 1-1.9.7-.5 1.6-.7 2.7-.7s2.1.2 3.2.7l-.5 1.2c-1-.4-1.9-.6-2.7-.6-.7 0-1.3.1-1.6.3-.4.2-.5.5-.5.9 0 .3.1.5.2.7.1.2.4.4.7.5.3.2.9.4 1.8.7 1.2.4 2 .9 2.4 1.3.2.5.4 1.1.4 1.7M82.8 50.8l-.3-1.4h-.1c-.5.6-1 1.1-1.5 1.3-.5.2-1.1.3-1.9.3-1 0-1.8-.3-2.3-.8-.6-.5-.8-1.2-.8-2.2 0-2 1.6-3.1 4.9-3.2l1.7-.1v-.6c0-.8-.2-1.4-.5-1.7-.3-.4-.9-.6-1.6-.6-.8 0-1.8.3-2.8.8l-.6-1.1c.5-.3 1-.5 1.6-.6.6-.2 1.2-.2 1.8-.2 1.2 0 2.1.3 2.7.8.6.5.9 1.4.9 2.6v6.8h-1.2zm-3.4-1.1c.9 0 1.7-.3 2.2-.8.5-.5.8-1.2.8-2.2v-.9l-1.5.1c-1.2 0-2.1.2-2.6.6-.5.3-.8.9-.8 1.6 0 .5.2 1 .5 1.3.3.2.8.3 1.4.3M91.6 40.6c.4 0 .8 0 1.2.1l-.2 1.4c-.4-.1-.8-.1-1.1-.1-.8 0-1.5.3-2.1 1-.6.7-.9 1.5-.9 2.5v5.4H87v-10h1.3l.2 1.9h.1c.4-.7.8-1.2 1.3-1.5.5-.5 1.1-.7 1.7-.7M96.2 45.7c.3-.4.7-.9 1.2-1.5l3.2-3.4h1.8l-4.1 4.3 4.3 5.8h-1.8l-3.5-4.7-1.1 1V51h-1.5V36.6h1.5v9.1zM107.8 49.7c.3 0 .5 0 .8-.1.3 0 .4-.1.6-.1v1.2c-.2.1-.4.1-.7.2-.3.1-.6.1-.9.1-1.9 0-2.9-1-2.9-3.1v-6h-1.4v-.7l1.4-.6.6-2.1h.9v2.3h2.9V42h-2.9v5.9c0 .6.1 1.1.4 1.4.3.3.7.4 1.2.4M111 38.1c0-.3.1-.6.3-.8.2-.2.4-.2.6-.2.2 0 .5.1.6.2.2.2.3.4.3.8 0 .3-.1.6-.3.8-.2.2-.4.3-.6.3-.3 0-.5-.1-.6-.3-.2-.2-.3-.5-.3-.8m1.7 12.7h-1.5v-10h1.5v10zM122.4 48.1c0 .9-.3 1.7-1 2.2-.7.5-1.7.8-2.9.8-1.3 0-2.4-.2-3.1-.6V49l1.5.6c.6.1 1.1.2 1.6.2.8 0 1.4-.1 1.8-.4s.6-.6.6-1.2c0-.4-.2-.7-.5-1-.3-.3-1-.6-2-1-.9-.3-1.6-.7-2-.9-.4-.3-.7-.6-.9-.9-.2-.3-.3-.7-.3-1.2 0-.8.3-1.5 1-1.9.7-.5 1.6-.7 2.7-.7s2.1.2 3.2.7l-.5 1.2c-1-.4-1.9-.6-2.7-.6-.7 0-1.3.1-1.6.3-.4.2-.5.5-.5.9 0 .3.1.5.2.7.1.2.4.4.7.5.3.2.9.4 1.8.7 1.2.4 2 .9 2.4 1.3.2.6.5 1.1.5 1.8M126.3 45.7c.3-.4.7-.9 1.2-1.5l3.2-3.4h1.8l-4.1 4.3 4.3 5.8H131l-3.5-4.7-1.1 1V51h-1.5V36.6h1.5v7.5c-.1.4-.1.9-.1 1.6zM138.9 51c-1.5 0-2.7-.5-3.5-1.4-.9-.9-1.3-2.2-1.3-3.8 0-1.6.4-2.9 1.2-3.9.8-1 1.9-1.4 3.2-1.4 1.3 0 2.2.4 3 1.2.7.8 1.1 1.9 1.1 3.3v1h-6.9c0 1.2.3 2.1.9 2.7.6.6 1.4.9 2.4.9 1.1 0 2.1-.2 3.2-.7v1.4c-.5.2-1 .4-1.5.5-.6.1-1.1.2-1.8.2m-.4-9.1c-.8 0-1.4.3-1.9.8s-.8 1.2-.8 2.2h5.2c0-1-.2-1.7-.6-2.2-.5-.6-1.1-.8-1.9-.8M151.5 40.8v6.5c0 .8.2 1.4.6 1.8.4.4 1 .6 1.7.6 1 0 1.8-.3 2.3-.9.5-.6.7-1.5.7-2.8v-5.3h1.5v10H157l-.2-1.3h-.1c-.3.5-.7.9-1.3 1.1-.6.3-1.2.4-1.9.4-1.2 0-2.1-.3-2.7-.9-.6-.6-.9-1.5-.9-2.8v-6.6h1.6zM168.4 50.8v-6.5c0-.8-.2-1.4-.6-1.8-.4-.4-1-.6-1.7-.6-1 0-1.8.3-2.3.9-.5.6-.7 1.5-.7 2.8v5.3h-1.5v-10h1.2l.2 1.4h.1c.3-.5.7-.9 1.3-1.1.6-.3 1.2-.4 1.9-.4 1.2 0 2.1.3 2.7.9.6.6.9 1.5.9 2.8V51h-1.5zM172.9 38.1c0-.3.1-.6.3-.8.2-.2.4-.2.6-.2.2 0 .5.1.6.2s.3.4.3.8c0 .3-.1.6-.3.8-.2.2-.4.3-.6.3-.3 0-.5-.1-.6-.3-.2-.2-.3-.5-.3-.8m1.6 12.7H173v-10h1.5v10zM180 50.8l-3.8-10h1.6l2.2 5.9c.5 1.4.8 2.3.9 2.7h.1c.1-.3.3-1 .6-2 .4-1 1.2-3.2 2.4-6.6h1.6l-3.8 10H180zM191.4 51c-1.5 0-2.7-.5-3.5-1.4-.9-.9-1.3-2.2-1.3-3.8 0-1.6.4-2.9 1.2-3.9.8-1 1.9-1.4 3.2-1.4 1.3 0 2.3.4 3 1.2.7.8 1.1 1.9 1.1 3.3v1h-6.9c0 1.2.3 2.1.9 2.7.6.6 1.4.9 2.4.9 1.1 0 2.1-.2 3.2-.7v1.4c-.5.2-1 .4-1.5.5-.6.1-1.1.2-1.8.2m-.4-9.1c-.8 0-1.4.3-1.9.8s-.8 1.2-.8 2.2h5.2c0-1-.2-1.7-.6-2.2-.5-.6-1.1-.8-1.9-.8M202.2 40.6c.4 0 .8 0 1.2.1l-.2 1.4c-.4-.1-.8-.1-1.1-.1-.8 0-1.5.3-2.1 1-.6.7-.9 1.5-.9 2.5v5.4h-1.5v-10h1.3l.2 1.9h.1c.4-.7.8-1.2 1.3-1.5.5-.5 1.1-.7 1.7-.7M211.8 48.1c0 .9-.3 1.7-1 2.2-.7.5-1.7.8-2.9.8-1.3 0-2.4-.2-3.1-.6V49c.5.2 1 .4 1.6.6.6.1 1.1.2 1.6.2.8 0 1.4-.1 1.8-.4s.6-.6.6-1.2c0-.4-.2-.7-.5-1-.3-.3-1-.6-2-1-.9-.3-1.6-.7-2-.9-.4-.3-.7-.6-.9-.9-.2-.3-.3-.7-.3-1.2 0-.8.3-1.5 1-1.9.7-.5 1.6-.7 2.7-.7s2.1.2 3.2.7l-.5 1.2c-1-.4-1.9-.6-2.7-.6-.7 0-1.3.1-1.6.3-.4.2-.5.5-.5.9 0 .3.1.5.2.7.1.2.4.4.7.5.3.2.9.4 1.8.7 1.2.4 2 .9 2.4 1.3.2.6.4 1.1.4 1.8M214.1 38.1c0-.3.1-.6.3-.8.2-.2.4-.2.6-.2.2 0 .5.1.6.2s.3.4.3.8c0 .3-.1.6-.3.8-.2.2-.4.3-.6.3-.3 0-.5-.1-.6-.3-.2-.2-.3-.5-.3-.8m1.7 12.7h-1.5v-10h1.5v10zM222.2 49.7c.3 0 .5 0 .8-.1.2 0 .4-.1.6-.1v1.2c-.2.1-.4.1-.7.2-.3.1-.6.1-.9.1-1.9 0-2.9-1-2.9-3.1v-6h-1.4v-.7l1.4-.6.6-2.1h.9v2.3h2.9V42h-2.9v5.9c0 .6.1 1.1.4 1.4.3.3.7.4 1.2.4M229.8 51c-1.5 0-2.7-.5-3.5-1.4-.9-.9-1.3-2.2-1.3-3.8 0-1.6.4-2.9 1.2-3.9.8-1 1.9-1.4 3.2-1.4 1.3 0 2.3.4 3 1.2.7.8 1.1 1.9 1.1 3.3v1h-6.9c0 1.2.3 2.1.9 2.7.6.6 1.4.9 2.4.9 1.1 0 2.1-.2 3.2-.7v1.4c-.5.2-1 .4-1.5.5-.5.1-1.1.2-1.8.2m-.4-9.1c-.8 0-1.4.3-1.9.8s-.8 1.2-.8 2.2h5.2c0-1-.2-1.7-.6-2.2-.5-.6-1.1-.8-1.9-.8M239.3 49.7c.3 0 .5 0 .8-.1.2 0 .4-.1.6-.1v1.2c-.2.1-.4.1-.7.2-.3.1-.6.1-.9.1-1.9 0-2.9-1-2.9-3.1v-6h-1.4v-.7l1.4-.6.6-2.1h.9v2.3h2.9V42h-2.9v5.9c0 .6.1 1.1.4 1.4.3.3.7.4 1.2.4M35.1 52.4c-.4-.2-.6-.7-.4-1.2.2-.5.8-.6 1.2-.4.4.2.6.7.4 1.2-.2.5-.8.7-1.2.4M39.6 53.2l.4-2.1.7.1-.4 2c-.1.6.1.9.6 1 .5.1.8-.2.9-.8l.4-2 .7.1-.4 2.1c-.2 1-.9 1.4-1.7 1.2-.9 0-1.4-.6-1.2-1.6M43.9 51.7h.7v3.5h-.7zM45.6 51.7l3-.6.2.7-1.2.2.5 2.9-.7.1-.5-2.9-1.2.2zM53.2 52.5c-.4.2-1 .1-1.2-.4-.2-.5 0-1 .4-1.2.4-.2 1-.1 1.2.4.3.4.1.9-.4 1.2M51.5 27.5h4c-.2-.4-.4-.7-.7-1.1H52c-.2-.3-.4-.7-.4-.7h2.6c-.4-.4-.8-.9-1.2-1.2h-3.1l-3.2 2 2.8 2.3 2-1.3z"/><path class="st1" d="M33.1 31.5c-.3.3-.7.8-.7 1.2 0 .2.1.4.3.4h2.8l.5.8h14.1l.7-1.1h6.3c0-.4-.1-.8-.2-1.2h-3.4c0-.2-.1-.5-.1-.7h3.3c-.1-.5-.3-1-.5-1.5H49l-6-5h-7.6l-1.2 1.2h2.6c-.1.2-.3.5-.4.7h-2.8c-.3.4-.5.7-.7 1.1h7.4l1.6 1.8h-4.6c-1.7.1-2.9.8-4.2 2.3m7.1-1.2c.5 0 .9.4.9.9s-.4.9-.9.9-.9-.4-.9-.9.4-.9.9-.9m-1.8 2.4h-1.9l-.4-.6H34c.7-1 1.9-1.8 3-1.8h1.5v2.4zM57.1 36.1c.1-.4.1-.9.1-1.3H46.7l-7.8 4.8h-6.6c.2.5.4.9.7 1.3h3c.1.3.4.7.4.7h-2.8c.3.4.6.8 1 1.2h3.3l.7.9h12.3l.4-.7h2.5c.2 0 .3-.2.3-.3 0-.3-.4-.8-.7-1.1-1-1.2-2.1-2-3.9-2h-2.6l1.9-1.8h8c.1-.3.2-.6.3-1h-3.3c0-.3.1-.5.1-.7h3.2zm-8.7 4.4h1.5c.9 0 2 .8 2.7 1.7h-2l-.3.6h-1.9v-2.3zm-.9.9c0 .5-.4.9-.9.9s-.9-.4-.9-.9.4-.9.9-.9.9.4.9.9M31 45.8l.5.4-.5 2.9 1.7-1.8.5.5-2.5 2.6-.5-.4.4-2.8-1.5 1.7-.5-.5zM29.7 43.8c.6.8.3 1.8-.6 2.4-.9.6-1.9.4-2.5-.4-.6-.8-.3-1.8.6-2.4.9-.6 1.9-.4 2.5.4m-2.6 1.7c.3.5.9.5 1.5.1s.8-1 .5-1.4c-.3-.5-.9-.5-1.5-.1-.6.3-.8.9-.5 1.4M26.9 41.6l1.2-.5.3.7-3.4 1.3-.5-1.4c-.3-.7-.1-1.3.6-1.6.5-.2 1-.1 1.3.4l.9-1.4.3.8-.9 1.3.2.4zm-.6.2l-.3-.7c-.1-.3-.4-.5-.7-.3-.3.1-.4.4-.3.7l.3.6 1-.3zM26 36.3l-.5.1.1.6-.6.1-.2-1.3 1.5-.2c.4.3.6.7.7 1.2.2 1.1-.5 1.9-1.5 2-1.1.2-2-.5-2.1-1.5-.1-.4 0-.8.1-1.1l.7-.1c-.2.3-.3.7-.2 1.1.1.6.6 1 1.3.9.7-.1 1.1-.6 1-1.2l-.3-.6M23.1 32.1h.7l-.1 1.7h.8l.1-1.5h.6v1.5l.8.1.1-1.7h.6l-.1 2.4-3.5-.1zM25.9 31.2c.3-.3.5-.6.6-1 .1-.4 0-.6-.2-.7-.2-.1-.3.1-.5.3l-.3.5c-.3.5-.6.8-1.2.6-.6-.1-.9-.8-.7-1.5.1-.4.3-.8.5-1l.7.2c-.3.3-.5.5-.6 1-.1.3 0 .6.2.6s.3-.1.5-.3l.3-.5c.3-.5.7-.7 1.2-.6.7.2.9.8.7 1.6-.1.5-.3.8-.6 1.1l-.6-.3zM26.1 23.2l3.8.6-.4.7-.9-.2-.7 1.2.6.7-.4.6-2.4-3 .4-.6zm1.4 1.7l.4-.8-1.2-.1.8.9zM29.9 21.8l1 .9-.5.5-2.6-2.4 1-1.1c.5-.6 1.1-.7 1.7-.2.4.4.5.9.2 1.3l1.7.2-.6.6-1.6-.2-.3.4zm-.5-.4l.5-.5c.3-.3.2-.6 0-.8-.2-.2-.5-.2-.8.1l-.5.5.8.7zM32.3 18.6l.1-2 .7-.5-.2 2.2 2.4.6-.8.6-2-.6.9 1.4-.6.4-2.1-2.9.7-.5zM33.8 15.7l2.8-1.3.3.6-1.1.4 1.3 2.7-.7.3-1.3-2.6-1 .5z"/><path transform="rotate(-16.739 38.589 15.621)" class="st1" d="M38.2 13.8h.7v3.6h-.7z"/><path class="st1" d="M40.3 16c.4.2.8.3 1.2.2.4-.1.6-.2.6-.5 0-.2-.2-.3-.5-.4H41c-.5-.1-.9-.3-1-.9-.1-.7.4-1.1 1.1-1.2.4-.1.8 0 1.1.1l.1.7c-.3-.2-.7-.3-1.1-.2-.3 0-.5.2-.5.4s.2.3.4.3l.6.1c.6.1.9.4 1 .9.1.7-.4 1.1-1.2 1.2-.5.1-.9 0-1.2-.1V16zM44.6 14.5l1.4-1.4h.8l-1.5 1.7 1.4 1.9h-.9L44.5 15v1.6l-.8-.1.2-3.5h.7zM50.6 14l-.2.6-1.6-.4-.2.7 1.5.4-.2.6-1.5-.3-.2.8 1.7.4-.2.6-2.3-.6.8-3.4zM52.8 17.2l1.1-1.8.6.4-1.1 1.8c-.3.5-.2.9.2 1.2.4.2.8.1 1.1-.4l1.1-1.8.6.4-1.1 1.8c-.5.8-1.3 1-2 .5-.8-.6-1-1.3-.5-2.1M57.4 22.5l-.4-.4.4-2.9-1.6 1.8-.5-.5 2.5-2.6.5.5-.5 2.7 1.6-1.6.5.5z"/><path transform="rotate(-36.501 59.701 22.624)" class="st1" d="M57.9 22.2h3.6v.7h-3.6z"/><path class="st1" d="M59.5 25.7l2.6-2.9.4.7-1.9 2.1 2.7-.4.4.7-3.8.4zM64.8 29.4l-.6.2-.5-1.6-.8.2.5 1.5-.6.1-.5-1.4-.8.2.5 1.6-.6.2-.7-2.3 3.4-1zM62.9 32.1l-1.3.1-.1-.7 3.6-.3.1 1.5c.1.7-.3 1.3-1 1.3-.6 0-1-.2-1.1-.7l-1.3 1-.1-.8 1.3-1-.1-.4zm.6-.1l.1.7c0 .4.2.5.5.5s.5-.2.5-.6l-.1-.6h-1zM62.7 35.2c-.3.3-.5.7-.5 1.1 0 .4 0 .6.3.7.2 0 .3-.1.5-.4l.2-.5c.2-.5.6-.8 1.1-.7.7.1.9.7.9 1.4-.1.4-.2.8-.4 1l-.8-.1c.3-.3.5-.6.5-1 0-.3 0-.6-.3-.6-.2 0-.3.1-.4.3l-.2.6c-.3.6-.6.8-1.2.7-.7-.1-1-.7-.9-1.5.1-.5.3-.9.4-1.1l.8.1z"/><path transform="rotate(-74.383 62.769 39.316)" class="st1" d="M62.4 37.5h.7v3.6h-.7z"/><path class="st1" d="M64 41.4l-1.2 2.8-.6-.3.5-1-2.7-1.2.3-.7 2.7 1.2.4-1.1zM60.7 47.3l-.5-.4.9-1.4-.6-.4-.9 1.2-.5-.3.9-1.3-.7-.5-1 1.4-.5-.4 1.4-1.9 2.9 2zM59.8 48.4l-2.2 2.1-.5-.5.9-.8-2-2.1.5-.5 2 2.1.8-.8zM38.6 38.9l3.6-2.2-3.2-2h-7.9c0 .4.1.9.1 1.3h3.4c0 .3.1.7.1.7h-3.3c.1.3.2.7.3 1h5.1l1.8 1.2z"/></g></svg>