<svg id="Layer_1" xmlns="http://www.w3.org/2000/svg" xmlns:xlink="http://www.w3.org/1999/xlink" viewBox="0 0 197.3 68"><style>.st0{clip-path:url(#SVGID_2_)}.st1{clip-path:url(#SVGID_4_)}</style><defs><path id="SVGID_1_" d="M2.8 17h55v34h-55z"/></defs><clipPath id="SVGID_2_"><use xlink:href="#SVGID_1_" overflow="visible"/></clipPath><path class="st0" d="M66.1 17.6h1.6v6.2c0 1.2.6 1.9 1.9 1.9 1.3 0 1.9-.7 1.9-1.8v-6.3h1.6v6.3c0 2-1.4 3.3-3.5 3.3s-3.5-1.2-3.5-3.3v-6.3zM75 19.9h1.5v.7c.4-.5 1.1-.9 1.9-.9 1.6 0 2.5 1 2.5 2.6v4.6h-1.5v-4.2c0-1-.4-1.6-1.4-1.6-.9 0-1.5.6-1.5 1.5V27H75v-7.1zM82.9 17.2h1.6v1.5h-1.6v-1.5zm0 2.7h1.5V27h-1.5v-7.1zM85.7 19.9h1.6l1.9 4.9 1.9-4.9h1.5l-2.8 7h-1.3zM99.4 25.5c-.5.9-1.4 1.7-2.9 1.7-1.9 0-3.3-1.4-3.3-3.7 0-2.3 1.4-3.7 3.3-3.7 1.8 0 3.2 1.4 3.2 3.7v.5h-5c0 1.2.6 1.9 1.8 1.9 1.1 0 1.6-.7 1.9-1.2l1 .8zm-1.3-2.8c-.1-.9-.6-1.7-1.7-1.7s-1.7.9-1.7 1.7h3.4zM101.1 19.9h1.4v.8c.3-.5.9-.9 1.5-.9.3 0 .5.1.6.1l-.2 1.5c-.1 0-.3-.1-.6-.1-.8 0-1.2.5-1.2 1.8V27h-1.5v-7.1zM106.8 24.2c.1 1 .7 1.6 1.7 1.6s1.5-.4 1.5-.9c0-.6-.4-.7-2-1.1-1.6-.5-2.4-1-2.4-2.1s.9-2.1 2.6-2.1c1.7 0 2.6.9 2.9 2.1l-1.3.4c-.2-.7-.6-1.2-1.6-1.2-.8 0-1.2.4-1.2.8 0 .5.3.6 2.1 1.1 1.8.5 2.2 1.2 2.2 2.2 0 1-.8 2.2-2.8 2.2-2.1 0-3-1.3-3.2-2.6l1.5-.4zM112.9 17.2h1.6v1.5h-1.6v-1.5zm0 2.7h1.5V27h-1.5v-7.1zM116.8 21.2h-1.1v-1.3h1.1v-1.7h1.4v1.7h1.8v1.3h-1.8v3.3c0 .7.1 1.1.9 1.1h.6v1.5h-.7c-1.8 0-2.3-.8-2.3-2.4v-3.5zM127.1 25.5c-.5.9-1.4 1.7-2.9 1.7-1.9 0-3.3-1.4-3.3-3.7 0-2.3 1.4-3.7 3.3-3.7 1.8 0 3.2 1.4 3.2 3.7v.5h-5c0 1.2.6 1.9 1.8 1.9 1.1 0 1.6-.7 1.9-1.2l1 .8zm-1.3-2.8c-.1-.9-.6-1.7-1.7-1.7s-1.7.9-1.7 1.7h3.4zM129.2 21.2h-1.1v-1.3h1.1v-1.7h1.4v1.7h1.8v1.3h-1.8v3.3c0 .7.1 1.1.9 1.1h.6v1.5h-.7c-1.8 0-2.3-.8-2.3-2.4v-3.5zM139.5 25.5c-.5.9-1.4 1.7-2.9 1.7-1.9 0-3.3-1.4-3.3-3.7 0-2.3 1.4-3.7 3.3-3.7 1.8 0 3.2 1.4 3.2 3.7v.5h-5c0 1.2.6 1.9 1.8 1.9 1.1 0 1.6-.7 1.9-1.2l1 .8zm-1.3-2.8c-.1-.9-.6-1.7-1.7-1.7s-1.7.9-1.7 1.7h3.4zM141.6 21.2h-1.1v-1.3h1.1v-1.7h1.4v1.7h1.8v1.3H143v3.3c0 .7.1 1.1.9 1.1h.6v1.5h-.7c-1.8 0-2.3-.8-2.3-2.4v-3.5zM66.3 32.6h1.6v1.5h-1.6v-1.5zm0 2.6h1.5v7.1h-1.5v-7.1zM73.2 38.8c.2 1.5.7 2.3 2.1 2.3 1.2 0 1.8-.5 1.8-1.3s-.3-1.1-2.5-1.7c-2-.6-2.7-1.5-2.7-2.7 0-1.4 1.1-2.6 3.1-2.6 1.7 0 3.1.8 3.4 2.6l-1.5.4c-.2-.8-.7-1.5-1.9-1.5-1.1 0-1.5.5-1.5 1.1 0 .6.3.8 2.4 1.5 2.3.8 2.9 1.5 2.9 2.8 0 1.6-1.3 2.8-3.4 2.8-2.1 0-3.5-1.1-3.8-3.4l1.6-.3zM80.6 41.4c-.5-.6-.8-1.5-.8-2.6 0-2.4 1.5-3.7 3.3-3.7.7 0 1.4.2 2 .7l.5-.7.5.4-.5.7c.5.6.8 1.5.8 2.6 0 2.4-1.4 3.7-3.3 3.7-.8 0-1.5-.2-2-.7l-.5.6-.5-.4.5-.6zm3.6-4.6c-.3-.3-.7-.4-1.1-.4-1 0-1.8.8-1.8 2.4 0 .6.1 1 .3 1.4l2.6-3.4zM82 40.7c.3.3.7.4 1.1.4 1 0 1.8-.8 1.8-2.4 0-.6-.1-1-.3-1.4L82 40.7zM88 35.2h1.4v.8c.3-.5.9-.9 1.5-.9.3 0 .5.1.6.1l-.2 1.5c-.1 0-.3-.1-.6-.1-.8 0-1.2.5-1.2 1.8v3.9H88v-7.1zM96.9 41.6c-.1.1-.7.9-2 .9-1.8 0-2.5-1-2.5-2.1 0-1.2.7-1.8 2.4-2.2 1.5-.4 1.9-.5 1.9-1.1 0-.5-.4-.8-1.3-.8-1.1 0-1.4.6-1.6 1.2l-1.3-.5c.3-1.1 1.2-2.1 2.8-2.1 1.6 0 2.9.8 2.9 2.7v4.6h-1.3v-.6zm-3.1-1.3c0 .6.4.9 1.2.9 1.2 0 1.7-.6 1.7-1.2v-1.4c-.1.2-.2.4-1.6.7-1.1.3-1.3.7-1.3 1M99.9 35.2h1.5v4.4c0 1.1.4 1.4 1.2 1.4.9 0 1.5-.5 1.5-1.5v-4.3h1.5v7.1h-1.5v-.7c-.2.2-.7.9-1.8.9-1.7 0-2.4-1-2.4-2.7v-4.6zM108.4 39.6c.1 1 .7 1.6 1.7 1.6s1.5-.4 1.5-.9c0-.6-.4-.7-2-1.1-1.6-.5-2.4-1-2.4-2.1s.9-2.1 2.6-2.1c1.7 0 2.6.9 2.9 2.1l-1.3.4c-.2-.7-.6-1.2-1.6-1.2-.8 0-1.2.4-1.2.8 0 .5.3.6 2.1 1.1 1.8.5 2.2 1.2 2.2 2.2 0 1-.8 2.2-2.8 2.2-2.1 0-3-1.3-3.2-2.6l1.5-.4zM114.8 36.5h-1.1v-1.3h1.1v-1.7h1.4v1.7h1.8v1.3h-1.8v3.3c0 .7.1 1.1.9 1.1h.6v1.5h-.7c-1.8 0-2.3-.8-2.3-2.4v-3.5zM119.6 37.3h4.4v1.2h-4.4zM126.3 33h1.7l3.7 6.6V33h1.6v9.3h-1.6l-3.8-6.6v6.6h-1.6zM134.9 38.8c0-2.4 1.5-3.7 3.3-3.7 1.7 0 3.3 1.3 3.3 3.7 0 2.4-1.4 3.7-3.3 3.7s-3.3-1.3-3.3-3.7m5 0c0-1.5-.7-2.4-1.8-2.4-1 0-1.8.8-1.8 2.4 0 1.6.7 2.4 1.8 2.4 1.1-.1 1.8-.9 1.8-2.4M143 35.2h1.4v.8c.3-.5.9-.9 1.5-.9.3 0 .5.1.6.1l-.2 1.5c-.1 0-.3-.1-.6-.1-.8 0-1.2.5-1.2 1.8v3.9H143v-7.1zM153.5 40.9c-.5.9-1.4 1.7-2.9 1.7-1.9 0-3.3-1.4-3.3-3.7 0-2.3 1.4-3.7 3.3-3.7 1.8 0 3.2 1.4 3.2 3.7v.5h-5c0 1.2.6 1.9 1.8 1.9 1.1 0 1.6-.7 1.9-1.2l1 .8zm-1.3-2.8c-.1-.9-.6-1.7-1.7-1.7s-1.7.9-1.7 1.7h3.4zM156.5 43c.3.7.8 1.2 1.8 1.2.9 0 1.6-.5 1.6-1.6v-.9c-.3.4-.9.9-1.8.9-1.8 0-3.2-1.4-3.2-3.7s1.5-3.7 3.2-3.7c.9 0 1.6.4 1.9.9v-.7h1.5v7.1c0 2.1-1.3 3.2-3.1 3.2-1.5 0-2.5-.8-2.9-1.8l1-.9zm3.4-5.1c0-.8-.6-1.5-1.6-1.5-1.1 0-1.9.8-1.9 2.4s.8 2.4 1.9 2.4c1 0 1.6-.7 1.6-1.5v-1.8zM2.8 17.6h5.5V38c0 2.7.2 4.7 1.4 6.8 1.5 2.8 4.2 4.4 8.5 4.4 6.9 0 9.1-3.6 9.1-6.7 0-4.1-5.5-6-10.6-8.4-4.6-2.1-5.6-5.6-4.9-9.6.8-4.1 4.6-7.5 11.2-7.5 4.7 0 7.2.5 10.2.9l17.7 23.3V17.6h6.4v1.7h-4.4v31.4h-1.6L32 25.3v9.6c-.5-.6-1.1-1.3-2-1.9V22.5c-.6-2.1-2.7-3.8-6.9-4-3.4-.1-6.5 1.5-7 5-.7 4.6 3.4 5.7 8.7 8.3 5.8 2.8 7.3 5.6 7.3 8.7C32.1 45 27.3 51 18.2 51c-5 0-9.1-1.5-11.8-4.2-2.9-3-3.5-5.5-3.5-10.2v-19z"/><g><defs><path id="SVGID_3_" d="M76.5 17h117.9v40.4H76.5z"/></defs><clipPath id="SVGID_4_"><use xlink:href="#SVGID_3_" overflow="visible"/></clipPath><path class="st1" d="M76.5 17.5h2.1v8.4c0 1.6.8 2.5 2.5 2.5s2.6-1 2.6-2.5v-8.4h2.1V26c0 2.7-1.9 4.4-4.7 4.4-2.8 0-4.6-1.6-4.6-4.4v-8.5zM88.4 20.6h2v.9c.5-.6 1.5-1.2 2.6-1.2 2.1 0 3.4 1.3 3.4 3.6v6.2h-2v-5.7c0-1.4-.5-2.2-1.9-2.2-1.3 0-2.1.8-2.1 2v5.9h-2v-9.5zM99 17h2.1v2H99v-2zm.1 3.6h2.1v9.5h-2.1v-9.5zM102.6 20.6h2.2l2.5 6.6h.1l2.5-6.6h2.1l-3.8 9.5h-1.7zM121.2 28.2c-.7 1.2-1.9 2.2-4 2.2-2.6 0-4.5-1.9-4.5-5s1.9-5 4.4-5c2.5 0 4.3 1.9 4.3 5v.6h-6.7c.1 1.5.9 2.6 2.4 2.6s2.1-1 2.5-1.6l1.6 1.2zm-1.7-3.8c-.1-1.3-.8-2.3-2.3-2.3-1.5 0-2.2 1.2-2.3 2.3h4.6zM123.5 20.6h1.9v1c.4-.7 1.2-1.2 2-1.2.3 0 .6.1.8.2l-.3 2c-.2-.1-.4-.1-.8-.1-1.1 0-1.7.7-1.7 2.4v5.3h-2v-9.6zM131.1 26.5c.2 1.4 1 2.2 2.3 2.2 1.3 0 2-.5 2-1.2 0-.8-.6-.9-2.6-1.5-2.2-.6-3.2-1.3-3.2-2.8 0-1.4 1.2-2.8 3.5-2.8s3.5 1.2 3.9 2.8l-1.7.5c-.3-.9-.9-1.6-2.2-1.6-1.1 0-1.6.5-1.6 1 0 .6.4.8 2.8 1.5s3 1.6 3 3c0 1.3-1.1 2.9-3.8 2.9-2.8 0-4-1.7-4.2-3.5l1.8-.5zM139.3 17h2.1v2h-2.1v-2zm0 3.6h2.1v9.5h-2.1v-9.5zM144.7 22.4h-1.4v-1.8h1.5v-2.3h1.9v2.3h2.4v1.8h-2.4v4.4c0 1 .2 1.4 1.2 1.4h.8v2h-.9c-2.4 0-3.1-1.1-3.1-3.2v-4.6zM158.7 28.2c-.7 1.2-1.9 2.2-4 2.2-2.6 0-4.5-1.9-4.5-5s1.9-5 4.4-5c2.5 0 4.3 1.9 4.3 5v.6h-6.7c.1 1.5.9 2.6 2.4 2.6s2.1-1 2.5-1.6l1.6 1.2zm-1.8-3.8c-.1-1.3-.8-2.3-2.3-2.3-1.5 0-2.2 1.2-2.3 2.3h4.6zM161.5 22.4H160v-1.8h1.5v-2.3h1.9v2.3h2.4v1.8h-2.4v4.4c0 1 .2 1.4 1.2 1.4h.8v2h-.9c-2.4 0-3.1-1.1-3.1-3.2v-4.6zM175.5 28.2c-.7 1.2-1.9 2.2-4 2.2-2.6 0-4.5-1.9-4.5-5s1.9-5 4.4-5c2.5 0 4.3 1.9 4.3 5v.6H169c.1 1.5.9 2.6 2.4 2.6s2.1-1 2.5-1.6l1.6 1.2zm-1.8-3.8c-.1-1.3-.8-2.3-2.3-2.3-1.5 0-2.2 1.2-2.3 2.3h4.6zM178.3 22.4h-1.4v-1.8h1.5v-2.3h1.9v2.3h2.4v1.8h-2.4v4.4c0 1 .2 1.4 1.2 1.4h.8v2h-.9c-2.4 0-3.1-1.1-3.1-3.2v-4.6zM76.8 37.7h2.1v2h-2.1v-2zm0 3.6h2.1v9.5h-2.1v-9.5zM86.1 46.1c.3 2 .9 3 2.8 3 1.5 0 2.4-.7 2.4-1.7s-.4-1.4-3.3-2.3c-2.7-.8-3.7-2-3.7-3.6 0-1.8 1.5-3.5 4.1-3.5 2.2 0 4.2 1.1 4.6 3.5l-2 .4c-.3-1.1-.9-2-2.5-2-1.4 0-2.1.7-2.1 1.5s.4 1.1 3.2 2c3 1 3.8 2 3.8 3.8 0 2.1-1.7 3.8-4.6 3.8-2.9 0-4.7-1.5-5.1-4.5l2.4-.4zM96 49.6c-.7-.8-1.1-2-1.1-3.5 0-3.3 2.1-5 4.4-5 1 0 1.9.3 2.6.9l.7-.9.7.6-.7.9c.7.8 1.1 2 1.1 3.5 0 3.3-1.9 5-4.4 5-1 0-2-.3-2.7-.9l-.7.9-.7-.6.8-.9zm4.8-6.1c-.4-.4-.9-.6-1.5-.6-1.3 0-2.4 1.1-2.4 3.2 0 .8.1 1.4.4 1.9l3.5-4.5zm-3 5.2c.4.4.9.6 1.5.6 1.4 0 2.4-1.1 2.4-3.2 0-.8-.1-1.4-.4-1.9l-3.5 4.5zM105.9 41.3h1.9v1c.4-.7 1.2-1.2 2-1.2.3 0 .6.1.8.2l-.3 2c-.2-.1-.4-.1-.8-.1-1.1 0-1.7.7-1.7 2.4v5.3h-2.1v-9.6zM112.5 49.6c-.7-.8-1.1-2-1.1-3.5 0-3.3 2.1-5 4.4-5 1 0 1.9.3 2.6.9l.7-.9.7.6-.7.9c.7.8 1.1 2 1.1 3.5 0 3.3-1.9 5-4.4 5-1 0-2-.3-2.7-.9l-.7.9-.7-.6.8-.9zm4.8-6.1c-.4-.4-.9-.6-1.5-.6-1.3 0-2.4 1.1-2.4 3.2 0 .8.1 1.4.4 1.9l3.5-4.5zm-3 5.2c.4.4.9.6 1.5.6 1.4 0 2.4-1.1 2.4-3.2 0-.8-.1-1.4-.4-1.9l-3.5 4.5zM123.5 47.2c.2 1.4 1 2.2 2.3 2.2 1.3 0 2-.5 2-1.2 0-.8-.6-.9-2.6-1.5-2.2-.6-3.2-1.3-3.2-2.8 0-1.4 1.2-2.8 3.5-2.8s3.5 1.2 3.9 2.8l-1.7.5c-.3-.9-.9-1.6-2.2-1.6-1.1 0-1.6.5-1.6 1 0 .6.4.8 2.8 1.5s3 1.6 3 2.9c0 1.3-1.1 2.9-3.8 2.9-2.8 0-4-1.7-4.2-3.5l1.8-.4zM132 43.1h-1.4v-1.8h1.5V39h1.9v2.3h2.4v1.8H134v4.4c0 1 .2 1.4 1.2 1.4h.8v2h-.9c-2.4 0-3.1-1.1-3.1-3.2v-4.6zM138.5 44h5.3v1.6h-5.3zM146.7 38.2h2.2l5 8.9v-8.9h2.2v12.6h-2.2l-5.1-8.9v8.9h-2.1zM158.3 46.1c0-3.3 2.1-5 4.4-5 2.3 0 4.4 1.8 4.4 5 0 3.3-1.9 5-4.4 5-2.4 0-4.4-1.8-4.4-5m6.8 0c0-2.1-1-3.2-2.4-3.2s-2.4 1.1-2.4 3.2 1 3.2 2.4 3.2 2.4-1.2 2.4-3.2M169.2 41.3h1.9v1c.4-.7 1.2-1.2 2-1.2.3 0 .6.1.8.2l-.3 2c-.2-.1-.4-.1-.8-.1-1.1 0-1.7.7-1.7 2.4v5.3H169v-9.6zM176.9 51.7c.5 1 1.1 1.7 2.4 1.7 1.3 0 2.1-.7 2.1-2.2V50c-.4.6-1.3 1.2-2.5 1.2-2.4 0-4.3-1.8-4.3-5s2-5 4.2-5c1.3 0 2.1.6 2.6 1.2v-.9h2v9.6c0 2.8-1.8 4.3-4.2 4.3-2.1 0-3.4-1.1-3.9-2.4l1.6-1.3zm4.5-6.7c0-1.1-.8-2.1-2.2-2.1-1.5 0-2.5 1.1-2.5 3.2s1 3.2 2.5 3.2c1.3 0 2.2-.9 2.2-2V45zM193.9 48.9c-.7 1.2-1.9 2.2-4 2.2-2.6 0-4.5-1.9-4.5-5s1.9-5 4.4-5c2.5 0 4.3 1.9 4.3 5v.6h-6.7c.1 1.5.9 2.6 2.4 2.6s2.1-1 2.5-1.6l1.6 1.2zm-1.7-3.8c-.1-1.3-.8-2.3-2.3-2.3-1.5 0-2.2 1.2-2.3 2.3h4.6z"/></g></svg>